<svg xmlns="http://www.w3.org/2000/svg" xmlns:xlink="http://www.w3.org/1999/xlink" width="1080" zoomAndPan="magnify" viewBox="0 0 810 809.999993" height="1080" preserveAspectRatio="xMidYMid meet" version="1.0"><defs><clipPath id="31b906879d"><path d="M 38 25.066406 L 794 25.066406 L 794 748 L 38 748 Z M 38 25.066406 " clip-rule="nonzero"/></clipPath></defs><g clip-path="url(#31b906879d)"><path fill="#ffffff" d="M 468.25 245.789062 C 469.777344 245.789062 471.300781 245.714844 472.820312 245.566406 C 474.339844 245.414062 475.847656 245.191406 477.34375 244.894531 C 478.84375 244.59375 480.324219 244.222656 481.785156 243.78125 C 483.246094 243.335938 484.679688 242.824219 486.089844 242.238281 C 487.503906 241.652344 488.882812 241 490.226562 240.28125 C 491.574219 239.5625 492.882812 238.777344 494.152344 237.925781 C 495.421875 237.078125 496.648438 236.167969 497.828125 235.199219 C 499.007812 234.230469 500.136719 233.207031 501.21875 232.125 C 502.296875 231.046875 503.320312 229.914062 504.289062 228.734375 C 505.257812 227.554688 506.167969 226.328125 507.015625 225.058594 C 507.863281 223.785156 508.648438 222.476562 509.367188 221.128906 C 510.085938 219.78125 510.738281 218.402344 511.324219 216.992188 C 511.90625 215.582031 512.421875 214.144531 512.863281 212.679688 C 513.308594 211.21875 513.679688 209.738281 513.976562 208.242188 C 514.273438 206.742188 514.5 205.230469 514.648438 203.710938 C 514.796875 202.191406 514.871094 200.667969 514.871094 199.140625 L 514.871094 157.421875 C 514.871094 155.890625 514.796875 154.367188 514.648438 152.847656 C 514.5 151.328125 514.273438 149.816406 513.976562 148.320312 C 513.679688 146.820312 513.308594 145.339844 512.863281 143.878906 C 512.421875 142.417969 511.90625 140.980469 511.324219 139.566406 C 510.738281 138.15625 510.085938 136.777344 509.367188 135.429688 C 508.648438 134.082031 507.863281 132.773438 507.015625 131.503906 C 506.167969 130.230469 505.257812 129.007812 504.289062 127.824219 C 503.320312 126.644531 502.296875 125.515625 501.21875 124.433594 C 500.136719 123.351562 499.007812 122.328125 497.828125 121.359375 C 496.648438 120.390625 495.421875 119.480469 494.152344 118.632812 C 492.882812 117.78125 491.574219 117 490.226562 116.277344 C 488.882812 115.558594 487.503906 114.90625 486.089844 114.320312 C 484.679688 113.734375 483.246094 113.222656 481.785156 112.777344 C 480.324219 112.335938 478.84375 111.964844 477.34375 111.667969 C 475.847656 111.367188 474.339844 111.144531 472.820312 110.996094 C 471.300781 110.84375 469.777344 110.769531 468.25 110.769531 L 161.875 110.769531 C 160.347656 110.769531 158.824219 110.84375 157.304688 110.996094 C 155.785156 111.144531 154.277344 111.367188 152.777344 111.667969 C 151.28125 111.964844 149.800781 112.335938 148.339844 112.777344 C 146.878906 113.222656 145.441406 113.734375 144.03125 114.320312 C 142.621094 114.90625 141.242188 115.558594 139.894531 116.277344 C 138.550781 117 137.242188 117.78125 135.972656 118.632812 C 134.703125 119.480469 133.476562 120.390625 132.296875 121.359375 C 131.117188 122.328125 129.984375 123.351562 128.90625 124.433594 C 127.828125 125.515625 126.800781 126.644531 125.832031 127.824219 C 124.863281 129.007812 123.957031 130.230469 123.109375 131.503906 C 122.261719 132.773438 121.476562 134.082031 120.757812 135.429688 C 120.035156 136.777344 119.382812 138.15625 118.800781 139.566406 C 118.214844 140.980469 117.703125 142.417969 117.257812 143.878906 C 116.816406 145.339844 116.445312 146.820312 116.148438 148.320312 C 115.847656 149.816406 115.625 151.328125 115.476562 152.847656 C 115.324219 154.367188 115.25 155.890625 115.25 157.421875 L 115.25 199.671875 C 115.25 201.199219 115.324219 202.722656 115.476562 204.246094 C 115.625 205.765625 115.847656 207.273438 116.148438 208.773438 C 116.445312 210.273438 116.816406 211.753906 117.257812 213.214844 C 117.703125 214.675781 118.214844 216.113281 118.800781 217.523438 C 119.382812 218.9375 120.035156 220.316406 120.757812 221.664062 C 121.476562 223.011719 122.261719 224.320312 123.109375 225.589844 C 123.957031 226.859375 124.863281 228.085938 125.832031 229.265625 C 126.800781 230.449219 127.828125 231.578125 128.90625 232.660156 C 129.984375 233.738281 131.117188 234.765625 132.296875 235.734375 C 133.476562 236.703125 134.703125 237.613281 135.972656 238.460938 C 137.242188 239.308594 138.550781 240.09375 139.894531 240.816406 C 141.242188 241.535156 142.621094 242.1875 144.03125 242.773438 C 145.441406 243.355469 146.878906 243.871094 148.339844 244.3125 C 149.800781 244.757812 151.28125 245.128906 152.777344 245.425781 C 154.277344 245.726562 155.785156 245.949219 157.304688 246.097656 C 158.824219 246.25 160.347656 246.324219 161.875 246.324219 Z M 154.679688 199.671875 L 154.679688 157.421875 C 154.679688 156.984375 154.722656 156.550781 154.808594 156.121094 C 154.894531 155.691406 155.019531 155.273438 155.1875 154.871094 C 155.355469 154.464844 155.558594 154.082031 155.800781 153.71875 C 156.046875 153.355469 156.320312 153.015625 156.632812 152.707031 C 156.941406 152.398438 157.277344 152.121094 157.640625 151.878906 C 158.003906 151.636719 158.386719 151.429688 158.792969 151.261719 C 159.195312 151.097656 159.613281 150.96875 160.042969 150.882812 C 160.46875 150.796875 160.902344 150.757812 161.339844 150.757812 L 468.25 150.757812 C 468.6875 150.757812 469.121094 150.796875 469.550781 150.882812 C 469.976562 150.96875 470.394531 151.097656 470.800781 151.261719 C 471.203125 151.429688 471.585938 151.636719 471.949219 151.878906 C 472.3125 152.121094 472.648438 152.398438 472.960938 152.707031 C 473.269531 153.015625 473.546875 153.355469 473.789062 153.71875 C 474.03125 154.082031 474.234375 154.464844 474.402344 154.871094 C 474.570312 155.273438 474.695312 155.691406 474.78125 156.121094 C 474.867188 156.550781 474.910156 156.984375 474.910156 157.421875 L 474.910156 199.671875 C 474.910156 200.109375 474.867188 200.542969 474.78125 200.972656 C 474.695312 201.402344 474.570312 201.820312 474.402344 202.222656 C 474.234375 202.628906 474.03125 203.011719 473.789062 203.375 C 473.546875 203.738281 473.269531 204.074219 472.960938 204.386719 C 472.648438 204.695312 472.3125 204.96875 471.949219 205.214844 C 471.585938 205.457031 471.203125 205.660156 470.800781 205.828125 C 470.394531 205.996094 469.976562 206.125 469.550781 206.207031 C 469.121094 206.292969 468.6875 206.335938 468.25 206.335938 L 161.875 206.335938 C 161.414062 206.375 160.957031 206.363281 160.5 206.304688 C 160.042969 206.246094 159.597656 206.140625 159.160156 205.992188 C 158.726562 205.839844 158.308594 205.644531 157.914062 205.410156 C 157.519531 205.171875 157.152344 204.898438 156.816406 204.582031 C 156.476562 204.269531 156.175781 203.925781 155.910156 203.550781 C 155.640625 203.175781 155.417969 202.773438 155.234375 202.351562 C 155.050781 201.929688 154.910156 201.492188 154.816406 201.039062 C 154.726562 200.589844 154.679688 200.132812 154.679688 199.671875 Z M 216.355469 319.632812 L 149.75 319.632812 C 149.097656 319.632812 148.445312 319.664062 147.792969 319.726562 C 147.140625 319.792969 146.496094 319.886719 145.851562 320.015625 C 145.210938 320.144531 144.578125 320.300781 143.953125 320.492188 C 143.324219 320.683594 142.710938 320.902344 142.105469 321.152344 C 141.5 321.402344 140.910156 321.683594 140.332031 321.992188 C 139.753906 322.300781 139.195312 322.636719 138.652344 323 C 138.105469 323.363281 137.582031 323.753906 137.074219 324.167969 C 136.570312 324.585938 136.085938 325.023438 135.621094 325.488281 C 135.160156 325.949219 134.722656 326.433594 134.304688 326.941406 C 133.890625 327.445312 133.5 327.972656 133.136719 328.515625 C 132.773438 329.0625 132.4375 329.621094 132.128906 330.199219 C 131.820312 330.777344 131.542969 331.367188 131.292969 331.972656 C 131.042969 332.578125 130.820312 333.195312 130.632812 333.820312 C 130.441406 334.445312 130.28125 335.082031 130.15625 335.722656 C 130.027344 336.367188 129.929688 337.011719 129.867188 337.664062 C 129.800781 338.316406 129.769531 338.96875 129.769531 339.625 L 129.769531 406.269531 C 129.769531 406.921875 129.800781 407.574219 129.867188 408.226562 C 129.929688 408.878906 130.027344 409.527344 130.15625 410.167969 C 130.28125 410.808594 130.441406 411.445312 130.632812 412.070312 C 130.820312 412.699219 131.042969 413.3125 131.292969 413.917969 C 131.542969 414.523438 131.820312 415.113281 132.128906 415.691406 C 132.4375 416.269531 132.773438 416.832031 133.136719 417.375 C 133.5 417.917969 133.890625 418.445312 134.304688 418.953125 C 134.722656 419.457031 135.160156 419.941406 135.621094 420.40625 C 136.085938 420.867188 136.570312 421.308594 137.074219 421.722656 C 137.582031 422.136719 138.105469 422.527344 138.652344 422.890625 C 139.195312 423.253906 139.753906 423.589844 140.332031 423.898438 C 140.910156 424.207031 141.5 424.488281 142.105469 424.738281 C 142.710938 424.988281 143.324219 425.210938 143.953125 425.398438 C 144.578125 425.589844 145.210938 425.75 145.851562 425.875 C 146.496094 426.003906 147.140625 426.101562 147.792969 426.164062 C 148.445312 426.230469 149.097656 426.261719 149.75 426.261719 L 216.355469 426.261719 C 217.007812 426.261719 217.664062 426.230469 218.3125 426.164062 C 218.964844 426.101562 219.613281 426.003906 220.253906 425.875 C 220.894531 425.75 221.527344 425.589844 222.15625 425.398438 C 222.78125 425.210938 223.398438 424.988281 224 424.738281 C 224.605469 424.488281 225.195312 424.207031 225.773438 423.898438 C 226.351562 423.589844 226.910156 423.253906 227.457031 422.890625 C 228 422.527344 228.523438 422.136719 229.03125 421.722656 C 229.535156 421.308594 230.019531 420.867188 230.484375 420.40625 C 230.945312 419.941406 231.386719 419.457031 231.800781 418.953125 C 232.214844 418.445312 232.605469 417.917969 232.96875 417.375 C 233.332031 416.832031 233.667969 416.269531 233.976562 415.691406 C 234.285156 415.113281 234.566406 414.523438 234.816406 413.917969 C 235.066406 413.3125 235.285156 412.699219 235.476562 412.070312 C 235.664062 411.445312 235.824219 410.808594 235.953125 410.167969 C 236.078125 409.527344 236.175781 408.878906 236.238281 408.226562 C 236.304688 407.574219 236.335938 406.921875 236.335938 406.269531 L 236.335938 339.625 C 236.335938 338.964844 236.304688 338.308594 236.238281 337.65625 C 236.175781 337 236.078125 336.351562 235.949219 335.707031 C 235.820312 335.0625 235.660156 334.425781 235.46875 333.796875 C 235.277344 333.167969 235.054688 332.550781 234.800781 331.941406 C 234.550781 331.335938 234.269531 330.742188 233.957031 330.164062 C 233.644531 329.582031 233.308594 329.019531 232.941406 328.476562 C 232.574219 327.929688 232.183594 327.402344 231.765625 326.894531 C 231.34375 326.386719 230.902344 325.902344 230.4375 325.441406 C 229.972656 324.976562 229.484375 324.535156 228.972656 324.121094 C 228.464844 323.707031 227.933594 323.316406 227.386719 322.953125 C 226.839844 322.589844 226.273438 322.253906 225.695312 321.949219 C 225.113281 321.640625 224.519531 321.363281 223.910156 321.113281 C 223.300781 320.867188 222.683594 320.648438 222.050781 320.460938 C 221.421875 320.273438 220.785156 320.117188 220.140625 319.992188 C 219.492188 319.867188 218.84375 319.773438 218.1875 319.714844 C 217.535156 319.65625 216.878906 319.625 216.222656 319.632812 Z M 196.375 386.273438 L 169.734375 386.273438 L 169.734375 359.617188 L 196.375 359.617188 Z M 216.355469 446.386719 L 149.75 446.386719 C 149.097656 446.386719 148.445312 446.417969 147.792969 446.484375 C 147.140625 446.546875 146.496094 446.644531 145.851562 446.769531 C 145.210938 446.898438 144.578125 447.058594 143.953125 447.25 C 143.324219 447.4375 142.710938 447.660156 142.105469 447.910156 C 141.5 448.160156 140.910156 448.4375 140.332031 448.75 C 139.753906 449.058594 139.195312 449.394531 138.652344 449.757812 C 138.105469 450.121094 137.582031 450.511719 137.074219 450.925781 C 136.570312 451.339844 136.085938 451.78125 135.621094 452.242188 C 135.160156 452.707031 134.722656 453.191406 134.304688 453.695312 C 133.890625 454.203125 133.5 454.726562 133.136719 455.273438 C 132.773438 455.816406 132.4375 456.378906 132.128906 456.957031 C 131.820312 457.53125 131.542969 458.125 131.292969 458.730469 C 131.042969 459.335938 130.820312 459.949219 130.632812 460.578125 C 130.441406 461.203125 130.28125 461.835938 130.15625 462.480469 C 130.027344 463.121094 129.929688 463.769531 129.867188 464.421875 C 129.800781 465.074219 129.769531 465.726562 129.769531 466.378906 L 129.769531 533.023438 C 129.769531 533.679688 129.800781 534.332031 129.867188 534.984375 C 129.929688 535.636719 130.027344 536.28125 130.15625 536.925781 C 130.28125 537.566406 130.441406 538.199219 130.632812 538.828125 C 130.820312 539.453125 131.042969 540.070312 131.292969 540.675781 C 131.542969 541.28125 131.820312 541.871094 132.128906 542.449219 C 132.4375 543.027344 132.773438 543.585938 133.136719 544.132812 C 133.5 544.675781 133.890625 545.203125 134.304688 545.707031 C 134.722656 546.214844 135.160156 546.699219 135.621094 547.160156 C 136.085938 547.625 136.570312 548.0625 137.074219 548.480469 C 137.582031 548.894531 138.105469 549.285156 138.652344 549.648438 C 139.195312 550.011719 139.753906 550.347656 140.332031 550.65625 C 140.910156 550.964844 141.5 551.246094 142.105469 551.496094 C 142.710938 551.746094 143.324219 551.964844 143.953125 552.15625 C 144.578125 552.347656 145.210938 552.503906 145.851562 552.632812 C 146.496094 552.761719 147.140625 552.855469 147.792969 552.921875 C 148.445312 552.984375 149.097656 553.015625 149.75 553.015625 L 216.355469 553.015625 C 217.007812 553.015625 217.664062 552.984375 218.3125 552.921875 C 218.964844 552.855469 219.613281 552.761719 220.253906 552.632812 C 220.894531 552.503906 221.527344 552.347656 222.15625 552.15625 C 222.78125 551.964844 223.398438 551.746094 224 551.496094 C 224.605469 551.246094 225.195312 550.964844 225.773438 550.65625 C 226.351562 550.347656 226.910156 550.011719 227.457031 549.648438 C 228 549.285156 228.523438 548.894531 229.03125 548.480469 C 229.535156 548.0625 230.019531 547.625 230.484375 547.160156 C 230.945312 546.699219 231.386719 546.214844 231.800781 545.707031 C 232.214844 545.203125 232.605469 544.675781 232.96875 544.132812 C 233.332031 543.585938 233.667969 543.027344 233.976562 542.449219 C 234.285156 541.871094 234.566406 541.28125 234.816406 540.675781 C 235.066406 540.070312 235.285156 539.453125 235.476562 538.828125 C 235.664062 538.199219 235.824219 537.566406 235.953125 536.925781 C 236.078125 536.28125 236.175781 535.636719 236.238281 534.984375 C 236.304688 534.332031 236.335938 533.679688 236.335938 533.023438 L 236.335938 466.246094 C 236.332031 465.59375 236.296875 464.9375 236.226562 464.289062 C 236.160156 463.636719 236.058594 462.992188 235.925781 462.347656 C 235.792969 461.707031 235.632812 461.074219 235.4375 460.449219 C 235.242188 459.824219 235.019531 459.210938 234.765625 458.605469 C 234.511719 458.003906 234.226562 457.414062 233.914062 456.839844 C 233.601562 456.261719 233.261719 455.703125 232.894531 455.160156 C 232.527344 454.621094 232.136719 454.097656 231.714844 453.59375 C 231.296875 453.089844 230.855469 452.609375 230.390625 452.148438 C 229.925781 451.6875 229.4375 451.253906 228.929688 450.839844 C 228.417969 450.429688 227.890625 450.042969 227.34375 449.683594 C 226.800781 449.320312 226.234375 448.988281 225.65625 448.683594 C 225.078125 448.378906 224.484375 448.105469 223.878906 447.859375 C 223.273438 447.609375 222.65625 447.394531 222.027344 447.210938 C 221.402344 447.023438 220.765625 446.867188 220.121094 446.746094 C 219.480469 446.621094 218.832031 446.53125 218.179688 446.46875 C 217.53125 446.410156 216.875 446.382812 216.222656 446.386719 Z M 196.375 513.03125 L 169.734375 513.03125 L 169.734375 486.375 L 196.375 486.375 Z M 216.222656 572.875 L 149.617188 572.875 C 148.964844 572.875 148.3125 572.910156 147.660156 572.972656 C 147.007812 573.039062 146.363281 573.132812 145.71875 573.261719 C 145.078125 573.390625 144.445312 573.546875 143.816406 573.738281 C 143.191406 573.929688 142.578125 574.148438 141.972656 574.398438 C 141.367188 574.648438 140.777344 574.929688 140.199219 575.238281 C 139.621094 575.546875 139.0625 575.882812 138.515625 576.246094 C 137.972656 576.609375 137.449219 577 136.941406 577.414062 C 136.4375 577.832031 135.953125 578.269531 135.488281 578.734375 C 135.027344 579.195312 134.589844 579.679688 134.171875 580.1875 C 133.757812 580.691406 133.367188 581.21875 133.003906 581.761719 C 132.640625 582.308594 132.304688 582.867188 131.996094 583.445312 C 131.6875 584.023438 131.410156 584.613281 131.160156 585.21875 C 130.90625 585.824219 130.6875 586.441406 130.496094 587.066406 C 130.308594 587.691406 130.148438 588.328125 130.019531 588.96875 C 129.894531 589.613281 129.796875 590.257812 129.734375 590.910156 C 129.667969 591.5625 129.636719 592.214844 129.636719 592.871094 L 129.636719 659.511719 C 129.636719 660.167969 129.667969 660.820312 129.734375 661.472656 C 129.796875 662.125 129.894531 662.773438 130.019531 663.414062 C 130.148438 664.054688 130.308594 664.691406 130.496094 665.316406 C 130.6875 665.945312 130.90625 666.558594 131.160156 667.164062 C 131.410156 667.769531 131.6875 668.359375 131.996094 668.9375 C 132.304688 669.515625 132.640625 670.078125 133.003906 670.621094 C 133.367188 671.164062 133.757812 671.691406 134.171875 672.195312 C 134.589844 672.703125 135.027344 673.1875 135.488281 673.652344 C 135.953125 674.113281 136.4375 674.554688 136.941406 674.96875 C 137.449219 675.382812 137.972656 675.773438 138.515625 676.136719 C 139.0625 676.5 139.621094 676.835938 140.199219 677.144531 C 140.777344 677.453125 141.367188 677.734375 141.972656 677.984375 C 142.578125 678.234375 143.191406 678.457031 143.816406 678.644531 C 144.445312 678.835938 145.078125 678.996094 145.71875 679.121094 C 146.363281 679.25 147.007812 679.347656 147.660156 679.410156 C 148.3125 679.472656 148.964844 679.507812 149.617188 679.507812 L 216.222656 679.507812 C 216.875 679.507812 217.527344 679.472656 218.179688 679.410156 C 218.832031 679.347656 219.476562 679.25 220.121094 679.121094 C 220.761719 678.996094 221.394531 678.835938 222.023438 678.644531 C 222.648438 678.457031 223.265625 678.234375 223.867188 677.984375 C 224.472656 677.734375 225.0625 677.453125 225.640625 677.144531 C 226.21875 676.835938 226.777344 676.5 227.324219 676.136719 C 227.867188 675.773438 228.390625 675.382812 228.898438 674.96875 C 229.402344 674.554688 229.886719 674.113281 230.351562 673.652344 C 230.8125 673.1875 231.253906 672.703125 231.667969 672.195312 C 232.082031 671.691406 232.472656 671.164062 232.835938 670.621094 C 233.199219 670.078125 233.535156 669.515625 233.84375 668.9375 C 234.152344 668.359375 234.433594 667.769531 234.683594 667.164062 C 234.933594 666.558594 235.152344 665.945312 235.34375 665.316406 C 235.53125 664.691406 235.691406 664.054688 235.820312 663.414062 C 235.945312 662.773438 236.042969 662.125 236.105469 661.472656 C 236.171875 660.820312 236.203125 660.167969 236.203125 659.511719 L 236.203125 592.871094 C 236.203125 592.214844 236.171875 591.5625 236.105469 590.910156 C 236.042969 590.257812 235.945312 589.613281 235.820312 588.96875 C 235.691406 588.328125 235.53125 587.691406 235.34375 587.066406 C 235.152344 586.441406 234.933594 585.824219 234.683594 585.21875 C 234.433594 584.613281 234.152344 584.023438 233.84375 583.445312 C 233.535156 582.867188 233.199219 582.308594 232.835938 581.761719 C 232.472656 581.21875 232.082031 580.691406 231.667969 580.1875 C 231.253906 579.679688 230.8125 579.195312 230.351562 578.734375 C 229.886719 578.269531 229.402344 577.832031 228.898438 577.414062 C 228.390625 577 227.867188 576.609375 227.324219 576.246094 C 226.777344 575.882812 226.21875 575.546875 225.640625 575.238281 C 225.0625 574.929688 224.472656 574.648438 223.867188 574.398438 C 223.265625 574.148438 222.648438 573.929688 222.023438 573.738281 C 221.394531 573.546875 220.761719 573.390625 220.121094 573.261719 C 219.476562 573.132812 218.832031 573.039062 218.179688 572.972656 C 217.527344 572.910156 216.875 572.875 216.222656 572.875 Z M 196.242188 639.519531 L 169.597656 639.519531 L 169.597656 612.863281 L 196.242188 612.863281 Z M 349.429688 319.632812 L 282.824219 319.632812 C 282.171875 319.632812 281.519531 319.664062 280.867188 319.726562 C 280.214844 319.792969 279.570312 319.886719 278.925781 320.015625 C 278.285156 320.144531 277.652344 320.300781 277.027344 320.492188 C 276.398438 320.683594 275.785156 320.902344 275.179688 321.152344 C 274.574219 321.402344 273.984375 321.683594 273.40625 321.992188 C 272.828125 322.300781 272.269531 322.636719 271.726562 323 C 271.179688 323.363281 270.65625 323.753906 270.148438 324.167969 C 269.644531 324.585938 269.160156 325.023438 268.695312 325.488281 C 268.234375 325.949219 267.796875 326.433594 267.378906 326.941406 C 266.964844 327.445312 266.574219 327.972656 266.210938 328.515625 C 265.847656 329.0625 265.511719 329.621094 265.203125 330.199219 C 264.894531 330.777344 264.617188 331.367188 264.367188 331.972656 C 264.113281 332.578125 263.894531 333.195312 263.703125 333.820312 C 263.515625 334.445312 263.355469 335.082031 263.226562 335.722656 C 263.101562 336.367188 263.003906 337.011719 262.941406 337.664062 C 262.875 338.316406 262.84375 338.96875 262.84375 339.625 L 262.84375 406.269531 C 262.84375 406.921875 262.875 407.574219 262.941406 408.226562 C 263.003906 408.878906 263.101562 409.527344 263.226562 410.167969 C 263.355469 410.808594 263.515625 411.445312 263.703125 412.070312 C 263.894531 412.699219 264.113281 413.3125 264.367188 413.917969 C 264.617188 414.523438 264.894531 415.113281 265.203125 415.691406 C 265.511719 416.269531 265.847656 416.832031 266.210938 417.375 C 266.574219 417.917969 266.964844 418.445312 267.378906 418.953125 C 267.796875 419.457031 268.234375 419.941406 268.695312 420.40625 C 269.160156 420.867188 269.644531 421.308594 270.148438 421.722656 C 270.65625 422.136719 271.179688 422.527344 271.726562 422.890625 C 272.269531 423.253906 272.828125 423.589844 273.40625 423.898438 C 273.984375 424.207031 274.574219 424.488281 275.179688 424.738281 C 275.785156 424.988281 276.398438 425.210938 277.027344 425.398438 C 277.652344 425.589844 278.285156 425.75 278.925781 425.875 C 279.570312 426.003906 280.214844 426.101562 280.867188 426.164062 C 281.519531 426.230469 282.171875 426.261719 282.824219 426.261719 L 349.429688 426.261719 C 350.082031 426.261719 350.738281 426.230469 351.386719 426.164062 C 352.039062 426.101562 352.683594 426.003906 353.328125 425.875 C 353.96875 425.75 354.601562 425.589844 355.230469 425.398438 C 355.855469 425.210938 356.472656 424.988281 357.074219 424.738281 C 357.679688 424.488281 358.269531 424.207031 358.847656 423.898438 C 359.425781 423.589844 359.984375 423.253906 360.53125 422.890625 C 361.074219 422.527344 361.597656 422.136719 362.105469 421.722656 C 362.609375 421.308594 363.09375 420.867188 363.558594 420.40625 C 364.019531 419.941406 364.460938 419.457031 364.875 418.953125 C 365.289062 418.445312 365.679688 417.917969 366.042969 417.375 C 366.40625 416.832031 366.742188 416.269531 367.050781 415.691406 C 367.359375 415.113281 367.640625 414.523438 367.890625 413.917969 C 368.140625 413.3125 368.359375 412.699219 368.550781 412.070312 C 368.738281 411.445312 368.898438 410.808594 369.027344 410.167969 C 369.152344 409.527344 369.25 408.878906 369.3125 408.226562 C 369.378906 407.574219 369.410156 406.921875 369.410156 406.269531 L 369.410156 339.625 C 369.410156 338.96875 369.378906 338.316406 369.3125 337.664062 C 369.25 337.011719 369.152344 336.367188 369.027344 335.722656 C 368.898438 335.082031 368.738281 334.445312 368.550781 333.820312 C 368.359375 333.195312 368.140625 332.578125 367.890625 331.972656 C 367.640625 331.367188 367.359375 330.777344 367.050781 330.199219 C 366.742188 329.621094 366.40625 329.0625 366.042969 328.515625 C 365.679688 327.972656 365.289062 327.445312 364.875 326.941406 C 364.460938 326.433594 364.019531 325.949219 363.558594 325.488281 C 363.09375 325.023438 362.609375 324.585938 362.105469 324.167969 C 361.597656 323.753906 361.074219 323.363281 360.53125 323 C 359.984375 322.636719 359.425781 322.300781 358.847656 321.992188 C 358.269531 321.683594 357.679688 321.402344 357.074219 321.152344 C 356.472656 320.902344 355.855469 320.683594 355.230469 320.492188 C 354.601562 320.300781 353.96875 320.144531 353.328125 320.015625 C 352.683594 319.886719 352.039062 319.792969 351.386719 319.726562 C 350.738281 319.664062 350.082031 319.632812 349.429688 319.632812 Z M 329.449219 386.273438 L 302.808594 386.273438 L 302.808594 359.617188 L 329.449219 359.617188 Z M 349.429688 446.386719 L 282.824219 446.386719 C 282.171875 446.386719 281.519531 446.417969 280.867188 446.484375 C 280.214844 446.546875 279.570312 446.644531 278.925781 446.769531 C 278.285156 446.898438 277.652344 447.058594 277.027344 447.25 C 276.398438 447.4375 275.785156 447.660156 275.179688 447.910156 C 274.574219 448.160156 273.984375 448.4375 273.40625 448.75 C 272.828125 449.058594 272.269531 449.394531 271.726562 449.757812 C 271.179688 450.121094 270.65625 450.511719 270.148438 450.925781 C 269.644531 451.339844 269.160156 451.78125 268.695312 452.242188 C 268.234375 452.707031 267.796875 453.191406 267.378906 453.695312 C 266.964844 454.203125 266.574219 454.726562 266.210938 455.273438 C 265.847656 455.816406 265.511719 456.378906 265.203125 456.957031 C 264.894531 457.53125 264.617188 458.125 264.367188 458.730469 C 264.113281 459.335938 263.894531 459.949219 263.703125 460.578125 C 263.515625 461.203125 263.355469 461.835938 263.226562 462.480469 C 263.101562 463.121094 263.003906 463.769531 262.941406 464.421875 C 262.875 465.074219 262.84375 465.726562 262.84375 466.378906 L 262.84375 533.023438 C 262.84375 533.679688 262.875 534.332031 262.941406 534.984375 C 263.003906 535.636719 263.101562 536.28125 263.226562 536.925781 C 263.355469 537.566406 263.515625 538.199219 263.703125 538.828125 C 263.894531 539.453125 264.113281 540.070312 264.367188 540.675781 C 264.617188 541.28125 264.894531 541.871094 265.203125 542.449219 C 265.511719 543.027344 265.847656 543.585938 266.210938 544.132812 C 266.574219 544.675781 266.964844 545.203125 267.378906 545.707031 C 267.796875 546.214844 268.234375 546.699219 268.695312 547.160156 C 269.160156 547.625 269.644531 548.0625 270.148438 548.480469 C 270.65625 548.894531 271.179688 549.285156 271.726562 549.648438 C 272.269531 550.011719 272.828125 550.347656 273.40625 550.65625 C 273.984375 550.964844 274.574219 551.246094 275.179688 551.496094 C 275.785156 551.746094 276.398438 551.964844 277.027344 552.15625 C 277.652344 552.347656 278.285156 552.503906 278.925781 552.632812 C 279.570312 552.761719 280.214844 552.855469 280.867188 552.921875 C 281.519531 552.984375 282.171875 553.015625 282.824219 553.015625 L 349.429688 553.015625 C 350.082031 553.015625 350.738281 552.984375 351.386719 552.921875 C 352.039062 552.855469 352.683594 552.761719 353.328125 552.632812 C 353.96875 552.503906 354.601562 552.347656 355.230469 552.15625 C 355.855469 551.964844 356.472656 551.746094 357.074219 551.496094 C 357.679688 551.246094 358.269531 550.964844 358.847656 550.65625 C 359.425781 550.347656 359.984375 550.011719 360.53125 549.648438 C 361.074219 549.285156 361.597656 548.894531 362.105469 548.480469 C 362.609375 548.0625 363.09375 547.625 363.558594 547.160156 C 364.019531 546.699219 364.460938 546.214844 364.875 545.707031 C 365.289062 545.203125 365.679688 544.675781 366.042969 544.132812 C 366.40625 543.585938 366.742188 543.027344 367.050781 542.449219 C 367.359375 541.871094 367.640625 541.28125 367.890625 540.675781 C 368.140625 540.070312 368.359375 539.453125 368.550781 538.828125 C 368.738281 538.199219 368.898438 537.566406 369.027344 536.925781 C 369.152344 536.28125 369.25 535.636719 369.3125 534.984375 C 369.378906 534.332031 369.410156 533.679688 369.410156 533.023438 L 369.410156 466.246094 C 369.40625 465.59375 369.371094 464.945312 369.300781 464.296875 C 369.234375 463.648438 369.132812 463.003906 369.003906 462.367188 C 368.871094 461.726562 368.710938 461.097656 368.519531 460.472656 C 368.328125 459.851562 368.105469 459.238281 367.851562 458.636719 C 367.597656 458.035156 367.316406 457.449219 367.007812 456.875 C 366.699219 456.300781 366.363281 455.746094 365.996094 455.203125 C 365.632812 454.664062 365.242188 454.140625 364.828125 453.640625 C 364.414062 453.136719 363.972656 452.65625 363.511719 452.195312 C 363.050781 451.738281 362.566406 451.300781 362.058594 450.886719 C 361.554688 450.476562 361.03125 450.089844 360.488281 449.730469 C 359.945312 449.367188 359.386719 449.035156 358.8125 448.726562 C 358.238281 448.421875 357.648438 448.144531 357.046875 447.894531 C 356.441406 447.648438 355.828125 447.429688 355.207031 447.242188 C 354.582031 447.050781 353.949219 446.894531 353.3125 446.769531 C 352.671875 446.640625 352.027344 446.546875 351.378906 446.484375 C 350.730469 446.417969 350.082031 446.386719 349.429688 446.386719 Z M 329.449219 513.03125 L 302.808594 513.03125 L 302.808594 486.375 L 329.449219 486.375 Z M 349.429688 572.875 L 282.824219 572.875 C 282.171875 572.875 281.519531 572.910156 280.867188 572.972656 C 280.214844 573.039062 279.570312 573.132812 278.925781 573.261719 C 278.285156 573.390625 277.652344 573.546875 277.027344 573.738281 C 276.398438 573.929688 275.785156 574.148438 275.179688 574.398438 C 274.574219 574.648438 273.984375 574.929688 273.40625 575.238281 C 272.828125 575.546875 272.269531 575.882812 271.726562 576.246094 C 271.179688 576.609375 270.65625 577 270.148438 577.414062 C 269.644531 577.832031 269.160156 578.269531 268.695312 578.734375 C 268.234375 579.195312 267.796875 579.679688 267.378906 580.1875 C 266.964844 580.691406 266.574219 581.21875 266.210938 581.761719 C 265.847656 582.308594 265.511719 582.867188 265.203125 583.445312 C 264.894531 584.023438 264.617188 584.613281 264.367188 585.21875 C 264.113281 585.824219 263.894531 586.441406 263.703125 587.066406 C 263.515625 587.691406 263.355469 588.328125 263.226562 588.96875 C 263.101562 589.613281 263.003906 590.257812 262.941406 590.910156 C 262.875 591.5625 262.84375 592.214844 262.84375 592.871094 L 262.84375 659.511719 C 262.84375 660.167969 262.875 660.820312 262.941406 661.472656 C 263.003906 662.125 263.101562 662.773438 263.226562 663.414062 C 263.355469 664.054688 263.515625 664.691406 263.703125 665.316406 C 263.894531 665.945312 264.113281 666.558594 264.367188 667.164062 C 264.617188 667.769531 264.894531 668.359375 265.203125 668.9375 C 265.511719 669.515625 265.847656 670.078125 266.210938 670.621094 C 266.574219 671.164062 266.964844 671.691406 267.378906 672.195312 C 267.796875 672.703125 268.234375 673.1875 268.695312 673.652344 C 269.160156 674.113281 269.644531 674.554688 270.148438 674.96875 C 270.65625 675.382812 271.179688 675.773438 271.726562 676.136719 C 272.269531 676.5 272.828125 676.835938 273.40625 677.144531 C 273.984375 677.453125 274.574219 677.734375 275.179688 677.984375 C 275.785156 678.234375 276.398438 678.457031 277.027344 678.644531 C 277.652344 678.835938 278.285156 678.996094 278.925781 679.121094 C 279.570312 679.25 280.214844 679.347656 280.867188 679.410156 C 281.519531 679.472656 282.171875 679.507812 282.824219 679.507812 L 349.429688 679.507812 C 350.082031 679.507812 350.738281 679.472656 351.386719 679.410156 C 352.039062 679.347656 352.683594 679.25 353.328125 679.121094 C 353.96875 678.996094 354.601562 678.835938 355.230469 678.644531 C 355.855469 678.457031 356.472656 678.234375 357.074219 677.984375 C 357.679688 677.734375 358.269531 677.453125 358.847656 677.144531 C 359.425781 676.835938 359.984375 676.5 360.53125 676.136719 C 361.074219 675.773438 361.597656 675.382812 362.105469 674.96875 C 362.609375 674.554688 363.09375 674.113281 363.558594 673.652344 C 364.019531 673.1875 364.460938 672.703125 364.875 672.195312 C 365.289062 671.691406 365.679688 671.164062 366.042969 670.621094 C 366.40625 670.078125 366.742188 669.515625 367.050781 668.9375 C 367.359375 668.359375 367.640625 667.769531 367.890625 667.164062 C 368.140625 666.558594 368.359375 665.945312 368.550781 665.316406 C 368.738281 664.691406 368.898438 664.054688 369.027344 663.414062 C 369.152344 662.773438 369.25 662.125 369.3125 661.472656 C 369.378906 660.820312 369.410156 660.167969 369.410156 659.511719 L 369.410156 592.871094 C 369.410156 592.214844 369.378906 591.5625 369.3125 590.910156 C 369.25 590.257812 369.152344 589.613281 369.027344 588.96875 C 368.898438 588.328125 368.738281 587.691406 368.550781 587.066406 C 368.359375 586.441406 368.140625 585.824219 367.890625 585.21875 C 367.640625 584.613281 367.359375 584.023438 367.050781 583.445312 C 366.742188 582.867188 366.40625 582.308594 366.042969 581.761719 C 365.679688 581.21875 365.289062 580.691406 364.875 580.1875 C 364.460938 579.679688 364.019531 579.195312 363.558594 578.734375 C 363.09375 578.269531 362.609375 577.832031 362.105469 577.414062 C 361.597656 577 361.074219 576.609375 360.53125 576.246094 C 359.984375 575.882812 359.425781 575.546875 358.847656 575.238281 C 358.269531 574.929688 357.679688 574.648438 357.074219 574.398438 C 356.472656 574.148438 355.855469 573.929688 355.230469 573.738281 C 354.601562 573.546875 353.96875 573.390625 353.328125 573.261719 C 352.683594 573.132812 352.039062 573.039062 351.386719 572.972656 C 350.738281 572.910156 350.082031 572.875 349.429688 572.875 Z M 329.449219 639.519531 L 302.808594 639.519531 L 302.808594 612.863281 L 329.449219 612.863281 Z M 482.636719 319.632812 L 416.03125 319.632812 C 415.378906 319.632812 414.726562 319.664062 414.074219 319.726562 C 413.421875 319.792969 412.777344 319.886719 412.132812 320.015625 C 411.492188 320.144531 410.859375 320.300781 410.234375 320.492188 C 409.605469 320.683594 408.992188 320.902344 408.386719 321.152344 C 407.78125 321.402344 407.191406 321.683594 406.613281 321.992188 C 406.035156 322.300781 405.476562 322.636719 404.933594 323 C 404.386719 323.363281 403.863281 323.753906 403.355469 324.167969 C 402.851562 324.585938 402.367188 325.023438 401.902344 325.488281 C 401.441406 325.949219 401.003906 326.433594 400.585938 326.941406 C 400.171875 327.445312 399.78125 327.972656 399.417969 328.515625 C 399.054688 329.0625 398.71875 329.621094 398.410156 330.199219 C 398.101562 330.777344 397.824219 331.367188 397.574219 331.972656 C 397.324219 332.578125 397.101562 333.195312 396.914062 333.820312 C 396.722656 334.445312 396.5625 335.082031 396.4375 335.722656 C 396.308594 336.367188 396.210938 337.011719 396.148438 337.664062 C 396.082031 338.316406 396.050781 338.96875 396.050781 339.625 L 396.050781 406.269531 C 396.050781 406.921875 396.082031 407.574219 396.148438 408.226562 C 396.210938 408.878906 396.308594 409.527344 396.4375 410.167969 C 396.5625 410.808594 396.722656 411.445312 396.914062 412.070312 C 397.101562 412.699219 397.324219 413.3125 397.574219 413.917969 C 397.824219 414.523438 398.101562 415.113281 398.410156 415.691406 C 398.71875 416.269531 399.054688 416.832031 399.417969 417.375 C 399.78125 417.917969 400.171875 418.445312 400.585938 418.953125 C 401.003906 419.457031 401.441406 419.941406 401.902344 420.40625 C 402.367188 420.867188 402.851562 421.308594 403.355469 421.722656 C 403.863281 422.136719 404.386719 422.527344 404.933594 422.890625 C 405.476562 423.253906 406.035156 423.589844 406.613281 423.898438 C 407.191406 424.207031 407.78125 424.488281 408.386719 424.738281 C 408.992188 424.988281 409.605469 425.210938 410.234375 425.398438 C 410.859375 425.589844 411.492188 425.75 412.132812 425.875 C 412.777344 426.003906 413.421875 426.101562 414.074219 426.164062 C 414.726562 426.230469 415.378906 426.261719 416.03125 426.261719 L 482.636719 426.261719 C 483.289062 426.261719 483.945312 426.230469 484.59375 426.164062 C 485.246094 426.101562 485.894531 426.003906 486.535156 425.875 C 487.175781 425.75 487.808594 425.589844 488.4375 425.398438 C 489.0625 425.210938 489.679688 424.988281 490.28125 424.738281 C 490.886719 424.488281 491.476562 424.207031 492.054688 423.898438 C 492.632812 423.589844 493.191406 423.253906 493.738281 422.890625 C 494.28125 422.527344 494.804688 422.136719 495.3125 421.722656 C 495.816406 421.308594 496.300781 420.867188 496.765625 420.40625 C 497.226562 419.941406 497.667969 419.457031 498.082031 418.953125 C 498.496094 418.445312 498.886719 417.917969 499.25 417.375 C 499.613281 416.832031 499.949219 416.269531 500.257812 415.691406 C 500.566406 415.113281 500.847656 414.523438 501.097656 413.917969 C 501.347656 413.3125 501.566406 412.699219 501.757812 412.070312 C 501.945312 411.445312 502.105469 410.808594 502.234375 410.167969 C 502.359375 409.527344 502.457031 408.878906 502.519531 408.226562 C 502.585938 407.574219 502.617188 406.921875 502.617188 406.269531 L 502.617188 339.625 C 502.617188 338.96875 502.585938 338.316406 502.519531 337.664062 C 502.457031 337.011719 502.359375 336.367188 502.234375 335.722656 C 502.105469 335.082031 501.945312 334.445312 501.757812 333.820312 C 501.566406 333.195312 501.347656 332.578125 501.097656 331.972656 C 500.847656 331.367188 500.566406 330.777344 500.257812 330.199219 C 499.949219 329.621094 499.613281 329.0625 499.25 328.515625 C 498.886719 327.972656 498.496094 327.445312 498.082031 326.941406 C 497.667969 326.433594 497.226562 325.949219 496.765625 325.488281 C 496.300781 325.023438 495.816406 324.585938 495.3125 324.167969 C 494.804688 323.753906 494.28125 323.363281 493.738281 323 C 493.191406 322.636719 492.632812 322.300781 492.054688 321.992188 C 491.476562 321.683594 490.886719 321.402344 490.28125 321.152344 C 489.679688 320.902344 489.0625 320.683594 488.4375 320.492188 C 487.808594 320.300781 487.175781 320.144531 486.535156 320.015625 C 485.894531 319.886719 485.246094 319.792969 484.59375 319.726562 C 483.945312 319.664062 483.289062 319.632812 482.636719 319.632812 Z M 462.65625 386.273438 L 436.015625 386.273438 L 436.015625 359.617188 L 462.65625 359.617188 Z M 628.097656 369.613281 C 616.886719 369.597656 605.785156 370.707031 594.796875 372.945312 L 594.796875 71.449219 C 594.796875 69.921875 594.722656 68.398438 594.574219 66.878906 C 594.421875 65.355469 594.199219 63.847656 593.902344 62.347656 C 593.601562 60.851562 593.234375 59.371094 592.789062 57.90625 C 592.347656 56.445312 591.832031 55.007812 591.246094 53.597656 C 590.664062 52.1875 590.011719 50.804688 589.292969 49.460938 C 588.570312 48.113281 587.789062 46.804688 586.941406 45.53125 C 586.089844 44.261719 585.183594 43.035156 584.214844 41.855469 C 583.246094 40.675781 582.222656 39.542969 581.140625 38.464844 C 580.0625 37.382812 578.933594 36.359375 577.75 35.390625 C 576.570312 34.417969 575.347656 33.511719 574.078125 32.660156 C 572.808594 31.8125 571.5 31.027344 570.152344 30.308594 C 568.804688 29.585938 567.425781 28.933594 566.015625 28.351562 C 564.605469 27.765625 563.167969 27.25 561.707031 26.808594 C 560.246094 26.363281 558.765625 25.992188 557.269531 25.695312 C 555.773438 25.398438 554.265625 25.175781 552.746094 25.023438 C 551.226562 24.875 549.703125 24.800781 548.175781 24.800781 L 84.746094 24.800781 C 83.21875 24.800781 81.695312 24.875 80.175781 25.023438 C 78.65625 25.175781 77.148438 25.398438 75.652344 25.695312 C 74.152344 25.992188 72.675781 26.363281 71.210938 26.808594 C 69.75 27.25 68.316406 27.765625 66.90625 28.351562 C 65.492188 28.933594 64.117188 29.585938 62.769531 30.308594 C 61.421875 31.027344 60.113281 31.8125 58.84375 32.660156 C 57.574219 33.511719 56.351562 34.417969 55.167969 35.390625 C 53.988281 36.359375 52.859375 37.382812 51.78125 38.464844 C 50.699219 39.542969 49.675781 40.675781 48.707031 41.855469 C 47.738281 43.035156 46.828125 44.261719 45.980469 45.53125 C 45.132812 46.804688 44.347656 48.113281 43.628906 49.460938 C 42.910156 50.804688 42.257812 52.1875 41.671875 53.597656 C 41.089844 55.007812 40.574219 56.445312 40.132812 57.90625 C 39.6875 59.371094 39.316406 60.851562 39.019531 62.347656 C 38.722656 63.847656 38.5 65.355469 38.347656 66.878906 C 38.199219 68.398438 38.125 69.921875 38.125 71.449219 L 38.125 701.234375 C 38.125 702.761719 38.199219 704.285156 38.347656 705.804688 C 38.5 707.324219 38.722656 708.835938 39.019531 710.332031 C 39.316406 711.832031 39.6875 713.3125 40.132812 714.773438 C 40.574219 716.238281 41.089844 717.671875 41.671875 719.085938 C 42.257812 720.496094 42.910156 721.875 43.628906 723.222656 C 44.347656 724.570312 45.132812 725.878906 45.980469 727.148438 C 46.828125 728.421875 47.738281 729.644531 48.707031 730.828125 C 49.675781 732.007812 50.699219 733.140625 51.78125 734.21875 C 52.859375 735.300781 53.988281 736.324219 55.167969 737.292969 C 56.351562 738.261719 57.574219 739.171875 58.84375 740.019531 C 60.113281 740.871094 61.421875 741.65625 62.769531 742.375 C 64.117188 743.09375 65.492188 743.746094 66.90625 744.332031 C 68.316406 744.917969 69.75 745.429688 71.210938 745.875 C 72.675781 746.316406 74.152344 746.6875 75.652344 746.988281 C 77.148438 747.285156 78.65625 747.507812 80.175781 747.660156 C 81.695312 747.808594 83.21875 747.882812 84.746094 747.882812 L 548.175781 747.882812 C 549.703125 747.882812 551.226562 747.808594 552.746094 747.660156 C 554.265625 747.507812 555.773438 747.285156 557.269531 746.988281 C 558.765625 746.6875 560.246094 746.316406 561.707031 745.875 C 563.167969 745.429688 564.605469 744.917969 566.015625 744.332031 C 567.425781 743.746094 568.804688 743.09375 570.152344 742.375 C 571.5 741.65625 572.808594 740.871094 574.078125 740.019531 C 575.347656 739.171875 576.570312 738.261719 577.75 737.292969 C 578.933594 736.324219 580.0625 735.300781 581.140625 734.21875 C 582.222656 733.140625 583.246094 732.007812 584.214844 730.828125 C 585.183594 729.644531 586.089844 728.421875 586.941406 727.148438 C 587.789062 725.878906 588.570312 724.570312 589.292969 723.222656 C 590.011719 721.875 590.664062 720.496094 591.246094 719.085938 C 591.832031 717.671875 592.347656 716.238281 592.789062 714.773438 C 593.234375 713.3125 593.601562 711.832031 593.902344 710.332031 C 594.199219 708.835938 594.421875 707.324219 594.574219 705.804688 C 594.722656 704.285156 594.796875 702.761719 594.796875 701.234375 L 594.796875 697.898438 C 597.625 698.476562 600.460938 698.976562 603.316406 699.40625 C 606.167969 699.832031 609.027344 700.183594 611.898438 700.460938 C 614.769531 700.738281 617.644531 700.941406 620.527344 701.070312 C 623.410156 701.199219 626.292969 701.25 629.175781 701.226562 C 632.058594 701.203125 634.941406 701.105469 637.820312 700.933594 C 640.699219 700.757812 643.570312 700.507812 646.4375 700.1875 C 649.300781 699.863281 652.15625 699.464844 655.003906 698.992188 C 657.847656 698.519531 660.679688 697.972656 663.496094 697.351562 C 666.3125 696.730469 669.109375 696.035156 671.890625 695.269531 C 674.671875 694.503906 677.429688 693.664062 680.167969 692.753906 C 682.902344 691.839844 685.613281 690.859375 688.300781 689.804688 C 690.984375 688.753906 693.640625 687.632812 696.269531 686.441406 C 698.894531 685.25 701.488281 683.988281 704.050781 682.664062 C 706.609375 681.335938 709.136719 679.941406 711.625 678.484375 C 714.113281 677.023438 716.5625 675.5 718.96875 673.914062 C 721.378906 672.328125 723.746094 670.679688 726.066406 668.96875 C 728.390625 667.257812 730.667969 665.488281 732.898438 663.660156 C 735.128906 661.828125 737.308594 659.945312 739.441406 658 C 741.574219 656.058594 743.652344 654.058594 745.679688 652.007812 C 747.710938 649.953125 749.683594 647.851562 751.601562 645.695312 C 753.519531 643.542969 755.378906 641.335938 757.183594 639.085938 C 758.984375 636.832031 760.730469 634.535156 762.410156 632.191406 C 764.09375 629.847656 765.714844 627.460938 767.273438 625.035156 C 768.832031 622.605469 770.328125 620.140625 771.757812 617.632812 C 773.1875 615.125 774.550781 612.585938 775.847656 610.007812 C 777.144531 607.429688 778.375 604.820312 779.535156 602.179688 C 780.699219 599.539062 781.789062 596.867188 782.8125 594.167969 C 783.832031 591.46875 784.785156 588.746094 785.664062 586 C 786.542969 583.25 787.351562 580.480469 788.085938 577.691406 C 788.820312 574.898438 789.484375 572.09375 790.070312 569.265625 C 790.660156 566.441406 791.175781 563.601562 791.617188 560.75 C 792.054688 557.898438 792.421875 555.039062 792.714844 552.167969 C 793.003906 549.296875 793.21875 546.417969 793.363281 543.535156 C 793.503906 540.65625 793.570312 537.769531 793.558594 534.882812 C 793.550781 532 793.464844 529.113281 793.304688 526.234375 C 793.144531 523.351562 792.910156 520.476562 792.601562 517.609375 C 792.292969 514.738281 791.90625 511.878906 791.449219 509.03125 C 790.988281 506.179688 790.457031 503.347656 789.847656 500.523438 C 789.242188 497.703125 788.5625 494.902344 787.808594 492.113281 C 787.054688 489.328125 786.230469 486.566406 785.332031 483.824219 C 784.433594 481.082031 783.464844 478.363281 782.425781 475.671875 C 781.386719 472.980469 780.277344 470.316406 779.101562 467.683594 C 777.921875 465.046875 776.675781 462.445312 775.363281 459.878906 C 774.046875 457.308594 772.667969 454.777344 771.222656 452.277344 C 769.773438 449.78125 768.265625 447.324219 766.691406 444.90625 C 765.117188 442.488281 763.480469 440.113281 761.78125 437.78125 C 760.082031 435.449219 758.324219 433.164062 756.507812 430.921875 C 754.6875 428.683594 752.8125 426.488281 750.882812 424.347656 C 748.949219 422.203125 746.964844 420.113281 744.921875 418.074219 C 742.882812 416.035156 740.789062 414.050781 738.644531 412.125 C 736.5 410.195312 734.304688 408.320312 732.0625 406.507812 C 729.820312 404.691406 727.53125 402.9375 725.199219 401.242188 C 722.863281 399.546875 720.488281 397.914062 718.070312 396.339844 C 715.648438 394.769531 713.191406 393.261719 710.691406 391.820312 C 708.195312 390.378906 705.660156 389 703.09375 387.691406 C 700.523438 386.382812 697.921875 385.136719 695.285156 383.964844 C 692.652344 382.789062 689.988281 381.683594 687.296875 380.648438 C 684.605469 379.613281 681.886719 378.648438 679.144531 377.757812 C 676.402344 376.863281 673.636719 376.042969 670.851562 375.292969 C 668.066406 374.542969 665.265625 373.871094 662.445312 373.265625 C 659.625 372.664062 656.789062 372.136719 653.941406 371.679688 C 651.09375 371.226562 648.234375 370.847656 645.367188 370.542969 C 642.5 370.238281 639.625 370.007812 636.746094 369.851562 C 633.863281 369.699219 630.984375 369.617188 628.097656 369.613281 Z M 554.835938 701.234375 C 554.835938 701.671875 554.792969 702.101562 554.707031 702.53125 C 554.621094 702.960938 554.496094 703.378906 554.328125 703.78125 C 554.160156 704.1875 553.957031 704.570312 553.710938 704.933594 C 553.46875 705.296875 553.191406 705.636719 552.882812 705.945312 C 552.574219 706.253906 552.238281 706.53125 551.875 706.773438 C 551.511719 707.015625 551.128906 707.222656 550.722656 707.390625 C 550.320312 707.558594 549.902344 707.683594 549.472656 707.769531 C 549.042969 707.855469 548.613281 707.898438 548.175781 707.898438 L 84.746094 707.898438 C 84.308594 707.898438 83.875 707.855469 83.445312 707.769531 C 83.019531 707.683594 82.601562 707.558594 82.199219 707.390625 C 81.792969 707.222656 81.410156 707.015625 81.046875 706.773438 C 80.683594 706.53125 80.347656 706.253906 80.035156 705.945312 C 79.726562 705.636719 79.453125 705.296875 79.207031 704.933594 C 78.964844 704.570312 78.761719 704.1875 78.59375 703.78125 C 78.425781 703.378906 78.300781 702.960938 78.214844 702.53125 C 78.128906 702.101562 78.085938 701.671875 78.085938 701.234375 L 78.085938 71.449219 C 78.085938 71.011719 78.128906 70.578125 78.214844 70.148438 C 78.300781 69.722656 78.425781 69.304688 78.59375 68.898438 C 78.761719 68.496094 78.964844 68.113281 79.207031 67.746094 C 79.453125 67.382812 79.726562 67.046875 80.035156 66.738281 C 80.347656 66.429688 80.683594 66.152344 81.046875 65.910156 C 81.410156 65.664062 81.792969 65.460938 82.199219 65.292969 C 82.601562 65.125 83.019531 65 83.445312 64.914062 C 83.875 64.828125 84.308594 64.785156 84.746094 64.785156 L 548.175781 64.785156 C 548.613281 64.785156 549.042969 64.828125 549.472656 64.914062 C 549.902344 65 550.320312 65.125 550.722656 65.292969 C 551.128906 65.460938 551.511719 65.664062 551.875 65.910156 C 552.238281 66.152344 552.574219 66.429688 552.882812 66.738281 C 553.191406 67.046875 553.46875 67.382812 553.710938 67.746094 C 553.957031 68.113281 554.160156 68.496094 554.328125 68.898438 C 554.496094 69.304688 554.621094 69.722656 554.707031 70.148438 C 554.792969 70.578125 554.835938 71.011719 554.835938 71.449219 L 554.835938 386.273438 C 548.046875 389.652344 541.523438 393.472656 535.257812 397.742188 C 528.992188 402.007812 523.042969 406.683594 517.414062 411.761719 C 511.785156 416.84375 506.527344 422.28125 501.644531 428.078125 C 496.757812 433.875 492.285156 439.980469 488.230469 446.386719 C 486.617188 445.957031 484.972656 445.734375 483.300781 445.722656 L 416.699219 445.722656 C 416.042969 445.722656 415.390625 445.753906 414.742188 445.816406 C 414.089844 445.882812 413.441406 445.976562 412.800781 446.105469 C 412.160156 446.234375 411.523438 446.390625 410.898438 446.582031 C 410.273438 446.773438 409.65625 446.992188 409.050781 447.242188 C 408.449219 447.492188 407.855469 447.773438 407.28125 448.082031 C 406.703125 448.390625 406.140625 448.726562 405.597656 449.089844 C 405.054688 449.453125 404.527344 449.84375 404.023438 450.257812 C 403.515625 450.675781 403.03125 451.113281 402.570312 451.578125 C 402.109375 452.039062 401.667969 452.523438 401.253906 453.03125 C 400.839844 453.535156 400.449219 454.0625 400.085938 454.605469 C 399.722656 455.152344 399.386719 455.710938 399.078125 456.289062 C 398.769531 456.867188 398.488281 457.457031 398.238281 458.0625 C 397.988281 458.667969 397.769531 459.285156 397.578125 459.910156 C 397.386719 460.535156 397.230469 461.171875 397.101562 461.8125 C 396.972656 462.457031 396.878906 463.101562 396.8125 463.753906 C 396.75 464.40625 396.71875 465.058594 396.71875 465.714844 L 396.71875 532.359375 C 396.71875 533.011719 396.75 533.664062 396.8125 534.316406 C 396.878906 534.96875 396.972656 535.617188 397.101562 536.257812 C 397.230469 536.898438 397.386719 537.535156 397.578125 538.160156 C 397.769531 538.789062 397.988281 539.402344 398.238281 540.007812 C 398.488281 540.613281 398.769531 541.203125 399.078125 541.78125 C 399.386719 542.359375 399.722656 542.921875 400.085938 543.464844 C 400.449219 544.007812 400.839844 544.535156 401.253906 545.039062 C 401.667969 545.546875 402.105469 546.03125 402.570312 546.496094 C 403.03125 546.957031 403.515625 547.398438 404.023438 547.8125 C 404.527344 548.226562 405.054688 548.617188 405.597656 548.980469 C 406.140625 549.34375 406.703125 549.679688 407.28125 549.988281 C 407.855469 550.296875 408.449219 550.578125 409.050781 550.828125 C 409.65625 551.078125 410.273438 551.300781 410.898438 551.488281 C 411.523438 551.679688 412.160156 551.839844 412.800781 551.964844 C 413.441406 552.09375 414.089844 552.191406 414.742188 552.253906 C 415.390625 552.320312 416.042969 552.351562 416.699219 552.351562 L 463.453125 552.351562 C 464 559.253906 464.976562 566.097656 466.386719 572.875 L 416.03125 572.875 C 415.378906 572.875 414.726562 572.910156 414.074219 572.972656 C 413.421875 573.039062 412.777344 573.132812 412.132812 573.261719 C 411.492188 573.390625 410.859375 573.546875 410.234375 573.738281 C 409.605469 573.929688 408.992188 574.148438 408.386719 574.398438 C 407.78125 574.648438 407.191406 574.929688 406.613281 575.238281 C 406.035156 575.546875 405.476562 575.882812 404.933594 576.246094 C 404.386719 576.609375 403.863281 577 403.355469 577.414062 C 402.851562 577.832031 402.367188 578.269531 401.902344 578.734375 C 401.441406 579.195312 401.003906 579.679688 400.585938 580.1875 C 400.171875 580.691406 399.78125 581.21875 399.417969 581.761719 C 399.054688 582.308594 398.71875 582.867188 398.410156 583.445312 C 398.101562 584.023438 397.824219 584.613281 397.574219 585.21875 C 397.324219 585.824219 397.101562 586.441406 396.914062 587.066406 C 396.722656 587.691406 396.5625 588.328125 396.4375 588.96875 C 396.308594 589.613281 396.210938 590.257812 396.148438 590.910156 C 396.082031 591.5625 396.050781 592.214844 396.050781 592.871094 L 396.050781 659.511719 C 396.050781 660.167969 396.082031 660.820312 396.148438 661.472656 C 396.210938 662.125 396.308594 662.773438 396.4375 663.414062 C 396.5625 664.054688 396.722656 664.691406 396.914062 665.316406 C 397.101562 665.945312 397.324219 666.558594 397.574219 667.164062 C 397.824219 667.769531 398.101562 668.359375 398.410156 668.9375 C 398.71875 669.515625 399.054688 670.078125 399.417969 670.621094 C 399.78125 671.164062 400.171875 671.691406 400.585938 672.195312 C 401.003906 672.703125 401.441406 673.1875 401.902344 673.652344 C 402.367188 674.113281 402.851562 674.554688 403.355469 674.96875 C 403.863281 675.382812 404.386719 675.773438 404.933594 676.136719 C 405.476562 676.5 406.035156 676.835938 406.613281 677.144531 C 407.191406 677.453125 407.78125 677.734375 408.386719 677.984375 C 408.992188 678.234375 409.605469 678.457031 410.234375 678.644531 C 410.859375 678.835938 411.492188 678.996094 412.132812 679.121094 C 412.777344 679.25 413.421875 679.347656 414.074219 679.410156 C 414.726562 679.472656 415.378906 679.507812 416.03125 679.507812 L 482.636719 679.507812 C 483.289062 679.507812 483.945312 679.472656 484.59375 679.410156 C 485.246094 679.347656 485.894531 679.25 486.535156 679.121094 C 487.175781 678.996094 487.808594 678.835938 488.4375 678.644531 C 489.0625 678.457031 489.679688 678.234375 490.28125 677.984375 C 490.886719 677.734375 491.476562 677.453125 492.054688 677.144531 C 492.632812 676.835938 493.191406 676.5 493.738281 676.136719 C 494.28125 675.773438 494.804688 675.382812 495.3125 674.96875 C 495.816406 674.554688 496.300781 674.113281 496.765625 673.652344 C 497.226562 673.1875 497.667969 672.703125 498.082031 672.195312 C 498.496094 671.691406 498.886719 671.164062 499.25 670.621094 C 499.613281 670.078125 499.949219 669.515625 500.257812 668.9375 C 500.566406 668.359375 500.847656 667.769531 501.097656 667.164062 C 501.347656 666.558594 501.566406 665.945312 501.757812 665.316406 C 501.945312 664.691406 502.105469 664.054688 502.234375 663.414062 C 502.359375 662.773438 502.457031 662.125 502.519531 661.472656 C 502.585938 660.820312 502.617188 660.167969 502.617188 659.511719 L 502.617188 644.050781 C 509.828125 652.359375 517.78125 659.875 526.480469 666.605469 C 535.179688 673.335938 544.453125 679.148438 554.300781 684.039062 Z M 436.015625 513.03125 L 436.015625 486.375 L 462.65625 486.375 L 462.65625 513.03125 Z M 462.65625 613.128906 L 462.65625 639.785156 L 436.015625 639.785156 L 436.015625 612.863281 Z M 628.097656 661.246094 C 626.070312 661.246094 624.042969 661.195312 622.015625 661.09375 C 619.988281 660.992188 617.964844 660.84375 615.945312 660.648438 C 613.925781 660.449219 611.914062 660.203125 609.90625 659.90625 C 607.898438 659.613281 605.898438 659.269531 603.910156 658.875 C 601.917969 658.484375 599.9375 658.042969 597.96875 657.554688 C 595.996094 657.066406 594.042969 656.53125 592.097656 655.949219 C 590.152344 655.363281 588.226562 654.734375 586.3125 654.058594 C 584.398438 653.382812 582.503906 652.660156 580.625 651.890625 C 578.746094 651.125 576.886719 650.3125 575.050781 649.453125 C 573.210938 648.59375 571.394531 647.691406 569.597656 646.746094 C 567.804688 645.800781 566.03125 644.8125 564.285156 643.777344 C 562.535156 642.746094 560.816406 641.671875 559.121094 640.558594 C 557.425781 639.441406 555.757812 638.285156 554.117188 637.089844 C 552.476562 635.894531 550.867188 634.660156 549.289062 633.382812 C 547.710938 632.109375 546.160156 630.796875 544.644531 629.449219 C 543.128906 628.101562 541.644531 626.714844 540.195312 625.292969 C 538.746094 623.875 537.332031 622.417969 535.953125 620.929688 C 534.574219 619.4375 533.234375 617.917969 531.925781 616.363281 C 530.621094 614.808594 529.355469 613.222656 528.125 611.605469 C 526.898438 609.992188 525.710938 608.347656 524.558594 606.671875 C 523.410156 605 522.304688 603.300781 521.238281 601.574219 C 520.171875 599.84375 519.144531 598.09375 518.164062 596.316406 C 517.179688 594.539062 516.242188 592.742188 515.347656 590.917969 C 514.453125 589.097656 513.601562 587.253906 512.796875 585.390625 C 511.992188 583.527344 511.230469 581.644531 510.515625 579.746094 C 509.800781 577.84375 509.132812 575.929688 508.511719 573.996094 C 507.890625 572.0625 507.3125 570.117188 506.785156 568.15625 C 506.257812 566.195312 505.777344 564.222656 505.34375 562.242188 C 504.914062 560.257812 504.527344 558.265625 504.191406 556.261719 C 503.855469 554.257812 503.570312 552.25 503.332031 550.234375 C 503.089844 548.21875 502.902344 546.195312 502.761719 544.171875 C 502.621094 542.144531 502.527344 540.117188 502.484375 538.089844 C 502.914062 536.472656 503.136719 534.828125 503.148438 533.15625 L 503.148438 521.5625 C 503.371094 519.5625 503.640625 517.570312 503.957031 515.585938 C 504.273438 513.597656 504.640625 511.621094 505.050781 509.652344 C 505.460938 507.683594 505.921875 505.726562 506.425781 503.78125 C 506.933594 501.835938 507.484375 499.902344 508.082031 497.980469 C 508.679688 496.0625 509.324219 494.15625 510.011719 492.265625 C 510.703125 490.378906 511.4375 488.507812 512.214844 486.652344 C 512.996094 484.800781 513.816406 482.964844 514.683594 481.152344 C 515.550781 479.335938 516.460938 477.542969 517.414062 475.773438 C 518.367188 474.003906 519.363281 472.253906 520.398438 470.53125 C 521.433594 468.808594 522.511719 467.113281 523.628906 465.441406 C 524.746094 463.769531 525.90625 462.125 527.101562 460.511719 C 528.296875 458.894531 529.53125 457.308594 530.804688 455.753906 C 532.078125 454.195312 533.386719 452.671875 534.734375 451.175781 C 536.078125 449.683594 537.460938 448.222656 538.875 446.796875 C 540.289062 445.367188 541.738281 443.976562 543.222656 442.617188 C 544.703125 441.257812 546.21875 439.9375 547.765625 438.652344 C 549.308594 437.367188 550.886719 436.121094 552.492188 434.910156 C 554.097656 433.699219 555.730469 432.53125 557.390625 431.398438 C 559.054688 430.265625 560.742188 429.175781 562.457031 428.125 C 564.167969 427.074219 565.90625 426.066406 567.667969 425.097656 C 569.433594 424.132812 571.214844 423.207031 573.023438 422.328125 C 574.828125 421.445312 576.65625 420.609375 578.503906 419.8125 C 580.347656 419.019531 582.214844 418.273438 584.097656 417.566406 C 585.980469 416.863281 587.878906 416.203125 589.792969 415.589844 C 591.707031 414.976562 593.632812 414.410156 595.574219 413.890625 C 597.515625 413.371094 599.46875 412.894531 601.433594 412.46875 C 603.398438 412.042969 605.371094 411.664062 607.351562 411.328125 C 609.335938 410.996094 611.324219 410.714844 613.320312 410.476562 C 615.316406 410.238281 617.316406 410.050781 619.320312 409.910156 C 621.324219 409.769531 623.332031 409.675781 625.339844 409.632812 C 627.351562 409.585938 629.359375 409.589844 631.371094 409.640625 C 633.378906 409.695312 635.386719 409.792969 637.390625 409.941406 C 639.394531 410.089844 641.394531 410.285156 643.390625 410.53125 C 645.382812 410.773438 647.371094 411.066406 649.351562 411.40625 C 651.335938 411.742188 653.304688 412.128906 655.269531 412.566406 C 657.230469 413 659.183594 413.480469 661.121094 414.007812 C 663.0625 414.535156 664.988281 415.109375 666.898438 415.726562 C 668.808594 416.347656 670.707031 417.011719 672.585938 417.722656 C 674.464844 418.433594 676.328125 419.191406 678.171875 419.992188 C 680.015625 420.792969 681.839844 421.636719 683.644531 422.523438 C 685.445312 423.410156 687.226562 424.339844 688.988281 425.316406 C 690.746094 426.289062 692.480469 427.304688 694.191406 428.359375 C 695.898438 429.414062 697.585938 430.511719 699.242188 431.648438 C 700.898438 432.789062 702.527344 433.964844 704.128906 435.179688 C 705.730469 436.394531 707.300781 437.648438 708.84375 438.9375 C 710.386719 440.230469 711.894531 441.554688 713.371094 442.917969 C 714.851562 444.28125 716.292969 445.679688 717.703125 447.113281 C 719.113281 448.546875 720.492188 450.011719 721.832031 451.507812 C 723.171875 453.007812 724.476562 454.539062 725.742188 456.097656 C 727.007812 457.660156 728.238281 459.25 729.429688 460.871094 C 730.621094 462.488281 731.769531 464.136719 732.882812 465.8125 C 733.996094 467.488281 735.066406 469.1875 736.097656 470.914062 C 737.128906 472.640625 738.117188 474.394531 739.0625 476.167969 C 740.007812 477.941406 740.914062 479.738281 741.773438 481.554688 C 742.632812 483.371094 743.449219 485.207031 744.222656 487.066406 C 744.996094 488.921875 745.722656 490.796875 746.40625 492.6875 C 747.085938 494.578125 747.722656 496.484375 748.316406 498.40625 C 748.90625 500.328125 749.453125 502.265625 749.949219 504.214844 C 750.449219 506.160156 750.902344 508.121094 751.304688 510.089844 C 751.710938 512.058594 752.066406 514.039062 752.375 516.023438 C 752.6875 518.011719 752.949219 520.003906 753.164062 522.003906 C 753.378906 524.003906 753.542969 526.007812 753.664062 528.015625 C 753.78125 530.023438 753.851562 532.03125 753.871094 534.042969 C 753.894531 536.054688 753.867188 538.066406 753.792969 540.074219 C 753.71875 542.085938 753.597656 544.089844 753.425781 546.09375 C 753.257812 548.097656 753.039062 550.097656 752.773438 552.089844 C 752.507812 554.082031 752.191406 556.070312 751.832031 558.046875 C 751.46875 560.027344 751.0625 561.996094 750.605469 563.953125 C 750.148438 565.910156 749.648438 567.859375 749.097656 569.792969 C 748.546875 571.726562 747.953125 573.648438 747.3125 575.554688 C 746.671875 577.460938 745.984375 579.351562 745.253906 581.222656 C 744.523438 583.097656 743.746094 584.949219 742.925781 586.785156 C 742.105469 588.621094 741.242188 590.4375 740.332031 592.230469 C 739.425781 594.027344 738.476562 595.796875 737.484375 597.546875 C 736.492188 599.296875 735.457031 601.019531 734.382812 602.71875 C 733.308594 604.417969 732.195312 606.089844 731.039062 607.734375 C 729.882812 609.382812 728.6875 611 727.457031 612.585938 C 726.222656 614.175781 724.953125 615.734375 723.648438 617.261719 C 722.339844 618.789062 720.996094 620.285156 719.617188 621.746094 C 718.238281 623.210938 716.824219 624.640625 715.378906 626.035156 C 713.929688 627.429688 712.449219 628.789062 710.9375 630.113281 C 709.425781 631.4375 707.882812 632.726562 706.308594 633.976562 C 704.734375 635.226562 703.128906 636.4375 701.5 637.613281 C 699.867188 638.785156 698.207031 639.917969 696.519531 641.011719 C 694.832031 642.105469 693.121094 643.160156 691.382812 644.171875 C 689.648438 645.179688 687.886719 646.152344 686.105469 647.078125 C 684.320312 648.003906 682.515625 648.890625 680.691406 649.730469 C 678.863281 650.570312 677.019531 651.367188 675.15625 652.117188 C 673.289062 652.871094 671.410156 653.578125 669.511719 654.238281 C 667.613281 654.902344 665.699219 655.515625 663.773438 656.085938 C 661.847656 656.65625 659.90625 657.179688 657.953125 657.65625 C 656 658.132812 654.039062 658.5625 652.066406 658.945312 C 650.09375 659.328125 648.109375 659.664062 646.121094 659.953125 C 644.132812 660.238281 642.136719 660.480469 640.136719 660.671875 C 638.136719 660.863281 636.132812 661.007812 634.125 661.101562 C 632.117188 661.199219 630.109375 661.246094 628.097656 661.246094 Z M 614.777344 500.234375 C 613.710938 517.828125 639.023438 516.761719 649.945312 521.828125 C 651.960938 522.78125 653.914062 523.847656 655.804688 525.027344 C 658.703125 526.75 661.40625 528.738281 663.914062 530.992188 C 666.421875 533.246094 668.683594 535.71875 670.707031 538.417969 C 672.730469 541.117188 674.472656 543.984375 675.929688 547.023438 C 677.390625 550.066406 678.542969 553.21875 679.382812 556.484375 C 679.777344 558.011719 680.101562 559.558594 680.359375 561.117188 C 680.617188 562.675781 680.804688 564.242188 680.921875 565.816406 C 681.039062 567.394531 681.085938 568.96875 681.0625 570.550781 C 681.042969 572.128906 680.949219 573.707031 680.785156 575.277344 C 680.625 576.847656 680.390625 578.410156 680.089844 579.960938 C 679.789062 581.511719 679.417969 583.046875 678.980469 584.5625 C 678.542969 586.082031 678.039062 587.578125 677.46875 589.050781 C 676.898438 590.523438 676.265625 591.96875 675.566406 593.386719 C 674.867188 594.800781 674.105469 596.183594 673.285156 597.535156 C 672.464844 598.882812 671.582031 600.191406 670.644531 601.464844 C 669.707031 602.734375 668.714844 603.960938 667.667969 605.144531 C 666.621094 606.324219 665.523438 607.460938 664.375 608.542969 C 663.226562 609.628906 662.035156 610.660156 660.792969 611.640625 C 659.554688 612.617188 658.273438 613.539062 656.953125 614.40625 C 655.632812 615.269531 654.273438 616.074219 652.882812 616.820312 C 651.488281 617.5625 650.066406 618.242188 648.613281 618.859375 L 648.613281 631.125 C 648.613281 631.777344 648.582031 632.429688 648.515625 633.082031 C 648.453125 633.734375 648.355469 634.382812 648.230469 635.023438 C 648.101562 635.667969 647.941406 636.300781 647.753906 636.925781 C 647.5625 637.554688 647.34375 638.167969 647.089844 638.773438 C 646.839844 639.378906 646.5625 639.96875 646.253906 640.546875 C 645.945312 641.125 645.609375 641.6875 645.246094 642.230469 C 644.882812 642.777344 644.492188 643.300781 644.078125 643.808594 C 643.660156 644.3125 643.222656 644.796875 642.761719 645.261719 C 642.296875 645.722656 641.8125 646.164062 641.308594 646.578125 C 640.800781 646.992188 640.277344 647.382812 639.730469 647.746094 C 639.1875 648.109375 638.628906 648.445312 638.050781 648.753906 C 637.472656 649.0625 636.882812 649.34375 636.277344 649.59375 C 635.671875 649.84375 635.058594 650.066406 634.433594 650.253906 C 633.804688 650.445312 633.171875 650.605469 632.53125 650.730469 C 631.886719 650.859375 631.242188 650.957031 630.589844 651.019531 C 629.9375 651.085938 629.285156 651.117188 628.632812 651.117188 C 627.976562 651.117188 627.324219 651.085938 626.671875 651.019531 C 626.023438 650.957031 625.375 650.859375 624.734375 650.730469 C 624.089844 650.605469 623.457031 650.445312 622.832031 650.253906 C 622.207031 650.066406 621.589844 649.84375 620.984375 649.59375 C 620.378906 649.34375 619.789062 649.0625 619.210938 648.753906 C 618.636719 648.445312 618.074219 648.109375 617.53125 647.746094 C 616.988281 647.382812 616.460938 646.992188 615.957031 646.578125 C 615.449219 646.164062 614.964844 645.722656 614.503906 645.261719 C 614.039062 644.796875 613.601562 644.3125 613.1875 643.808594 C 612.769531 643.300781 612.382812 642.777344 612.019531 642.230469 C 611.652344 641.6875 611.316406 641.125 611.011719 640.546875 C 610.703125 639.96875 610.421875 639.378906 610.171875 638.773438 C 609.921875 638.167969 609.699219 637.554688 609.511719 636.925781 C 609.320312 636.300781 609.160156 635.667969 609.035156 635.023438 C 608.90625 634.382812 608.8125 633.734375 608.746094 633.082031 C 608.683594 632.429688 608.652344 631.777344 608.652344 631.125 L 608.652344 620.59375 C 606.644531 619.933594 604.683594 619.164062 602.769531 618.277344 C 600.855469 617.390625 598.996094 616.394531 597.199219 615.292969 C 595.398438 614.1875 593.667969 612.984375 592.007812 611.683594 C 590.347656 610.378906 588.769531 608.984375 587.269531 607.496094 C 585.773438 606.007812 584.367188 604.441406 583.050781 602.789062 C 581.734375 601.136719 580.519531 599.417969 579.402344 597.625 C 578.289062 595.832031 577.28125 593.980469 576.378906 592.070312 C 575.476562 590.160156 574.691406 588.207031 574.015625 586.207031 C 573.796875 585.585938 573.609375 584.957031 573.453125 584.320312 C 573.296875 583.679688 573.175781 583.035156 573.082031 582.386719 C 572.988281 581.734375 572.925781 581.082031 572.898438 580.425781 C 572.867188 579.769531 572.871094 579.113281 572.90625 578.457031 C 572.941406 577.800781 573.011719 577.144531 573.109375 576.496094 C 573.210938 575.847656 573.339844 575.203125 573.503906 574.566406 C 573.667969 573.929688 573.859375 573.304688 574.085938 572.6875 C 574.308594 572.066406 574.5625 571.464844 574.847656 570.871094 C 575.132812 570.277344 575.441406 569.699219 575.785156 569.136719 C 576.125 568.578125 576.492188 568.03125 576.886719 567.507812 C 577.277344 566.980469 577.699219 566.476562 578.140625 565.992188 C 578.585938 565.507812 579.050781 565.042969 579.539062 564.605469 C 580.027344 564.167969 580.539062 563.753906 581.066406 563.363281 C 581.597656 562.976562 582.144531 562.613281 582.710938 562.277344 C 583.273438 561.941406 583.855469 561.636719 584.449219 561.359375 C 585.042969 561.082031 585.652344 560.832031 586.273438 560.613281 C 586.890625 560.394531 587.519531 560.207031 588.15625 560.050781 C 588.796875 559.894531 589.441406 559.769531 590.089844 559.679688 C 590.738281 559.585938 591.394531 559.523438 592.050781 559.496094 C 592.707031 559.464844 593.363281 559.46875 594.015625 559.503906 C 594.671875 559.539062 595.324219 559.609375 595.976562 559.707031 C 596.625 559.808594 597.265625 559.9375 597.902344 560.101562 C 598.539062 560.265625 599.167969 560.457031 599.785156 560.683594 C 600.402344 560.90625 601.003906 561.160156 601.597656 561.445312 C 602.191406 561.730469 602.765625 562.042969 603.328125 562.382812 C 603.890625 562.722656 604.433594 563.089844 604.960938 563.484375 C 605.484375 563.878906 605.988281 564.296875 606.472656 564.742188 C 606.957031 565.1875 607.421875 565.652344 607.859375 566.140625 C 608.296875 566.628906 608.710938 567.140625 609.097656 567.667969 C 609.488281 568.199219 609.851562 568.746094 610.183594 569.3125 C 610.519531 569.878906 610.824219 570.457031 611.105469 571.054688 C 611.382812 571.648438 611.628906 572.257812 611.847656 572.875 C 612.054688 573.632812 612.328125 574.367188 612.664062 575.074219 C 613 575.78125 613.394531 576.457031 613.851562 577.09375 C 614.308594 577.734375 614.816406 578.328125 615.375 578.875 C 615.933594 579.425781 616.539062 579.921875 617.1875 580.363281 C 617.835938 580.804688 618.515625 581.1875 619.230469 581.507812 C 619.945312 581.832031 620.683594 582.085938 621.445312 582.277344 C 622.203125 582.46875 622.976562 582.59375 623.757812 582.648438 C 624.539062 582.703125 625.320312 582.691406 626.101562 582.605469 C 636.222656 581.941406 644.75 569.277344 637.15625 560.347656 C 635.792969 558.980469 634.246094 557.875 632.511719 557.027344 C 630.773438 556.183594 628.949219 555.644531 627.03125 555.417969 C 597.460938 549.683594 571.753906 529.425781 573.75 496.636719 C 573.921875 494.105469 574.265625 491.601562 574.785156 489.117188 C 575.304688 486.636719 575.996094 484.203125 576.855469 481.816406 C 577.714844 479.429688 578.734375 477.113281 579.914062 474.871094 C 581.097656 472.628906 582.429688 470.476562 583.910156 468.421875 C 585.394531 466.363281 587.011719 464.417969 588.765625 462.585938 C 590.519531 460.753906 592.390625 459.054688 594.378906 457.484375 C 596.371094 455.914062 598.460938 454.492188 600.648438 453.210938 C 602.839844 451.933594 605.105469 450.8125 607.453125 449.851562 L 607.453125 439.589844 C 607.453125 438.933594 607.484375 438.28125 607.546875 437.628906 C 607.613281 436.976562 607.707031 436.332031 607.835938 435.6875 C 607.964844 435.046875 608.121094 434.414062 608.3125 433.785156 C 608.503906 433.160156 608.722656 432.542969 608.972656 431.9375 C 609.222656 431.332031 609.503906 430.742188 609.8125 430.164062 C 610.121094 429.585938 610.457031 429.027344 610.820312 428.480469 C 611.183594 427.9375 611.570312 427.414062 611.988281 426.90625 C 612.402344 426.398438 612.839844 425.914062 613.304688 425.453125 C 613.765625 424.988281 614.25 424.550781 614.757812 424.132812 C 615.261719 423.71875 615.789062 423.328125 616.332031 422.964844 C 616.875 422.601562 617.4375 422.265625 618.015625 421.957031 C 618.589844 421.648438 619.183594 421.367188 619.785156 421.117188 C 620.390625 420.867188 621.007812 420.648438 621.632812 420.457031 C 622.257812 420.265625 622.894531 420.109375 623.535156 419.980469 C 624.175781 419.851562 624.824219 419.757812 625.472656 419.691406 C 626.125 419.628906 626.777344 419.597656 627.433594 419.597656 C 628.085938 419.597656 628.738281 419.628906 629.390625 419.691406 C 630.042969 419.757812 630.6875 419.851562 631.332031 419.980469 C 631.972656 420.109375 632.605469 420.265625 633.234375 420.457031 C 633.859375 420.648438 634.472656 420.867188 635.078125 421.117188 C 635.683594 421.367188 636.273438 421.648438 636.851562 421.957031 C 637.429688 422.265625 637.988281 422.601562 638.535156 422.964844 C 639.078125 423.328125 639.601562 423.71875 640.109375 424.132812 C 640.613281 424.550781 641.097656 424.988281 641.5625 425.453125 C 642.023438 425.914062 642.464844 426.398438 642.878906 426.90625 C 643.292969 427.414062 643.683594 427.9375 644.046875 428.480469 C 644.410156 429.027344 644.746094 429.585938 645.054688 430.164062 C 645.363281 430.742188 645.640625 431.332031 645.894531 431.9375 C 646.144531 432.542969 646.363281 433.160156 646.554688 433.785156 C 646.742188 434.414062 646.902344 435.046875 647.03125 435.6875 C 647.15625 436.332031 647.253906 436.976562 647.316406 437.628906 C 647.382812 438.28125 647.414062 438.933594 647.414062 439.589844 L 647.414062 450.652344 C 651.371094 452.121094 655.101562 454.03125 658.601562 456.382812 C 661.742188 458.585938 664.617188 461.09375 667.226562 463.90625 C 669.835938 466.71875 672.121094 469.773438 674.085938 473.070312 C 676.046875 476.367188 677.644531 479.832031 678.875 483.46875 C 680.105469 487.101562 680.941406 490.824219 681.382812 494.636719 C 681.460938 495.292969 681.511719 495.949219 681.527344 496.609375 C 681.542969 497.269531 681.527344 497.925781 681.476562 498.585938 C 681.429688 499.242188 681.347656 499.898438 681.238281 500.546875 C 681.125 501.195312 680.980469 501.839844 680.804688 502.476562 C 680.628906 503.113281 680.421875 503.738281 680.183594 504.351562 C 679.945312 504.96875 679.679688 505.570312 679.382812 506.160156 C 679.085938 506.75 678.761719 507.324219 678.410156 507.878906 C 678.058594 508.4375 677.675781 508.976562 677.273438 509.496094 C 676.867188 510.015625 676.4375 510.515625 675.980469 510.992188 C 675.527344 511.472656 675.050781 511.925781 674.550781 512.355469 C 674.050781 512.789062 673.53125 513.191406 672.992188 513.574219 C 672.453125 513.953125 671.898438 514.304688 671.324219 514.628906 C 670.75 514.957031 670.160156 515.253906 669.558594 515.519531 C 668.957031 515.785156 668.339844 516.023438 667.714844 516.230469 C 667.089844 516.4375 666.453125 516.613281 665.8125 516.757812 C 665.167969 516.902344 664.519531 517.015625 663.863281 517.097656 C 663.210938 517.175781 662.554688 517.226562 661.894531 517.242188 C 661.234375 517.257812 660.578125 517.242188 659.917969 517.191406 C 659.261719 517.144531 658.609375 517.0625 657.957031 516.949219 C 657.308594 516.839844 656.667969 516.695312 656.03125 516.519531 C 655.394531 516.34375 654.769531 516.136719 654.15625 515.898438 C 653.539062 515.660156 652.9375 515.394531 652.347656 515.097656 C 651.757812 514.800781 651.1875 514.476562 650.628906 514.121094 C 650.074219 513.769531 649.535156 513.390625 649.015625 512.984375 C 648.496094 512.578125 647.996094 512.148438 647.519531 511.691406 C 647.039062 511.238281 646.585938 510.761719 646.15625 510.261719 C 645.726562 509.761719 645.320312 509.242188 644.941406 508.703125 C 644.5625 508.164062 644.207031 507.605469 643.882812 507.03125 C 643.558594 506.457031 643.261719 505.871094 642.996094 505.265625 C 642.726562 504.664062 642.492188 504.046875 642.285156 503.421875 C 642.078125 502.796875 641.902344 502.160156 641.757812 501.515625 C 641.613281 500.871094 641.5 500.222656 641.417969 499.570312 C 641.300781 498.554688 641.078125 497.5625 640.746094 496.597656 C 640.414062 495.632812 639.984375 494.710938 639.457031 493.835938 C 638.925781 492.964844 638.3125 492.15625 637.609375 491.414062 C 636.90625 490.671875 636.136719 490.015625 635.292969 489.4375 C 634.441406 488.863281 633.542969 488.386719 632.589844 488.003906 C 631.640625 487.621094 630.65625 487.34375 629.648438 487.171875 C 628.636719 487 627.617188 486.933594 626.59375 486.980469 C 625.570312 487.027344 624.5625 487.179688 623.570312 487.441406 C 622.890625 487.667969 622.234375 487.945312 621.597656 488.269531 C 620.960938 488.59375 620.351562 488.964844 619.769531 489.378906 C 619.1875 489.792969 618.640625 490.25 618.125 490.746094 C 617.613281 491.242188 617.136719 491.773438 616.699219 492.339844 C 616.261719 492.90625 615.871094 493.5 615.523438 494.125 C 615.175781 494.75 614.875 495.398438 614.621094 496.066406 C 614.367188 496.734375 614.164062 497.417969 614.011719 498.117188 C 613.859375 498.816406 613.761719 499.523438 613.710938 500.234375 Z M 614.777344 500.234375 " fill-opacity="1" fill-rule="nonzero"/></g></svg>