<svg xmlns="http://www.w3.org/2000/svg" xmlns:xlink="http://www.w3.org/1999/xlink" width="1080" zoomAndPan="magnify" viewBox="0 0 810 809.999993" height="1080" preserveAspectRatio="xMidYMid meet" version="1.0"><defs><clipPath id="806187e5be"><path d="M 128 166 L 682 166 L 682 776.871094 L 128 776.871094 Z M 128 166 " clip-rule="nonzero"/></clipPath><clipPath id="cf9cf555b5"><path d="M 11.734375 32.871094 L 798.484375 32.871094 L 798.484375 427 L 11.734375 427 Z M 11.734375 32.871094 " clip-rule="nonzero"/></clipPath></defs><g clip-path="url(#806187e5be)"><path fill="#ffffff" d="M 681.3125 411.058594 Z M 681.3125 411.058594 L 405.195312 166.671875 L 128.910156 411.160156 L 128.910156 760.515625 C 128.910156 769.539062 136.203125 776.777344 145.234375 776.777344 L 317.898438 776.777344 L 317.898438 623.597656 C 317.898438 614.574219 325.140625 607.285156 334.167969 607.285156 L 476.042969 607.285156 C 485.074219 607.285156 492.316406 614.574219 492.316406 623.597656 L 492.316406 776.777344 L 665.03125 776.777344 C 674.058594 776.777344 681.300781 769.539062 681.300781 760.515625 L 681.300781 411.042969 Z M 128.910156 411.164062 Z M 128.910156 411.164062 " fill-opacity="1" fill-rule="nonzero"/></g><g clip-path="url(#cf9cf555b5)"><path fill="#ffffff" d="M 403.585938 32.925781 L 11.738281 379.667969 L 53.011719 426.207031 L 405.191406 114.546875 L 757.289062 426.207031 L 798.484375 379.667969 L 406.722656 32.925781 L 405.199219 34.6875 L 403.59375 32.925781 Z M 403.585938 32.925781 " fill-opacity="1" fill-rule="nonzero"/></g><path fill="#ffffff" d="M 128.910156 82.839844 L 228.242188 82.839844 L 227.378906 141.636719 L 128.910156 230.539062 Z M 128.910156 82.839844 " fill-opacity="1" fill-rule="nonzero"/></svg>