<svg xmlns="http://www.w3.org/2000/svg" xmlns:xlink="http://www.w3.org/1999/xlink" width="1080" zoomAndPan="magnify" viewBox="0 0 810 809.999993" height="1080" preserveAspectRatio="xMidYMid meet" version="1.0"><defs><clipPath id="1f4a8616c6"><path d="M 14.359375 66 L 419 66 L 419 696.550781 L 14.359375 696.550781 Z M 14.359375 66 " clip-rule="nonzero"/></clipPath><clipPath id="871973c922"><path d="M 404 237 L 795.859375 237 L 795.859375 602 L 404 602 Z M 404 237 " clip-rule="nonzero"/></clipPath></defs><g clip-path="url(#1f4a8616c6)"><path fill="#ffffff" d="M 170.191406 354.480469 L 40.699219 646.5625 C 39.339844 649.753906 36.167969 651.847656 32.632812 651.847656 C 31.453125 651.847656 30.300781 651.621094 29.214844 651.160156 C 24.769531 649.261719 22.683594 644.109375 24.5625 639.664062 L 154.0625 347.574219 C 155.425781 344.382812 158.597656 342.277344 162.128906 342.277344 C 163.308594 342.277344 164.460938 342.515625 165.546875 342.976562 C 167.707031 343.894531 169.378906 345.601562 170.257812 347.761719 C 171.136719 349.941406 171.109375 352.332031 170.191406 354.480469 Z M 410.386719 269.078125 L 318.144531 188.199219 C 316.078125 189.527344 313.894531 190.734375 311.59375 191.71875 C 306.066406 194.085938 300.234375 195.285156 294.273438 195.285156 C 276.597656 195.285156 260.6875 184.789062 253.730469 168.546875 C 244.171875 146.21875 254.570312 120.273438 276.917969 110.714844 C 282.441406 108.355469 288.269531 107.15625 294.238281 107.15625 C 311.902344 107.15625 327.824219 117.648438 334.773438 133.890625 C 339.363281 144.59375 339.523438 156.429688 335.28125 167.253906 L 417.433594 239.292969 C 421.039062 212.300781 417.335938 184.742188 406.347656 159.0625 C 382.175781 102.597656 326.839844 66.101562 265.378906 66.101562 C 244.65625 66.101562 224.402344 70.273438 205.175781 78.492188 C 167.539062 94.582031 138.4375 124.359375 123.207031 162.335938 C 107.984375 200.316406 108.464844 241.945312 124.566406 279.566406 C 131.949219 296.796875 142.289062 312.359375 155.320312 325.808594 L 157.59375 328.167969 L 155.480469 330.671875 L 155.1875 331.019531 L 24.015625 621.667969 C 23.25 623.148438 22.816406 624.535156 22.605469 626 L 15.070312 681.679688 C 14.421875 686.523438 16.648438 691.363281 20.746094 694.015625 C 21.085938 694.234375 21.425781 694.429688 21.777344 694.609375 C 24.46875 696.007812 27.667969 696.367188 30.640625 695.640625 L 30.980469 695.554688 L 180.597656 358.125 C 183.15625 352.105469 189.09375 348.167969 195.695312 348.167969 C 197.90625 348.167969 200.058594 348.613281 202.097656 349.480469 C 210.433594 353.007812 214.34375 362.664062 210.8125 371 L 197.113281 401.90625 C 197.441406 401.519531 197.753906 401.113281 198.105469 400.738281 C 200.066406 398.652344 202.835938 397.632812 206.546875 397.632812 C 209.285156 397.632812 212.230469 398.179688 215.082031 398.699219 C 217.675781 399.1875 220.125 399.632812 222.125 399.632812 C 223.457031 399.632812 224.371094 399.433594 224.84375 399.027344 L 239.761719 370.308594 L 242.332031 370.707031 C 250.019531 371.894531 257.847656 372.488281 265.597656 372.488281 C 286.316406 372.488281 306.550781 368.328125 325.738281 360.125 C 363.363281 344.035156 392.476562 314.257812 407.695312 276.28125 C 408.660156 273.890625 409.558594 271.496094 410.386719 269.078125 " fill-opacity="1" fill-rule="nonzero"/></g><path fill="#ffffff" d="M 190.34375 417.175781 L 78.675781 669.015625 C 80.027344 668.496094 81.347656 667.996094 82.621094 667.515625 C 92.433594 663.804688 100.1875 660.859375 102.128906 657.113281 C 104.039062 653.441406 103.933594 645.988281 101.839844 637.671875 L 101.507812 636.34375 L 104.011719 631.507812 L 105.917969 631.285156 C 112.546875 630.492188 117.136719 628.234375 118.851562 624.949219 C 120.761719 621.269531 120.648438 613.8125 118.5625 605.488281 L 118.230469 604.160156 L 120.742188 599.328125 L 122.648438 599.109375 C 126.484375 598.648438 133.261719 597.222656 135.574219 592.765625 C 137.484375 589.097656 137.371094 581.640625 135.292969 573.316406 L 134.953125 571.996094 L 137.453125 567.152344 L 139.363281 566.925781 C 145.992188 566.144531 150.578125 563.886719 152.296875 560.59375 C 154.207031 556.914062 154.09375 549.457031 152.003906 541.132812 L 151.675781 539.8125 L 154.175781 534.980469 L 156.085938 534.753906 C 162.714844 533.96875 167.300781 531.714844 169.019531 528.421875 C 170.929688 524.738281 170.816406 517.292969 168.726562 508.960938 L 168.398438 507.628906 L 170.898438 502.804688 L 172.808594 502.578125 C 179.425781 501.789062 184.023438 499.539062 185.742188 496.238281 C 187.652344 492.566406 187.539062 485.109375 185.449219 476.796875 L 185.109375 475.457031 L 187.621094 470.632812 L 189.53125 470.40625 C 196.160156 469.613281 200.746094 467.359375 202.464844 464.0625 C 202.777344 463.460938 203.042969 462.722656 203.257812 461.875 C 202.023438 459.675781 200.992188 457.75 200.046875 455.902344 C 192.171875 440.394531 188.945312 427.578125 190.34375 417.175781 " fill-opacity="1" fill-rule="nonzero"/><path fill="#ffffff" d="M 162.714844 349.648438 L 162.128906 349.527344 C 161.515625 349.527344 160.964844 349.894531 160.722656 350.460938 L 31.21875 642.542969 C 30.917969 643.261719 31.273438 644.15625 32.050781 644.488281 C 32.8125 644.808594 33.71875 644.421875 34.042969 643.675781 L 163.542969 351.59375 C 163.734375 351.140625 163.621094 350.699219 163.535156 350.480469 C 163.441406 350.261719 163.222656 349.867188 162.714844 349.648438 " fill-opacity="1" fill-rule="nonzero"/><path fill="#ffffff" d="M 199.265625 356.152344 C 198.132812 355.671875 196.921875 355.417969 195.695312 355.417969 C 192.003906 355.417969 188.691406 357.617188 187.246094 361.011719 L 41.558594 689.597656 L 66.949219 673.773438 C 67.648438 673.46875 68.335938 673.167969 69.035156 672.875 L 204.15625 368.121094 C 206.109375 363.523438 203.921875 358.125 199.265625 356.152344 " fill-opacity="1" fill-rule="nonzero"/><g clip-path="url(#871973c922)"><path fill="#ffffff" d="M 731.589844 486.027344 L 710.355469 467.839844 L 657.390625 529.667969 L 648.316406 521.898438 L 701.28125 460.082031 L 680.148438 441.988281 L 686.683594 434.363281 L 738.125 478.398438 Z M 610.386719 489.433594 L 618.519531 435.316406 C 620.292969 423.445312 622.445312 411.535156 625.488281 401.105469 L 625.097656 400.933594 C 618.101562 410.136719 611.058594 418.574219 601.171875 430.105469 L 575.753906 459.789062 L 567.292969 452.550781 L 626.800781 383.105469 L 636.695312 391.582031 L 628.742188 445.679688 C 626.828125 458.148438 624.683594 468.992188 621.785156 478.835938 L 622.191406 478.996094 C 629.3125 469.019531 636.335938 460.394531 645.609375 449.578125 L 670.5 420.519531 L 678.949219 427.757812 L 619.453125 497.199219 Z M 555.648438 442.582031 L 516.472656 409.050781 L 575.980469 339.609375 L 613.609375 371.808594 L 607.160156 379.339844 L 578.605469 354.898438 L 559.804688 376.839844 L 586.707031 399.867188 L 580.351562 407.296875 L 553.441406 384.257812 L 531.988281 409.296875 L 562.089844 435.0625 Z M 497.097656 392.46875 C 497.730469 389.441406 501.214844 382.246094 506.777344 372 C 512.921875 360.652344 512.207031 353.785156 504.320312 346.507812 L 495.871094 339.269531 L 470.09375 369.355469 L 461.121094 361.671875 L 519.824219 293.15625 C 525.066406 296.214844 532.195312 301.242188 538.277344 306.453125 C 547.859375 314.65625 552.5625 321.894531 553.527344 329.320312 C 554.28125 335.332031 552.28125 341.835938 547.597656 347.289062 C 539.835938 356.359375 528.851562 357.492188 519.515625 353.792969 L 519.25 354.09375 C 522.921875 360.457031 521.875 368.136719 517.34375 376.765625 C 511.316406 388.390625 507.230469 396.5 506.378906 400.40625 Z M 795.414062 493.765625 C 794.84375 486.402344 791.4375 479.710938 785.835938 474.917969 L 516.71875 244.570312 C 511.714844 240.292969 505.339844 237.933594 498.757812 237.933594 C 490.667969 237.933594 483.019531 241.453125 477.757812 247.589844 L 455.949219 273.050781 L 476.769531 291.304688 C 479.488281 293.691406 481.113281 296.988281 481.347656 300.59375 C 481.582031 304.199219 480.402344 307.679688 478.023438 310.398438 C 475.457031 313.3125 471.746094 314.996094 467.84375 314.996094 C 464.570312 314.996094 461.394531 313.804688 458.921875 311.632812 L 438.347656 293.589844 L 410.839844 325.695312 C 400.925781 337.265625 402.285156 354.738281 413.851562 364.644531 L 682.960938 594.984375 C 687.96875 599.261719 694.351562 601.628906 700.929688 601.628906 C 709.015625 601.628906 716.671875 598.109375 721.921875 591.964844 L 788.851562 513.859375 C 793.648438 508.253906 795.980469 501.117188 795.414062 493.765625 " fill-opacity="1" fill-rule="nonzero"/></g><path fill="#ffffff" d="M 537.84375 340.542969 C 545.519531 331.578125 542.375 322.101562 532.894531 313.984375 C 528.558594 310.285156 525.3125 308.027344 523.414062 307.125 L 501.695312 332.464844 L 510.875 340.316406 C 520.457031 348.527344 531.042969 348.480469 537.84375 340.542969 " fill-opacity="1" fill-rule="nonzero"/><path fill="#ffffff" d="M 310.847656 157.535156 C 309.03125 157.535156 307.316406 158.308594 306.125 159.667969 C 303.839844 162.273438 304.105469 166.246094 306.699219 168.527344 L 463.710938 306.1875 C 466.222656 308.386719 470.375 308.113281 472.566406 305.613281 C 473.671875 304.359375 474.226562 302.734375 474.113281 301.0625 C 474 299.394531 473.246094 297.863281 471.992188 296.761719 L 314.980469 159.089844 C 313.828125 158.089844 312.367188 157.535156 310.847656 157.535156 " fill-opacity="1" fill-rule="nonzero"/></svg>