<svg xmlns="http://www.w3.org/2000/svg" xmlns:xlink="http://www.w3.org/1999/xlink" width="1080" zoomAndPan="magnify" viewBox="0 0 810 809.999993" height="1080" preserveAspectRatio="xMidYMid meet" version="1.0"><defs><clipPath id="fc533a751b"><path d="M 30 423 L 779 423 L 779 729.125 L 30 729.125 Z M 30 423 " clip-rule="nonzero"/></clipPath></defs><path fill="#ffffff" d="M 518.96875 290.25 C 518.148438 290.25 517.328125 290.210938 516.511719 290.128906 C 515.695312 290.050781 514.882812 289.929688 514.078125 289.769531 C 513.273438 289.609375 512.476562 289.410156 511.691406 289.171875 C 510.90625 288.933594 510.132812 288.65625 509.375 288.339844 C 508.617188 288.027344 507.875 287.675781 507.152344 287.289062 C 506.425781 286.902344 505.722656 286.480469 505.042969 286.023438 C 504.359375 285.566406 503.699219 285.078125 503.066406 284.558594 C 502.429688 284.035156 501.824219 283.484375 501.242188 282.90625 C 500.660156 282.324219 500.109375 281.714844 499.589844 281.082031 C 499.070312 280.445312 498.582031 279.789062 498.125 279.105469 C 497.667969 278.421875 497.246094 277.71875 496.859375 276.992188 C 496.472656 276.269531 496.121094 275.527344 495.808594 274.769531 C 495.492188 274.011719 495.21875 273.238281 494.980469 272.453125 C 494.742188 271.667969 494.542969 270.871094 494.382812 270.066406 C 494.222656 269.257812 494.101562 268.449219 494.019531 267.628906 C 493.941406 266.8125 493.898438 265.992188 493.898438 265.171875 C 493.898438 264.347656 493.820312 263.535156 493.660156 262.726562 C 493.5 261.917969 493.261719 261.132812 492.945312 260.375 C 492.632812 259.613281 492.246094 258.890625 491.789062 258.207031 C 491.332031 257.519531 490.8125 256.886719 490.230469 256.304688 C 489.648438 255.722656 489.015625 255.203125 488.328125 254.746094 C 487.644531 254.289062 486.921875 253.902344 486.164062 253.585938 C 485.402344 253.273438 484.617188 253.035156 483.8125 252.875 C 483.003906 252.714844 482.1875 252.632812 481.367188 252.632812 C 480.542969 252.632812 479.726562 252.714844 478.921875 252.875 C 478.113281 253.035156 477.328125 253.273438 476.570312 253.585938 C 475.808594 253.902344 475.085938 254.289062 474.402344 254.746094 C 473.71875 255.203125 473.085938 255.722656 472.503906 256.304688 C 471.921875 256.886719 471.402344 257.519531 470.945312 258.207031 C 470.488281 258.890625 470.101562 259.613281 469.785156 260.375 C 469.472656 261.132812 469.234375 261.917969 469.074219 262.726562 C 468.910156 263.535156 468.832031 264.347656 468.832031 265.171875 C 468.835938 266.546875 468.898438 267.917969 469.015625 269.289062 C 469.132812 270.65625 469.308594 272.019531 469.539062 273.375 C 469.765625 274.726562 470.050781 276.070312 470.390625 277.402344 C 470.734375 278.734375 471.125 280.050781 471.574219 281.347656 C 472.023438 282.648438 472.523438 283.925781 473.078125 285.183594 C 473.628906 286.441406 474.234375 287.675781 474.886719 288.882812 C 475.542969 290.089844 476.246094 291.269531 476.996094 292.421875 C 477.75 293.570312 478.546875 294.6875 479.390625 295.773438 C 480.234375 296.859375 481.117188 297.90625 482.046875 298.917969 C 482.976562 299.929688 483.945312 300.902344 484.957031 301.835938 C 485.964844 302.765625 487.011719 303.65625 488.09375 304.503906 C 489.175781 305.347656 490.289062 306.148438 491.4375 306.902344 C 492.585938 307.660156 493.765625 308.363281 494.96875 309.023438 C 496.175781 309.679688 497.40625 310.289062 498.664062 310.84375 C 499.917969 311.402344 501.195312 311.90625 502.492188 312.355469 C 503.789062 312.808594 505.105469 313.207031 506.433594 313.546875 L 506.433594 327.867188 C 506.433594 328.691406 506.515625 329.507812 506.675781 330.316406 C 506.835938 331.121094 507.074219 331.90625 507.386719 332.667969 C 507.703125 333.425781 508.089844 334.148438 508.546875 334.835938 C 509.003906 335.519531 509.523438 336.152344 510.105469 336.734375 C 510.6875 337.316406 511.320312 337.835938 512.003906 338.292969 C 512.6875 338.75 513.410156 339.136719 514.171875 339.453125 C 514.933594 339.769531 515.714844 340.007812 516.523438 340.167969 C 517.332031 340.328125 518.144531 340.40625 518.96875 340.40625 C 519.792969 340.40625 520.605469 340.328125 521.414062 340.167969 C 522.21875 340.007812 523.003906 339.769531 523.765625 339.453125 C 524.523438 339.136719 525.246094 338.75 525.933594 338.292969 C 526.617188 337.835938 527.25 337.316406 527.832031 336.734375 C 528.414062 336.152344 528.933594 335.519531 529.390625 334.835938 C 529.847656 334.148438 530.234375 333.425781 530.546875 332.667969 C 530.863281 331.90625 531.101562 331.121094 531.261719 330.316406 C 531.421875 329.507812 531.503906 328.691406 531.503906 327.867188 L 531.503906 313.546875 C 532.960938 313.171875 534.402344 312.730469 535.824219 312.226562 C 537.242188 311.71875 538.636719 311.148438 540.007812 310.515625 C 541.375 309.886719 542.714844 309.191406 544.019531 308.4375 C 545.324219 307.683594 546.597656 306.875 547.828125 306.007812 C 549.0625 305.136719 550.253906 304.214844 551.402344 303.242188 C 552.550781 302.265625 553.65625 301.238281 554.714844 300.164062 C 555.769531 299.085938 556.777344 297.964844 557.730469 296.800781 C 558.6875 295.632812 559.589844 294.425781 560.433594 293.175781 C 561.28125 291.929688 562.070312 290.644531 562.800781 289.324219 C 563.53125 288.003906 564.203125 286.65625 564.808594 285.277344 C 565.417969 283.894531 565.964844 282.492188 566.445312 281.0625 C 566.925781 279.632812 567.34375 278.183594 567.695312 276.71875 C 568.042969 275.25 568.328125 273.769531 568.546875 272.277344 C 568.761719 270.785156 568.910156 269.285156 568.992188 267.777344 C 569.074219 266.273438 569.089844 264.765625 569.035156 263.257812 C 568.980469 261.75 568.855469 260.25 568.667969 258.753906 C 568.476562 257.257812 568.21875 255.773438 567.894531 254.296875 C 567.570312 252.824219 567.179688 251.371094 566.722656 249.933594 C 566.265625 248.496094 565.746094 247.082031 565.164062 245.6875 C 564.578125 244.296875 563.933594 242.9375 563.226562 241.605469 C 562.519531 240.273438 561.753906 238.972656 560.929688 237.710938 C 560.105469 236.449219 559.226562 235.226562 558.292969 234.042969 C 557.359375 232.859375 556.371094 231.71875 555.335938 230.625 C 554.296875 229.53125 553.210938 228.484375 552.078125 227.488281 C 550.949219 226.492188 549.773438 225.546875 548.554688 224.660156 C 547.339844 223.769531 546.082031 222.933594 544.789062 222.160156 C 543.496094 221.382812 542.171875 220.664062 540.816406 220.007812 C 539.457031 219.351562 538.074219 218.757812 536.664062 218.226562 C 535.25 217.695312 533.820312 217.226562 532.367188 216.824219 C 530.914062 216.421875 529.445312 216.089844 527.960938 215.820312 C 526.476562 215.550781 524.984375 215.347656 523.484375 215.214844 C 521.980469 215.078125 520.476562 215.011719 518.96875 215.015625 C 518.148438 215.015625 517.328125 214.976562 516.511719 214.894531 C 515.695312 214.8125 514.882812 214.695312 514.078125 214.535156 C 513.273438 214.371094 512.476562 214.171875 511.691406 213.933594 C 510.90625 213.695312 510.132812 213.421875 509.375 213.105469 C 508.617188 212.792969 507.875 212.441406 507.152344 212.054688 C 506.425781 211.667969 505.722656 211.246094 505.042969 210.789062 C 504.359375 210.332031 503.699219 209.84375 503.066406 209.324219 C 502.429688 208.800781 501.824219 208.25 501.242188 207.667969 C 500.660156 207.089844 500.109375 206.480469 499.589844 205.847656 C 499.070312 205.210938 498.582031 204.550781 498.125 203.871094 C 497.667969 203.1875 497.246094 202.484375 496.859375 201.757812 C 496.472656 201.035156 496.121094 200.292969 495.808594 199.535156 C 495.492188 198.773438 495.21875 198.003906 494.980469 197.214844 C 494.742188 196.429688 494.542969 195.632812 494.382812 194.828125 C 494.222656 194.023438 494.101562 193.210938 494.019531 192.394531 C 493.941406 191.578125 493.898438 190.757812 493.898438 189.9375 C 493.898438 189.117188 493.941406 188.296875 494.019531 187.476562 C 494.101562 186.660156 494.222656 185.847656 494.382812 185.042969 C 494.542969 184.238281 494.742188 183.441406 494.980469 182.65625 C 495.21875 181.871094 495.492188 181.097656 495.808594 180.339844 C 496.121094 179.582031 496.472656 178.839844 496.859375 178.113281 C 497.246094 177.390625 497.667969 176.6875 498.125 176.003906 C 498.582031 175.320312 499.070312 174.660156 499.589844 174.027344 C 500.109375 173.390625 500.660156 172.785156 501.242188 172.203125 C 501.824219 171.621094 502.429688 171.070312 503.066406 170.550781 C 503.699219 170.03125 504.359375 169.539062 505.042969 169.085938 C 505.722656 168.628906 506.425781 168.207031 507.152344 167.820312 C 507.875 167.433594 508.617188 167.082031 509.375 166.765625 C 510.132812 166.453125 510.90625 166.175781 511.691406 165.9375 C 512.476562 165.699219 513.273438 165.5 514.078125 165.339844 C 514.882812 165.179688 515.695312 165.058594 516.511719 164.980469 C 517.328125 164.898438 518.148438 164.859375 518.96875 164.859375 C 519.789062 164.859375 520.609375 164.898438 521.425781 164.980469 C 522.242188 165.058594 523.054688 165.179688 523.859375 165.339844 C 524.664062 165.5 525.460938 165.699219 526.246094 165.9375 C 527.03125 166.175781 527.804688 166.453125 528.5625 166.765625 C 529.320312 167.082031 530.0625 167.433594 530.785156 167.820312 C 531.507812 168.207031 532.210938 168.628906 532.894531 169.085938 C 533.578125 169.539062 534.238281 170.03125 534.871094 170.550781 C 535.507812 171.070312 536.113281 171.621094 536.695312 172.203125 C 537.273438 172.785156 537.824219 173.390625 538.347656 174.027344 C 538.867188 174.660156 539.355469 175.320312 539.8125 176.003906 C 540.269531 176.6875 540.6875 177.390625 541.078125 178.113281 C 541.464844 178.839844 541.8125 179.582031 542.128906 180.339844 C 542.441406 181.097656 542.71875 181.871094 542.957031 182.65625 C 543.195312 183.441406 543.394531 184.238281 543.554688 185.042969 C 543.714844 185.847656 543.835938 186.660156 543.914062 187.476562 C 543.996094 188.296875 544.035156 189.117188 544.035156 189.9375 C 544.035156 190.761719 544.117188 191.574219 544.277344 192.382812 C 544.4375 193.191406 544.675781 193.972656 544.992188 194.734375 C 545.304688 195.496094 545.691406 196.21875 546.148438 196.902344 C 546.605469 197.585938 547.125 198.222656 547.707031 198.804688 C 548.289062 199.386719 548.921875 199.90625 549.605469 200.363281 C 550.292969 200.820312 551.011719 201.207031 551.773438 201.519531 C 552.535156 201.835938 553.316406 202.074219 554.125 202.234375 C 554.933594 202.394531 555.746094 202.476562 556.570312 202.476562 C 557.394531 202.476562 558.207031 202.394531 559.015625 202.234375 C 559.824219 202.074219 560.605469 201.835938 561.367188 201.519531 C 562.128906 201.207031 562.851562 200.820312 563.535156 200.363281 C 564.21875 199.90625 564.851562 199.386719 565.433594 198.804688 C 566.015625 198.222656 566.535156 197.585938 566.992188 196.902344 C 567.449219 196.21875 567.835938 195.496094 568.152344 194.734375 C 568.464844 193.972656 568.703125 193.191406 568.863281 192.382812 C 569.023438 191.574219 569.105469 190.761719 569.105469 189.9375 C 569.097656 188.5625 569.039062 187.191406 568.921875 185.820312 C 568.800781 184.453125 568.628906 183.089844 568.398438 181.734375 C 568.167969 180.378906 567.882812 179.039062 567.542969 177.707031 C 567.203125 176.375 566.808594 175.058594 566.363281 173.761719 C 565.914062 172.460938 565.414062 171.183594 564.859375 169.925781 C 564.304688 168.667969 563.703125 167.433594 563.046875 166.226562 C 562.394531 165.019531 561.691406 163.839844 560.9375 162.6875 C 560.1875 161.539062 559.390625 160.421875 558.546875 159.335938 C 557.703125 158.25 556.816406 157.203125 555.886719 156.191406 C 554.960938 155.179688 553.988281 154.207031 552.980469 153.273438 C 551.972656 152.339844 550.925781 151.453125 549.84375 150.605469 C 548.761719 149.761719 547.644531 148.960938 546.496094 148.203125 C 545.351562 147.449219 544.171875 146.746094 542.964844 146.085938 C 541.761719 145.429688 540.53125 144.820312 539.273438 144.265625 C 538.015625 143.707031 536.742188 143.203125 535.445312 142.753906 C 534.144531 142.300781 532.832031 141.902344 531.503906 141.558594 L 531.503906 127.242188 C 531.503906 126.417969 531.421875 125.601562 531.261719 124.792969 C 531.101562 123.988281 530.863281 123.203125 530.546875 122.441406 C 530.234375 121.679688 529.847656 120.957031 529.390625 120.273438 C 528.933594 119.589844 528.414062 118.957031 527.832031 118.375 C 527.25 117.792969 526.617188 117.273438 525.933594 116.8125 C 525.246094 116.355469 524.523438 115.96875 523.765625 115.65625 C 523.003906 115.339844 522.21875 115.101562 521.414062 114.941406 C 520.605469 114.78125 519.792969 114.699219 518.96875 114.699219 C 518.144531 114.699219 517.332031 114.78125 516.523438 114.941406 C 515.714844 115.101562 514.933594 115.339844 514.171875 115.65625 C 513.410156 115.96875 512.6875 116.355469 512.003906 116.8125 C 511.320312 117.273438 510.6875 117.792969 510.105469 118.375 C 509.523438 118.957031 509.003906 119.589844 508.546875 120.273438 C 508.089844 120.957031 507.703125 121.679688 507.386719 122.441406 C 507.074219 123.203125 506.835938 123.988281 506.675781 124.792969 C 506.515625 125.601562 506.433594 126.417969 506.433594 127.242188 L 506.433594 141.558594 C 504.972656 141.9375 503.535156 142.378906 502.113281 142.882812 C 500.691406 143.390625 499.296875 143.960938 497.929688 144.589844 C 496.558594 145.222656 495.222656 145.917969 493.917969 146.671875 C 492.609375 147.421875 491.339844 148.234375 490.109375 149.101562 C 488.875 149.96875 487.683594 150.890625 486.535156 151.867188 C 485.382812 152.84375 484.28125 153.871094 483.222656 154.945312 C 482.167969 156.023438 481.160156 157.144531 480.203125 158.308594 C 479.25 159.476562 478.347656 160.683594 477.5 161.933594 C 476.65625 163.179688 475.867188 164.464844 475.136719 165.785156 C 474.40625 167.101562 473.734375 168.453125 473.125 169.832031 C 472.519531 171.214844 471.972656 172.617188 471.492188 174.046875 C 471.007812 175.476562 470.59375 176.925781 470.242188 178.390625 C 469.890625 179.859375 469.609375 181.339844 469.390625 182.832031 C 469.175781 184.324219 469.023438 185.824219 468.941406 187.328125 C 468.863281 188.835938 468.847656 190.34375 468.902344 191.851562 C 468.957031 193.359375 469.078125 194.859375 469.269531 196.355469 C 469.460938 197.851562 469.71875 199.335938 470.042969 200.808594 C 470.367188 202.285156 470.757812 203.738281 471.214844 205.175781 C 471.667969 206.613281 472.1875 208.027344 472.773438 209.417969 C 473.355469 210.808594 474.003906 212.171875 474.710938 213.503906 C 475.414062 214.835938 476.179688 216.132812 477.003906 217.398438 C 477.828125 218.660156 478.710938 219.882812 479.644531 221.066406 C 480.578125 222.25 481.566406 223.390625 482.601562 224.484375 C 483.640625 225.578125 484.726562 226.625 485.855469 227.621094 C 486.988281 228.617188 488.164062 229.558594 489.382812 230.449219 C 490.597656 231.339844 491.851562 232.171875 493.144531 232.949219 C 494.4375 233.726562 495.765625 234.445312 497.121094 235.101562 C 498.480469 235.757812 499.863281 236.351562 501.273438 236.882812 C 502.683594 237.414062 504.117188 237.882812 505.570312 238.28125 C 507.023438 238.683594 508.492188 239.019531 509.976562 239.289062 C 511.460938 239.558594 512.953125 239.761719 514.453125 239.894531 C 515.957031 240.03125 517.460938 240.09375 518.96875 240.09375 C 519.789062 240.09375 520.609375 240.132812 521.425781 240.214844 C 522.242188 240.296875 523.054688 240.414062 523.859375 240.574219 C 524.664062 240.734375 525.460938 240.933594 526.246094 241.171875 C 527.03125 241.410156 527.804688 241.6875 528.5625 242.003906 C 529.320312 242.316406 530.0625 242.667969 530.785156 243.054688 C 531.507812 243.441406 532.210938 243.863281 532.894531 244.320312 C 533.578125 244.777344 534.238281 245.265625 534.871094 245.785156 C 535.507812 246.308594 536.113281 246.859375 536.695312 247.4375 C 537.273438 248.019531 537.824219 248.628906 538.347656 249.261719 C 538.867188 249.898438 539.355469 250.554688 539.8125 251.238281 C 540.269531 251.921875 540.6875 252.625 541.078125 253.351562 C 541.464844 254.074219 541.8125 254.816406 542.128906 255.574219 C 542.441406 256.332031 542.71875 257.105469 542.957031 257.890625 C 543.195312 258.679688 543.394531 259.472656 543.554688 260.28125 C 543.714844 261.085938 543.835938 261.898438 543.914062 262.714844 C 543.996094 263.53125 544.035156 264.351562 544.035156 265.171875 C 544.035156 265.992188 543.996094 266.8125 543.914062 267.628906 C 543.835938 268.449219 543.714844 269.257812 543.554688 270.066406 C 543.394531 270.871094 543.195312 271.667969 542.957031 272.453125 C 542.71875 273.238281 542.441406 274.011719 542.128906 274.769531 C 541.8125 275.527344 541.464844 276.269531 541.078125 276.992188 C 540.6875 277.71875 540.269531 278.421875 539.8125 279.105469 C 539.355469 279.789062 538.867188 280.445312 538.347656 281.082031 C 537.824219 281.714844 537.273438 282.324219 536.695312 282.90625 C 536.113281 283.484375 535.507812 284.035156 534.871094 284.558594 C 534.238281 285.078125 533.578125 285.566406 532.894531 286.023438 C 532.210938 286.480469 531.507812 286.902344 530.785156 287.289062 C 530.0625 287.675781 529.320312 288.027344 528.5625 288.339844 C 527.804688 288.65625 527.03125 288.933594 526.246094 289.171875 C 525.460938 289.410156 524.664062 289.609375 523.859375 289.769531 C 523.054688 289.929688 522.242188 290.050781 521.425781 290.128906 C 520.609375 290.210938 519.789062 290.25 518.96875 290.25 Z M 518.96875 290.25 " fill-opacity="1" fill-rule="nonzero"/><g clip-path="url(#fc533a751b)"><path fill="#ffffff" d="M 42.671875 729.125 L 117.878906 729.125 C 118.699219 729.125 119.515625 729.042969 120.320312 728.882812 C 121.128906 728.722656 121.914062 728.484375 122.671875 728.171875 C 123.433594 727.855469 124.15625 727.46875 124.839844 727.011719 C 125.523438 726.554688 126.15625 726.035156 126.738281 725.453125 C 127.320312 724.871094 127.839844 724.238281 128.296875 723.550781 C 128.757812 722.867188 129.140625 722.144531 129.457031 721.382812 C 129.773438 720.625 130.007812 719.839844 130.171875 719.03125 C 130.332031 718.222656 130.410156 717.410156 130.410156 716.585938 L 130.410156 691.507812 L 279.566406 691.507812 L 444.226562 724.449219 C 446.394531 724.882812 448.578125 725.203125 450.78125 725.40625 C 452.984375 725.613281 455.1875 725.699219 457.398438 725.667969 C 459.609375 725.640625 461.8125 725.492188 464.007812 725.226562 C 466.203125 724.964844 468.378906 724.585938 470.535156 724.089844 C 472.6875 723.59375 474.8125 722.988281 476.902344 722.265625 C 478.992188 721.546875 481.039062 720.71875 483.042969 719.78125 C 485.042969 718.84375 486.992188 717.804688 488.882812 716.660156 C 490.777344 715.515625 492.601562 714.273438 494.363281 712.9375 L 676.898438 574.515625 L 661.855469 554.527344 L 479.246094 692.960938 C 477.125 694.566406 474.859375 695.929688 472.449219 697.050781 C 470.039062 698.175781 467.535156 699.035156 464.945312 699.632812 C 462.351562 700.226562 459.726562 700.542969 457.066406 700.585938 C 454.410156 700.625 451.773438 700.386719 449.164062 699.871094 L 283.328125 666.679688 C 282.5 666.503906 281.664062 666.421875 280.820312 666.429688 L 130.410156 666.429688 L 130.410156 528.496094 L 218.148438 528.496094 C 218.972656 528.496094 219.789062 528.417969 220.59375 528.253906 C 221.402344 528.09375 222.1875 527.855469 222.945312 527.542969 C 223.707031 527.226562 224.429688 526.839844 225.113281 526.382812 C 225.796875 525.925781 226.429688 525.40625 227.011719 524.824219 C 227.59375 524.242188 228.113281 523.609375 228.570312 522.925781 C 229.027344 522.238281 229.414062 521.515625 229.730469 520.757812 C 230.042969 519.996094 230.28125 519.210938 230.441406 518.402344 C 230.605469 517.597656 230.683594 516.78125 230.683594 515.957031 C 230.683594 488.773438 270.867188 465.800781 318.421875 465.800781 C 324.835938 465.59375 331.21875 465.914062 337.578125 466.765625 C 343.933594 467.617188 350.179688 468.988281 356.3125 470.875 C 362.441406 472.761719 368.375 475.144531 374.113281 478.015625 C 379.847656 480.890625 385.308594 484.214844 390.492188 487.996094 C 391.621094 488.925781 392.871094 489.636719 394.246094 490.132812 C 395.625 490.628906 397.042969 490.875 398.503906 490.878906 L 493.898438 490.878906 C 495.6875 490.882812 497.472656 490.960938 499.257812 491.113281 C 501.039062 491.269531 502.8125 491.5 504.574219 491.804688 C 506.335938 492.113281 508.082031 492.492188 509.8125 492.949219 C 511.542969 493.402344 513.25 493.933594 514.933594 494.535156 C 516.617188 495.136719 518.273438 495.808594 519.902344 496.550781 C 521.527344 497.292969 523.121094 498.105469 524.679688 498.984375 C 526.238281 499.863281 527.753906 500.808594 529.230469 501.816406 C 530.707031 502.828125 532.140625 503.898438 533.527344 505.03125 C 534.910156 506.160156 536.246094 507.351562 537.53125 508.59375 C 538.816406 509.839844 540.042969 511.140625 541.214844 512.492188 C 542.390625 513.839844 543.503906 515.242188 544.558594 516.6875 C 545.609375 518.132812 546.601562 519.621094 547.527344 521.152344 C 548.453125 522.683594 549.3125 524.25 550.105469 525.855469 C 550.898438 527.457031 551.621094 529.09375 552.273438 530.761719 C 552.925781 532.425781 553.507812 534.117188 554.015625 535.832031 C 554.523438 537.546875 554.957031 539.28125 555.316406 541.035156 L 405.347656 541.035156 C 404.523438 541.035156 403.707031 541.117188 402.902344 541.277344 C 402.09375 541.4375 401.308594 541.675781 400.550781 541.992188 C 399.789062 542.304688 399.066406 542.691406 398.382812 543.148438 C 397.699219 543.605469 397.066406 544.125 396.484375 544.707031 C 395.902344 545.289062 395.382812 545.925781 394.925781 546.609375 C 394.46875 547.292969 394.082031 548.015625 393.765625 548.777344 C 393.453125 549.539062 393.214844 550.320312 393.054688 551.128906 C 392.894531 551.9375 392.8125 552.75 392.8125 553.574219 C 392.8125 554.398438 392.894531 555.214844 393.054688 556.023438 C 393.214844 556.828125 393.453125 557.613281 393.765625 558.375 C 394.082031 559.132812 394.46875 559.855469 394.925781 560.542969 C 395.382812 561.226562 395.902344 561.859375 396.484375 562.441406 C 397.066406 563.023438 397.699219 563.542969 398.382812 564 C 399.066406 564.457031 399.789062 564.84375 400.550781 565.160156 C 401.308594 565.476562 402.09375 565.714844 402.902344 565.875 C 403.707031 566.035156 404.523438 566.113281 405.347656 566.113281 L 569.105469 566.113281 C 569.925781 566.113281 570.742188 566.035156 571.550781 565.875 C 572.355469 565.714844 573.140625 565.476562 573.902344 565.160156 C 574.660156 564.84375 575.382812 564.457031 576.066406 564 C 576.753906 563.542969 577.386719 563.023438 577.96875 562.441406 C 578.550781 561.859375 579.070312 561.226562 579.527344 560.542969 C 579.984375 559.855469 580.371094 559.132812 580.683594 558.375 C 581 557.613281 581.238281 556.828125 581.398438 556.023438 C 581.558594 555.214844 581.640625 554.398438 581.640625 553.574219 C 581.617188 548.230469 581.113281 542.929688 580.121094 537.675781 L 715.203125 452.320312 C 716.230469 451.671875 717.304688 451.097656 718.417969 450.609375 C 719.53125 450.117188 720.675781 449.707031 721.851562 449.386719 C 723.023438 449.0625 724.21875 448.828125 725.425781 448.683594 C 726.636719 448.535156 727.847656 448.480469 729.066406 448.511719 C 730.28125 448.542969 731.492188 448.667969 732.691406 448.878906 C 733.890625 449.089844 735.066406 449.386719 736.222656 449.773438 C 737.378906 450.15625 738.5 450.625 739.585938 451.175781 C 740.671875 451.726562 741.710938 452.355469 742.703125 453.058594 C 743.699219 453.765625 744.632812 454.539062 745.511719 455.382812 C 746.390625 456.226562 747.203125 457.128906 747.949219 458.089844 C 748.695312 459.054688 749.367188 460.066406 749.964844 461.128906 C 750.558594 462.191406 751.074219 463.292969 751.507812 464.429688 C 751.941406 465.570312 752.289062 466.734375 752.550781 467.921875 C 752.8125 469.113281 752.988281 470.316406 753.070312 471.53125 C 753.15625 472.746094 753.152344 473.960938 753.054688 475.175781 C 752.960938 476.390625 752.777344 477.589844 752.503906 478.777344 C 752.140625 480.394531 751.617188 481.953125 750.9375 483.460938 C 750.257812 484.96875 749.433594 486.394531 748.460938 487.734375 C 747.492188 489.078125 746.398438 490.304688 745.179688 491.425781 C 743.960938 492.542969 742.640625 493.527344 741.222656 494.378906 C 740.855469 494.601562 740.5 494.84375 740.15625 495.105469 L 686.738281 535.617188 L 701.878906 555.605469 L 754.824219 515.480469 C 756.21875 514.605469 757.566406 513.664062 758.867188 512.65625 C 760.167969 511.648438 761.417969 510.582031 762.613281 509.449219 C 763.808594 508.316406 764.945312 507.128906 766.019531 505.882812 C 767.097656 504.640625 768.113281 503.347656 769.0625 502 C 770.011719 500.65625 770.890625 499.265625 771.703125 497.835938 C 772.515625 496.402344 773.253906 494.933594 773.921875 493.429688 C 774.585938 491.921875 775.175781 490.386719 775.691406 488.824219 C 776.207031 487.261719 776.640625 485.675781 777 484.066406 C 777.355469 482.460938 777.632812 480.839844 777.828125 479.203125 C 778.027344 477.570312 778.140625 475.929688 778.175781 474.285156 C 778.210938 472.636719 778.160156 470.996094 778.03125 469.351562 C 777.902344 467.710938 777.695312 466.082031 777.402344 464.460938 C 777.113281 462.839844 776.742188 461.238281 776.292969 459.652344 C 775.84375 458.070312 775.320312 456.511719 774.714844 454.980469 C 774.113281 453.449219 773.433594 451.949219 772.683594 450.484375 C 771.929688 449.019531 771.105469 447.597656 770.214844 446.214844 C 769.332031 444.859375 768.382812 443.546875 767.371094 442.285156 C 766.359375 441.019531 765.289062 439.808594 764.164062 438.648438 C 763.035156 437.488281 761.851562 436.386719 760.613281 435.339844 C 759.378906 434.296875 758.097656 433.3125 756.765625 432.390625 C 755.433594 431.472656 754.058594 430.617188 752.644531 429.832031 C 751.230469 429.042969 749.78125 428.328125 748.300781 427.679688 C 746.816406 427.035156 745.304688 426.460938 743.765625 425.964844 C 742.226562 425.464844 740.664062 425.039062 739.085938 424.691406 C 737.503906 424.34375 735.910156 424.074219 734.304688 423.882812 C 732.699219 423.691406 731.085938 423.574219 729.46875 423.539062 C 727.847656 423.503906 726.234375 423.546875 724.621094 423.667969 C 723.007812 423.789062 721.402344 423.988281 719.808594 424.261719 C 718.214844 424.539062 716.636719 424.894531 715.078125 425.324219 C 713.515625 425.753906 711.980469 426.257812 710.46875 426.839844 C 708.957031 427.417969 707.480469 428.070312 706.03125 428.792969 C 704.582031 429.515625 703.175781 430.308594 701.804688 431.167969 L 571.773438 513.300781 C 570.855469 511.523438 569.878906 509.777344 568.84375 508.070312 C 567.808594 506.359375 566.714844 504.6875 565.5625 503.050781 C 564.414062 501.414062 563.207031 499.820312 561.949219 498.269531 C 560.6875 496.714844 559.378906 495.207031 558.015625 493.746094 C 556.652344 492.28125 555.242188 490.867188 553.78125 489.5 C 552.324219 488.132812 550.820312 486.816406 549.269531 485.554688 C 547.722656 484.289062 546.128906 483.082031 544.5 481.925781 C 542.867188 480.769531 541.199219 479.671875 539.492188 478.632812 C 537.785156 477.589844 536.042969 476.609375 534.269531 475.6875 C 532.496094 474.765625 530.695312 473.90625 528.859375 473.105469 C 527.027344 472.308594 525.171875 471.570312 523.289062 470.898438 C 521.40625 470.226562 519.5 469.621094 517.578125 469.082031 C 515.652344 468.539062 513.710938 468.0625 511.757812 467.65625 C 509.800781 467.246094 507.832031 466.902344 505.851562 466.628906 C 503.871094 466.355469 501.882812 466.148438 499.890625 466.011719 C 497.894531 465.871094 495.898438 465.800781 493.898438 465.800781 L 402.851562 465.800781 C 396.695312 461.558594 390.242188 457.824219 383.496094 454.601562 C 376.746094 451.375 369.789062 448.699219 362.625 446.570312 C 355.457031 444.441406 348.164062 442.886719 340.753906 441.90625 C 333.339844 440.925781 325.898438 440.53125 318.421875 440.722656 C 261.582031 440.722656 215.820312 467.394531 207.105469 503.417969 L 130.410156 503.417969 L 130.410156 490.878906 C 130.410156 490.054688 130.332031 489.238281 130.171875 488.433594 C 130.007812 487.625 129.773438 486.839844 129.457031 486.082031 C 129.140625 485.320312 128.757812 484.597656 128.296875 483.914062 C 127.839844 483.226562 127.320312 482.59375 126.738281 482.011719 C 126.15625 481.429688 125.523438 480.910156 124.839844 480.453125 C 124.15625 479.996094 123.433594 479.609375 122.671875 479.292969 C 121.914062 478.980469 121.128906 478.742188 120.320312 478.582031 C 119.515625 478.421875 118.699219 478.339844 117.878906 478.339844 L 42.671875 478.339844 C 41.847656 478.339844 41.035156 478.421875 40.226562 478.582031 C 39.417969 478.742188 38.636719 478.980469 37.875 479.292969 C 37.117188 479.609375 36.394531 479.996094 35.707031 480.453125 C 35.023438 480.910156 34.390625 481.429688 33.808594 482.011719 C 33.226562 482.59375 32.707031 483.226562 32.25 483.914062 C 31.792969 484.597656 31.40625 485.320312 31.09375 486.082031 C 30.777344 486.839844 30.539062 487.625 30.378906 488.433594 C 30.21875 489.238281 30.136719 490.054688 30.136719 490.878906 L 30.136719 641.351562 L 55.207031 641.351562 L 55.207031 503.417969 L 105.34375 503.417969 L 105.34375 704.046875 L 55.207031 704.046875 L 55.207031 666.429688 L 30.136719 666.429688 L 30.136719 716.585938 C 30.136719 717.410156 30.21875 718.222656 30.378906 719.03125 C 30.539062 719.839844 30.777344 720.625 31.09375 721.382812 C 31.40625 722.144531 31.792969 722.867188 32.25 723.550781 C 32.707031 724.238281 33.226562 724.871094 33.808594 725.453125 C 34.390625 726.035156 35.023438 726.554688 35.707031 727.011719 C 36.394531 727.46875 37.117188 727.855469 37.875 728.171875 C 38.636719 728.484375 39.417969 728.722656 40.226562 728.882812 C 41.035156 729.042969 41.847656 729.125 42.671875 729.125 Z M 42.671875 729.125 " fill-opacity="1" fill-rule="nonzero"/></g><path fill="#ffffff" d="M 356.023438 380.746094 C 356.246094 381.859375 356.613281 382.921875 357.125 383.9375 C 357.636719 384.949219 358.273438 385.878906 359.035156 386.71875 C 359.796875 387.558594 360.65625 388.28125 361.617188 388.890625 C 362.574219 389.496094 363.597656 389.964844 364.683594 390.292969 C 365.769531 390.621094 366.878906 390.800781 368.015625 390.828125 C 369.148438 390.855469 370.265625 390.730469 371.367188 390.453125 C 372.46875 390.175781 373.511719 389.757812 374.5 389.199219 C 375.484375 388.636719 376.378906 387.957031 377.183594 387.152344 L 386.292969 378.027344 C 388.503906 379.972656 390.753906 381.871094 393.046875 383.71875 C 395.339844 385.566406 397.671875 387.363281 400.042969 389.109375 C 402.414062 390.851562 404.820312 392.546875 407.265625 394.183594 C 409.710938 395.824219 412.191406 397.410156 414.707031 398.9375 C 417.222656 400.46875 419.773438 401.941406 422.351562 403.359375 C 424.933594 404.777344 427.542969 406.136719 430.183594 407.441406 C 432.824219 408.742188 435.492188 409.988281 438.1875 411.171875 C 440.882812 412.355469 443.601562 413.480469 446.34375 414.546875 C 449.089844 415.613281 451.855469 416.617188 454.644531 417.558594 C 457.433594 418.503906 460.242188 419.386719 463.070312 420.203125 C 465.898438 421.023438 468.742188 421.78125 471.601562 422.476562 C 474.464844 423.171875 477.339844 423.800781 480.226562 424.367188 C 483.117188 424.9375 486.015625 425.441406 488.925781 425.878906 C 491.835938 426.320312 494.757812 426.695312 497.683594 427.007812 C 500.609375 427.320312 503.542969 427.566406 506.480469 427.746094 C 509.421875 427.929688 512.359375 428.046875 515.304688 428.097656 C 518.246094 428.152344 521.191406 428.140625 524.132812 428.0625 C 527.078125 427.984375 530.015625 427.84375 532.953125 427.636719 C 535.890625 427.429688 538.820312 427.160156 541.746094 426.824219 C 544.667969 426.488281 547.585938 426.089844 550.492188 425.625 C 553.398438 425.160156 556.296875 424.632812 559.179688 424.039062 C 562.0625 423.449219 564.933594 422.792969 567.785156 422.074219 C 570.640625 421.355469 573.480469 420.578125 576.300781 419.734375 C 579.121094 418.890625 581.921875 417.984375 584.703125 417.019531 C 587.484375 416.050781 590.242188 415.023438 592.976562 413.9375 C 595.714844 412.847656 598.421875 411.703125 601.109375 410.492188 C 603.792969 409.285156 606.449219 408.019531 609.078125 406.695312 C 611.710938 405.371094 614.308594 403.988281 616.875 402.550781 C 619.445312 401.109375 621.980469 399.617188 624.484375 398.066406 C 626.984375 396.515625 629.453125 394.910156 631.886719 393.25 C 634.316406 391.589844 636.710938 389.878906 639.070312 388.113281 C 641.425781 386.347656 643.742188 384.53125 646.019531 382.664062 C 648.296875 380.800781 650.53125 378.882812 652.722656 376.917969 C 654.914062 374.953125 657.0625 372.9375 659.167969 370.878906 C 661.269531 368.820312 663.328125 366.714844 665.339844 364.5625 C 667.351562 362.410156 669.3125 360.21875 671.226562 357.980469 C 673.140625 355.742188 675.007812 353.464844 676.820312 351.144531 C 678.636719 348.828125 680.398438 346.46875 682.109375 344.070312 C 683.816406 341.675781 685.476562 339.242188 687.078125 336.769531 C 688.683594 334.300781 690.230469 331.796875 691.722656 329.257812 C 693.214844 326.722656 694.652344 324.152344 696.03125 321.550781 C 697.414062 318.949219 698.734375 316.316406 700 313.65625 C 701.261719 311 702.46875 308.3125 703.613281 305.597656 C 704.757812 302.886719 705.84375 300.148438 706.871094 297.390625 C 707.894531 294.628906 708.859375 291.847656 709.761719 289.042969 C 710.667969 286.242188 711.507812 283.417969 712.285156 280.578125 C 713.066406 277.738281 713.78125 274.882812 714.433594 272.011719 C 715.085938 269.140625 715.675781 266.253906 716.203125 263.355469 C 716.730469 260.460938 717.191406 257.550781 717.589844 254.632812 C 717.988281 251.714844 718.320312 248.789062 718.589844 245.855469 C 718.859375 242.925781 719.0625 239.988281 719.203125 237.046875 C 719.34375 234.105469 719.417969 231.160156 719.429688 228.214844 C 719.441406 225.269531 719.386719 222.324219 719.265625 219.382812 C 719.148438 216.441406 718.964844 213.503906 718.714844 210.566406 C 718.464844 207.632812 718.152344 204.707031 717.777344 201.785156 C 717.398438 198.863281 716.957031 195.953125 716.453125 193.050781 C 715.945312 190.148438 715.378906 187.261719 714.746094 184.386719 C 714.113281 181.507812 713.417969 178.648438 712.65625 175.800781 C 711.898438 172.957031 711.078125 170.128906 710.195312 167.320312 C 709.3125 164.511719 708.367188 161.722656 707.363281 158.953125 C 706.355469 156.1875 705.289062 153.441406 704.164062 150.722656 C 703.035156 148 701.851562 145.304688 700.605469 142.636719 C 699.359375 139.96875 698.054688 137.328125 696.695312 134.71875 C 695.332031 132.105469 693.914062 129.527344 692.441406 126.976562 L 681.910156 74.363281 C 681.6875 73.25 681.320312 72.1875 680.8125 71.175781 C 680.300781 70.164062 679.664062 69.238281 678.902344 68.398438 C 678.140625 67.558594 677.277344 66.835938 676.320312 66.230469 C 675.363281 65.625 674.339844 65.15625 673.257812 64.828125 C 672.171875 64.5 671.0625 64.320312 669.929688 64.292969 C 668.796875 64.265625 667.679688 64.390625 666.578125 64.664062 C 665.480469 64.941406 664.4375 65.355469 663.449219 65.914062 C 662.464844 66.472656 661.570312 67.152344 660.765625 67.953125 L 651.640625 77.082031 C 649.433594 75.136719 647.183594 73.238281 644.890625 71.390625 C 642.597656 69.539062 640.265625 67.742188 637.894531 66 C 635.523438 64.253906 633.117188 62.558594 630.667969 60.921875 C 628.222656 59.28125 625.742188 57.695312 623.226562 56.167969 C 620.710938 54.636719 618.164062 53.160156 615.582031 51.742188 C 613.003906 50.324219 610.390625 48.964844 607.75 47.664062 C 605.113281 46.359375 602.445312 45.117188 599.75 43.929688 C 597.054688 42.746094 594.332031 41.621094 591.589844 40.554688 C 588.84375 39.488281 586.078125 38.484375 583.289062 37.539062 C 580.5 36.597656 577.691406 35.714844 574.863281 34.894531 C 572.035156 34.074219 569.191406 33.316406 566.332031 32.621094 C 563.46875 31.929688 560.59375 31.296875 557.707031 30.730469 C 554.816406 30.160156 551.917969 29.65625 549.003906 29.21875 C 546.09375 28.777344 543.175781 28.402344 540.246094 28.089844 C 537.320312 27.777344 534.386719 27.53125 531.449219 27.347656 C 528.507812 27.167969 525.570312 27.050781 522.625 26.996094 C 519.679688 26.945312 516.738281 26.957031 513.792969 27.03125 C 510.851562 27.109375 507.910156 27.25 504.976562 27.457031 C 502.039062 27.664062 499.105469 27.9375 496.183594 28.269531 C 493.257812 28.605469 490.339844 29.007812 487.433594 29.472656 C 484.527344 29.933594 481.628906 30.464844 478.746094 31.054688 C 475.863281 31.648438 472.992188 32.300781 470.136719 33.019531 C 467.28125 33.738281 464.445312 34.519531 461.625 35.363281 C 458.800781 36.203125 456 37.109375 453.21875 38.078125 C 450.4375 39.042969 447.679688 40.070312 444.945312 41.160156 C 442.210938 42.246094 439.5 43.394531 436.8125 44.601562 C 434.128906 45.808594 431.46875 47.074219 428.839844 48.402344 C 426.210938 49.726562 423.613281 51.105469 421.042969 52.546875 C 418.476562 53.984375 415.9375 55.480469 413.4375 57.03125 C 410.933594 58.582031 408.464844 60.1875 406.035156 61.847656 C 403.601562 63.507812 401.207031 65.21875 398.851562 66.984375 C 396.492188 68.75 394.175781 70.566406 391.898438 72.433594 C 389.621094 74.300781 387.386719 76.214844 385.195312 78.183594 C 383.003906 80.148438 380.855469 82.160156 378.75 84.222656 C 376.648438 86.28125 374.589844 88.386719 372.578125 90.539062 C 370.566406 92.6875 368.605469 94.882812 366.6875 97.121094 C 364.773438 99.359375 362.910156 101.636719 361.09375 103.957031 C 359.28125 106.277344 357.519531 108.632812 355.808594 111.03125 C 354.097656 113.429688 352.441406 115.863281 350.835938 118.332031 C 349.234375 120.804688 347.6875 123.308594 346.191406 125.847656 C 344.699219 128.382812 343.261719 130.953125 341.882812 133.554688 C 340.503906 136.160156 339.183594 138.789062 337.917969 141.449219 C 336.652344 144.109375 335.449219 146.796875 334.300781 149.507812 C 333.15625 152.222656 332.070312 154.960938 331.046875 157.71875 C 330.019531 160.480469 329.054688 163.261719 328.152344 166.066406 C 327.25 168.871094 326.410156 171.691406 325.632812 174.53125 C 324.851562 177.371094 324.136719 180.230469 323.484375 183.101562 C 322.832031 185.972656 322.242188 188.859375 321.714844 191.757812 C 321.191406 194.652344 320.726562 197.5625 320.332031 200.480469 C 319.933594 203.398438 319.597656 206.324219 319.328125 209.257812 C 319.0625 212.191406 318.855469 215.128906 318.714844 218.070312 C 318.578125 221.011719 318.503906 223.957031 318.492188 226.902344 C 318.480469 229.847656 318.535156 232.789062 318.65625 235.734375 C 318.777344 238.675781 318.960938 241.613281 319.207031 244.550781 C 319.457031 247.484375 319.769531 250.414062 320.148438 253.332031 C 320.527344 256.253906 320.96875 259.164062 321.472656 262.066406 C 321.980469 264.96875 322.550781 267.859375 323.183594 270.734375 C 323.816406 273.609375 324.511719 276.472656 325.269531 279.316406 C 326.03125 282.164062 326.851562 284.992188 327.734375 287.800781 C 328.617188 290.609375 329.5625 293.398438 330.570312 296.167969 C 331.574219 298.933594 332.640625 301.679688 333.769531 304.398438 C 334.894531 307.121094 336.082031 309.816406 337.328125 312.484375 C 338.574219 315.152344 339.878906 317.792969 341.238281 320.40625 C 342.601562 323.015625 344.019531 325.59375 345.496094 328.144531 Z M 643.054688 351.691406 C 641.023438 353.722656 638.941406 355.699219 636.8125 357.625 C 634.683594 359.554688 632.507812 361.425781 630.289062 363.246094 C 628.066406 365.066406 625.800781 366.832031 623.496094 368.539062 C 621.1875 370.25 618.839844 371.902344 616.449219 373.496094 C 614.0625 375.089844 611.636719 376.621094 609.171875 378.097656 C 606.707031 379.570312 604.210938 380.984375 601.675781 382.335938 C 599.144531 383.691406 596.578125 384.980469 593.984375 386.207031 C 591.386719 387.433594 588.761719 388.59375 586.109375 389.691406 C 583.457031 390.789062 580.777344 391.820312 578.074219 392.789062 C 575.371094 393.753906 572.644531 394.65625 569.894531 395.488281 C 567.148438 396.320312 564.382812 397.085938 561.597656 397.78125 C 558.8125 398.476562 556.011719 399.105469 553.195312 399.667969 C 550.378906 400.226562 547.550781 400.714844 544.710938 401.136719 C 541.871094 401.558594 539.019531 401.910156 536.164062 402.191406 C 533.304688 402.472656 530.445312 402.683594 527.578125 402.824219 C 524.707031 402.964844 521.839844 403.035156 518.96875 403.035156 C 516.097656 403.035156 513.226562 402.964844 510.359375 402.824219 C 507.492188 402.683594 504.628906 402.472656 501.773438 402.191406 C 498.914062 401.910156 496.066406 401.558594 493.226562 401.136719 C 490.386719 400.714844 487.558594 400.226562 484.742188 399.667969 C 481.925781 399.105469 479.125 398.476562 476.339844 397.78125 C 473.554688 397.085938 470.789062 396.320312 468.039062 395.488281 C 465.292969 394.65625 462.566406 393.753906 459.863281 392.789062 C 457.160156 391.820312 454.480469 390.789062 451.828125 389.691406 C 449.175781 388.59375 446.550781 387.433594 443.953125 386.207031 C 441.359375 384.980469 438.792969 383.691406 436.261719 382.335938 C 433.726562 380.984375 431.226562 379.570312 428.765625 378.097656 C 426.300781 376.621094 423.875 375.089844 421.484375 373.496094 C 419.097656 371.902344 416.75 370.25 414.441406 368.539062 C 412.132812 366.832031 409.871094 365.066406 407.648438 363.246094 C 405.429688 361.425781 403.253906 359.554688 401.125 357.625 C 398.992188 355.699219 396.914062 353.722656 394.878906 351.691406 C 394.296875 351.109375 393.664062 350.589844 392.980469 350.132812 C 392.296875 349.671875 391.574219 349.285156 390.8125 348.972656 C 390.050781 348.65625 389.265625 348.417969 388.460938 348.257812 C 387.652344 348.097656 386.835938 348.015625 386.011719 348.015625 C 385.1875 348.015625 384.375 348.097656 383.566406 348.257812 C 382.757812 348.417969 381.972656 348.65625 381.214844 348.972656 C 380.453125 349.285156 379.730469 349.671875 379.042969 350.132812 C 378.359375 350.589844 377.726562 351.109375 377.144531 351.691406 L 375.980469 352.871094 L 366.542969 305.625 L 413.769531 315.066406 L 412.605469 316.230469 C 412.023438 316.8125 411.503906 317.449219 411.046875 318.132812 C 410.589844 318.816406 410.203125 319.539062 409.886719 320.300781 C 409.574219 321.058594 409.335938 321.84375 409.175781 322.652344 C 409.015625 323.457031 408.933594 324.273438 408.933594 325.097656 C 408.933594 325.921875 409.015625 326.734375 409.175781 327.542969 C 409.335938 328.351562 409.574219 329.132812 409.886719 329.894531 C 410.203125 330.65625 410.589844 331.378906 411.046875 332.0625 C 411.503906 332.746094 412.023438 333.378906 412.605469 333.960938 C 414.117188 335.480469 415.660156 336.960938 417.234375 338.410156 C 418.808594 339.863281 420.414062 341.277344 422.050781 342.660156 C 423.6875 344.039062 425.351562 345.386719 427.042969 346.695312 C 428.738281 348.007812 430.457031 349.28125 432.203125 350.515625 C 433.953125 351.753906 435.726562 352.953125 437.523438 354.113281 C 439.320312 355.273438 441.144531 356.398438 442.992188 357.480469 C 444.835938 358.5625 446.707031 359.605469 448.597656 360.609375 C 450.488281 361.613281 452.398438 362.578125 454.332031 363.496094 C 456.265625 364.417969 458.214844 365.300781 460.183594 366.136719 C 462.152344 366.976562 464.140625 367.773438 466.144531 368.527344 C 468.148438 369.28125 470.167969 369.992188 472.199219 370.65625 C 474.234375 371.324219 476.28125 371.949219 478.34375 372.527344 C 480.402344 373.109375 482.476562 373.644531 484.558594 374.136719 C 486.640625 374.628906 488.734375 375.074219 490.835938 375.476562 C 492.941406 375.878906 495.050781 376.234375 497.167969 376.546875 C 499.285156 376.859375 501.410156 377.125 503.539062 377.347656 C 505.667969 377.570312 507.800781 377.742188 509.9375 377.875 C 512.074219 378.003906 514.210938 378.089844 516.351562 378.128906 C 518.492188 378.167969 520.632812 378.160156 522.769531 378.105469 C 524.910156 378.054688 527.046875 377.957031 529.183594 377.8125 C 531.320312 377.667969 533.453125 377.480469 535.578125 377.242188 C 537.707031 377.007812 539.828125 376.730469 541.945312 376.402344 C 544.058594 376.078125 546.167969 375.707031 548.269531 375.292969 C 550.367188 374.875 552.457031 374.414062 554.539062 373.910156 C 556.617188 373.40625 558.6875 372.855469 560.742188 372.261719 C 562.800781 371.671875 564.84375 371.035156 566.871094 370.351562 C 568.902344 369.671875 570.917969 368.949219 572.914062 368.183594 C 574.914062 367.417969 576.894531 366.605469 578.859375 365.757812 C 580.824219 364.90625 582.769531 364.011719 584.695312 363.078125 C 586.621094 362.144531 588.527344 361.167969 590.410156 360.152344 C 592.296875 359.136719 594.15625 358.082031 595.996094 356.988281 C 597.835938 355.890625 599.652344 354.757812 601.441406 353.585938 C 603.234375 352.414062 605 351.203125 606.738281 349.953125 C 608.476562 348.707031 610.191406 347.421875 611.875 346.101562 C 613.558594 344.78125 615.214844 343.421875 616.839844 342.03125 C 618.46875 340.640625 620.0625 339.214844 621.628906 337.753906 C 623.195312 336.292969 624.730469 334.800781 626.230469 333.273438 C 627.734375 331.75 629.203125 330.191406 630.636719 328.605469 C 632.074219 327.015625 633.476562 325.398438 634.84375 323.75 C 636.207031 322.101562 637.539062 320.425781 638.835938 318.71875 C 640.128906 317.015625 641.386719 315.28125 642.609375 313.523438 C 643.828125 311.765625 645.011719 309.980469 646.15625 308.171875 C 647.304688 306.363281 648.410156 304.527344 649.476562 302.671875 C 650.542969 300.816406 651.570312 298.9375 652.554688 297.039062 C 653.542969 295.136719 654.488281 293.214844 655.394531 291.277344 C 656.296875 289.335938 657.160156 287.375 657.980469 285.398438 C 658.800781 283.421875 659.582031 281.425781 660.316406 279.414062 C 661.054688 277.40625 661.746094 275.378906 662.394531 273.339844 C 663.042969 271.296875 663.648438 269.246094 664.210938 267.179688 C 664.773438 265.113281 665.292969 263.035156 665.765625 260.945312 C 666.238281 258.859375 666.667969 256.761719 667.050781 254.652344 C 667.433594 252.546875 667.773438 250.433594 668.066406 248.3125 C 668.359375 246.191406 668.605469 244.0625 668.808594 241.933594 C 669.011719 239.800781 669.171875 237.664062 669.28125 235.527344 C 669.394531 233.386719 669.460938 231.246094 669.480469 229.105469 C 669.5 226.964844 669.472656 224.824219 669.402344 222.683594 C 669.332031 220.542969 669.214844 218.40625 669.054688 216.269531 C 668.890625 214.136719 668.683594 212.003906 668.429688 209.878906 C 668.175781 207.753906 667.878906 205.632812 667.535156 203.519531 C 667.191406 201.40625 666.800781 199.300781 666.367188 197.203125 C 665.933594 195.105469 665.457031 193.019531 664.933594 190.941406 C 664.410156 188.867188 663.84375 186.800781 663.234375 184.75 C 662.625 182.695312 661.96875 180.65625 661.269531 178.632812 C 660.574219 176.609375 659.832031 174.601562 659.050781 172.605469 L 684.90625 177.785156 C 685.738281 177.933594 686.570312 177.996094 687.414062 177.972656 C 688.523438 181.738281 689.503906 185.53125 690.355469 189.359375 C 691.210938 193.1875 691.933594 197.039062 692.53125 200.917969 C 693.125 204.792969 693.589844 208.6875 693.921875 212.59375 C 694.257812 216.503906 694.460938 220.417969 694.53125 224.339844 C 694.601562 228.261719 694.542969 232.179688 694.351562 236.097656 C 694.160156 240.015625 693.835938 243.921875 693.382812 247.820312 C 692.929688 251.714844 692.347656 255.59375 691.632812 259.449219 C 690.921875 263.304688 690.078125 267.132812 689.109375 270.933594 C 688.136719 274.734375 687.039062 278.5 685.816406 282.226562 C 684.59375 285.953125 683.25 289.632812 681.777344 293.269531 C 680.308594 296.90625 678.71875 300.488281 677.007812 304.019531 C 675.300781 307.546875 673.472656 311.015625 671.53125 314.421875 C 669.585938 317.828125 667.53125 321.167969 665.367188 324.4375 C 663.199219 327.707031 660.925781 330.898438 658.542969 334.015625 C 656.164062 337.132812 653.679688 340.164062 651.097656 343.113281 C 648.511719 346.0625 645.832031 348.921875 643.054688 351.691406 Z M 430.351562 138.902344 C 431.710938 137.546875 433.101562 136.222656 434.519531 134.929688 C 435.941406 133.636719 437.390625 132.378906 438.867188 131.152344 C 440.347656 129.925781 441.851562 128.734375 443.382812 127.578125 C 444.917969 126.421875 446.476562 125.300781 448.058594 124.214844 C 449.640625 123.128906 451.25 122.082031 452.882812 121.070312 C 454.515625 120.058594 456.167969 119.085938 457.84375 118.148438 C 459.523438 117.210938 461.21875 116.316406 462.9375 115.457031 C 464.65625 114.601562 466.390625 113.78125 468.144531 113.003906 C 469.902344 112.226562 471.675781 111.488281 473.464844 110.792969 C 475.253906 110.097656 477.054688 109.441406 478.875 108.828125 C 480.695312 108.214844 482.527344 107.640625 484.371094 107.113281 C 486.21875 106.582031 488.074219 106.09375 489.941406 105.652344 C 491.808594 105.207031 493.6875 104.804688 495.570312 104.445312 C 497.457031 104.085938 499.351562 103.773438 501.253906 103.5 C 503.152344 103.230469 505.058594 103 506.96875 102.816406 C 508.878906 102.632812 510.792969 102.492188 512.710938 102.398438 C 514.628906 102.300781 516.546875 102.25 518.46875 102.242188 C 520.386719 102.234375 522.304688 102.269531 524.226562 102.347656 C 526.144531 102.429688 528.058594 102.550781 529.96875 102.71875 C 531.882812 102.886719 533.789062 103.101562 535.695312 103.355469 C 537.597656 103.609375 539.492188 103.910156 541.382812 104.25 C 543.269531 104.59375 545.152344 104.980469 547.023438 105.410156 C 548.894531 105.835938 550.753906 106.308594 552.605469 106.824219 C 554.453125 107.335938 556.289062 107.894531 558.113281 108.492188 C 559.9375 109.089844 561.75 109.730469 563.542969 110.410156 C 565.339844 111.09375 567.117188 111.816406 568.878906 112.578125 C 570.640625 113.339844 572.382812 114.144531 574.109375 114.988281 C 575.832031 115.832031 577.539062 116.710938 579.222656 117.632812 C 580.90625 118.554688 582.570312 119.515625 584.210938 120.511719 C 585.851562 121.511719 587.46875 122.542969 589.058594 123.617188 C 590.652344 124.6875 592.222656 125.796875 593.761719 126.941406 C 595.304688 128.082031 596.820312 129.261719 598.308594 130.476562 L 589.886719 138.902344 C 589.082031 139.703125 588.402344 140.597656 587.84375 141.585938 C 587.28125 142.570312 586.863281 143.617188 586.589844 144.714844 C 586.3125 145.816406 586.1875 146.933594 586.214844 148.070312 C 586.238281 149.203125 586.417969 150.3125 586.746094 151.398438 C 587.074219 152.488281 587.539062 153.507812 588.144531 154.46875 C 588.75 155.429688 589.472656 156.289062 590.3125 157.054688 C 591.152344 157.816406 592.078125 158.453125 593.089844 158.964844 C 594.105469 159.476562 595.167969 159.84375 596.277344 160.066406 L 628.351562 166.476562 C 629.230469 168.050781 630.074219 169.648438 630.882812 171.261719 C 631.6875 172.875 632.460938 174.503906 633.199219 176.148438 C 633.9375 177.796875 634.640625 179.457031 635.304688 181.132812 C 635.972656 182.8125 636.601562 184.5 637.195312 186.207031 C 637.789062 187.910156 638.34375 189.625 638.863281 191.355469 C 639.382812 193.082031 639.863281 194.820312 640.308594 196.570312 C 640.753906 198.316406 641.160156 200.074219 641.527344 201.84375 C 641.894531 203.609375 642.226562 205.382812 642.519531 207.164062 C 642.808594 208.941406 643.0625 210.730469 643.277344 212.519531 C 643.492188 214.3125 643.667969 216.109375 643.804688 217.90625 C 643.941406 219.707031 644.042969 221.507812 644.101562 223.3125 C 644.160156 225.113281 644.179688 226.917969 644.164062 228.722656 C 644.144531 230.527344 644.085938 232.328125 643.992188 234.132812 C 643.894531 235.933594 643.761719 237.730469 643.585938 239.527344 C 643.414062 241.324219 643.199219 243.117188 642.949219 244.902344 C 642.699219 246.6875 642.410156 248.46875 642.082031 250.246094 C 641.753906 252.019531 641.386719 253.785156 640.984375 255.542969 C 640.578125 257.300781 640.136719 259.050781 639.65625 260.789062 C 639.175781 262.53125 638.660156 264.257812 638.105469 265.976562 C 637.550781 267.691406 636.960938 269.398438 636.332031 271.089844 C 635.707031 272.78125 635.042969 274.457031 634.339844 276.121094 C 633.640625 277.78125 632.90625 279.429688 632.136719 281.0625 C 631.363281 282.691406 630.558594 284.304688 629.714844 285.902344 C 628.875 287.5 628 289.078125 627.09375 290.636719 C 626.183594 292.195312 625.242188 293.730469 624.265625 295.25 C 623.289062 296.765625 622.285156 298.261719 621.242188 299.738281 C 620.203125 301.210938 619.132812 302.664062 618.03125 304.089844 C 616.925781 305.519531 615.792969 306.921875 614.632812 308.300781 C 613.46875 309.679688 612.277344 311.035156 611.054688 312.363281 C 609.832031 313.691406 608.585938 314.992188 607.308594 316.265625 C 606.03125 317.539062 604.726562 318.785156 603.394531 320 C 602.0625 321.21875 600.707031 322.40625 599.324219 323.566406 C 597.941406 324.726562 596.535156 325.851562 595.101562 326.949219 C 593.671875 328.050781 592.214844 329.117188 590.738281 330.152344 C 589.261719 331.1875 587.761719 332.1875 586.242188 333.160156 C 584.722656 334.128906 583.179688 335.066406 581.621094 335.972656 C 580.058594 336.875 578.480469 337.746094 576.882812 338.582031 C 575.28125 339.417969 573.667969 340.21875 572.035156 340.984375 C 570.402344 341.75 568.75 342.480469 567.085938 343.175781 C 565.421875 343.867188 563.742188 344.527344 562.050781 345.148438 C 560.359375 345.773438 558.652344 346.355469 556.933594 346.90625 C 555.214844 347.453125 553.484375 347.964844 551.746094 348.441406 C 550.003906 348.914062 548.253906 349.347656 546.496094 349.746094 C 544.738281 350.144531 542.96875 350.507812 541.195312 350.828125 C 539.421875 351.148438 537.640625 351.433594 535.851562 351.679688 C 534.066406 351.925781 532.273438 352.128906 530.480469 352.296875 C 528.683594 352.464844 526.882812 352.59375 525.082031 352.683594 C 523.28125 352.773438 521.480469 352.824219 519.675781 352.839844 C 517.871094 352.851562 516.070312 352.824219 514.265625 352.757812 C 512.464844 352.691406 510.664062 352.585938 508.867188 352.445312 C 507.066406 352.300781 505.273438 352.117188 503.484375 351.898438 C 501.695312 351.675781 499.910156 351.417969 498.128906 351.121094 C 496.351562 350.820312 494.578125 350.484375 492.816406 350.109375 C 491.050781 349.738281 489.296875 349.324219 487.550781 348.875 C 485.800781 348.421875 484.066406 347.9375 482.339844 347.410156 C 480.613281 346.886719 478.902344 346.324219 477.199219 345.722656 C 475.5 345.125 473.8125 344.488281 472.136719 343.816406 C 470.464844 343.144531 468.804688 342.4375 467.164062 341.691406 C 465.519531 340.949219 463.890625 340.167969 462.28125 339.355469 C 460.671875 338.542969 459.082031 337.695312 457.507812 336.8125 C 455.933594 335.929688 454.382812 335.011719 452.847656 334.0625 C 451.316406 333.113281 449.804688 332.128906 448.3125 331.113281 C 446.820312 330.097656 445.351562 329.050781 443.90625 327.972656 C 442.460938 326.894531 441.039062 325.785156 439.640625 324.644531 L 448.0625 316.21875 C 448.867188 315.417969 449.546875 314.523438 450.105469 313.535156 C 450.667969 312.546875 451.085938 311.503906 451.359375 310.402344 C 451.636719 309.300781 451.761719 308.183594 451.734375 307.046875 C 451.707031 305.914062 451.527344 304.804688 451.199219 303.714844 C 450.871094 302.628906 450.402344 301.605469 449.796875 300.648438 C 449.191406 299.6875 448.46875 298.828125 447.625 298.0625 C 446.785156 297.300781 445.859375 296.664062 444.847656 296.152344 C 443.832031 295.640625 442.769531 295.277344 441.65625 295.054688 L 409.59375 288.644531 C 407.933594 285.695312 406.398438 282.683594 404.980469 279.609375 C 403.566406 276.535156 402.277344 273.40625 401.117188 270.226562 C 399.953125 267.046875 398.925781 263.824219 398.023438 260.5625 C 397.125 257.296875 396.359375 254.003906 395.730469 250.675781 C 395.097656 247.351562 394.601562 244.003906 394.246094 240.640625 C 393.886719 237.273438 393.664062 233.898438 393.578125 230.511719 C 393.496094 227.128906 393.546875 223.746094 393.738281 220.367188 C 393.929688 216.988281 394.257812 213.621094 394.722656 210.265625 C 395.183594 206.914062 395.785156 203.585938 396.519531 200.28125 C 397.253906 196.976562 398.125 193.707031 399.125 190.472656 C 400.125 187.238281 401.257812 184.050781 402.519531 180.910156 C 403.777344 177.769531 405.164062 174.683594 406.675781 171.65625 C 408.1875 168.625 409.820312 165.664062 411.570312 162.765625 C 413.324219 159.871094 415.191406 157.050781 417.171875 154.308594 C 419.15625 151.5625 421.246094 148.902344 423.441406 146.332031 C 425.640625 143.757812 427.941406 141.277344 430.339844 138.890625 Z M 394.878906 103.414062 C 396.914062 101.386719 398.992188 99.410156 401.125 97.480469 C 403.253906 95.554688 405.429688 93.683594 407.648438 91.863281 C 409.871094 90.042969 412.132812 88.277344 414.441406 86.570312 C 416.75 84.859375 419.097656 83.207031 421.484375 81.613281 C 423.875 80.019531 426.300781 78.488281 428.765625 77.011719 C 431.226562 75.535156 433.726562 74.125 436.261719 72.769531 C 438.792969 71.417969 441.355469 70.128906 443.953125 68.902344 C 446.550781 67.675781 449.175781 66.515625 451.828125 65.417969 C 454.480469 64.320312 457.160156 63.285156 459.863281 62.320312 C 462.566406 61.355469 465.292969 60.453125 468.039062 59.621094 C 470.789062 58.789062 473.554688 58.023438 476.339844 57.328125 C 479.125 56.628906 481.925781 56.003906 484.742188 55.441406 C 487.558594 54.882812 490.386719 54.394531 493.226562 53.972656 C 496.066406 53.550781 498.914062 53.199219 501.773438 52.917969 C 504.628906 52.636719 507.492188 52.425781 510.359375 52.285156 C 513.226562 52.144531 516.097656 52.074219 518.96875 52.074219 C 521.839844 52.074219 524.707031 52.144531 527.578125 52.285156 C 530.445312 52.425781 533.304688 52.636719 536.164062 52.917969 C 539.019531 53.199219 541.871094 53.550781 544.710938 53.972656 C 547.550781 54.394531 550.378906 54.882812 553.195312 55.441406 C 556.011719 56.003906 558.8125 56.628906 561.597656 57.328125 C 564.382812 58.023438 567.148438 58.789062 569.894531 59.621094 C 572.644531 60.453125 575.371094 61.355469 578.074219 62.320312 C 580.777344 63.285156 583.457031 64.320312 586.109375 65.417969 C 588.761719 66.515625 591.386719 67.675781 593.984375 68.902344 C 596.578125 70.128906 599.144531 71.417969 601.675781 72.769531 C 604.210938 74.125 606.707031 75.535156 609.171875 77.011719 C 611.636719 78.488281 614.0625 80.019531 616.449219 81.613281 C 618.839844 83.207031 621.1875 84.859375 623.496094 86.570312 C 625.800781 88.277344 628.066406 90.042969 630.289062 91.863281 C 632.507812 93.683594 634.683594 95.554688 636.8125 97.480469 C 638.941406 99.410156 641.023438 101.386719 643.054688 103.414062 C 643.636719 103.996094 644.269531 104.515625 644.953125 104.972656 C 645.640625 105.433594 646.363281 105.816406 647.121094 106.132812 C 647.882812 106.449219 648.664062 106.6875 649.472656 106.847656 C 650.28125 107.007812 651.09375 107.085938 651.917969 107.085938 C 652.742188 107.085938 653.554688 107.007812 654.363281 106.847656 C 655.167969 106.6875 655.953125 106.449219 656.714844 106.132812 C 657.472656 105.816406 658.195312 105.433594 658.878906 104.972656 C 659.5625 104.515625 660.195312 103.996094 660.777344 103.414062 L 661.957031 102.238281 L 671.394531 149.484375 L 624.167969 140.042969 L 625.332031 138.875 C 625.914062 138.292969 626.433594 137.660156 626.890625 136.976562 C 627.347656 136.292969 627.734375 135.570312 628.046875 134.808594 C 628.363281 134.046875 628.601562 133.265625 628.761719 132.457031 C 628.921875 131.648438 629.003906 130.835938 629.003906 130.011719 C 629.003906 129.1875 628.921875 128.371094 628.761719 127.566406 C 628.601562 126.757812 628.363281 125.972656 628.046875 125.214844 C 627.734375 124.453125 627.347656 123.730469 626.890625 123.046875 C 626.433594 122.363281 625.914062 121.726562 625.332031 121.144531 C 623.820312 119.628906 622.277344 118.148438 620.703125 116.699219 C 619.125 115.246094 617.519531 113.832031 615.886719 112.449219 C 614.25 111.070312 612.585938 109.722656 610.894531 108.414062 C 609.199219 107.101562 607.480469 105.828125 605.730469 104.59375 C 603.984375 103.355469 602.210938 102.15625 600.414062 100.996094 C 598.613281 99.835938 596.792969 98.710938 594.945312 97.628906 C 593.097656 96.546875 591.230469 95.503906 589.339844 94.5 C 587.449219 93.496094 585.535156 92.53125 583.605469 91.609375 C 581.671875 90.6875 579.722656 89.808594 577.753906 88.96875 C 575.78125 88.132812 573.796875 87.335938 571.792969 86.582031 C 569.789062 85.828125 567.769531 85.117188 565.734375 84.449219 C 563.703125 83.785156 561.65625 83.160156 559.59375 82.578125 C 557.535156 82 555.460938 81.464844 553.378906 80.972656 C 551.296875 80.480469 549.203125 80.035156 547.101562 79.632812 C 544.996094 79.230469 542.886719 78.875 540.769531 78.5625 C 538.652344 78.25 536.527344 77.984375 534.398438 77.761719 C 532.269531 77.539062 530.136719 77.363281 528 77.234375 C 525.863281 77.105469 523.726562 77.019531 521.585938 76.980469 C 519.445312 76.941406 517.304688 76.949219 515.164062 77 C 513.027344 77.054688 510.886719 77.152344 508.753906 77.296875 C 506.617188 77.441406 504.484375 77.628906 502.355469 77.863281 C 500.230469 78.101562 498.109375 78.378906 495.992188 78.707031 C 493.875 79.03125 491.769531 79.402344 489.667969 79.816406 C 487.570312 80.234375 485.480469 80.691406 483.398438 81.199219 C 481.320312 81.703125 479.25 82.25 477.195312 82.84375 C 475.136719 83.4375 473.09375 84.074219 471.0625 84.753906 C 469.035156 85.4375 467.019531 86.160156 465.019531 86.925781 C 463.023438 87.691406 461.042969 88.5 459.078125 89.351562 C 457.113281 90.203125 455.167969 91.097656 453.242188 92.03125 C 451.316406 92.964844 449.410156 93.941406 447.527344 94.957031 C 445.640625 95.972656 443.78125 97.027344 441.941406 98.121094 C 440.101562 99.214844 438.285156 100.351562 436.492188 101.523438 C 434.703125 102.695312 432.9375 103.90625 431.199219 105.152344 C 429.460938 106.402344 427.746094 107.6875 426.0625 109.007812 C 424.378906 110.328125 422.722656 111.6875 421.09375 113.078125 C 419.46875 114.46875 417.871094 115.894531 416.308594 117.355469 C 414.742188 118.816406 413.207031 120.308594 411.703125 121.835938 C 410.203125 123.359375 408.734375 124.917969 407.296875 126.503906 C 405.863281 128.09375 404.460938 129.710938 403.09375 131.359375 C 401.726562 133.007812 400.398438 134.683594 399.101562 136.390625 C 397.808594 138.09375 396.550781 139.828125 395.328125 141.585938 C 394.105469 143.34375 392.921875 145.128906 391.777344 146.9375 C 390.632812 148.746094 389.527344 150.578125 388.460938 152.4375 C 387.394531 154.292969 386.367188 156.171875 385.378906 158.070312 C 384.394531 159.972656 383.449219 161.890625 382.542969 163.832031 C 381.640625 165.773438 380.777344 167.734375 379.957031 169.710938 C 379.132812 171.6875 378.355469 173.683594 377.621094 175.695312 C 376.882812 177.703125 376.191406 179.730469 375.542969 181.769531 C 374.890625 183.8125 374.285156 185.863281 373.722656 187.929688 C 373.164062 189.996094 372.644531 192.074219 372.171875 194.164062 C 371.699219 196.25 371.269531 198.347656 370.886719 200.457031 C 370.503906 202.5625 370.164062 204.675781 369.871094 206.796875 C 369.578125 208.917969 369.328125 211.046875 369.125 213.175781 C 368.921875 215.308594 368.765625 217.445312 368.65625 219.582031 C 368.542969 221.722656 368.476562 223.859375 368.457031 226.003906 C 368.4375 228.144531 368.460938 230.285156 368.535156 232.425781 C 368.605469 234.566406 368.722656 236.703125 368.882812 238.835938 C 369.046875 240.972656 369.253906 243.105469 369.507812 245.230469 C 369.761719 247.355469 370.058594 249.476562 370.402344 251.589844 C 370.746094 253.703125 371.132812 255.808594 371.566406 257.90625 C 372 260.003906 372.480469 262.089844 373.003906 264.167969 C 373.523438 266.242188 374.09375 268.308594 374.703125 270.359375 C 375.3125 272.414062 375.96875 274.449219 376.664062 276.476562 C 377.363281 278.5 378.105469 280.507812 378.886719 282.5 L 353.027344 277.324219 C 352.199219 277.179688 351.363281 277.121094 350.523438 277.148438 C 349.414062 273.382812 348.433594 269.589844 347.578125 265.761719 C 346.726562 261.933594 346.003906 258.078125 345.40625 254.203125 C 344.8125 250.324219 344.347656 246.433594 344.011719 242.523438 C 343.679688 238.617188 343.476562 234.699219 343.40625 230.777344 C 343.332031 226.855469 343.394531 222.9375 343.585938 219.019531 C 343.777344 215.101562 344.097656 211.195312 344.550781 207.296875 C 345.007812 203.402344 345.589844 199.523438 346.304688 195.667969 C 347.015625 191.808594 347.859375 187.980469 348.828125 184.179688 C 349.800781 180.378906 350.894531 176.617188 352.117188 172.890625 C 353.34375 169.164062 354.6875 165.480469 356.15625 161.84375 C 357.628906 158.207031 359.21875 154.625 360.929688 151.09375 C 362.636719 147.566406 364.464844 144.097656 366.40625 140.691406 C 368.351562 137.28125 370.40625 133.945312 372.570312 130.675781 C 374.738281 127.40625 377.011719 124.210938 379.390625 121.097656 C 381.773438 117.980469 384.253906 114.945312 386.839844 111.996094 C 389.425781 109.046875 392.105469 106.1875 394.878906 103.414062 Z M 394.878906 103.414062 " fill-opacity="1" fill-rule="nonzero"/></svg>