<svg xmlns="http://www.w3.org/2000/svg" xmlns:xlink="http://www.w3.org/1999/xlink" width="1080" zoomAndPan="magnify" viewBox="0 0 810 809.999993" height="1080" preserveAspectRatio="xMidYMid meet" version="1.0"><defs><clipPath id="35dc524d05"><path d="M 227 378 L 782 378 L 782 622.484375 L 227 622.484375 Z M 227 378 " clip-rule="nonzero"/></clipPath></defs><path fill="#ffffff" d="M 312.078125 98.980469 C 282.601562 102.417969 252.078125 119.164062 232.78125 142.1875 C 223.203125 153.550781 211.238281 177.46875 207.640625 191.964844 C 200.160156 223.207031 205.394531 256.394531 222.15625 284.949219 C 229.636719 297.652344 250.738281 318.882812 262.554688 325.910156 C 297.117188 346.097656 335.867188 349.230469 372.972656 334.882812 C 392.273438 327.40625 413.074219 311.859375 424.597656 296.164062 C 427.589844 292.125 431.328125 288.386719 432.824219 287.941406 C 434.472656 287.339844 489.679688 303.039062 566.738281 325.910156 C 658.75 353.414062 699.75 364.925781 704.835938 364.925781 C 722.640625 364.777344 736.558594 350.421875 736.558594 332.035156 C 736.558594 323.816406 730.417969 312.601562 722.640625 306.179688 C 718.601562 302.890625 715.605469 299.148438 715.605469 297.503906 C 715.605469 296.007812 717.703125 287.488281 720.246094 278.816406 C 723.84375 266.851562 724.738281 261.023438 724.289062 255.042969 C 722.34375 232.320312 696.308594 219.164062 676.410156 230.832031 C 667.433594 236.058594 663.242188 243.089844 657.410156 262.972656 C 654.867188 271.488281 652.472656 278.964844 652.027344 279.867188 C 650.527344 281.964844 644.242188 281.511719 632.722656 278.074219 C 616.410156 273.289062 616.863281 274.636719 624.945312 247.28125 C 632.574219 221.269531 633.46875 212.453125 628.984375 203.777344 C 618.210938 182.855469 589.78125 179.261719 575.273438 196.90625 C 571.230469 201.839844 569.734375 205.875 560.007812 237.414062 C 555.820312 251.617188 555.070312 252.816406 551.628906 252.816406 C 544.296875 252.816406 456.171875 225.757812 453.480469 222.765625 C 451.984375 221.121094 450.640625 215.742188 450.039062 209.757812 C 442.699219 140.535156 380.75 90.757812 312.078125 98.980469 Z M 340.058594 142.328125 C 368.035156 146.660156 392.722656 167.59375 402.597656 194.949219 C 407.988281 209.75 408.136719 230.980469 403.199219 245.628906 C 389.589844 285.246094 349.183594 307.824219 308.941406 298.398438 C 273.777344 290.03125 247.296875 256.835938 247.296875 220.816406 C 247.296875 209.90625 252.382812 191.363281 258.070312 181.203125 C 270.941406 158.476562 298.917969 141.882812 325.84375 140.839844 C 328.386719 140.839844 334.667969 141.429688 340.058594 142.328125 Z M 340.058594 142.328125 " fill-opacity="1" fill-rule="nonzero"/><g clip-path="url(#35dc524d05)"><path fill="#ffffff" d="M 353.519531 379.273438 C 331.226562 381.371094 260.902344 391.234375 246.835938 394.222656 C 244.589844 394.671875 241.75 396.464844 240.550781 398.257812 C 237.40625 403.191406 225.136719 598.582031 227.835938 601.722656 C 230.980469 605.613281 234.871094 604.558594 244.746094 596.9375 C 249.832031 593.046875 258.367188 587.96875 263.601562 585.574219 C 275.417969 580.34375 277.21875 580.492188 326.59375 589.613281 C 428.636719 608.746094 520.804688 622.046875 554.015625 622.351562 C 568.230469 622.5 571.074219 622.054688 583.042969 617.714844 C 630.46875 600.375 734.753906 540.425781 762.734375 514.117188 C 779.792969 498.273438 785.480469 480.480469 778.148438 466.574219 C 775.902344 462.390625 772.3125 458.648438 768.570312 456.5625 C 758.546875 450.730469 753.609375 451.777344 724.585938 465.679688 C 673.414062 490.199219 617.605469 507.6875 573.460938 513.0625 C 519.148438 519.640625 428.332031 498.117188 428.332031 478.679688 C 428.332031 474.492188 429.976562 474.640625 459.898438 479.878906 C 496.257812 486.457031 505.085938 487.648438 524.234375 488.546875 C 560.148438 490.339844 585.4375 482.265625 593.8125 466.273438 C 597.105469 459.84375 596.511719 446.992188 592.472656 441.003906 C 588.285156 434.871094 586.785156 434.28125 535.3125 417.984375 C 431.328125 385.40625 388.082031 376.140625 353.519531 379.273438 Z M 353.519531 379.273438 " fill-opacity="1" fill-rule="nonzero"/></g><path fill="#ffffff" d="M 49.039062 387.199219 C 37.816406 392.28125 38.710938 388.09375 26.449219 499.167969 C 14.476562 607.550781 14.476562 606.359375 22.261719 609.945312 C 24.804688 611.136719 46.949219 611.589844 95.132812 611.589844 C 160.066406 611.589844 164.550781 611.441406 168.898438 608.746094 C 171.441406 607.25 174.289062 603.960938 175.183594 601.722656 C 176.230469 599.332031 180.269531 554.035156 184.457031 501.117188 C 192.679688 393.925781 192.679688 396.769531 182.65625 392.734375 C 179.367188 391.390625 160.363281 389.894531 123.859375 388.25 C 94.234375 386.902344 66.707031 385.5625 62.511719 385.109375 C 57.121094 384.511719 53.382812 385.109375 49.039062 387.199219 Z M 116.222656 522.042969 C 128.1875 525.332031 139.5625 540.730469 139.5625 553.433594 C 139.5625 560.316406 135.222656 570.332031 129.539062 576.011719 C 124 581.695312 113.828125 586.175781 106.644531 586.175781 C 98.710938 586.175781 88.992188 581.539062 82.851562 574.960938 C 70.582031 561.65625 70.730469 544.464844 83.148438 531.308594 C 92.433594 521.597656 103.351562 518.457031 116.222656 522.042969 Z M 116.222656 522.042969 " fill-opacity="1" fill-rule="nonzero"/></svg>