<svg xmlns="http://www.w3.org/2000/svg" xmlns:xlink="http://www.w3.org/1999/xlink" width="1080" zoomAndPan="magnify" viewBox="0 0 810 809.999993" height="1080" preserveAspectRatio="xMidYMid meet" version="1.0"><defs><clipPath id="5672584abc"><path d="M 35 51 L 775 51 L 775 758.929688 L 35 758.929688 Z M 35 51 " clip-rule="nonzero"/></clipPath></defs><g clip-path="url(#5672584abc)"><path fill="#ffffff" d="M 110.035156 326.871094 C 142.6875 382.050781 175.351562 437.21875 208.023438 492.371094 C 208.488281 493.023438 208.859375 493.730469 209.125 494.484375 C 209.394531 495.242188 209.550781 496.023438 209.59375 496.824219 C 209.640625 497.625 209.574219 498.417969 209.394531 499.199219 C 209.214844 499.980469 208.929688 500.722656 208.539062 501.425781 C 208.167969 502.183594 207.820312 502.953125 207.496094 503.730469 C 207.171875 504.511719 206.871094 505.300781 206.597656 506.097656 C 206.320312 506.894531 206.070312 507.699219 205.84375 508.511719 C 205.617188 509.328125 205.414062 510.144531 205.238281 510.972656 C 205.0625 511.796875 204.910156 512.625 204.785156 513.460938 C 204.660156 514.296875 204.558594 515.132812 204.484375 515.972656 C 204.410156 516.816406 204.363281 517.65625 204.339844 518.5 C 204.316406 519.34375 204.320312 520.1875 204.347656 521.03125 C 204.378906 521.875 204.429688 522.714844 204.511719 523.558594 C 204.59375 524.398438 204.699219 525.234375 204.828125 526.066406 C 204.960938 526.902344 205.117188 527.730469 205.300781 528.554688 C 205.480469 529.378906 205.6875 530.195312 205.921875 531.007812 C 206.152344 531.820312 206.410156 532.625 206.691406 533.417969 C 206.972656 534.214844 207.277344 535 207.605469 535.777344 C 207.9375 536.554688 208.289062 537.320312 208.664062 538.078125 C 209.042969 538.832031 209.441406 539.574219 209.863281 540.308594 C 210.285156 541.039062 210.726562 541.753906 211.191406 542.460938 C 211.660156 543.164062 212.144531 543.851562 212.652344 544.527344 C 213.160156 545.199219 213.6875 545.859375 214.238281 546.5 C 214.785156 547.144531 215.351562 547.765625 215.9375 548.375 C 216.523438 548.980469 217.128906 549.570312 217.75 550.140625 C 218.371094 550.710938 219.011719 551.261719 219.667969 551.792969 C 220.324219 552.324219 220.996094 552.835938 221.683594 553.324219 C 222.371094 553.8125 223.070312 554.28125 223.785156 554.730469 C 224.503906 555.175781 225.230469 555.601562 225.972656 556.003906 C 226.714844 556.40625 227.46875 556.785156 228.234375 557.144531 C 229 557.5 229.773438 557.832031 230.558594 558.140625 C 231.34375 558.449219 232.136719 558.734375 232.941406 558.996094 C 233.742188 559.257812 234.554688 559.492188 235.371094 559.703125 C 236.1875 559.914062 237.011719 560.097656 237.839844 560.261719 C 238.667969 560.421875 239.5 560.554688 240.335938 560.664062 C 241.175781 560.773438 242.011719 560.859375 242.855469 560.917969 C 243.660156 561.003906 244.453125 561.238281 245.8125 561.519531 C 245.917969 564.203125 246.265625 566.851562 246.855469 569.46875 C 247.449219 572.085938 248.273438 574.625 249.332031 577.089844 C 250.390625 579.554688 251.667969 581.90625 253.15625 584.136719 C 254.648438 586.367188 256.328125 588.441406 258.199219 590.363281 C 260.097656 592.300781 262.160156 594.035156 264.386719 595.574219 C 266.617188 597.109375 268.972656 598.421875 271.453125 599.507812 C 273.933594 600.59375 276.496094 601.429688 279.136719 602.023438 C 281.78125 602.617188 284.453125 602.953125 287.160156 603.03125 C 290.570312 627.730469 303.917969 642.273438 329.1875 644.933594 C 329.242188 646.910156 329.4375 648.871094 329.769531 650.820312 C 330.101562 652.769531 330.566406 654.6875 331.164062 656.570312 C 331.761719 658.453125 332.488281 660.289062 333.339844 662.070312 C 334.195312 663.855469 335.164062 665.570312 336.257812 667.21875 C 337.351562 668.867188 338.550781 670.429688 339.859375 671.910156 C 341.167969 673.394531 342.574219 674.777344 344.078125 676.0625 C 345.578125 677.347656 347.164062 678.519531 348.828125 679.585938 C 350.496094 680.648438 352.226562 681.59375 354.023438 682.417969 C 355.808594 683.261719 357.640625 683.976562 359.527344 684.566406 C 361.410156 685.152344 363.324219 685.605469 365.273438 685.921875 C 367.222656 686.238281 369.183594 686.421875 371.15625 686.464844 C 373.128906 686.507812 375.09375 686.410156 377.054688 686.175781 C 379.015625 685.945312 380.949219 685.574219 382.855469 685.070312 C 384.761719 684.566406 386.628906 683.929688 388.445312 683.164062 C 390.265625 682.394531 392.019531 681.507812 393.714844 680.492188 C 395.40625 679.480469 397.023438 678.355469 398.558594 677.113281 C 428.546875 701.371094 467.722656 683.171875 470.519531 646.839844 C 495.46875 644.269531 508.90625 629.796875 512.472656 605.140625 C 537.210938 602.34375 550.871094 588.148438 554.15625 563.183594 C 557.0625 563.101562 559.929688 562.726562 562.753906 562.054688 C 565.582031 561.382812 568.3125 560.425781 570.941406 559.191406 C 573.570312 557.957031 576.050781 556.464844 578.371094 554.722656 C 580.695312 552.976562 582.816406 551.011719 584.738281 548.828125 C 586.042969 547.378906 587.242188 545.847656 588.335938 544.230469 C 589.425781 542.613281 590.398438 540.929688 591.253906 539.175781 C 592.105469 537.421875 592.832031 535.613281 593.433594 533.757812 C 594.03125 531.902344 594.5 530.011719 594.832031 528.089844 C 595.164062 526.167969 595.363281 524.230469 595.421875 522.28125 C 595.484375 520.332031 595.40625 518.386719 595.191406 516.449219 C 594.980469 514.507812 594.632812 512.59375 594.148438 510.703125 C 593.664062 508.8125 593.050781 506.964844 592.308594 505.164062 C 591.851562 503.890625 591.652344 502.578125 591.707031 501.230469 C 591.761719 499.878906 592.070312 498.589844 592.628906 497.359375 C 627.003906 438.871094 661.503906 380.453125 696.128906 322.105469 C 696.644531 321.234375 697.269531 320.421875 698.140625 319.140625 C 709.28125 326.765625 719.996094 333.878906 730.371094 341.476562 C 731.363281 342.414062 732.132812 343.507812 732.679688 344.761719 C 733.226562 346.011719 733.507812 347.320312 733.523438 348.6875 C 733.734375 377.972656 733.660156 407.253906 733.660156 436.53125 L 733.660156 697.246094 L 75.667969 697.246094 L 75.667969 690.800781 C 75.640625 576.992188 75.585938 463.179688 75.503906 349.363281 C 75.414062 348.457031 75.457031 347.558594 75.628906 346.664062 C 75.800781 345.769531 76.09375 344.917969 76.511719 344.109375 C 76.933594 343.300781 77.457031 342.570312 78.085938 341.914062 C 78.714844 341.253906 79.425781 340.703125 80.21875 340.25 C 89.097656 334.539062 97.710938 328.449219 106.832031 322.183594 C 108.03125 323.925781 109.132812 325.34375 110.035156 326.871094 Z M 262.46875 244.539062 C 258.03125 238.082031 253.59375 231.613281 248.839844 224.6875 L 127.753906 307.742188 L 228.179688 477.578125 C 230.097656 475.78125 231.625 474.429688 233.070312 472.988281 C 242.777344 463.304688 252.433594 453.570312 262.167969 443.921875 C 262.972656 443.128906 263.804688 442.375 264.667969 441.648438 C 265.535156 440.925781 266.425781 440.238281 267.34375 439.582031 C 268.265625 438.929688 269.207031 438.316406 270.175781 437.738281 C 271.144531 437.160156 272.132812 436.621094 273.144531 436.121094 C 274.152344 435.621094 275.183594 435.160156 276.230469 434.742188 C 277.277344 434.324219 278.339844 433.949219 279.414062 433.617188 C 280.492188 433.28125 281.582031 432.992188 282.679688 432.746094 C 283.78125 432.496094 284.890625 432.292969 286.003906 432.136719 C 287.121094 431.976562 288.242188 431.859375 289.367188 431.789062 C 290.492188 431.71875 291.617188 431.695312 292.746094 431.714844 C 293.875 431.734375 295 431.796875 296.121094 431.90625 C 297.242188 432.011719 298.359375 432.167969 299.46875 432.363281 C 300.578125 432.558594 301.679688 432.800781 302.769531 433.085938 C 303.859375 433.371094 304.9375 433.695312 306.003906 434.066406 C 307.070312 434.4375 308.117188 434.847656 309.148438 435.300781 C 310.183594 435.753906 311.195312 436.246094 312.1875 436.78125 C 314.527344 438.109375 316.730469 439.632812 318.796875 441.347656 C 320.867188 443.066406 322.769531 444.949219 324.507812 447.003906 C 326.242188 449.054688 327.785156 451.246094 329.136719 453.570312 C 330.484375 455.894531 331.621094 458.320312 332.542969 460.847656 C 334.507812 460.09375 336.519531 459.492188 338.574219 459.035156 C 340.632812 458.578125 342.707031 458.273438 344.808594 458.121094 C 346.910156 457.96875 349.007812 457.96875 351.109375 458.125 C 353.207031 458.28125 355.285156 458.585938 357.339844 459.046875 C 359.394531 459.503906 361.40625 460.113281 363.371094 460.867188 C 365.335938 461.617188 367.238281 462.511719 369.074219 463.542969 C 370.90625 464.574219 372.660156 465.734375 374.324219 467.023438 C 375.988281 468.3125 377.550781 469.714844 379.011719 471.234375 C 380.472656 472.75 381.8125 474.367188 383.035156 476.078125 C 384.261719 477.792969 385.351562 479.585938 386.3125 481.460938 C 387.273438 483.335938 388.09375 485.269531 388.769531 487.261719 C 389.449219 489.253906 389.976562 491.289062 390.355469 493.359375 C 390.738281 495.429688 390.964844 497.515625 391.039062 499.621094 C 391.113281 501.726562 391.03125 503.824219 390.800781 505.917969 C 390.566406 508.007812 390.183594 510.074219 389.648438 512.109375 C 389.113281 514.148438 388.429688 516.132812 387.605469 518.070312 C 389.660156 518.785156 391.648438 519.652344 393.570312 520.664062 C 395.496094 521.675781 397.335938 522.824219 399.085938 524.113281 C 400.839844 525.398438 402.488281 526.808594 404.03125 528.34375 C 405.574219 529.875 406.992188 531.515625 408.292969 533.257812 C 409.589844 535.003906 410.75 536.835938 411.777344 538.753906 C 412.800781 540.671875 413.679688 542.652344 414.410156 544.703125 C 415.136719 546.75 415.710938 548.84375 416.128906 550.976562 C 416.546875 553.109375 416.804688 555.265625 416.898438 557.4375 C 449.269531 563.46875 461.25 580.289062 456.484375 612.359375 C 456.464844 613.222656 456.617188 614.054688 456.945312 614.851562 C 457.273438 615.652344 457.75 616.351562 458.375 616.949219 C 458.890625 617.417969 459.4375 617.855469 460.011719 618.261719 C 460.582031 618.664062 461.179688 619.03125 461.796875 619.359375 C 462.414062 619.6875 463.050781 619.980469 463.707031 620.230469 C 464.359375 620.480469 465.027344 620.6875 465.707031 620.855469 C 466.390625 621.019531 467.078125 621.144531 467.773438 621.226562 C 468.46875 621.308594 469.167969 621.34375 469.867188 621.339844 C 470.566406 621.332031 471.265625 621.28125 471.960938 621.191406 C 472.65625 621.097656 473.339844 620.960938 474.019531 620.78125 C 474.695312 620.605469 475.359375 620.382812 476.007812 620.125 C 476.660156 619.863281 477.289062 619.5625 477.902344 619.222656 C 478.515625 618.882812 479.105469 618.503906 479.671875 618.089844 C 480.238281 617.679688 480.773438 617.230469 481.285156 616.75 C 481.792969 616.269531 482.273438 615.757812 482.71875 615.21875 C 483.164062 614.679688 483.574219 614.113281 483.953125 613.523438 C 484.328125 612.929688 484.664062 612.320312 484.964844 611.683594 C 485.265625 611.050781 485.523438 610.402344 485.742188 609.738281 C 486.007812 608.894531 486.210938 608.035156 486.347656 607.160156 C 486.484375 606.285156 486.554688 605.40625 486.558594 604.523438 C 486.5625 603.636719 486.5 602.757812 486.367188 601.882812 C 486.234375 601.007812 486.039062 600.148438 485.777344 599.304688 C 485.515625 598.460938 485.191406 597.640625 484.804688 596.84375 C 484.414062 596.046875 483.972656 595.285156 483.46875 594.558594 C 482.964844 593.832031 482.410156 593.148438 481.800781 592.503906 C 481.191406 591.863281 480.539062 591.269531 479.839844 590.726562 C 455.277344 566.203125 430.734375 541.671875 406.207031 517.125 C 404.597656 515.511719 402.234375 514.03125 401.703125 512.078125 C 400.878906 510.175781 400.363281 508.195312 400.15625 506.132812 C 399.949219 504.070312 400.0625 502.023438 400.492188 499.996094 C 401.027344 499.046875 401.65625 498.167969 402.386719 497.359375 C 403.113281 496.550781 403.917969 495.832031 404.804688 495.199219 C 405.691406 494.570312 406.636719 494.042969 407.640625 493.617188 C 408.644531 493.195312 409.679688 492.886719 410.75 492.695312 C 412.976562 492.808594 415.101562 493.332031 417.128906 494.253906 C 419.15625 495.179688 420.945312 496.445312 422.492188 498.050781 C 447.269531 522.304688 471.695312 546.960938 496.234375 571.472656 C 497.652344 572.988281 499.152344 574.417969 500.738281 575.757812 C 501.265625 576.183594 501.8125 576.574219 502.386719 576.933594 C 502.957031 577.292969 503.550781 577.617188 504.160156 577.902344 C 504.773438 578.191406 505.398438 578.441406 506.039062 578.652344 C 506.679688 578.867188 507.332031 579.039062 507.992188 579.175781 C 508.65625 579.308594 509.320312 579.40625 509.996094 579.460938 C 510.667969 579.515625 511.34375 579.527344 512.015625 579.503906 C 512.691406 579.476562 513.363281 579.410156 514.03125 579.304688 C 514.695312 579.199219 515.355469 579.054688 516.003906 578.867188 C 516.652344 578.683594 517.289062 578.460938 517.914062 578.199219 C 518.535156 577.9375 519.140625 577.640625 519.726562 577.304688 C 520.316406 576.972656 520.878906 576.605469 521.421875 576.203125 C 521.96875 575.800781 522.484375 575.371094 522.976562 574.90625 C 523.46875 574.445312 523.929688 573.953125 524.363281 573.433594 C 524.792969 572.914062 525.195312 572.371094 525.5625 571.804688 C 525.929688 571.238281 526.261719 570.652344 526.558594 570.046875 C 526.855469 569.441406 527.117188 568.816406 527.339844 568.179688 C 527.617188 567.34375 527.832031 566.488281 527.984375 565.613281 C 528.132812 564.742188 528.214844 563.867188 528.230469 562.980469 C 528.246094 562.097656 528.195312 561.21875 528.078125 560.339844 C 527.960938 559.464844 527.78125 558.601562 527.53125 557.753906 C 527.285156 556.90625 526.972656 556.078125 526.601562 555.277344 C 526.226562 554.476562 525.796875 553.707031 525.304688 552.972656 C 524.816406 552.234375 524.273438 551.539062 523.679688 550.886719 C 523.082031 550.234375 522.441406 549.628906 521.753906 549.070312 C 496.410156 523.871094 471.132812 498.617188 445.925781 473.308594 C 445.558594 473.039062 445.203125 472.75 444.867188 472.445312 C 444.527344 472.136719 444.207031 471.8125 443.90625 471.46875 C 443.605469 471.125 443.320312 470.769531 443.058594 470.394531 C 442.792969 470.023438 442.550781 469.636719 442.328125 469.238281 C 442.109375 468.839844 441.90625 468.429688 441.730469 468.007812 C 441.554688 467.585938 441.398438 467.15625 441.269531 466.71875 C 441.136719 466.28125 441.03125 465.839844 440.949219 465.390625 C 440.867188 464.941406 440.808594 464.488281 440.773438 464.035156 C 440.738281 463.578125 440.730469 463.121094 440.746094 462.667969 C 440.761719 462.210938 440.800781 461.753906 440.867188 461.304688 C 440.933594 460.851562 441.019531 460.402344 441.136719 459.960938 C 441.25 459.519531 441.386719 459.085938 441.546875 458.65625 C 441.707031 458.230469 441.890625 457.8125 442.09375 457.402344 C 442.300781 456.996094 442.527344 456.601562 442.777344 456.21875 C 443.027344 455.835938 443.292969 455.464844 443.582031 455.113281 C 443.871094 454.757812 444.179688 454.421875 444.503906 454.101562 C 444.835938 453.792969 445.183594 453.503906 445.542969 453.230469 C 445.90625 452.960938 446.28125 452.707031 446.671875 452.472656 C 447.058594 452.238281 447.457031 452.027344 447.867188 451.835938 C 448.277344 451.644531 448.695312 451.472656 449.125 451.324219 C 449.550781 451.175781 449.984375 451.046875 450.425781 450.945312 C 450.867188 450.839844 451.3125 450.757812 451.761719 450.699219 C 452.210938 450.640625 452.660156 450.605469 453.113281 450.59375 C 453.566406 450.582031 454.019531 450.59375 454.472656 450.628906 C 454.921875 450.664062 455.371094 450.722656 455.816406 450.804688 C 456.261719 450.882812 456.703125 450.988281 457.136719 451.113281 C 457.570312 451.242188 458 451.390625 458.417969 451.5625 C 458.839844 451.730469 459.25 451.921875 459.648438 452.136719 C 460.046875 452.347656 460.433594 452.582031 460.8125 452.835938 C 461.1875 453.085938 461.550781 453.359375 461.898438 453.648438 C 462.246094 453.9375 462.578125 454.246094 462.890625 454.570312 C 463.207031 454.894531 463.507812 455.234375 463.789062 455.589844 C 488.648438 480.378906 513.488281 505.195312 538.300781 530.039062 C 539.855469 531.710938 541.539062 533.238281 543.347656 534.628906 C 543.648438 534.84375 543.957031 535.050781 544.269531 535.246094 C 544.582031 535.441406 544.902344 535.625 545.230469 535.800781 C 545.554688 535.976562 545.886719 536.136719 546.222656 536.292969 C 546.558594 536.445312 546.902344 536.585938 547.246094 536.714844 C 547.59375 536.847656 547.945312 536.964844 548.296875 537.074219 C 548.652344 537.179688 549.007812 537.277344 549.367188 537.359375 C 549.726562 537.445312 550.089844 537.515625 550.457031 537.578125 C 550.820312 537.636719 551.1875 537.6875 551.554688 537.722656 C 551.921875 537.757812 552.292969 537.78125 552.660156 537.796875 C 553.03125 537.808594 553.398438 537.808594 553.769531 537.796875 C 554.140625 537.785156 554.507812 537.761719 554.875 537.722656 C 555.246094 537.6875 555.609375 537.640625 555.976562 537.578125 C 556.339844 537.519531 556.703125 537.449219 557.0625 537.363281 C 557.421875 537.28125 557.78125 537.183594 558.132812 537.078125 C 558.488281 536.972656 558.839844 536.851562 559.183594 536.722656 C 559.53125 536.59375 559.871094 536.449219 560.210938 536.296875 C 560.546875 536.144531 560.878906 535.984375 561.203125 535.808594 C 561.53125 535.636719 561.851562 535.449219 562.164062 535.253906 C 562.480469 535.058594 562.785156 534.855469 563.085938 534.640625 C 563.386719 534.425781 563.679688 534.199219 563.96875 533.964844 C 564.253906 533.730469 564.53125 533.488281 564.800781 533.234375 C 565.070312 532.984375 565.332031 532.722656 565.585938 532.453125 C 565.839844 532.183594 566.082031 531.90625 566.316406 531.617188 C 566.550781 531.332031 566.777344 531.039062 566.992188 530.738281 C 567.210938 530.441406 567.414062 530.132812 567.609375 529.820312 C 567.804688 529.503906 567.992188 529.183594 568.164062 528.859375 C 568.339844 528.53125 568.503906 528.203125 568.65625 527.863281 C 568.808594 527.527344 568.953125 527.1875 569.082031 526.839844 C 569.214844 526.496094 569.332031 526.144531 569.441406 525.792969 C 569.546875 525.4375 569.644531 525.082031 569.730469 524.722656 C 569.8125 524.359375 569.886719 524 569.945312 523.632812 C 570.007812 523.269531 570.054688 522.902344 570.09375 522.535156 C 570.152344 521.023438 570.039062 519.53125 569.746094 518.046875 C 569.457031 516.566406 568.996094 515.136719 568.371094 513.761719 C 567.746094 512.386719 566.96875 511.105469 566.039062 509.914062 C 565.113281 508.722656 564.058594 507.652344 562.882812 506.710938 C 508.199219 452.109375 453.539062 397.480469 398.898438 342.820312 C 397.765625 341.691406 396.492188 340.695312 395.078125 339.449219 C 393.359375 341.058594 391.832031 342.425781 390.382812 343.875 C 379.640625 354.574219 369.027344 365.417969 358.140625 375.964844 C 356.898438 377.234375 355.578125 378.414062 354.183594 379.507812 C 352.785156 380.601562 351.324219 381.597656 349.796875 382.5 C 348.265625 383.398438 346.6875 384.195312 345.054688 384.886719 C 343.417969 385.582031 341.746094 386.164062 340.039062 386.632812 C 338.328125 387.105469 336.59375 387.460938 334.835938 387.707031 C 333.078125 387.949219 331.3125 388.074219 329.539062 388.085938 C 327.765625 388.09375 326 387.988281 324.238281 387.761719 C 322.476562 387.539062 320.742188 387.203125 319.027344 386.75 C 317.222656 386.347656 315.453125 385.828125 313.71875 385.195312 C 311.984375 384.558594 310.300781 383.808594 308.667969 382.949219 C 307.03125 382.089844 305.460938 381.125 303.957031 380.054688 C 302.449219 378.984375 301.019531 377.820312 299.667969 376.5625 C 298.316406 375.304688 297.054688 373.960938 295.882812 372.53125 C 294.710938 371.105469 293.636719 369.605469 292.664062 368.035156 C 291.691406 366.46875 290.824219 364.839844 290.066406 363.15625 C 289.3125 361.46875 288.667969 359.742188 288.140625 357.972656 C 287.613281 356.199219 287.207031 354.402344 286.917969 352.578125 C 286.628906 350.753906 286.464844 348.917969 286.421875 347.070312 C 286.375 345.226562 286.457031 343.382812 286.65625 341.546875 C 286.855469 339.710938 287.179688 337.894531 287.621094 336.101562 C 288.0625 334.308594 288.625 332.554688 289.300781 330.832031 C 289.976562 329.113281 290.761719 327.449219 291.660156 325.832031 C 292.558594 324.21875 293.558594 322.671875 294.660156 321.191406 C 295.765625 319.707031 296.960938 318.308594 298.253906 316.984375 C 308.742188 305.75 319.929688 295.195312 330.777344 284.300781 C 332.089844 282.941406 333.316406 281.425781 335.175781 279.308594 C 330.3125 279.308594 326.601562 279.066406 322.925781 279.347656 C 320.234375 279.640625 317.535156 279.738281 314.832031 279.644531 C 312.125 279.554688 309.441406 279.273438 306.773438 278.800781 C 304.109375 278.332031 301.488281 277.675781 298.917969 276.832031 C 296.34375 275.992188 293.84375 274.976562 291.414062 273.78125 C 288.984375 272.585938 286.652344 271.226562 284.414062 269.703125 C 282.175781 268.179688 280.058594 266.507812 278.058594 264.683594 C 276.054688 262.859375 274.191406 260.90625 272.46875 258.820312 C 270.742188 256.734375 269.171875 254.535156 267.757812 252.230469 C 266.019531 249.652344 264.230469 247.109375 262.46875 244.539062 Z M 460.203125 277.09375 C 441.546875 276.4375 422.910156 274.550781 404.269531 274.570312 C 400.460938 274.351562 396.671875 274.496094 392.894531 275.011719 C 389.113281 275.523438 385.421875 276.394531 381.8125 277.621094 C 378.203125 278.851562 374.746094 280.414062 371.4375 282.308594 C 368.128906 284.203125 365.035156 286.398438 362.152344 288.894531 C 346.753906 303.429688 331.828125 318.492188 317.328125 333.917969 C 315.726562 335.894531 314.496094 338.074219 313.632812 340.46875 C 312.773438 342.859375 312.328125 345.324219 312.300781 347.867188 C 312.300781 348.652344 312.367188 349.433594 312.5 350.207031 C 312.628906 350.984375 312.824219 351.742188 313.078125 352.484375 C 313.335938 353.226562 313.648438 353.945312 314.023438 354.636719 C 314.398438 355.324219 314.828125 355.980469 315.308594 356.601562 C 315.792969 357.222656 316.324219 357.796875 316.902344 358.328125 C 317.476562 358.863281 318.097656 359.34375 318.753906 359.773438 C 319.410156 360.203125 320.097656 360.578125 320.816406 360.894531 C 321.535156 361.210938 322.277344 361.464844 323.039062 361.660156 C 323.816406 361.957031 324.613281 362.191406 325.429688 362.367188 C 326.246094 362.542969 327.070312 362.65625 327.902344 362.710938 C 328.734375 362.761719 329.566406 362.753906 330.394531 362.679688 C 331.226562 362.609375 332.046875 362.476562 332.859375 362.28125 C 333.667969 362.089844 334.460938 361.835938 335.234375 361.523438 C 336.007812 361.210938 336.753906 360.84375 337.472656 360.417969 C 338.1875 359.996094 338.871094 359.519531 339.519531 358.996094 C 340.167969 358.46875 340.769531 357.898438 341.332031 357.28125 C 354.691406 343.910156 368.054688 330.542969 381.421875 317.1875 C 393.011719 305.597656 397.253906 305.566406 408.660156 316.964844 C 461.675781 369.972656 514.699219 422.976562 567.726562 475.976562 C 569.28125 477.53125 570.917969 479 573.101562 481.058594 L 677.261719 304.835938 L 569.804688 231.085938 C 563.019531 240.558594 557.101562 249.585938 550.394531 257.964844 C 549.300781 259.425781 548.132812 260.820312 546.886719 262.152344 C 545.640625 263.480469 544.324219 264.738281 542.9375 265.921875 C 541.550781 267.105469 540.105469 268.210938 538.597656 269.234375 C 537.089844 270.257812 535.527344 271.195312 533.914062 272.046875 C 532.304688 272.898438 530.648438 273.65625 528.953125 274.324219 C 527.253906 274.992188 525.527344 275.5625 523.769531 276.039062 C 522.007812 276.515625 520.226562 276.890625 518.425781 277.171875 C 516.625 277.449219 514.8125 277.625 512.992188 277.703125 C 495.421875 278.351562 477.789062 277.691406 460.203125 277.09375 Z M 774.121094 308.011719 C 774.238281 306.851562 774.1875 305.703125 773.960938 304.5625 C 773.738281 303.417969 773.355469 302.335938 772.808594 301.308594 C 772.261719 300.28125 771.578125 299.355469 770.753906 298.53125 C 769.933594 297.707031 769.011719 297.019531 767.984375 296.472656 C 648.726562 215.710938 529.539062 134.816406 410.429688 53.78125 C 410.019531 53.421875 409.578125 53.101562 409.109375 52.824219 C 408.640625 52.546875 408.152344 52.3125 407.640625 52.125 C 407.128906 51.9375 406.601562 51.800781 406.066406 51.710938 C 405.527344 51.617188 404.988281 51.578125 404.441406 51.585938 C 403.898438 51.597656 403.355469 51.65625 402.824219 51.765625 C 402.289062 51.875 401.769531 52.03125 401.265625 52.234375 C 400.757812 52.441406 400.277344 52.6875 399.816406 52.984375 C 399.359375 53.277344 398.929688 53.609375 398.53125 53.984375 C 331.324219 99.839844 264.03125 145.585938 196.65625 191.214844 C 144.449219 226.636719 92.257812 262.085938 40.074219 297.5625 C 38.167969 298.871094 35.484375 300.964844 35.484375 302.757812 C 35.070312 314.941406 35.269531 327.140625 35.269531 340.644531 C 38.683594 338.328125 40.914062 336.839844 43.136719 335.320312 L 393.25 95.027344 C 403.082031 88.292969 406.226562 88.3125 416.191406 95.144531 C 532.902344 175.242188 649.621094 255.339844 766.34375 335.4375 C 768.59375 336.984375 770.882812 338.472656 773.988281 340.539062 C 773.988281 328.753906 773.652344 318.394531 774.121094 308.015625 Z M 48.503906 758.496094 L 760.5625 758.496094 L 760.5625 723.238281 L 48.503906 723.238281 Z M 546.65625 215.269531 C 500.46875 183.539062 454.308594 151.785156 408.175781 120.003906 C 404.589844 117.519531 402.636719 119.117188 400.035156 120.914062 C 365.660156 144.542969 331.269531 168.152344 296.863281 191.746094 L 269.332031 210.640625 C 277.8125 222.210938 285.71875 233.121094 293.761719 243.917969 C 294.996094 245.609375 296.421875 247.117188 298.035156 248.445312 C 299.652344 249.777344 301.410156 250.882812 303.304688 251.765625 C 305.203125 252.652344 307.179688 253.285156 309.234375 253.667969 C 311.292969 254.050781 313.367188 254.167969 315.453125 254.027344 C 332.253906 253.527344 349.066406 253.082031 365.847656 252.058594 C 392.140625 250.464844 418.335938 247.429688 444.785156 250.214844 C 463.140625 252.183594 481.597656 253.160156 500.039062 253.808594 C 502.21875 254.039062 504.40625 254.074219 506.59375 253.914062 C 508.78125 253.753906 510.9375 253.402344 513.0625 252.855469 C 515.191406 252.3125 517.25 251.585938 519.246094 250.675781 C 521.242188 249.765625 523.144531 248.6875 524.949219 247.4375 C 529.742188 243.082031 534.089844 238.320312 537.988281 233.148438 C 541.882812 227.972656 545.265625 222.480469 548.125 216.671875 C 547.667969 216.171875 547.175781 215.707031 546.65625 215.269531 Z M 281.40625 576.257812 C 282.15625 576.625 282.933594 576.933594 283.730469 577.179688 C 284.53125 577.425781 285.34375 577.605469 286.171875 577.726562 C 287 577.84375 287.832031 577.898438 288.667969 577.886719 C 289.503906 577.875 290.332031 577.796875 291.15625 577.652344 C 291.980469 577.511719 292.789062 577.304688 293.582031 577.039062 C 294.375 576.769531 295.140625 576.441406 295.878906 576.050781 C 296.621094 575.660156 297.324219 575.21875 297.996094 574.71875 C 298.667969 574.21875 299.292969 573.667969 299.878906 573.070312 C 320.238281 552.925781 340.488281 532.667969 360.625 512.300781 C 361.039062 511.921875 361.433594 511.519531 361.804688 511.101562 C 362.175781 510.679688 362.527344 510.242188 362.851562 509.785156 C 363.179688 509.328125 363.480469 508.851562 363.757812 508.363281 C 364.035156 507.875 364.289062 507.375 364.515625 506.859375 C 364.738281 506.34375 364.9375 505.820312 365.109375 505.285156 C 365.277344 504.75 365.421875 504.207031 365.535156 503.65625 C 365.648438 503.105469 365.734375 502.550781 365.792969 501.992188 C 365.847656 501.433594 365.875 500.871094 365.875 500.308594 C 365.871094 499.75 365.839844 499.1875 365.78125 498.628906 C 365.71875 498.070312 365.632812 497.515625 365.511719 496.96875 C 365.394531 496.417969 365.25 495.875 365.074219 495.339844 C 364.902344 494.808594 364.699219 494.28125 364.472656 493.769531 C 364.242188 493.257812 363.988281 492.757812 363.707031 492.269531 C 363.425781 491.78125 363.121094 491.3125 362.789062 490.855469 C 362.460938 490.402344 362.109375 489.964844 361.734375 489.546875 C 361.359375 489.128906 360.960938 488.730469 360.546875 488.355469 C 360.140625 487.96875 359.71875 487.605469 359.28125 487.261719 C 358.839844 486.917969 358.386719 486.597656 357.914062 486.300781 C 357.441406 486 356.957031 485.726562 356.460938 485.476562 C 355.960938 485.222656 355.453125 484.996094 354.933594 484.796875 C 354.410156 484.597656 353.882812 484.421875 353.34375 484.273438 C 352.808594 484.121094 352.265625 484 351.714844 483.90625 C 351.164062 483.808594 350.613281 483.742188 350.054688 483.699219 C 349.5 483.660156 348.941406 483.644531 348.382812 483.65625 C 347.828125 483.671875 347.269531 483.710938 346.71875 483.78125 C 346.164062 483.847656 345.613281 483.941406 345.070312 484.0625 C 344.527344 484.1875 343.988281 484.335938 343.460938 484.507812 C 342.929688 484.683594 342.410156 484.882812 341.898438 485.109375 C 341.390625 485.335938 340.890625 485.585938 340.40625 485.859375 C 339.921875 486.132812 339.449219 486.429688 338.992188 486.753906 C 338.535156 487.074219 338.097656 487.414062 337.675781 487.78125 C 337.25 488.144531 336.847656 488.527344 336.460938 488.929688 C 316.546875 508.644531 296.679688 528.402344 277.097656 548.441406 C 274.640625 551.558594 272.671875 554.960938 271.199219 558.648438 C 271.121094 559.550781 271.109375 560.453125 271.171875 561.355469 C 271.230469 562.261719 271.359375 563.152344 271.554688 564.035156 C 271.753906 564.921875 272.015625 565.785156 272.34375 566.628906 C 272.671875 567.46875 273.066406 568.285156 273.519531 569.066406 C 273.972656 569.851562 274.484375 570.59375 275.050781 571.300781 C 275.621094 572.003906 276.238281 572.660156 276.90625 573.269531 C 277.578125 573.878906 278.289062 574.4375 279.042969 574.9375 C 279.796875 575.4375 280.585938 575.878906 281.40625 576.257812 Z M 303.292969 486.085938 C 305.617188 483.191406 307.488281 480.03125 308.917969 476.605469 C 308.765625 466.964844 305.699219 461.566406 299.269531 458.625 C 298.53125 458.226562 297.765625 457.890625 296.976562 457.617188 C 296.1875 457.339844 295.378906 457.128906 294.554688 456.984375 C 293.730469 456.839844 292.898438 456.757812 292.0625 456.746094 C 291.222656 456.730469 290.390625 456.785156 289.5625 456.90625 C 288.734375 457.023438 287.917969 457.207031 287.121094 457.457031 C 286.320312 457.707031 285.546875 458.019531 284.796875 458.394531 C 284.046875 458.765625 283.332031 459.195312 282.652344 459.683594 C 281.96875 460.171875 281.332031 460.710938 280.738281 461.300781 C 265.003906 476.652344 249.410156 492.109375 234.148438 507.949219 C 233.769531 508.339844 233.40625 508.75 233.0625 509.175781 C 232.722656 509.605469 232.402344 510.046875 232.105469 510.507812 C 231.8125 510.96875 231.539062 511.441406 231.289062 511.929688 C 231.039062 512.414062 230.816406 512.914062 230.617188 513.421875 C 230.417969 513.933594 230.246094 514.453125 230.097656 514.980469 C 229.953125 515.503906 229.832031 516.039062 229.738281 516.578125 C 229.644531 517.117188 229.582031 517.660156 229.542969 518.207031 C 229.503906 518.75 229.492188 519.296875 229.507812 519.84375 C 229.527344 520.390625 229.570312 520.9375 229.640625 521.480469 C 229.714844 522.019531 229.8125 522.558594 229.9375 523.089844 C 230.0625 523.625 230.214844 524.148438 230.394531 524.667969 C 230.570312 525.183594 230.777344 525.691406 231.003906 526.1875 C 231.234375 526.683594 231.488281 527.167969 231.765625 527.640625 C 232.042969 528.109375 232.347656 528.566406 232.671875 529.007812 C 232.992188 529.449219 233.339844 529.871094 233.707031 530.277344 C 234.074219 530.683594 234.460938 531.070312 234.863281 531.4375 C 235.667969 532.175781 236.53125 532.835938 237.457031 533.410156 C 238.386719 533.984375 239.359375 534.464844 240.378906 534.855469 C 241.398438 535.242188 242.445312 535.53125 243.519531 535.71875 C 244.59375 535.90625 245.675781 535.992188 246.765625 535.972656 C 247.855469 535.953125 248.9375 535.832031 250.003906 535.605469 C 251.070312 535.378906 252.105469 535.054688 253.113281 534.632812 C 254.117188 534.207031 255.074219 533.691406 255.980469 533.085938 C 256.886719 532.480469 257.726562 531.792969 258.503906 531.023438 C 273.613281 516.195312 288.609375 501.292969 303.292969 486.085938 Z M 364.394531 659.46875 C 365.125 659.867188 365.886719 660.210938 366.671875 660.488281 C 367.460938 660.769531 368.265625 660.984375 369.085938 661.136719 C 369.90625 661.289062 370.734375 661.371094 371.570312 661.390625 C 372.40625 661.410156 373.238281 661.363281 374.066406 661.25 C 374.894531 661.136719 375.707031 660.957031 376.507812 660.714844 C 377.304688 660.46875 378.078125 660.164062 378.828125 659.796875 C 379.582031 659.429688 380.296875 659.003906 380.980469 658.523438 C 381.660156 658.039062 382.300781 657.507812 382.898438 656.921875 C 398.195312 642.027344 413.292969 626.925781 428.199219 611.609375 C 428.609375 611.226562 428.996094 610.820312 429.359375 610.390625 C 429.726562 609.964844 430.066406 609.519531 430.386719 609.058594 C 430.703125 608.597656 430.996094 608.121094 431.265625 607.625 C 431.535156 607.132812 431.777344 606.628906 431.992188 606.109375 C 432.210938 605.589844 432.398438 605.0625 432.558594 604.523438 C 432.71875 603.988281 432.851562 603.441406 432.957031 602.890625 C 433.058594 602.339844 433.132812 601.78125 433.179688 601.222656 C 433.226562 600.664062 433.242188 600.101562 433.226562 599.542969 C 433.214844 598.980469 433.171875 598.421875 433.101562 597.863281 C 433.03125 597.308594 432.929688 596.753906 432.800781 596.210938 C 432.671875 595.664062 432.515625 595.125 432.328125 594.59375 C 432.144531 594.0625 431.933594 593.546875 431.691406 593.039062 C 431.453125 592.53125 431.1875 592.035156 430.894531 591.554688 C 430.605469 591.074219 430.289062 590.613281 429.949219 590.164062 C 429.609375 589.71875 429.25 589.289062 428.863281 588.878906 C 428.480469 588.472656 428.074219 588.082031 427.648438 587.714844 C 426.84375 586.984375 425.972656 586.335938 425.042969 585.769531 C 424.109375 585.203125 423.132812 584.730469 422.113281 584.351562 C 421.089844 583.972656 420.042969 583.695312 418.964844 583.515625 C 417.890625 583.339844 416.808594 583.265625 415.71875 583.296875 C 414.628906 583.328125 413.554688 583.460938 412.488281 583.695312 C 411.425781 583.933594 410.394531 584.269531 409.394531 584.703125 C 408.394531 585.140625 407.445312 585.664062 406.546875 586.28125 C 405.648438 586.898438 404.816406 587.59375 404.050781 588.371094 C 389.40625 602.753906 374.816406 617.214844 360.570312 631.992188 C 358.0625 635.207031 356.046875 638.703125 354.515625 642.480469 C 354.480469 643.347656 354.503906 644.210938 354.59375 645.074219 C 354.679688 645.9375 354.828125 646.789062 355.039062 647.628906 C 355.246094 648.46875 355.515625 649.292969 355.839844 650.09375 C 356.167969 650.898438 356.546875 651.671875 356.984375 652.421875 C 357.421875 653.171875 357.910156 653.886719 358.445312 654.5625 C 358.984375 655.242188 359.570312 655.882812 360.199219 656.476562 C 360.828125 657.074219 361.496094 657.621094 362.203125 658.121094 C 362.910156 658.625 363.648438 659.070312 364.417969 659.46875 Z M 342.105469 614.382812 C 356.886719 599.855469 371.605469 585.25 385.984375 570.324219 C 388.285156 567.363281 390.085938 564.125 391.386719 560.609375 C 390.914062 551.144531 387.78125 545.78125 381.238281 543.027344 C 380.492188 542.65625 379.71875 542.347656 378.921875 542.101562 C 378.125 541.851562 377.316406 541.667969 376.488281 541.546875 C 375.664062 541.425781 374.832031 541.367188 374 541.378906 C 373.164062 541.386719 372.335938 541.460938 371.511719 541.597656 C 370.691406 541.734375 369.882812 541.9375 369.089844 542.203125 C 368.300781 542.464844 367.535156 542.789062 366.792969 543.175781 C 366.054688 543.558594 365.347656 544 364.675781 544.496094 C 364.003906 544.988281 363.375 545.535156 362.789062 546.128906 C 347.710938 560.945312 332.691406 575.832031 317.96875 591 C 317.570312 591.394531 317.195312 591.804688 316.835938 592.238281 C 316.480469 592.667969 316.148438 593.117188 315.835938 593.582031 C 315.523438 594.046875 315.238281 594.527344 314.976562 595.019531 C 314.714844 595.515625 314.476562 596.019531 314.269531 596.539062 C 314.058594 597.058594 313.875 597.585938 313.71875 598.125 C 313.558594 598.660156 313.429688 599.203125 313.328125 599.753906 C 313.230469 600.304688 313.15625 600.859375 313.109375 601.417969 C 313.066406 601.972656 313.050781 602.535156 313.0625 603.09375 C 313.074219 603.652344 313.113281 604.210938 313.183594 604.765625 C 313.253906 605.320312 313.347656 605.871094 313.472656 606.414062 C 313.597656 606.960938 313.75 607.5 313.929688 608.027344 C 314.109375 608.558594 314.316406 609.078125 314.550781 609.585938 C 314.78125 610.097656 315.039062 610.59375 315.324219 611.074219 C 315.605469 611.558594 315.914062 612.023438 316.246094 612.476562 C 316.574219 612.925781 316.929688 613.359375 317.304688 613.777344 C 317.679688 614.191406 318.074219 614.585938 318.488281 614.960938 C 319.292969 615.699219 320.160156 616.355469 321.09375 616.929688 C 322.023438 617.5 323 617.976562 324.023438 618.363281 C 325.046875 618.746094 326.097656 619.03125 327.175781 619.210938 C 328.253906 619.394531 329.335938 619.472656 330.429688 619.445312 C 331.523438 619.417969 332.601562 619.289062 333.667969 619.054688 C 334.738281 618.820312 335.773438 618.484375 336.777344 618.050781 C 337.777344 617.617188 338.730469 617.09375 339.632812 616.476562 C 340.535156 615.859375 341.371094 615.160156 342.140625 614.382812 Z M 439.640625 658.46875 C 445.925781 652.316406 446.4375 643.820312 440.011719 634.785156 C 436.078125 639.085938 432.535156 643.125 428.785156 646.953125 C 425.035156 650.78125 420.917969 654.570312 416.859375 658.449219 C 417.636719 659.148438 418.46875 659.769531 419.355469 660.3125 C 420.246094 660.859375 421.175781 661.316406 422.148438 661.691406 C 423.121094 662.066406 424.121094 662.347656 425.144531 662.539062 C 426.171875 662.730469 427.203125 662.824219 428.246094 662.824219 C 429.289062 662.828125 430.320312 662.730469 431.347656 662.542969 C 432.371094 662.355469 433.371094 662.074219 434.34375 661.703125 C 435.320312 661.328125 436.25 660.871094 437.140625 660.328125 C 438.03125 659.785156 438.863281 659.167969 439.640625 658.46875 Z M 439.640625 658.46875 " fill-opacity="1" fill-rule="nonzero"/></g></svg>