<svg xmlns="http://www.w3.org/2000/svg" xmlns:xlink="http://www.w3.org/1999/xlink" width="1080" zoomAndPan="magnify" viewBox="0 0 810 809.999993" height="1080" preserveAspectRatio="xMidYMid meet" version="1.0"><defs><clipPath id="2539bdb2bd"><path d="M 10 55 L 799 55 L 799 728.679688 L 10 728.679688 Z M 10 55 " clip-rule="nonzero"/></clipPath></defs><g clip-path="url(#2539bdb2bd)"><path fill="#ffffff" d="M 756.652344 189.902344 L 550.246094 189.902344 C 543.546875 109.488281 473.179688 49.179688 392.765625 55.878906 C 321.058594 61.910156 264.765625 118.199219 258.734375 189.902344 L 53 189.902344 C 30.214844 189.902344 11.453125 208.667969 10.78125 231.449219 L 10.78125 686.460938 C 10.78125 709.914062 29.546875 728.007812 53 728.679688 L 756.652344 728.679688 C 780.105469 728.679688 798.199219 709.914062 798.871094 686.460938 L 798.871094 231.449219 C 798.199219 208.667969 779.4375 189.902344 756.652344 189.902344 Z M 34.90625 686.460938 L 34.90625 231.449219 C 34.90625 230.109375 34.90625 228.769531 35.578125 227.429688 L 297.605469 458.621094 L 34.90625 689.8125 C 34.90625 689.140625 34.90625 687.800781 34.90625 686.460938 Z M 404.828125 347.382812 C 481.222656 347.382812 544.214844 289.082031 550.246094 212.6875 L 755.3125 212.6875 L 418.898438 508.878906 C 410.859375 516.25 398.125 516.25 390.082031 508.878906 L 53.671875 213.359375 L 258.734375 213.359375 C 265.4375 289.082031 328.429688 347.382812 404.828125 347.382812 Z M 315.699219 474.703125 L 375.339844 526.972656 C 392.765625 541.714844 418.230469 541.714844 434.984375 526.972656 L 494.625 474.703125 L 755.980469 705.222656 L 53.671875 705.222656 Z M 512.050781 458.621094 L 774.746094 227.429688 C 774.746094 228.769531 775.414062 230.109375 775.414062 231.449219 L 775.414062 686.460938 C 775.414062 687.800781 775.414062 689.140625 774.746094 690.480469 Z M 404.828125 78.664062 C 472.511719 78.664062 527.460938 133.613281 527.460938 201.296875 C 527.460938 268.976562 472.511719 323.925781 404.828125 323.925781 C 337.140625 323.925781 282.191406 268.976562 282.191406 201.296875 C 282.191406 133.613281 337.140625 78.664062 404.828125 78.664062 Z M 404.828125 78.664062 " fill-opacity="1" fill-rule="nonzero"/></g><path fill="#ffffff" d="M 414.878906 120.882812 L 394.773438 120.882812 C 355.90625 120.882812 324.410156 152.375 324.410156 191.242188 L 324.410156 211.347656 C 324.410156 250.214844 355.90625 281.710938 394.773438 281.710938 L 406.167969 281.710938 C 412.867188 281.710938 417.558594 276.347656 417.558594 269.648438 C 417.558594 262.945312 412.199219 257.585938 406.167969 257.585938 L 394.773438 257.585938 C 368.640625 257.585938 347.863281 236.8125 347.863281 210.675781 L 347.863281 190.574219 C 347.863281 164.4375 368.640625 143.664062 394.773438 143.664062 L 414.878906 143.664062 C 441.015625 143.664062 461.789062 164.4375 461.789062 190.574219 L 461.789062 226.089844 C 461.789062 229.441406 459.109375 232.121094 455.757812 232.121094 L 448.386719 232.121094 C 445.035156 232.121094 442.355469 229.441406 442.355469 226.089844 L 442.355469 193.253906 C 442.355469 176.5 428.953125 163.097656 412.199219 163.097656 L 398.125 163.097656 C 381.371094 163.097656 367.96875 176.5 367.96875 193.253906 L 367.96875 207.328125 C 367.96875 224.078125 381.371094 237.480469 398.125 237.480469 L 421.582031 237.480469 C 426.269531 248.203125 436.324219 255.574219 448.386719 255.574219 L 455.757812 255.574219 C 471.839844 255.574219 485.242188 242.171875 485.242188 226.089844 L 485.242188 190.574219 C 485.242188 152.375 453.746094 120.882812 414.878906 120.882812 Z M 391.421875 208.667969 L 391.421875 194.59375 C 391.421875 191.242188 394.105469 187.894531 398.125 187.894531 L 412.199219 187.894531 C 415.550781 187.894531 418.898438 190.574219 418.898438 194.59375 L 418.898438 215.367188 L 398.125 215.367188 C 394.105469 215.367188 391.421875 212.015625 391.421875 208.667969 Z M 391.421875 208.667969 " fill-opacity="1" fill-rule="nonzero"/></svg>