<svg xmlns="http://www.w3.org/2000/svg" xmlns:xlink="http://www.w3.org/1999/xlink" width="1080" zoomAndPan="magnify" viewBox="0 0 810 809.999993" height="1080" preserveAspectRatio="xMidYMid meet" version="1.0"><defs><clipPath id="id1"><path d="M 48.722656 134.230469 L 761.222656 134.230469 L 761.222656 675.730469 L 48.722656 675.730469 Z M 48.722656 134.230469 " clip-rule="nonzero"/></clipPath></defs><g clip-path="url(#id1)"><path fill="#545454" d="M 429.730469 402.023438 C 415.625 414.527344 394.34375 414.527344 380.242188 402.027344 L 137.992188 187.210938 L 671.980469 187.210938 Z M 524.226562 422.113281 L 488.148438 460.585938 L 661.167969 622.859375 L 146.839844 622.859375 L 311.058594 459.917969 L 273.921875 422.472656 L 101.492188 593.566406 L 101.492188 225.328125 L 345.246094 441.480469 C 361.714844 456.09375 382.9375 464.136719 404.984375 464.136719 C 427.039062 464.136719 448.253906 456.09375 464.726562 441.480469 L 708.492188 225.316406 L 708.492188 594.933594 Z M 682.476562 134.46875 L 127.5 134.46875 C 84.074219 134.46875 48.75 169.800781 48.75 213.226562 L 48.75 596.851562 C 48.75 640.273438 84.074219 675.601562 127.5 675.601562 L 682.476562 675.601562 C 725.902344 675.601562 761.234375 640.273438 761.234375 596.851562 L 761.234375 213.226562 C 761.234375 169.800781 725.902344 134.46875 682.476562 134.46875 " fill-opacity="1" fill-rule="nonzero"/></g></svg>