<svg xmlns="http://www.w3.org/2000/svg" xmlns:xlink="http://www.w3.org/1999/xlink" width="1080" zoomAndPan="magnify" viewBox="0 0 810 809.999993" height="1080" preserveAspectRatio="xMidYMid meet" version="1.0"><defs><filter x="0%" y="0%" width="100%" height="100%" id="c0b4c88ab4"><feColorMatrix values="0 0 0 0 1 0 0 0 0 1 0 0 0 0 1 0 0 0 1 0" color-interpolation-filters="sRGB"/></filter><g/><mask id="864e257a6b"><g filter="url(#c0b4c88ab4)"><rect x="-81" width="972" fill="#000000" y="-80.999999" height="971.999992" fill-opacity="0.0588"/></g></mask><clipPath id="189ec25907"><rect x="0" width="795" y="0" height="730"/></clipPath></defs><g mask="url(#864e257a6b)"><g transform="matrix(1, 0, 0, 1, 8, 53)"><g clip-path="url(#189ec25907)"><g fill="#273468" fill-opacity="1"><g transform="translate(18.251646, 376.703579)"><g><path d="M 24.835938 -94.1875 C 44.046875 -94.1875 44.515625 -94.1875 62.789062 -98.402344 C 82.472656 -102.621094 129.332031 -117.148438 145.730469 -117.148438 C 143.855469 -110.117188 61.386719 -30.457031 51.074219 -20.617188 C 47.796875 -16.871094 45.921875 -14.058594 42.171875 -10.777344 C 38.425781 -7.027344 36.082031 -3.75 32.800781 0 L 23.898438 10.308594 C 16.871094 19.210938 -6.558594 48.734375 7.964844 59.511719 C 11.246094 61.855469 15.933594 62.789062 21.554688 62.789062 C 41.234375 62.789062 71.226562 49.671875 84.347656 44.515625 L 130.734375 22.023438 C 133.546875 20.617188 136.359375 18.742188 139.640625 17.335938 C 142.917969 14.527344 167.285156 1.875 167.753906 -2.34375 C 168.691406 -6.558594 165.410156 -7.027344 163.070312 -7.027344 L 130.269531 12.183594 C 103.558594 26.242188 48.734375 51.542969 22.023438 51.542969 C 19.210938 51.542969 16.402344 51.074219 14.527344 50.140625 C 14.996094 40.765625 28.117188 20.617188 36.082031 14.058594 C 37.957031 11.246094 38.425781 10.777344 40.296875 7.964844 C 42.171875 6.558594 43.578125 5.15625 45.453125 3.28125 C 55.292969 -8.433594 73.570312 -26.710938 83.878906 -36.550781 L 103.558594 -55.761719 C 119.023438 -71.226562 159.320312 -104.496094 159.320312 -119.957031 C 159.320312 -127.925781 152.761719 -130.269531 144.324219 -130.269531 C 133.078125 -130.269531 119.023438 -125.582031 114.804688 -124.644531 L 59.511719 -111.054688 C 55.292969 -110.117188 42.171875 -107.308594 30.925781 -107.308594 C 21.085938 -107.308594 13.121094 -109.179688 13.121094 -116.679688 L 13.121094 -122.769531 C 13.121094 -139.640625 38.894531 -176.65625 51.074219 -188.839844 C 59.511719 -198.679688 73.101562 -214.144531 83.878906 -223.515625 L 98.871094 -236.636719 C 119.957031 -253.507812 144.792969 -272.71875 172.910156 -272.71875 C 178.53125 -272.71875 184.625 -271.78125 184.625 -264.285156 C 184.625 -246.945312 165.410156 -231.953125 164.476562 -226.796875 C 165.878906 -225.859375 166.816406 -225.390625 167.753906 -225.390625 C 169.628906 -225.390625 171.035156 -227.265625 173.847656 -230.078125 C 181.8125 -238.042969 196.808594 -260.535156 188.839844 -272.71875 C 184.625 -279.277344 177.125 -281.152344 168.691406 -281.152344 C 137.296875 -281.152344 94.65625 -250.695312 74.503906 -230.078125 C 67.945312 -223.515625 58.105469 -216.488281 50.609375 -206.648438 L 34.207031 -187.433594 C 20.148438 -169.160156 -16.871094 -119.957031 7.496094 -100.746094 C 11.714844 -97.464844 17.804688 -94.1875 24.835938 -94.1875 Z M 24.835938 -94.1875 "/></g></g></g><g fill="#273468" fill-opacity="1"><g transform="translate(202.390973, 376.703579)"><g><path d="M 44.984375 171.035156 C 58.574219 181.34375 63.257812 235.230469 53.886719 242.261719 C 49.671875 223.984375 50.140625 227.265625 47.796875 208.054688 Z M -25.304688 137.765625 C -22.960938 134.015625 -21.554688 134.015625 -18.273438 131.203125 C -15.464844 128.863281 -13.589844 126.988281 -11.246094 124.175781 L 32.800781 82.003906 L 32.800781 144.324219 L 16.402344 138.703125 C 8.433594 136.359375 2.34375 135.890625 -2.8125 135.890625 C -11.246094 135.890625 -16.871094 137.765625 -25.304688 137.765625 Z M 45.921875 -75.910156 L 46.390625 -75.441406 C 46.390625 -75.441406 45.921875 -75.441406 45.921875 -75.910156 Z M -0.9375 -7.964844 C -0.9375 -31.394531 20.617188 -70.289062 36.082031 -80.128906 C 32.800781 -67.945312 8.433594 -14.527344 -0.9375 -7.964844 Z M -11.714844 -11.246094 C -11.714844 -5.15625 -13.121094 5.625 -2.8125 5.625 C 12.183594 5.625 35.144531 -45.453125 40.765625 -61.855469 L 45.921875 -73.570312 C 45.921875 -63.257812 34.675781 10.308594 34.675781 35.613281 C 34.675781 43.578125 33.738281 47.328125 33.738281 54.355469 C 33.738281 66.070312 35.144531 63.726562 28.582031 70.289062 L -22.960938 120.425781 C -26.710938 124.175781 -52.949219 146.667969 -52.949219 151.355469 C -52.949219 156.039062 -51.542969 157.445312 -49.203125 157.445312 C -44.984375 157.445312 -38.894531 153.226562 -32.800781 151.355469 C -23.898438 148.542969 -14.058594 146.667969 -4.21875 146.667969 C 11.714844 146.667969 20.617188 150.417969 33.738281 157.914062 C 33.738281 169.628906 35.144531 254.914062 53.886719 254.914062 C 54.824219 254.914062 56.230469 254.914062 57.636719 253.976562 C 68.882812 247.882812 69.351562 224.921875 69.351562 212.269531 C 69.351562 175.722656 44.984375 155.570312 44.984375 152.292969 C 44.984375 140.109375 43.578125 77.785156 46.390625 69.351562 C 47.328125 65.601562 59.042969 55.292969 62.324219 52.011719 L 124.175781 -14.058594 C 127.925781 -20.617188 162.132812 -57.636719 165.410156 -59.980469 C 168.222656 -61.855469 168.222656 -60.917969 171.503906 -62.324219 C 171.503906 -62.789062 173.847656 -71.226562 167.285156 -71.226562 C 161.664062 -71.226562 153.226562 -62.789062 149.949219 -58.574219 L 46.859375 51.074219 C 46.859375 29.519531 55.761719 -58.105469 60.449219 -77.785156 L 62.789062 -78.253906 C 63.726562 -78.722656 64.195312 -78.722656 66.070312 -79.191406 C 66.539062 -83.878906 67.007812 -81.535156 67.007812 -85.75 C 67.007812 -98.871094 59.980469 -79.191406 66.070312 -114.804688 C 67.476562 -124.175781 73.101562 -142.449219 62.789062 -142.449219 C 56.230469 -142.449219 54.355469 -131.671875 52.949219 -126.988281 C 50.609375 -120.425781 48.265625 -114.335938 45.921875 -107.773438 C 43.578125 -100.277344 43.109375 -95.59375 37.019531 -91.375 C 15.464844 -77.316406 -11.714844 -35.144531 -11.714844 -11.246094 Z M -11.714844 -11.246094 "/></g></g></g><g fill="#273468" fill-opacity="1"><g transform="translate(351.389213, 376.703579)"><g><path d="M 10.308594 -50.140625 C 10.308594 -43.109375 9.371094 -21.554688 19.679688 -21.554688 C 20.617188 -21.554688 21.554688 -21.554688 22.492188 -22.023438 C 25.773438 -23.429688 28.117188 -27.179688 30.457031 -29.519531 L 47.328125 -59.042969 C 48.734375 -61.855469 56.699219 -77.785156 58.574219 -79.191406 C 59.042969 -71.226562 65.132812 -55.761719 76.847656 -55.761719 C 89.03125 -55.761719 95.125 -59.980469 106.839844 -67.476562 C 110.585938 -69.820312 126.519531 -80.597656 126.519531 -85.28125 C 126.519531 -87.15625 125.582031 -87.625 124.644531 -87.625 C 121.832031 -87.625 117.148438 -83.410156 115.742188 -82.472656 C 108.710938 -76.378906 87.15625 -62.789062 79.191406 -62.789062 C 63.257812 -62.789062 68.882812 -91.375 60.449219 -91.375 C 53.886719 -91.375 49.203125 -77.316406 44.515625 -69.820312 C 40.765625 -63.726562 25.773438 -32.332031 19.679688 -30.457031 C 19.210938 -35.144531 17.335938 -39.828125 17.335938 -47.796875 C 17.335938 -58.105469 19.210938 -69.820312 20.617188 -77.785156 C 22.023438 -82.472656 23.429688 -86.21875 25.304688 -90.90625 C 27.179688 -97.464844 29.519531 -100.746094 30.457031 -102.621094 C 32.332031 -102.621094 32.332031 -102.152344 34.675781 -102.152344 C 35.613281 -105.902344 34.207031 -108.242188 31.394531 -108.242188 C 20.148438 -108.242188 10.308594 -59.042969 10.308594 -50.140625 Z M 10.308594 -50.140625 "/></g></g></g><g fill="#273468" fill-opacity="1"><g transform="translate(454.469735, 376.703579)"><g><path d="M 4.6875 -44.046875 C 4.6875 -29.519531 2.8125 5.625 22.023438 5.625 C 28.582031 5.625 39.363281 -2.8125 42.640625 -6.558594 C 51.542969 -14.996094 82.472656 -56.230469 82.472656 -66.070312 C 82.472656 -66.539062 80.128906 -68.414062 78.722656 -68.882812 C 78.253906 -68.882812 77.785156 -68.882812 77.785156 -68.882812 C 75.441406 -68.882812 75.441406 -67.476562 74.035156 -66.070312 L 54.824219 -36.082031 C 46.859375 -25.304688 38.894531 -13.589844 27.648438 -6.558594 C 25.773438 -5.625 24.367188 -5.15625 22.960938 -5.15625 C 20.148438 -5.15625 18.742188 -7.964844 17.335938 -12.652344 C 16.871094 -15.464844 16.402344 -18.742188 15.464844 -22.492188 C 12.652344 -37.957031 13.589844 -74.035156 16.871094 -87.625 C 17.335938 -87.625 17.804688 -87.15625 19.210938 -87.15625 C 19.679688 -87.15625 20.617188 -87.15625 22.023438 -87.625 C 22.023438 -93.25 22.960938 -103.089844 17.335938 -103.089844 C 8.902344 -103.089844 4.6875 -52.480469 4.6875 -44.046875 Z M 14.058594 -135.890625 C 14.058594 -132.609375 17.335938 -130.734375 21.085938 -130.734375 C 23.898438 -130.734375 26.242188 -131.671875 27.648438 -134.953125 L 29.519531 -141.515625 C 26.710938 -143.386719 24.367188 -143.855469 22.492188 -143.855469 C 16.402344 -143.855469 14.058594 -136.359375 14.058594 -135.890625 Z M 14.058594 -135.890625 "/></g></g></g><g fill="#273468" fill-opacity="1"><g transform="translate(518.192247, 376.703579)"><g><path d="M 95.125 -95.59375 C 111.523438 -95.59375 97.464844 -46.390625 95.125 -38.894531 C 88.5625 -19.679688 89.96875 -22.492188 75.441406 -10.777344 C 65.601562 -3.28125 29.988281 26.242188 29.988281 39.828125 C 29.988281 46.390625 32.800781 48.265625 37.019531 48.265625 C 59.511719 48.265625 86.21875 9.371094 94.65625 -7.496094 C 103.558594 -24.367188 170.097656 -57.636719 187.433594 -64.664062 C 193.527344 -67.476562 198.679688 -67.007812 198.679688 -73.570312 C 198.679688 -75.910156 197.277344 -76.847656 194.464844 -76.847656 C 181.8125 -76.847656 143.855469 -55.292969 136.828125 -52.011719 C 128.394531 -47.328125 109.179688 -34.675781 105.433594 -33.269531 C 112.460938 -47.796875 124.644531 -107.308594 96.0625 -107.308594 C 93.71875 -107.308594 90.90625 -106.839844 88.09375 -105.902344 C 69.351562 -100.746094 47.796875 -67.007812 37.488281 -50.140625 L 18.742188 -14.527344 C 18.742188 -37.957031 19.679688 -58.105469 19.679688 -81.066406 C 19.679688 -87.625 18.273438 -90.90625 19.210938 -96.0625 C 19.679688 -101.683594 19.679688 -106.371094 19.679688 -112.460938 L 19.210938 -134.953125 C 17.804688 -138.703125 18.273438 -138.234375 14.058594 -139.171875 C 10.308594 -133.546875 12.183594 -125.113281 12.183594 -113.398438 C 12.183594 -97.933594 9.839844 -82.003906 9.839844 -73.570312 L 7.964844 -33.738281 C 6.558594 -14.527344 7.027344 -1.40625 5.15625 17.804688 C 4.6875 22.492188 -5.625 51.542969 -7.964844 61.386719 C -18.742188 102.621094 -20.617188 114.335938 -26.242188 156.507812 C -28.582031 172.441406 -30.925781 199.148438 -29.988281 216.019531 C -29.050781 236.636719 -22.960938 247.882812 -16.402344 247.882812 C -9.371094 247.882812 -1.875 235.699219 1.875 208.992188 L 13.121094 78.722656 C 13.121094 72.632812 14.058594 71.695312 14.058594 65.601562 L 16.402344 25.773438 C 16.402344 14.527344 19.210938 11.246094 22.492188 2.8125 C 32.800781 -22.492188 68.882812 -95.59375 95.125 -95.59375 Z M -14.527344 234.761719 L -16.871094 234.761719 C -18.273438 221.640625 -19.210938 223.515625 -19.210938 205.710938 C -19.210938 174.785156 -9.371094 96.996094 1.40625 65.132812 C 1.40625 64.664062 1.875 63.726562 1.875 63.257812 C 3.28125 60.449219 2.34375 62.789062 3.28125 61.386719 L 1.875 83.410156 C -0.9375 120.425781 -4.6875 182.75 -9.839844 215.082031 C -11.246094 223.046875 -13.121094 227.734375 -14.527344 234.761719 Z M 45.453125 33.269531 C 49.203125 27.179688 67.945312 8.902344 73.101562 5.625 C 71.695312 11.714844 53.417969 31.394531 45.453125 33.269531 Z M 45.453125 33.269531 "/></g></g></g><g fill="#273468" fill-opacity="1"><g transform="translate(695.771912, 376.703579)"><g><path d="M -0.46875 -18.742188 C 14.058594 -18.742188 26.242188 -35.144531 34.207031 -45.921875 C 37.019531 -49.203125 38.894531 -52.011719 39.363281 -52.011719 C 39.363281 -42.171875 39.363281 -25.304688 52.949219 -25.304688 C 64.664062 -25.304688 90.4375 -45.921875 96.0625 -55.761719 C 96.996094 -57.167969 96.996094 -59.511719 96.527344 -59.980469 C 96.0625 -60.449219 96.0625 -60.917969 96.0625 -60.917969 C 96.0625 -61.386719 94.65625 -61.386719 93.25 -61.386719 C 92.78125 -61.386719 92.3125 -61.386719 91.84375 -61.386719 C 91.375 -61.386719 89.5 -59.511719 87.625 -57.636719 C 82.472656 -52.480469 60.917969 -34.675781 53.417969 -34.675781 C 52.480469 -34.675781 52.011719 -35.144531 51.074219 -36.082031 C 49.203125 -38.425781 47.796875 -45.453125 48.265625 -56.230469 C 48.734375 -63.257812 48.734375 -63.257812 47.796875 -64.664062 C 46.859375 -66.539062 45.453125 -67.476562 44.046875 -67.476562 C 43.109375 -67.476562 41.703125 -67.007812 40.296875 -66.070312 C 38.425781 -64.664062 36.082031 -62.324219 28.582031 -53.417969 C 20.617188 -43.578125 10.308594 -33.269531 8.902344 -34.207031 C 8.433594 -34.207031 16.871094 -48.734375 22.023438 -55.761719 C 29.988281 -67.007812 38.894531 -76.378906 42.171875 -76.378906 C 42.640625 -76.378906 43.109375 -76.378906 43.109375 -75.910156 C 43.109375 -75.910156 43.109375 -74.035156 43.578125 -72.632812 C 43.578125 -69.820312 43.578125 -69.351562 44.046875 -68.882812 C 44.515625 -68.414062 44.984375 -68.414062 45.453125 -68.414062 C 47.328125 -68.414062 48.265625 -70.757812 48.734375 -74.503906 C 49.203125 -77.785156 49.203125 -79.660156 47.796875 -82.003906 C 46.859375 -84.347656 43.578125 -86.21875 40.296875 -86.21875 C 39.363281 -86.21875 38.894531 -85.75 37.957031 -85.75 C 20.617188 -82.941406 0.46875 -54.824219 -5.625 -38.425781 C -7.027344 -34.207031 -7.027344 -31.394531 -6.558594 -28.117188 C -6.089844 -22.960938 -3.75 -20.148438 -0.46875 -18.742188 Z M -0.46875 -18.742188 "/></g></g></g></g></g></g></svg>