<svg xmlns="http://www.w3.org/2000/svg" xmlns:xlink="http://www.w3.org/1999/xlink" width="1080" zoomAndPan="magnify" viewBox="0 0 810 809.999993" height="1080" preserveAspectRatio="xMidYMid meet" version="1.0"><defs><clipPath id="a65424a126"><path d="M 13.363281 13.363281 L 796 13.363281 L 796 796 L 13.363281 796 Z M 13.363281 13.363281 " clip-rule="nonzero"/></clipPath></defs><g clip-path="url(#a65424a126)"><path fill="#ffffff" d="M 404.074219 12.953125 C 188.414062 12.953125 12.953125 188.414062 12.953125 404.074219 C 12.953125 619.738281 188.414062 795.199219 404.074219 795.199219 C 619.738281 795.199219 795.199219 619.738281 795.199219 404.074219 C 795.199219 188.414062 619.738281 12.953125 404.074219 12.953125 Z M 501.34375 417.84375 L 437.710938 417.84375 C 437.710938 519.507812 437.710938 644.679688 437.710938 644.679688 L 343.421875 644.679688 C 343.421875 644.679688 343.421875 520.722656 343.421875 417.84375 L 298.597656 417.84375 L 298.597656 337.6875 L 343.421875 337.6875 L 343.421875 285.839844 C 343.421875 248.703125 361.066406 190.679688 438.578125 190.679688 L 508.417969 190.949219 L 508.417969 268.761719 C 508.417969 268.761719 465.960938 268.761719 457.703125 268.761719 C 449.449219 268.761719 437.726562 272.886719 437.726562 290.597656 L 437.726562 337.703125 L 509.566406 337.703125 Z M 501.34375 417.84375 " fill-opacity="1" fill-rule="nonzero"/></g></svg>