<svg xmlns="http://www.w3.org/2000/svg" xmlns:xlink="http://www.w3.org/1999/xlink" width="1080" zoomAndPan="magnify" viewBox="0 0 810 809.999993" height="1080" preserveAspectRatio="xMidYMid meet" version="1.0"><defs><filter x="0%" y="0%" width="100%" height="100%" id="95fd93b5f3"><feColorMatrix values="0 0 0 0 1 0 0 0 0 1 0 0 0 0 1 0 0 0 1 0" color-interpolation-filters="sRGB"/></filter><mask id="cd7ad7c4af"><g filter="url(#95fd93b5f3)"><rect x="-81" width="972" fill="#000000" y="-80.999999" height="971.999992" fill-opacity="0.0588"/></g></mask><clipPath id="6de7b384bb"><path d="M 0.121094 0.699219 L 780 0.699219 L 780 617.199219 L 0.121094 617.199219 Z M 0.121094 0.699219 " clip-rule="nonzero"/></clipPath><clipPath id="b218511e4c"><rect x="0" width="781" y="0" height="621"/></clipPath></defs><g mask="url(#cd7ad7c4af)"><g transform="matrix(1, 0, 0, 1, 15, 96)"><g clip-path="url(#b218511e4c)"><g clip-path="url(#6de7b384bb)"><path fill="#0e255f" d="M 0.238281 345.1875 C 0.238281 118.386719 117.984375 0.699219 344.890625 0.699219 L 344.890625 163.980469 C 254.050781 163.980469 194.398438 202.171875 172.566406 272.707031 L 344.890625 272.707031 L 344.890625 617.199219 L 0.238281 617.199219 Z M 435.34375 345.1875 C 435.34375 118.386719 553.476562 0.699219 779.996094 0.699219 L 779.996094 163.980469 C 689.15625 163.980469 629.503906 202.171875 607.671875 272.707031 L 779.996094 272.707031 L 779.996094 617.199219 L 435.34375 617.199219 Z M 435.34375 345.1875 " fill-opacity="1" fill-rule="nonzero"/></g></g></g></g></svg>