<svg xmlns="http://www.w3.org/2000/svg" xmlns:xlink="http://www.w3.org/1999/xlink" width="1080" zoomAndPan="magnify" viewBox="0 0 810 809.999993" height="1080" preserveAspectRatio="xMidYMid meet" version="1.0"><defs><filter x="0%" y="0%" width="100%" height="100%" id="2e7d10e4c1"><feColorMatrix values="0 0 0 0 1 0 0 0 0 1 0 0 0 0 1 0 0 0 1 0" color-interpolation-filters="sRGB"/></filter><g/><mask id="4e0141ee1a"><g filter="url(#2e7d10e4c1)"><rect x="-81" width="972" fill="#000000" y="-80.999999" height="971.999992" fill-opacity="0.0588"/></g></mask><clipPath id="8ffe160c81"><rect x="0" width="745" y="0" height="754"/></clipPath></defs><g mask="url(#4e0141ee1a)"><g transform="matrix(1, 0, 0, 1, 43, 40)"><g clip-path="url(#8ffe160c81)"><g fill="#273468" fill-opacity="1"><g transform="translate(0.853409, 389.456932)"><g><path d="M 4.839844 -45.511719 C 4.839844 -30.503906 2.90625 5.808594 22.757812 5.808594 C 29.535156 5.808594 40.671875 -2.90625 44.058594 -6.777344 C 53.257812 -15.492188 85.214844 -58.101562 85.214844 -68.269531 C 85.214844 -68.753906 82.792969 -70.691406 81.339844 -71.171875 C 80.855469 -71.171875 80.371094 -71.171875 80.371094 -71.171875 C 77.953125 -71.171875 77.953125 -69.722656 76.5 -68.269531 L 56.648438 -37.28125 C 48.417969 -26.144531 40.1875 -14.042969 28.566406 -6.777344 C 26.628906 -5.808594 25.175781 -5.324219 23.722656 -5.324219 C 20.820312 -5.324219 19.367188 -8.230469 17.914062 -13.074219 C 17.429688 -15.976562 16.945312 -19.367188 15.976562 -23.242188 C 13.074219 -39.21875 14.042969 -76.5 17.429688 -90.539062 C 17.914062 -90.539062 18.398438 -90.054688 19.851562 -90.054688 C 20.335938 -90.054688 21.304688 -90.054688 22.757812 -90.539062 C 22.757812 -96.351562 23.722656 -106.519531 17.914062 -106.519531 C 9.199219 -106.519531 4.839844 -54.226562 4.839844 -45.511719 Z M 14.523438 -140.410156 C 14.523438 -137.019531 17.914062 -135.085938 21.789062 -135.085938 C 24.691406 -135.085938 27.113281 -136.054688 28.566406 -139.441406 L 30.503906 -146.222656 C 27.597656 -148.15625 25.175781 -148.640625 23.242188 -148.640625 C 16.945312 -148.640625 14.523438 -140.894531 14.523438 -140.410156 Z M 14.523438 -140.410156 "/></g></g></g><g fill="#273468" fill-opacity="1"><g transform="translate(66.695425, 389.456932)"><g><path d="M 15.976562 -15.492188 C 15.976562 -20.820312 15.492188 -23.242188 15.492188 -26.628906 C 14.523438 -31.472656 15.976562 -31.957031 15.976562 -37.28125 C 16.460938 -47.933594 17.429688 -87.636719 24.207031 -94.898438 C 24.691406 -94.898438 27.597656 -95.867188 27.597656 -98.289062 C 27.597656 -102.644531 25.660156 -106.519531 22.757812 -106.519531 C 19.851562 -106.519531 16.460938 -102.160156 13.558594 -88.605469 C 10.652344 -74.078125 -5.808594 8.230469 15.007812 8.230469 C 23.722656 8.230469 28.566406 -13.558594 31.472656 -21.304688 C 34.859375 -32.925781 38.734375 -44.058594 43.089844 -55.679688 L 69.722656 -119.589844 C 69.722656 -119.589844 70.207031 -120.074219 70.207031 -120.558594 C 70.207031 -97.320312 65.847656 -0.96875 80.371094 8.230469 C 82.308594 9.199219 84.246094 10.167969 85.699219 10.167969 C 91.992188 10.167969 96.351562 2.421875 99.253906 -2.90625 L 117.171875 -37.765625 C 119.589844 -41.640625 121.042969 -44.058594 123.464844 -48.902344 C 126.371094 -54.226562 133.148438 -68.269531 137.019531 -70.691406 C 137.988281 -57.617188 151.546875 -24.691406 171.398438 -24.691406 C 189.796875 -24.691406 221.753906 -48.417969 221.753906 -54.710938 C 221.753906 -58.101562 220.300781 -59.070312 218.363281 -59.070312 C 209.648438 -59.070312 185.921875 -36.3125 172.367188 -36.3125 C 151.0625 -36.3125 152.03125 -81.824219 139.441406 -85.214844 C 138.957031 -85.214844 138.472656 -85.699219 137.503906 -85.699219 C 129.757812 -85.699219 123.949219 -71.171875 120.558594 -65.363281 C 118.621094 -61.972656 117.65625 -60.039062 115.71875 -56.164062 L 106.035156 -38.25 C 102.644531 -31.472656 100.222656 -26.144531 96.835938 -20.335938 C 93.929688 -15.492188 90.054688 -5.808594 86.183594 -2.90625 C 85.699219 -8.714844 84.246094 -13.074219 83.761719 -19.367188 C 83.277344 -38.25 81.824219 -54.710938 82.792969 -76.5 L 83.761719 -114.75 C 83.761719 -127.820312 85.699219 -145.738281 74.5625 -145.738281 C 65.363281 -145.738281 60.039062 -129.273438 55.195312 -118.136719 C 46.964844 -98.773438 34.859375 -70.691406 28.566406 -50.839844 Z M 15.976562 -15.492188 "/></g></g></g><g fill="#273468" fill-opacity="1"><g transform="translate(273.904156, 389.456932)"><g><path d="M 26.144531 -18.882812 C 16.945312 -18.882812 15.492188 -46.964844 15.492188 -56.648438 C 15.492188 -64.394531 17.429688 -98.289062 27.113281 -98.289062 C 48.417969 -98.289062 53.257812 -79.890625 49.386719 -59.554688 C 47.449219 -48.902344 34.375 -18.882812 26.144531 -18.882812 Z M 24.691406 -6.292969 C 44.058594 -6.292969 59.070312 -42.125 61.972656 -57.617188 C 66.816406 -83.277344 58.585938 -108.9375 28.082031 -109.90625 C 29.050781 -112.8125 31.472656 -117.65625 33.40625 -119.589844 C 34.859375 -121.527344 35.34375 -122.011719 35.828125 -122.011719 C 36.3125 -122.011719 36.3125 -121.042969 37.765625 -121.527344 C 41.640625 -122.011719 42.125 -121.042969 42.125 -125.886719 C 42.125 -128.304688 40.1875 -130.726562 36.796875 -130.726562 C 33.40625 -130.726562 29.050781 -127.820312 24.207031 -119.589844 C 21.304688 -114.75 19.851562 -109.90625 16.460938 -105.550781 C 15.492188 -104.582031 15.492188 -104.582031 15.492188 -104.582031 C 15.007812 -104.582031 15.492188 -105.550781 14.042969 -103.128906 L 6.292969 -70.691406 C 4.359375 -57.617188 3.390625 -45.027344 5.808594 -32.441406 C 7.746094 -21.304688 13.074219 -6.292969 24.691406 -6.292969 Z M 33.40625 -151.0625 C 32.441406 -149.125 31.472656 -147.671875 30.988281 -145.738281 C 30.503906 -143.316406 33.890625 -140.894531 36.796875 -140.894531 C 41.640625 -140.410156 59.554688 -151.0625 61.488281 -155.421875 C 62.457031 -157.355469 61.972656 -157.839844 61.972656 -158.808594 C 61.972656 -159.292969 61.488281 -160.261719 61.488281 -160.746094 C 61.488281 -160.746094 61.007812 -161.714844 59.554688 -162.199219 C 57.617188 -163.167969 57.617188 -163.167969 55.679688 -163.167969 C 52.773438 -163.652344 39.21875 -154.9375 35.828125 -152.515625 C 35.34375 -152.515625 34.375 -151.546875 33.40625 -151.0625 Z M 33.40625 -151.0625 "/></g></g></g><g fill="#273468" fill-opacity="1"><g transform="translate(343.619227, 389.456932)"><g><path d="M 32.441406 29.535156 C 56.648438 29.535156 76.015625 -55.679688 79.40625 -72.625 C 80.855469 -79.890625 81.824219 -86.667969 83.277344 -93.445312 C 84.730469 -103.613281 87.636719 -106.035156 80.855469 -111.84375 C 73.59375 -109.90625 74.078125 -106.035156 72.140625 -98.773438 C 67.300781 -76.984375 66.816406 -67.300781 60.523438 -44.058594 C 56.164062 -28.082031 42.605469 11.136719 32.441406 17.914062 C 30.988281 15.492188 30.019531 14.042969 29.050781 11.136719 C 22.273438 -5.324219 18.882812 -35.828125 17.429688 -53.257812 C 15.976562 -72.140625 16.460938 -95.382812 13.558594 -113.78125 C 12.589844 -121.527344 11.621094 -125.402344 8.230469 -130.242188 L 2.421875 -130.242188 C 0.484375 -121.527344 4.359375 -129.757812 6.292969 -112.8125 C 8.714844 -89.574219 5.324219 -58.101562 7.746094 -42.125 C 9.683594 -29.050781 11.621094 29.535156 32.441406 29.535156 Z M 32.441406 29.535156 "/></g></g></g><g fill="#273468" fill-opacity="1"><g transform="translate(431.731351, 389.456932)"><g><path d="M 31.472656 -10.167969 C 32.925781 -10.167969 34.375 -9.683594 35.828125 -9.683594 C 49.386719 -9.683594 67.785156 -17.914062 83.761719 -31.472656 C 94.414062 -39.703125 115.234375 -58.585938 116.6875 -60.523438 C 118.136719 -62.941406 116.6875 -66.332031 113.78125 -66.332031 C 113.296875 -66.332031 112.8125 -65.847656 112.328125 -65.847656 C 110.875 -65.363281 106.519531 -61.488281 90.054688 -48.902344 C 84.246094 -44.542969 77.953125 -39.703125 76.015625 -38.25 C 61.972656 -28.082031 46.964844 -22.273438 36.3125 -22.273438 C 28.566406 -22.273438 19.367188 -25.175781 15.976562 -32.441406 C 15.007812 -34.859375 13.074219 -39.703125 13.558594 -40.1875 C 14.042969 -40.1875 15.492188 -40.671875 16.945312 -40.671875 C 31.472656 -44.058594 54.710938 -63.425781 54.710938 -80.371094 C 55.195312 -84.730469 54.710938 -87.152344 52.773438 -90.539062 C 50.839844 -94.898438 47.449219 -96.835938 42.605469 -97.320312 C 22.273438 -97.320312 7.261719 -71.65625 3.390625 -54.226562 C 2.90625 -50.839844 2.90625 -49.386719 2.90625 -43.574219 C 2.90625 -28.566406 6.292969 -25.175781 15.976562 -15.492188 C 20.335938 -12.589844 26.144531 -10.652344 31.472656 -10.167969 Z M 17.914062 -47.449219 C 15.007812 -46.480469 13.558594 -45.996094 13.074219 -46.480469 C 13.074219 -46.480469 13.074219 -48.417969 13.558594 -49.871094 C 15.007812 -61.488281 19.851562 -72.140625 26.628906 -79.40625 C 31.957031 -84.246094 38.734375 -88.605469 41.640625 -88.605469 C 46.480469 -88.605469 48.417969 -81.824219 45.511719 -74.078125 C 41.15625 -63.425781 28.566406 -50.839844 17.914062 -47.449219 Z M 17.914062 -47.449219 "/></g></g></g><g fill="#273468" fill-opacity="1"><g transform="translate(532.430901, 389.456932)"><g><path d="M 4.839844 -45.511719 C 4.839844 -30.503906 2.90625 5.808594 22.757812 5.808594 C 29.535156 5.808594 40.671875 -2.90625 44.058594 -6.777344 C 53.257812 -15.492188 85.214844 -58.101562 85.214844 -68.269531 C 85.214844 -68.753906 82.792969 -70.691406 81.339844 -71.171875 C 80.855469 -71.171875 80.371094 -71.171875 80.371094 -71.171875 C 77.953125 -71.171875 77.953125 -69.722656 76.5 -68.269531 L 56.648438 -37.28125 C 48.417969 -26.144531 40.1875 -14.042969 28.566406 -6.777344 C 26.628906 -5.808594 25.175781 -5.324219 23.722656 -5.324219 C 20.820312 -5.324219 19.367188 -8.230469 17.914062 -13.074219 C 17.429688 -15.976562 16.945312 -19.367188 15.976562 -23.242188 C 13.074219 -39.21875 14.042969 -76.5 17.429688 -90.539062 C 17.914062 -90.539062 18.398438 -90.054688 19.851562 -90.054688 C 20.335938 -90.054688 21.304688 -90.054688 22.757812 -90.539062 C 22.757812 -96.351562 23.722656 -106.519531 17.914062 -106.519531 C 9.199219 -106.519531 4.839844 -54.226562 4.839844 -45.511719 Z M 14.523438 -140.410156 C 14.523438 -137.019531 17.914062 -135.085938 21.789062 -135.085938 C 24.691406 -135.085938 27.113281 -136.054688 28.566406 -139.441406 L 30.503906 -146.222656 C 27.597656 -148.15625 25.175781 -148.640625 23.242188 -148.640625 C 16.945312 -148.640625 14.523438 -140.894531 14.523438 -140.410156 Z M 14.523438 -140.410156 "/></g></g></g><g fill="#273468" fill-opacity="1"><g transform="translate(598.272917, 389.456932)"><g><path d="M -5.324219 93.445312 C -5.324219 70.207031 14.042969 40.671875 27.597656 23.722656 C 30.503906 20.335938 41.640625 7.261719 44.542969 5.324219 C 44.542969 19.851562 44.058594 29.535156 41.15625 41.640625 C 36.796875 58.585938 21.789062 98.773438 3.875 103.128906 C -2.90625 103.128906 -5.324219 102.160156 -5.324219 93.445312 Z M -5.324219 -84.246094 C -5.324219 -63.910156 19.367188 -51.808594 33.890625 -30.019531 C 36.796875 -25.175781 42.125 -13.558594 42.125 -6.292969 C 38.734375 -5.324219 26.628906 9.683594 23.242188 13.558594 C 6.292969 33.40625 -15.976562 65.363281 -15.976562 94.414062 C -15.976562 106.035156 -8.714844 114.265625 1.9375 114.265625 C 11.621094 114.265625 23.722656 107.488281 34.859375 89.089844 C 47.933594 67.300781 61.488281 30.503906 57.132812 1.453125 C 55.195312 -11.136719 55.679688 -4.359375 69.238281 -17.914062 L 93.445312 -38.25 C 97.804688 -41.640625 101.675781 -44.542969 106.035156 -47.449219 C 110.390625 -50.839844 114.265625 -54.226562 119.105469 -57.617188 C 123.949219 -60.523438 127.339844 -63.910156 131.695312 -66.332031 C 134.601562 -68.269531 144.285156 -73.59375 144.285156 -76.984375 C 144.285156 -79.40625 142.832031 -80.855469 140.894531 -80.855469 C 130.726562 -80.855469 100.222656 -55.195312 94.898438 -51.324219 C 90.054688 -47.933594 57.132812 -19.851562 52.773438 -18.398438 C 51.808594 -27.113281 42.605469 -40.1875 37.28125 -45.996094 C 15.007812 -72.625 -10.167969 -74.5625 13.558594 -106.035156 C 16.945312 -110.390625 23.242188 -117.171875 30.988281 -117.65625 C 30.503906 -116.203125 25.660156 -109.421875 31.957031 -109.421875 C 38.25 -109.421875 40.671875 -124.433594 28.566406 -124.433594 C 16.460938 -124.433594 -5.324219 -100.222656 -5.324219 -84.246094 Z M -5.324219 -84.246094 "/></g></g></g></g></g></g></svg>