<svg xmlns="http://www.w3.org/2000/svg" xmlns:xlink="http://www.w3.org/1999/xlink" width="1080" zoomAndPan="magnify" viewBox="0 0 810 809.999993" height="1080" preserveAspectRatio="xMidYMid meet" version="1.0"><defs><clipPath id="id1"><path d="M 41.714844 41.714844 L 768.464844 41.714844 L 768.464844 768.464844 L 41.714844 768.464844 Z M 41.714844 41.714844 " clip-rule="nonzero"/></clipPath></defs><g clip-path="url(#id1)"><path fill="#545454" d="M 404.929688 107.238281 C 501.90625 107.238281 513.371094 107.558594 551.746094 109.308594 C 587.09375 110.902344 606.363281 116.792969 619.261719 121.890625 C 636.140625 128.417969 648.242188 136.378906 660.980469 149.117188 C 673.71875 161.859375 681.523438 173.960938 688.210938 190.839844 C 693.144531 203.578125 699.039062 222.84375 700.789062 258.355469 C 702.542969 296.730469 702.859375 308.195312 702.859375 405.167969 C 702.859375 502.144531 702.542969 513.609375 700.789062 551.984375 C 699.199219 587.335938 693.304688 606.601562 688.210938 619.5 C 681.679688 636.378906 673.71875 648.480469 660.980469 661.21875 C 648.242188 673.957031 636.140625 681.761719 619.261719 688.449219 C 606.523438 693.386719 587.253906 699.277344 551.746094 701.027344 C 513.371094 702.78125 501.90625 703.097656 404.929688 703.097656 C 307.957031 703.097656 296.492188 702.78125 258.117188 701.027344 C 222.765625 699.4375 203.496094 693.542969 190.601562 688.449219 C 173.722656 681.921875 161.617188 673.957031 148.878906 661.21875 C 136.140625 648.480469 128.339844 636.378906 121.652344 619.5 C 116.714844 606.761719 110.824219 587.492188 109.070312 551.984375 C 107.320312 513.609375 107 502.144531 107 405.167969 C 107 308.195312 107.320312 296.730469 109.070312 258.355469 C 110.664062 223.003906 116.554688 203.738281 121.652344 190.839844 C 128.179688 173.960938 136.140625 161.859375 148.878906 149.117188 C 161.617188 136.378906 173.722656 128.578125 190.601562 121.890625 C 203.339844 116.953125 222.605469 111.0625 258.117188 109.308594 C 296.492188 107.558594 307.957031 107.238281 404.929688 107.238281 M 404.929688 41.792969 C 306.203125 41.792969 293.945312 42.273438 255.089844 44.023438 C 216.394531 45.773438 189.960938 51.984375 166.875 60.902344 C 142.988281 70.136719 122.765625 82.558594 102.542969 102.78125 C 82.480469 123.003906 70.058594 143.226562 60.824219 167.113281 C 51.90625 190.203125 45.695312 216.632812 43.945312 255.328125 C 42.191406 294.023438 41.714844 306.445312 41.714844 405.011719 C 41.714844 503.734375 42.191406 515.996094 43.945312 554.851562 C 45.695312 593.542969 51.90625 619.976562 60.824219 643.066406 C 70.058594 666.953125 82.480469 687.175781 102.703125 707.398438 C 122.925781 727.621094 143.148438 740.042969 167.03125 749.277344 C 190.121094 758.195312 216.554688 764.402344 255.25 766.15625 C 293.945312 767.90625 306.363281 768.386719 405.089844 768.386719 C 503.816406 768.386719 516.078125 767.90625 554.929688 766.15625 C 593.625 764.402344 620.058594 758.195312 643.148438 749.277344 C 667.03125 740.042969 687.253906 727.621094 707.476562 707.398438 C 727.699219 687.175781 740.121094 666.953125 749.355469 643.066406 C 758.273438 619.976562 764.484375 593.542969 766.234375 554.851562 C 767.988281 516.15625 768.464844 503.734375 768.464844 405.011719 C 768.464844 306.285156 767.988281 294.023438 766.234375 255.167969 C 764.484375 216.476562 758.273438 190.042969 749.355469 166.953125 C 740.121094 143.066406 727.699219 122.84375 707.476562 102.621094 C 687.253906 82.398438 667.03125 69.980469 643.148438 60.742188 C 620.058594 51.824219 593.625 45.617188 554.929688 43.863281 C 516.078125 42.273438 503.65625 41.792969 404.929688 41.792969 " fill-opacity="1" fill-rule="nonzero"/></g><path fill="#545454" d="M 404.929688 218.546875 C 301.90625 218.546875 218.464844 301.984375 218.464844 405.011719 C 218.464844 508.035156 302.0625 591.632812 405.089844 591.632812 C 508.113281 591.632812 591.714844 508.195312 591.714844 405.011719 C 591.554688 301.984375 507.957031 218.546875 404.929688 218.546875 M 404.929688 526.1875 C 338.050781 526.1875 283.910156 472.046875 283.910156 405.167969 C 283.910156 338.289062 338.050781 284.152344 404.929688 284.152344 C 471.808594 284.152344 525.949219 338.289062 525.949219 405.167969 C 526.109375 471.890625 471.808594 526.1875 404.929688 526.1875 " fill-opacity="1" fill-rule="nonzero"/><path fill="#545454" d="M 642.507812 211.222656 C 642.507812 235.265625 622.921875 254.851562 598.878906 254.851562 C 574.835938 254.851562 555.25 235.265625 555.25 211.222656 C 555.25 187.175781 574.835938 167.589844 598.878906 167.589844 C 622.921875 167.589844 642.507812 187.015625 642.507812 211.222656 " fill-opacity="1" fill-rule="nonzero"/></svg>