<svg xmlns="http://www.w3.org/2000/svg" xmlns:xlink="http://www.w3.org/1999/xlink" width="1080" zoomAndPan="magnify" viewBox="0 0 810 809.999993" height="1080" preserveAspectRatio="xMidYMid meet" version="1.0"><defs><clipPath id="1984dcbdc1"><path d="M 31.328125 16.910156 L 778.328125 16.910156 L 778.328125 763.910156 L 31.328125 763.910156 Z M 31.328125 16.910156 " clip-rule="nonzero"/></clipPath></defs><path fill="#ffffff" d="M 404.828125 307.625 C 359.230469 307.625 322.042969 344.816406 322.042969 390.410156 C 322.042969 436.007812 359.230469 473.195312 404.828125 473.195312 C 450.421875 473.195312 487.613281 436.007812 487.613281 390.410156 C 487.613281 344.816406 450.421875 307.625 404.828125 307.625 Z M 404.828125 307.625 " fill-opacity="1" fill-rule="nonzero"/><path fill="#ffffff" d="M 516.070312 187.332031 L 293.585938 187.332031 C 243.140625 187.332031 201.746094 228.398438 201.746094 279.167969 L 201.746094 501.652344 C 201.746094 552.097656 242.816406 593.492188 293.585938 593.492188 L 516.070312 593.492188 C 566.515625 593.492188 607.90625 552.421875 607.90625 501.652344 L 607.90625 279.167969 C 607.585938 228.398438 566.515625 187.332031 516.070312 187.332031 Z M 404.828125 514.910156 C 335.949219 514.910156 280.003906 458.96875 280.003906 390.089844 C 280.003906 321.207031 335.949219 265.265625 404.828125 265.265625 C 473.707031 265.265625 529.652344 321.207031 529.652344 390.089844 C 529.328125 458.96875 473.382812 514.910156 404.828125 514.910156 Z M 538.382812 286.285156 C 521.890625 286.285156 508.308594 272.703125 508.308594 256.210938 C 508.308594 239.71875 521.890625 226.136719 538.382812 226.136719 C 554.875 226.136719 568.457031 239.71875 568.457031 256.210938 C 568.457031 273.027344 555.199219 286.285156 538.382812 286.285156 Z M 538.382812 286.285156 " fill-opacity="1" fill-rule="nonzero"/><g clip-path="url(#1984dcbdc1)"><path fill="#ffffff" d="M 404.828125 16.910156 C 198.511719 16.910156 31.328125 184.097656 31.328125 390.410156 C 31.328125 596.726562 198.511719 763.910156 404.828125 763.910156 C 611.140625 763.910156 778.328125 596.726562 778.328125 390.410156 C 778.003906 184.097656 610.816406 16.910156 404.828125 16.910156 Z M 649.625 501.652344 C 649.625 575.382812 589.476562 635.53125 515.746094 635.53125 L 293.585938 635.53125 C 219.855469 635.53125 159.707031 575.382812 159.707031 501.652344 L 159.707031 279.167969 C 159.707031 205.441406 219.855469 145.292969 293.585938 145.292969 L 516.070312 145.292969 C 589.796875 145.292969 649.945312 205.441406 649.945312 279.167969 L 649.945312 501.652344 Z M 649.625 501.652344 " fill-opacity="1" fill-rule="nonzero"/></g></svg>