<svg xmlns="http://www.w3.org/2000/svg" xmlns:xlink="http://www.w3.org/1999/xlink" width="1080" zoomAndPan="magnify" viewBox="0 0 810 809.999993" height="1080" preserveAspectRatio="xMidYMid meet" version="1.0"><defs><clipPath id="67754daf86"><path d="M 25.328125 25.328125 L 784.328125 25.328125 L 784.328125 784.328125 L 25.328125 784.328125 Z M 25.328125 25.328125 " clip-rule="nonzero"/></clipPath></defs><g clip-path="url(#67754daf86)"><path fill="#ffffff" d="M 404.828125 25.328125 C 195.199219 25.328125 25.328125 195.199219 25.328125 404.828125 C 25.328125 614.457031 195.199219 784.328125 404.828125 784.328125 C 614.457031 784.328125 784.328125 614.457031 784.328125 404.828125 C 784 195.199219 614.128906 25.328125 404.828125 25.328125 Z M 293.441406 606.902344 L 204.402344 606.902344 L 204.402344 319.730469 L 293.441406 319.730469 Z M 249.085938 281.613281 C 220.5 281.613281 197.171875 258.285156 197.171875 229.699219 C 197.171875 201.113281 220.5 177.785156 249.085938 177.785156 C 277.671875 177.785156 301 201.113281 301 229.699219 C 301 258.285156 277.671875 281.613281 249.085938 281.613281 Z M 627.929688 606.902344 L 538.886719 606.902344 L 538.886719 463.316406 C 538.886719 442.941406 538.886719 392.34375 493.542969 392.34375 C 441.957031 392.34375 438.671875 444.585938 438.671875 444.585938 L 438.671875 606.902344 L 349.957031 606.902344 L 349.957031 319.730469 L 439 319.730469 L 439 359.15625 C 460.027344 316.441406 503.398438 313.15625 531.65625 313.15625 C 563.859375 313.15625 592.773438 325.644531 609.199219 353.242188 C 623.328125 376.570312 627.929688 410.414062 627.929688 463.316406 Z M 627.929688 606.902344 " fill-opacity="1" fill-rule="nonzero"/></g></svg>