<svg xmlns="http://www.w3.org/2000/svg" xmlns:xlink="http://www.w3.org/1999/xlink" width="1080" zoomAndPan="magnify" viewBox="0 0 810 809.999993" height="1080" preserveAspectRatio="xMidYMid meet" version="1.0"><defs><clipPath id="id1"><path d="M 112 53.386719 L 697.738281 53.386719 L 697.738281 796.636719 L 112 796.636719 Z M 112 53.386719 " clip-rule="nonzero"/></clipPath></defs><g clip-path="url(#id1)"><path fill="#474c51" d="M 404.890625 582.21875 C 274.78125 582.21875 169.324219 476.660156 169.324219 346.449219 C 169.324219 216.242188 274.78125 110.6875 404.890625 110.6875 C 534.984375 110.6875 640.449219 216.242188 640.449219 346.449219 C 640.449219 476.660156 534.984375 582.21875 404.890625 582.21875 Z M 404.890625 53.410156 C 243.179688 53.410156 112.089844 184.609375 112.089844 346.449219 C 112.089844 606.097656 404.882812 796.667969 404.882812 796.667969 C 404.890625 796.664062 697.679688 606.097656 697.679688 346.449219 C 697.679688 184.609375 566.589844 53.410156 404.890625 53.410156 " fill-opacity="1" fill-rule="nonzero"/></g><path fill="#474c51" d="M 531.144531 210.046875 C 529.726562 208.632812 527.570312 208.203125 525.722656 209.027344 L 233.03125 337.289062 C 231.183594 338.074219 230.042969 339.921875 230.121094 341.925781 C 230.164062 343.886719 231.457031 345.65625 233.34375 346.324219 L 352.117188 389.222656 L 394.976562 508.09375 C 395.644531 509.976562 397.410156 511.277344 399.378906 511.316406 C 399.457031 511.316406 399.488281 511.316406 399.570312 511.316406 C 401.496094 511.316406 403.257812 510.175781 404.007812 508.410156 L 532.164062 215.46875 C 532.945312 213.617188 532.550781 211.464844 531.144531 210.046875 " fill-opacity="1" fill-rule="nonzero"/></svg>