<svg xmlns="http://www.w3.org/2000/svg" xmlns:xlink="http://www.w3.org/1999/xlink" width="1080" zoomAndPan="magnify" viewBox="0 0 810 809.999993" height="1080" preserveAspectRatio="xMidYMid meet" version="1.0"><defs><clipPath id="286f1c1a1f"><path d="M 142 14.179688 L 668 14.179688 L 668 795.679688 L 142 795.679688 Z M 142 14.179688 " clip-rule="nonzero"/></clipPath></defs><g clip-path="url(#286f1c1a1f)"><path fill="#ffffff" d="M 407.589844 14.179688 C 401.992188 14.179688 396.398438 14.355469 390.808594 14.710938 C 385.222656 15.066406 379.648438 15.601562 374.097656 16.308594 C 368.542969 17.019531 363.015625 17.902344 357.515625 18.960938 C 352.019531 20.023438 346.558594 21.253906 341.140625 22.660156 C 335.71875 24.066406 330.347656 25.644531 325.027344 27.390625 C 319.707031 29.140625 314.449219 31.054688 309.25 33.132812 C 304.050781 35.214844 298.925781 37.457031 293.867188 39.863281 C 288.8125 42.269531 283.835938 44.835938 278.945312 47.558594 C 274.050781 50.28125 269.246094 53.15625 264.535156 56.179688 C 259.824219 59.207031 255.214844 62.382812 250.707031 65.699219 C 246.195312 69.019531 241.796875 72.480469 237.503906 76.078125 C 233.214844 79.675781 229.042969 83.410156 224.988281 87.273438 C 220.9375 91.136719 217.011719 95.125 213.210938 99.238281 C 209.410156 103.351562 205.742188 107.578125 202.210938 111.925781 C 198.679688 116.269531 195.289062 120.722656 192.039062 125.285156 C 188.789062 129.84375 185.6875 134.503906 182.734375 139.261719 C 179.78125 144.019531 176.980469 148.867188 174.335938 153.800781 C 171.6875 158.734375 169.199219 163.75 166.875 168.84375 C 164.546875 173.9375 162.382812 179.097656 160.378906 184.328125 C 158.378906 189.558594 156.546875 194.847656 154.882812 200.195312 C 153.21875 205.542969 151.722656 210.9375 150.402344 216.378906 C 149.078125 221.820312 147.929688 227.296875 146.957031 232.8125 C 145.980469 238.328125 145.179688 243.867188 144.558594 249.433594 C 143.933594 254.996094 143.488281 260.578125 143.21875 266.171875 C 142.949219 271.765625 142.859375 277.359375 142.945312 282.960938 C 143.03125 288.558594 143.292969 294.152344 143.734375 299.734375 C 144.175781 305.316406 144.792969 310.878906 145.585938 316.421875 C 146.378906 321.964844 147.347656 327.480469 148.492188 332.960938 C 149.632812 338.441406 150.949219 343.882812 152.4375 349.28125 C 153.929688 354.679688 155.585938 360.027344 157.414062 365.320312 C 159.242188 370.613281 161.238281 375.84375 163.394531 381.011719 C 165.554688 386.175781 167.878906 391.269531 170.359375 396.289062 L 353.003906 765.390625 C 354.109375 767.648438 355.371094 769.820312 356.78125 771.902344 C 358.191406 773.984375 359.742188 775.957031 361.429688 777.824219 C 363.113281 779.691406 364.921875 781.433594 366.851562 783.046875 C 368.78125 784.660156 370.8125 786.132812 372.945312 787.464844 C 375.082031 788.796875 377.296875 789.972656 379.597656 790.996094 C 381.894531 792.015625 384.253906 792.875 386.671875 793.566406 C 389.089844 794.261719 391.542969 794.78125 394.035156 795.132812 C 396.527344 795.484375 399.027344 795.660156 401.542969 795.664062 L 401.773438 795.664062 C 404.277344 795.671875 406.773438 795.507812 409.257812 795.167969 C 411.738281 794.828125 414.1875 794.320312 416.601562 793.644531 C 419.011719 792.964844 421.367188 792.121094 423.660156 791.117188 C 425.957031 790.113281 428.171875 788.953125 430.308594 787.636719 C 432.441406 786.324219 434.472656 784.871094 436.40625 783.273438 C 438.339844 781.679688 440.152344 779.957031 441.84375 778.109375 C 443.539062 776.261719 445.09375 774.304688 446.515625 772.238281 C 447.9375 770.175781 449.207031 768.023438 450.332031 765.78125 L 639.507812 391.203125 C 641.996094 386.277344 644.328125 381.277344 646.5 376.199219 C 648.667969 371.125 650.675781 365.984375 652.519531 360.78125 C 654.359375 355.578125 656.035156 350.324219 657.542969 345.011719 C 659.050781 339.703125 660.390625 334.351562 661.554688 328.957031 C 662.722656 323.5625 663.71875 318.132812 664.539062 312.675781 C 665.359375 307.21875 666.003906 301.738281 666.476562 296.238281 C 666.949219 290.738281 667.246094 285.230469 667.367188 279.710938 C 667.488281 274.191406 667.433594 268.675781 667.203125 263.160156 C 666.96875 257.644531 666.5625 252.144531 665.984375 246.65625 C 665.402344 241.164062 664.644531 235.699219 663.714844 230.257812 C 662.785156 224.820312 661.683594 219.414062 660.410156 214.042969 C 659.136719 208.671875 657.691406 203.347656 656.078125 198.066406 C 654.464844 192.789062 652.683594 187.566406 650.738281 182.402344 C 648.792969 177.234375 646.683594 172.136719 644.414062 167.105469 C 642.140625 162.074219 639.710938 157.121094 637.125 152.246094 C 634.539062 147.371094 631.800781 142.582031 628.90625 137.878906 C 626.015625 133.179688 622.976562 128.574219 619.789062 124.066406 C 616.605469 119.558594 613.277344 115.15625 609.8125 110.859375 C 606.347656 106.5625 602.746094 102.382812 599.015625 98.316406 C 595.28125 94.25 591.425781 90.304688 587.441406 86.484375 C 583.457031 82.664062 579.355469 78.972656 575.136719 75.414062 C 570.917969 71.855469 566.589844 68.433594 562.152344 65.152344 C 557.714844 61.867188 553.179688 58.726562 548.542969 55.734375 C 543.90625 52.738281 539.179688 49.894531 534.359375 47.203125 C 529.542969 44.507812 524.640625 41.972656 519.664062 39.59375 C 514.683594 37.210938 509.632812 34.992188 504.511719 32.933594 C 499.390625 30.875 494.207031 28.980469 488.964844 27.25 C 483.722656 25.523438 478.433594 23.960938 473.089844 22.570312 C 467.75 21.179688 462.367188 19.957031 456.949219 18.910156 C 451.53125 17.863281 446.082031 16.988281 440.609375 16.285156 C 435.132812 15.582031 429.640625 15.058594 424.132812 14.707031 C 418.625 14.355469 413.109375 14.179688 407.589844 14.179688 Z M 613.316406 377.980469 L 424.105469 752.5625 C 423.59375 753.597656 423.015625 754.59375 422.363281 755.550781 C 421.714844 756.507812 421 757.414062 420.222656 758.265625 C 419.445312 759.121094 418.609375 759.917969 417.722656 760.65625 C 416.832031 761.394531 415.894531 762.066406 414.910156 762.671875 C 413.925781 763.277344 412.902344 763.8125 411.84375 764.273438 C 410.785156 764.734375 409.695312 765.121094 408.582031 765.429688 C 407.46875 765.738281 406.339844 765.964844 405.191406 766.113281 C 404.046875 766.265625 402.894531 766.332031 401.738281 766.320312 L 401.625 766.320312 C 400.464844 766.328125 399.308594 766.253906 398.160156 766.097656 C 397.007812 765.945312 395.875 765.710938 394.757812 765.394531 C 393.640625 765.078125 392.550781 764.683594 391.488281 764.214844 C 390.425781 763.746094 389.402344 763.203125 388.417969 762.589844 C 387.433594 761.972656 386.496094 761.292969 385.609375 760.546875 C 384.71875 759.800781 383.886719 758.992188 383.113281 758.128906 C 382.339844 757.261719 381.628906 756.347656 380.984375 755.382812 C 380.339844 754.417969 379.765625 753.410156 379.261719 752.367188 L 196.703125 383.28125 C 194.492188 378.816406 192.429688 374.289062 190.507812 369.695312 C 188.589844 365.101562 186.816406 360.453125 185.191406 355.746094 C 183.566406 351.039062 182.089844 346.289062 180.765625 341.488281 C 179.445312 336.6875 178.273438 331.851562 177.257812 326.976562 C 176.238281 322.101562 175.378906 317.203125 174.671875 312.273438 C 173.964844 307.34375 173.417969 302.398438 173.027344 297.433594 C 172.632812 292.472656 172.398438 287.5 172.324219 282.523438 C 172.246094 277.542969 172.328125 272.566406 172.566406 267.59375 C 172.804688 262.621094 173.203125 257.660156 173.753906 252.714844 C 174.308594 247.765625 175.019531 242.839844 175.886719 237.9375 C 176.753906 233.035156 177.773438 228.164062 178.949219 223.324219 C 180.125 218.488281 181.453125 213.691406 182.933594 208.9375 C 184.410156 204.183594 186.039062 199.480469 187.820312 194.832031 C 189.597656 190.179688 191.519531 185.589844 193.589844 181.0625 C 195.660156 176.535156 197.871094 172.074219 200.222656 167.6875 C 202.574219 163.300781 205.0625 158.988281 207.691406 154.761719 C 210.316406 150.53125 213.074219 146.386719 215.960938 142.332031 C 218.847656 138.277344 221.863281 134.316406 225.003906 130.453125 C 228.144531 126.589844 231.402344 122.828125 234.78125 119.171875 C 238.160156 115.515625 241.648438 111.96875 245.253906 108.53125 C 248.855469 105.097656 252.566406 101.78125 256.378906 98.578125 C 260.195312 95.378906 264.105469 92.304688 268.113281 89.351562 C 272.125 86.398438 276.222656 83.578125 280.410156 80.886719 C 284.597656 78.195312 288.867188 75.636719 293.21875 73.21875 C 297.566406 70.796875 301.992188 68.515625 306.484375 66.375 C 310.980469 64.234375 315.539062 62.238281 320.160156 60.390625 C 324.78125 58.539062 329.457031 56.835938 334.1875 55.28125 C 338.917969 53.726562 343.691406 52.324219 348.511719 51.074219 C 353.328125 49.824219 358.183594 48.726562 363.070312 47.78125 C 367.960938 46.839844 372.875 46.050781 377.8125 45.421875 C 382.75 44.789062 387.703125 44.316406 392.671875 44 C 397.640625 43.683594 402.613281 43.523438 407.589844 43.523438 C 412.488281 43.523438 417.378906 43.675781 422.265625 43.988281 C 427.152344 44.300781 432.023438 44.765625 436.878906 45.390625 C 441.738281 46.011719 446.570312 46.789062 451.375 47.71875 C 456.183594 48.648438 460.957031 49.730469 465.695312 50.964844 C 470.433594 52.199219 475.125 53.582031 479.777344 55.113281 C 484.425781 56.648438 489.023438 58.328125 493.566406 60.15625 C 498.109375 61.980469 502.589844 63.949219 507.007812 66.0625 C 511.425781 68.175781 515.769531 70.425781 520.042969 72.8125 C 524.320312 75.203125 528.511719 77.726562 532.625 80.382812 C 536.738281 83.039062 540.765625 85.820312 544.699219 88.734375 C 548.636719 91.648438 552.476562 94.683594 556.21875 97.839844 C 559.960938 100.996094 563.597656 104.269531 567.132812 107.660156 C 570.667969 111.050781 574.089844 114.546875 577.398438 118.15625 C 580.710938 121.761719 583.902344 125.472656 586.976562 129.285156 C 590.050781 133.09375 593.003906 137 595.828125 141 C 598.65625 144.996094 601.351562 149.082031 603.914062 153.253906 C 606.480469 157.425781 608.910156 161.671875 611.207031 166 C 613.5 170.324219 615.65625 174.71875 617.667969 179.179688 C 619.683594 183.644531 621.554688 188.167969 623.28125 192.75 C 625.007812 197.332031 626.585938 201.964844 628.019531 206.648438 C 629.449219 211.332031 630.730469 216.054688 631.859375 220.820312 C 632.992188 225.582031 633.96875 230.378906 634.792969 235.207031 C 635.617188 240.03125 636.289062 244.878906 636.804688 249.75 C 637.320312 254.621094 637.679688 259.5 637.882812 264.394531 C 638.089844 269.285156 638.136719 274.179688 638.03125 279.074219 C 637.921875 283.972656 637.660156 288.859375 637.242188 293.738281 C 636.820312 298.617188 636.25 303.476562 635.519531 308.320312 C 634.792969 313.160156 633.910156 317.976562 632.875 322.761719 C 631.839844 327.546875 630.652344 332.296875 629.316406 337.007812 C 627.976562 341.71875 626.492188 346.378906 624.855469 350.996094 C 623.222656 355.613281 621.441406 360.171875 619.515625 364.671875 C 617.589844 369.175781 615.523438 373.613281 613.316406 377.980469 Z M 613.316406 377.980469 " fill-opacity="1" fill-rule="nonzero"/></g><path fill="#ffffff" d="M 405.164062 121.769531 C 402.910156 121.769531 400.65625 121.824219 398.40625 121.9375 C 396.152344 122.046875 393.90625 122.210938 391.664062 122.433594 C 389.417969 122.652344 387.183594 122.929688 384.953125 123.261719 C 382.722656 123.589844 380.503906 123.976562 378.292969 124.417969 C 376.082031 124.855469 373.882812 125.351562 371.695312 125.898438 C 369.507812 126.445312 367.335938 127.046875 365.179688 127.699219 C 363.023438 128.355469 360.882812 129.0625 358.761719 129.820312 C 356.640625 130.582031 354.535156 131.390625 352.453125 132.253906 C 350.371094 133.117188 348.3125 134.03125 346.273438 134.996094 C 344.234375 135.957031 342.222656 136.972656 340.234375 138.035156 C 338.246094 139.097656 336.285156 140.207031 334.351562 141.367188 C 332.417969 142.527344 330.515625 143.730469 328.640625 144.984375 C 326.765625 146.238281 324.925781 147.535156 323.113281 148.878906 C 321.304688 150.21875 319.527344 151.605469 317.785156 153.039062 C 316.042969 154.46875 314.335938 155.9375 312.664062 157.453125 C 310.996094 158.96875 309.363281 160.519531 307.769531 162.117188 C 306.175781 163.710938 304.621094 165.339844 303.109375 167.011719 C 301.59375 168.683594 300.121094 170.390625 298.691406 172.132812 C 297.261719 173.875 295.875 175.652344 294.53125 177.460938 C 293.191406 179.273438 291.890625 181.113281 290.640625 182.988281 C 289.386719 184.863281 288.183594 186.769531 287.023438 188.703125 C 285.863281 190.636719 284.753906 192.597656 283.691406 194.585938 C 282.628906 196.574219 281.617188 198.585938 280.652344 200.625 C 279.6875 202.660156 278.773438 204.722656 277.910156 206.804688 C 277.050781 208.886719 276.238281 210.988281 275.480469 213.113281 C 274.71875 215.234375 274.011719 217.375 273.359375 219.53125 C 272.703125 221.6875 272.101562 223.863281 271.554688 226.046875 C 271.007812 228.234375 270.515625 230.433594 270.074219 232.644531 C 269.632812 234.855469 269.25 237.078125 268.917969 239.304688 C 268.585938 241.535156 268.3125 243.773438 268.089844 246.015625 C 267.871094 248.261719 267.703125 250.507812 267.59375 252.757812 C 267.484375 255.011719 267.425781 257.265625 267.425781 259.519531 C 267.425781 261.773438 267.484375 264.027344 267.59375 266.277344 C 267.703125 268.527344 267.871094 270.777344 268.089844 273.019531 C 268.3125 275.265625 268.585938 277.5 268.917969 279.730469 C 269.25 281.960938 269.632812 284.179688 270.074219 286.390625 C 270.515625 288.601562 271.007812 290.800781 271.554688 292.988281 C 272.101562 295.175781 272.703125 297.347656 273.359375 299.503906 C 274.011719 301.660156 274.71875 303.800781 275.480469 305.925781 C 276.238281 308.046875 277.050781 310.148438 277.910156 312.234375 C 278.773438 314.316406 279.6875 316.375 280.652344 318.414062 C 281.617188 320.453125 282.628906 322.464844 283.691406 324.453125 C 284.753906 326.441406 285.863281 328.402344 287.023438 330.335938 C 288.183594 332.269531 289.386719 334.171875 290.640625 336.046875 C 291.890625 337.921875 293.191406 339.765625 294.53125 341.574219 C 295.875 343.386719 297.261719 345.164062 298.691406 346.90625 C 300.121094 348.648438 301.59375 350.355469 303.109375 352.023438 C 304.621094 353.695312 306.175781 355.328125 307.769531 356.921875 C 309.363281 358.515625 310.996094 360.070312 312.664062 361.582031 C 314.335938 363.097656 316.042969 364.570312 317.785156 366 C 319.527344 367.429688 321.304688 368.816406 323.113281 370.160156 C 324.925781 371.503906 326.765625 372.800781 328.640625 374.050781 C 330.515625 375.304688 332.417969 376.511719 334.351562 377.667969 C 336.285156 378.828125 338.246094 379.9375 340.234375 381 C 342.222656 382.066406 344.234375 383.078125 346.273438 384.042969 C 348.3125 385.003906 350.371094 385.917969 352.453125 386.78125 C 354.535156 387.644531 356.640625 388.457031 358.761719 389.214844 C 360.882812 389.972656 363.023438 390.679688 365.179688 391.335938 C 367.335938 391.988281 369.507812 392.589844 371.695312 393.140625 C 373.882812 393.6875 376.082031 394.179688 378.292969 394.621094 C 380.503906 395.058594 382.722656 395.445312 384.953125 395.777344 C 387.183594 396.105469 389.417969 396.382812 391.664062 396.605469 C 393.90625 396.824219 396.152344 396.992188 398.40625 397.101562 C 400.65625 397.210938 402.910156 397.265625 405.164062 397.265625 C 407.417969 397.265625 409.667969 397.210938 411.921875 397.101562 C 414.171875 396.992188 416.421875 396.824219 418.664062 396.605469 C 420.90625 396.382812 423.144531 396.105469 425.371094 395.777344 C 427.601562 395.445312 429.824219 395.058594 432.035156 394.621094 C 434.246094 394.179688 436.441406 393.6875 438.628906 393.140625 C 440.816406 392.589844 442.988281 391.988281 445.144531 391.335938 C 447.300781 390.679688 449.441406 389.972656 451.566406 389.214844 C 453.6875 388.457031 455.789062 387.644531 457.871094 386.78125 C 459.953125 385.917969 462.015625 385.003906 464.050781 384.042969 C 466.089844 383.078125 468.101562 382.066406 470.089844 381 C 472.078125 379.9375 474.039062 378.828125 475.972656 377.667969 C 477.90625 376.511719 479.808594 375.304688 481.683594 374.050781 C 483.558594 372.800781 485.402344 371.503906 487.210938 370.160156 C 489.023438 368.816406 490.800781 367.429688 492.542969 366 C 494.285156 364.570312 495.988281 363.097656 497.660156 361.582031 C 499.332031 360.070312 500.960938 358.515625 502.554688 356.921875 C 504.152344 355.328125 505.703125 353.695312 507.21875 352.023438 C 508.730469 350.355469 510.203125 348.648438 511.632812 346.90625 C 513.0625 345.164062 514.449219 343.386719 515.792969 341.574219 C 517.136719 339.765625 518.433594 337.921875 519.6875 336.046875 C 520.9375 334.171875 522.144531 332.269531 523.300781 330.335938 C 524.460938 328.402344 525.570312 326.441406 526.632812 324.453125 C 527.699219 322.464844 528.710938 320.453125 529.675781 318.414062 C 530.636719 316.375 531.550781 314.316406 532.414062 312.234375 C 533.277344 310.148438 534.085938 308.046875 534.847656 305.925781 C 535.605469 303.800781 536.3125 301.660156 536.96875 299.503906 C 537.621094 297.347656 538.222656 295.175781 538.769531 292.988281 C 539.316406 290.800781 539.8125 288.601562 540.25 286.390625 C 540.691406 284.179688 541.078125 281.960938 541.40625 279.730469 C 541.738281 277.5 542.015625 275.265625 542.234375 273.019531 C 542.457031 270.777344 542.621094 268.527344 542.734375 266.277344 C 542.84375 264.027344 542.898438 261.773438 542.898438 259.519531 C 542.894531 257.265625 542.835938 255.011719 542.726562 252.761719 C 542.613281 250.511719 542.445312 248.265625 542.21875 246.023438 C 541.996094 243.777344 541.71875 241.542969 541.386719 239.316406 C 541.054688 237.085938 540.667969 234.867188 540.226562 232.65625 C 539.785156 230.445312 539.289062 228.25 538.738281 226.0625 C 538.1875 223.878906 537.585938 221.707031 536.929688 219.550781 C 536.273438 217.394531 535.566406 215.253906 534.804688 213.132812 C 534.046875 211.011719 533.234375 208.910156 532.371094 206.828125 C 531.507812 204.746094 530.59375 202.6875 529.628906 200.652344 C 528.664062 198.617188 527.648438 196.601562 526.585938 194.617188 C 525.523438 192.628906 524.414062 190.667969 523.253906 188.738281 C 522.09375 186.804688 520.886719 184.902344 519.636719 183.027344 C 518.382812 181.15625 517.085938 179.3125 515.742188 177.503906 C 514.398438 175.691406 513.015625 173.917969 511.585938 172.175781 C 510.15625 170.433594 508.683594 168.726562 507.167969 167.058594 C 505.65625 165.386719 504.101562 163.757812 502.507812 162.164062 C 500.914062 160.570312 499.285156 159.015625 497.613281 157.503906 C 495.945312 155.988281 494.238281 154.515625 492.496094 153.085938 C 490.757812 151.65625 488.980469 150.269531 487.171875 148.929688 C 485.359375 147.585938 483.519531 146.289062 481.644531 145.035156 C 479.773438 143.78125 477.871094 142.574219 475.9375 141.417969 C 474.003906 140.257812 472.046875 139.144531 470.058594 138.082031 C 468.070312 137.019531 466.058594 136.003906 464.023438 135.042969 C 461.988281 134.078125 459.929688 133.164062 457.847656 132.296875 C 455.765625 131.433594 453.664062 130.621094 451.542969 129.863281 C 449.421875 129.101562 447.28125 128.394531 445.128906 127.738281 C 442.972656 127.082031 440.800781 126.480469 438.617188 125.929688 C 436.429688 125.378906 434.230469 124.886719 432.023438 124.445312 C 429.8125 124 427.59375 123.613281 425.363281 123.28125 C 423.136719 122.949219 420.902344 122.671875 418.660156 122.449219 C 416.414062 122.222656 414.167969 122.054688 411.917969 121.941406 C 409.667969 121.832031 407.417969 121.773438 405.164062 121.769531 Z M 405.164062 380.964844 C 403.175781 380.964844 401.1875 380.917969 399.203125 380.820312 C 397.21875 380.722656 395.238281 380.574219 393.261719 380.378906 C 391.28125 380.1875 389.3125 379.941406 387.34375 379.652344 C 385.378906 379.359375 383.421875 379.019531 381.472656 378.632812 C 379.523438 378.246094 377.585938 377.808594 375.65625 377.324219 C 373.730469 376.84375 371.8125 376.3125 369.910156 375.734375 C 368.011719 375.160156 366.125 374.535156 364.253906 373.867188 C 362.382812 373.195312 360.527344 372.480469 358.691406 371.722656 C 356.855469 370.960938 355.039062 370.15625 353.242188 369.304688 C 351.445312 368.457031 349.671875 367.5625 347.917969 366.625 C 346.164062 365.6875 344.4375 364.707031 342.734375 363.6875 C 341.027344 362.664062 339.347656 361.601562 337.695312 360.496094 C 336.042969 359.394531 334.421875 358.25 332.824219 357.066406 C 331.226562 355.882812 329.660156 354.660156 328.125 353.398438 C 326.589844 352.136719 325.085938 350.839844 323.613281 349.503906 C 322.140625 348.171875 320.699219 346.800781 319.296875 345.394531 C 317.890625 343.988281 316.519531 342.550781 315.183594 341.078125 C 313.851562 339.605469 312.554688 338.101562 311.292969 336.5625 C 310.03125 335.027344 308.808594 333.460938 307.625 331.863281 C 306.441406 330.269531 305.296875 328.644531 304.191406 326.992188 C 303.089844 325.339844 302.027344 323.660156 301.003906 321.953125 C 299.984375 320.25 299.003906 318.519531 298.066406 316.769531 C 297.128906 315.015625 296.238281 313.242188 295.386719 311.445312 C 294.535156 309.648438 293.730469 307.832031 292.972656 305.996094 C 292.210938 304.15625 291.496094 302.304688 290.824219 300.433594 C 290.15625 298.5625 289.535156 296.675781 288.957031 294.773438 C 288.378906 292.871094 287.851562 290.957031 287.367188 289.027344 C 286.882812 287.101562 286.449219 285.160156 286.0625 283.210938 C 285.671875 281.261719 285.332031 279.304688 285.042969 277.339844 C 284.75 275.371094 284.507812 273.398438 284.3125 271.421875 C 284.117188 269.445312 283.972656 267.460938 283.875 265.476562 C 283.777344 263.492188 283.726562 261.507812 283.726562 259.519531 C 283.726562 257.53125 283.777344 255.542969 283.875 253.558594 C 283.972656 251.574219 284.117188 249.59375 284.3125 247.613281 C 284.507812 245.636719 284.75 243.664062 285.042969 241.699219 C 285.332031 239.730469 285.671875 237.773438 286.0625 235.824219 C 286.449219 233.875 286.882812 231.9375 287.367188 230.007812 C 287.851562 228.082031 288.378906 226.167969 288.957031 224.265625 C 289.535156 222.363281 290.15625 220.476562 290.824219 218.605469 C 291.496094 216.734375 292.210938 214.878906 292.972656 213.042969 C 293.730469 211.207031 294.535156 209.390625 295.386719 207.59375 C 296.238281 205.796875 297.128906 204.023438 298.066406 202.269531 C 299.003906 200.515625 299.984375 198.785156 301.003906 197.082031 C 302.027344 195.378906 303.089844 193.699219 304.191406 192.046875 C 305.296875 190.394531 306.441406 188.769531 307.625 187.171875 C 308.808594 185.574219 310.03125 184.007812 311.292969 182.472656 C 312.554688 180.9375 313.851562 179.433594 315.183594 177.960938 C 316.519531 176.488281 317.890625 175.046875 319.296875 173.640625 C 320.699219 172.238281 322.140625 170.867188 323.613281 169.53125 C 325.085938 168.195312 326.589844 166.898438 328.125 165.636719 C 329.660156 164.378906 331.226562 163.15625 332.824219 161.972656 C 334.421875 160.789062 336.042969 159.644531 337.695312 158.539062 C 339.347656 157.433594 341.027344 156.371094 342.734375 155.351562 C 344.4375 154.328125 346.164062 153.347656 347.917969 152.410156 C 349.671875 151.476562 351.445312 150.582031 353.242188 149.730469 C 355.039062 148.882812 356.855469 148.078125 358.691406 147.316406 C 360.527344 146.554688 362.382812 145.839844 364.253906 145.171875 C 366.125 144.5 368.011719 143.878906 369.914062 143.300781 C 371.8125 142.722656 373.730469 142.195312 375.65625 141.710938 C 377.585938 141.226562 379.523438 140.792969 381.472656 140.40625 C 383.421875 140.015625 385.378906 139.675781 387.34375 139.386719 C 389.308594 139.09375 391.28125 138.851562 393.261719 138.65625 C 395.238281 138.460938 397.21875 138.316406 399.203125 138.21875 C 401.1875 138.121094 403.175781 138.070312 405.164062 138.070312 C 407.148438 138.070312 409.136719 138.121094 411.121094 138.21875 C 413.105469 138.316406 415.089844 138.460938 417.066406 138.65625 C 419.042969 138.851562 421.015625 139.09375 422.980469 139.386719 C 424.945312 139.675781 426.90625 140.015625 428.855469 140.40625 C 430.804688 140.792969 432.742188 141.226562 434.667969 141.710938 C 436.597656 142.195312 438.511719 142.722656 440.414062 143.300781 C 442.316406 143.878906 444.203125 144.5 446.074219 145.171875 C 447.945312 145.839844 449.796875 146.554688 451.632812 147.316406 C 453.46875 148.078125 455.285156 148.882812 457.082031 149.730469 C 458.878906 150.582031 460.65625 151.476562 462.40625 152.410156 C 464.160156 153.347656 465.886719 154.328125 467.59375 155.351562 C 469.296875 156.371094 470.976562 157.433594 472.628906 158.539062 C 474.28125 159.644531 475.90625 160.789062 477.503906 161.972656 C 479.097656 163.15625 480.664062 164.378906 482.199219 165.636719 C 483.738281 166.898438 485.242188 168.195312 486.714844 169.53125 C 488.1875 170.867188 489.625 172.238281 491.03125 173.640625 C 492.4375 175.046875 493.804688 176.488281 495.140625 177.960938 C 496.476562 179.433594 497.773438 180.9375 499.035156 182.472656 C 500.292969 184.007812 501.515625 185.574219 502.699219 187.171875 C 503.882812 188.769531 505.027344 190.394531 506.132812 192.046875 C 507.238281 193.699219 508.300781 195.378906 509.320312 197.082031 C 510.34375 198.785156 511.324219 200.515625 512.257812 202.269531 C 513.195312 204.023438 514.089844 205.796875 514.9375 207.59375 C 515.789062 209.390625 516.59375 211.207031 517.355469 213.042969 C 518.113281 214.878906 518.832031 216.734375 519.5 218.605469 C 520.167969 220.476562 520.792969 222.363281 521.371094 224.265625 C 521.945312 226.167969 522.476562 228.082031 522.960938 230.007812 C 523.441406 231.9375 523.878906 233.875 524.265625 235.824219 C 524.652344 237.773438 524.992188 239.730469 525.285156 241.699219 C 525.574219 243.664062 525.820312 245.636719 526.011719 247.613281 C 526.207031 249.59375 526.355469 251.574219 526.453125 253.558594 C 526.550781 255.542969 526.597656 257.53125 526.597656 259.519531 C 526.597656 261.503906 526.546875 263.492188 526.445312 265.476562 C 526.347656 267.460938 526.199219 269.441406 526 271.417969 C 525.804688 273.394531 525.558594 275.367188 525.265625 277.332031 C 524.972656 279.296875 524.632812 281.253906 524.242188 283.203125 C 523.855469 285.152344 523.417969 287.089844 522.933594 289.015625 C 522.449219 290.941406 521.917969 292.855469 521.339844 294.757812 C 520.761719 296.660156 520.136719 298.546875 519.46875 300.414062 C 518.796875 302.285156 518.082031 304.140625 517.320312 305.972656 C 516.558594 307.808594 515.753906 309.625 514.902344 311.421875 C 514.050781 313.214844 513.160156 314.992188 512.222656 316.742188 C 511.285156 318.496094 510.304688 320.222656 509.28125 321.925781 C 508.261719 323.628906 507.195312 325.308594 506.09375 326.960938 C 504.988281 328.613281 503.84375 330.234375 502.660156 331.832031 C 501.476562 333.425781 500.253906 334.992188 498.992188 336.527344 C 497.734375 338.066406 496.4375 339.570312 495.101562 341.039062 C 493.765625 342.511719 492.398438 343.953125 490.992188 345.355469 C 489.585938 346.761719 488.148438 348.132812 486.675781 349.464844 C 485.207031 350.800781 483.703125 352.097656 482.164062 353.359375 C 480.628906 354.621094 479.066406 355.839844 477.46875 357.027344 C 475.875 358.210938 474.25 359.355469 472.597656 360.457031 C 470.945312 361.5625 469.269531 362.625 467.566406 363.648438 C 465.859375 364.667969 464.132812 365.648438 462.382812 366.585938 C 460.628906 367.523438 458.855469 368.417969 457.058594 369.269531 C 455.265625 370.117188 453.449219 370.925781 451.613281 371.6875 C 449.777344 372.449219 447.925781 373.164062 446.054688 373.835938 C 444.1875 374.503906 442.300781 375.128906 440.398438 375.707031 C 438.5 376.285156 436.585938 376.816406 434.65625 377.300781 C 432.730469 377.785156 430.792969 378.222656 428.84375 378.609375 C 426.898438 379 424.941406 379.339844 422.976562 379.632812 C 421.007812 379.925781 419.039062 380.171875 417.0625 380.367188 C 415.085938 380.566406 413.105469 380.714844 411.121094 380.8125 C 409.136719 380.914062 407.148438 380.964844 405.164062 380.964844 Z M 405.164062 380.964844 " fill-opacity="1" fill-rule="nonzero"/></svg>