<svg xmlns="http://www.w3.org/2000/svg" xmlns:xlink="http://www.w3.org/1999/xlink" viewBox="0 0 1894.19 1572"><defs><style>.cls-1{isolation:isolate;}.cls-2{fill:#4e5859;}.cls-3{fill:url(#linear-gradient);}.cls-4{fill:url(#linear-gradient-2);}.cls-5{fill:url(#linear-gradient-3);}.cls-6{opacity:0.48;}.cls-11,.cls-23,.cls-6{mix-blend-mode:multiply;}.cls-7{fill:url(#linear-gradient-4);}.cls-8{fill:url(#linear-gradient-5);}.cls-9{fill:url(#linear-gradient-6);}.cls-10{fill:#fff;}.cls-11{opacity:0.3;}.cls-12,.cls-23{fill:#283a70;}.cls-13{fill:#6d361f;}.cls-14{fill:#914f2a;}.cls-15{fill:url(#Orange_Yellow);}.cls-16{fill:url(#Orange_Yellow-2);}.cls-17{fill:url(#Orange_Yellow-3);}.cls-18{fill:url(#Orange_Yellow-4);}.cls-19{fill:url(#Orange_Yellow-5);}.cls-20{fill:url(#Orange_Yellow-6);}.cls-21{fill:#262e2d;}.cls-22{fill:#c5cad1;}.cls-23{opacity:0.56;}.cls-24,.cls-26{fill:#f4efd2;}.cls-24,.cls-25{opacity:0.54;mix-blend-mode:lighten;}.cls-27{fill:url(#linear-gradient-7);}.cls-28{fill:url(#radial-gradient);}.cls-29{fill:#2b1715;}.cls-30{fill:url(#linear-gradient-8);}.cls-31{fill:url(#radial-gradient-2);}.cls-32{fill:url(#linear-gradient-9);}.cls-33{fill:url(#radial-gradient-3);}.cls-34{fill:url(#linear-gradient-10);}.cls-35{fill:url(#radial-gradient-4);}.cls-36{fill:url(#linear-gradient-11);}.cls-37{fill:url(#radial-gradient-5);}.cls-38{fill:url(#linear-gradient-12);}.cls-39{fill:url(#radial-gradient-6);}.cls-40{fill:url(#linear-gradient-13);}.cls-41{fill:url(#radial-gradient-7);}.cls-42{fill:url(#linear-gradient-14);}.cls-43{fill:url(#radial-gradient-8);}</style><linearGradient id="linear-gradient" x1="151.88" y1="-361.14" x2="425.12" y2="112.12" gradientUnits="userSpaceOnUse"><stop offset="0.04" stop-color="#437f9b"/><stop offset="0.07" stop-color="#4e88a2"/><stop offset="0.21" stop-color="#86b2c5"/><stop offset="0.34" stop-color="#afd1df"/><stop offset="0.43" stop-color="#c8e4ee"/><stop offset="0.49" stop-color="#d1ebf4"/><stop offset="0.55" stop-color="#c5e0e9"/><stop offset="0.65" stop-color="#a5c2cc"/><stop offset="0.78" stop-color="#70929d"/><stop offset="0.95" stop-color="#29505d"/><stop offset="1" stop-color="#0f3846"/></linearGradient><linearGradient id="linear-gradient-2" x1="-1.06" y1="23.04" x2="578.06" y2="1026.11" xlink:href="#linear-gradient"/><linearGradient id="linear-gradient-3" x1="238.92" y1="-330.66" x2="351.07" y2="-136.4" xlink:href="#linear-gradient"/><linearGradient id="linear-gradient-4" x1="151.88" y1="-361.14" x2="425.12" y2="112.12" gradientUnits="userSpaceOnUse"><stop offset="0" stop-color="#2484c6"/><stop offset="0.14" stop-color="#2484c6" stop-opacity="0.89"/><stop offset="0.43" stop-color="#2484c6" stop-opacity="0.62"/><stop offset="0.83" stop-color="#2484c6" stop-opacity="0.19"/><stop offset="1" stop-color="#2484c6" stop-opacity="0"/></linearGradient><linearGradient id="linear-gradient-5" x1="-1.06" y1="23.04" x2="578.06" y2="1026.11" xlink:href="#linear-gradient-4"/><linearGradient id="linear-gradient-6" x1="238.92" y1="-330.66" x2="351.07" y2="-136.4" xlink:href="#linear-gradient-4"/><linearGradient id="Orange_Yellow" x1="-529.18" y1="290.56" x2="-529.18" y2="664.49" gradientUnits="userSpaceOnUse"><stop offset="0" stop-color="#fff33b"/><stop offset="0.04" stop-color="#fee72e"/><stop offset="0.12" stop-color="#fed51b"/><stop offset="0.2" stop-color="#fdca10"/><stop offset="0.28" stop-color="#fdc70c"/><stop offset="0.67" stop-color="#f3903f"/><stop offset="0.89" stop-color="#ed683c"/><stop offset="1" stop-color="#e93e3a"/></linearGradient><linearGradient id="Orange_Yellow-2" x1="-207.88" y1="290.56" x2="-207.88" y2="664.49" xlink:href="#Orange_Yellow"/><linearGradient id="Orange_Yellow-3" x1="125.04" y1="290.56" x2="125.04" y2="664.49" xlink:href="#Orange_Yellow"/><linearGradient id="Orange_Yellow-4" x1="465.23" y1="290.56" x2="465.23" y2="664.49" xlink:href="#Orange_Yellow"/><linearGradient id="Orange_Yellow-5" x1="780.13" y1="290.56" x2="780.13" y2="664.49" xlink:href="#Orange_Yellow"/><linearGradient id="Orange_Yellow-6" x1="1081.16" y1="290.56" x2="1081.16" y2="664.49" xlink:href="#Orange_Yellow"/><linearGradient id="linear-gradient-7" x1="-623.7" y1="361.93" x2="-605.35" y2="393.71" xlink:href="#linear-gradient"/><radialGradient id="radial-gradient" cx="-614.66" cy="376.46" r="12.09" gradientUnits="userSpaceOnUse"><stop offset="0.03" stop-color="#437f9b"/><stop offset="0.07" stop-color="#4e88a2"/><stop offset="0.26" stop-color="#86b2c5"/><stop offset="0.42" stop-color="#afd1df"/><stop offset="0.55" stop-color="#c8e4ee"/><stop offset="0.63" stop-color="#d1ebf4"/><stop offset="0.67" stop-color="#c5e0e9"/><stop offset="0.75" stop-color="#a5c2cc"/><stop offset="0.84" stop-color="#70929d"/><stop offset="0.96" stop-color="#29505d"/><stop offset="1" stop-color="#0f3846"/></radialGradient><linearGradient id="linear-gradient-8" x1="52.65" y1="344.79" x2="71" y2="376.57" xlink:href="#linear-gradient"/><radialGradient id="radial-gradient-2" cx="61.69" cy="359.32" r="12.09" xlink:href="#radial-gradient"/><linearGradient id="linear-gradient-9" x1="776.5" y1="465.95" x2="794.86" y2="497.73" xlink:href="#linear-gradient"/><radialGradient id="radial-gradient-3" cx="785.55" cy="480.48" r="12.09" xlink:href="#radial-gradient"/><linearGradient id="linear-gradient-10" x1="-121.42" y1="504.53" x2="-103.6" y2="535.41" xlink:href="#linear-gradient"/><radialGradient id="radial-gradient-4" cx="-112.99" cy="518.5" r="12.38" xlink:href="#radial-gradient"/><linearGradient id="linear-gradient-11" x1="717.1" y1="315.7" x2="734.92" y2="346.58" xlink:href="#linear-gradient"/><radialGradient id="radial-gradient-5" cx="725.53" cy="329.67" r="12.38" xlink:href="#radial-gradient"/><linearGradient id="linear-gradient-12" x1="552.3" y1="552.07" x2="570.13" y2="582.94" xlink:href="#linear-gradient"/><radialGradient id="radial-gradient-6" cx="560.72" cy="566.43" r="12.2" xlink:href="#radial-gradient"/><linearGradient id="linear-gradient-13" x1="22.56" y1="400.58" x2="40.02" y2="430.82" xlink:href="#linear-gradient"/><radialGradient id="radial-gradient-7" cx="30.75" cy="415.92" r="12.2" xlink:href="#radial-gradient"/><linearGradient id="linear-gradient-14" x1="1158.28" y1="382.1" x2="1176.11" y2="412.98" xlink:href="#linear-gradient"/><radialGradient id="radial-gradient-8" cx="1166.71" cy="396.07" r="12.38" xlink:href="#radial-gradient"/></defs><g class="cls-1"><g id="Layer_1" data-name="Layer 1"><path class="cls-2" d="M288.5,200.7A23.11,23.11,0,0,1,277,197.62L-85.64-11.73a23.14,23.14,0,0,1-11.54-20V-217.31a23.14,23.14,0,0,1,11.54-20,23.18,23.18,0,0,1,11.55-3.09,23.23,23.23,0,0,1,11.53,3.08L288.5-34.62l351-202.68a23.14,23.14,0,0,1,11.54-3.09,23.11,23.11,0,0,1,11.53,3.09,23.13,23.13,0,0,1,11.55,20V-31.72a23.14,23.14,0,0,1-11.54,20L300,197.61A23.07,23.07,0,0,1,288.5,200.7Z" transform="translate(669.61 369)"/><path class="cls-2" d="M288.49,1203a23.14,23.14,0,0,1-11.54-3.09L-85.64,990.56a23.14,23.14,0,0,1-11.54-20v-892a23.14,23.14,0,0,1,11.54-20,23.09,23.09,0,0,1,11.55-3.1,23.11,23.11,0,0,1,11.53,3.09L288.5,261.26l351-202.67a23.08,23.08,0,0,1,34.62,20v892a23.14,23.14,0,0,1-11.54,20L300,1199.91A23.18,23.18,0,0,1,288.49,1203Z" transform="translate(669.61 369)"/><path class="cls-2" d="M352-127.26a23.09,23.09,0,0,1-10.74-2.65l-52.8-27.76-52.81,27.76A23.09,23.09,0,0,1,225-127.26a22.93,22.93,0,0,1-13.56-4.4,22.93,22.93,0,0,1-9.19-22.58L212.28-213l-42.72-41.64a23,23,0,0,1-5.2-25.39,23,23,0,0,1,21.31-14.23l55.8.85,25.74-61.39A23,23,0,0,1,288.5-369a23,23,0,0,1,21.29,14.16l25.73,61.39,55.8-.85a23,23,0,0,1,21.31,14.22,23,23,0,0,1-5.2,25.4L364.71-213l10.08,58.8a22.94,22.94,0,0,1-9.18,22.58A23,23,0,0,1,352-127.26Z" transform="translate(669.61 369)"/><path class="cls-3" d="M656.88-227.34a11.61,11.61,0,0,0-5.79-1.55,11.61,11.61,0,0,0-5.79,1.55l-356.8,206-356.8-206a11.61,11.61,0,0,0-5.79-1.55,11.61,11.61,0,0,0-5.79,1.55,11.58,11.58,0,0,0-5.79,10V-31.72a11.57,11.57,0,0,0,5.79,10L282.71,187.65a11.59,11.59,0,0,0,11.58,0L656.88-21.69a11.59,11.59,0,0,0,5.79-10V-217.31A11.6,11.6,0,0,0,656.88-227.34Z" transform="translate(669.61 369)"/><path class="cls-4" d="M656.88,68.55a11.59,11.59,0,0,0-11.58,0l-356.8,206-356.8-206A11.51,11.51,0,0,0-74.09,67a11.51,11.51,0,0,0-5.79,1.55,11.57,11.57,0,0,0-5.79,10v892a11.57,11.57,0,0,0,5.79,10L282.71,1190a11.56,11.56,0,0,0,11.58,0L656.88,980.6a11.59,11.59,0,0,0,5.79-10v-892A11.59,11.59,0,0,0,656.88,68.55Z" transform="translate(669.61 369)"/><path class="cls-5" d="M224.64-217.06l-11.1,64.76a11.58,11.58,0,0,0,4.6,11.33,11.56,11.56,0,0,0,6.81,2.21,11.61,11.61,0,0,0,5.39-1.33l58.16-30.57,58.15,30.57a11.61,11.61,0,0,0,5.39,1.33,11.56,11.56,0,0,0,6.81-2.21,11.59,11.59,0,0,0,4.61-11.33l-11.11-64.76,47-45.86A11.58,11.58,0,0,0,402-275.66a11.58,11.58,0,0,0-10.69-7.13l-63.4,1-28.74-68.57a11.59,11.59,0,0,0-10.68-7.11,11.57,11.57,0,0,0-10.68,7.11l-28.75,68.57-63.4-1A11.58,11.58,0,0,0,175-275.66a11.58,11.58,0,0,0,2.61,12.74Z" transform="translate(669.61 369)"/><g class="cls-6"><path class="cls-7" d="M656.88-227.34a11.61,11.61,0,0,0-5.79-1.55,11.61,11.61,0,0,0-5.79,1.55l-356.8,206-356.8-206a11.61,11.61,0,0,0-5.79-1.55,11.61,11.61,0,0,0-5.79,1.55,11.58,11.58,0,0,0-5.79,10V-31.72a11.57,11.57,0,0,0,5.79,10L282.71,187.65a11.59,11.59,0,0,0,11.58,0L656.88-21.69a11.59,11.59,0,0,0,5.79-10V-217.31A11.6,11.6,0,0,0,656.88-227.34Z" transform="translate(669.61 369)"/><path class="cls-8" d="M656.88,68.55a11.59,11.59,0,0,0-11.58,0l-356.8,206-356.8-206A11.51,11.51,0,0,0-74.09,67a11.51,11.51,0,0,0-5.79,1.55,11.57,11.57,0,0,0-5.79,10v892a11.57,11.57,0,0,0,5.79,10L282.71,1190a11.56,11.56,0,0,0,11.58,0L656.88,980.6a11.59,11.59,0,0,0,5.79-10v-892A11.59,11.59,0,0,0,656.88,68.55Z" transform="translate(669.61 369)"/><path class="cls-9" d="M224.64-217.06l-11.1,64.76a11.58,11.58,0,0,0,4.6,11.33,11.56,11.56,0,0,0,6.81,2.21,11.61,11.61,0,0,0,5.39-1.33l58.16-30.57,58.15,30.57a11.61,11.61,0,0,0,5.39,1.33,11.56,11.56,0,0,0,6.81-2.21,11.59,11.59,0,0,0,4.61-11.33l-11.11-64.76,47-45.86A11.58,11.58,0,0,0,402-275.66a11.58,11.58,0,0,0-10.69-7.13l-63.4,1-28.74-68.57a11.59,11.59,0,0,0-10.68-7.11,11.57,11.57,0,0,0-10.68,7.11l-28.75,68.57-63.4-1A11.58,11.58,0,0,0,175-275.66a11.58,11.58,0,0,0,2.61,12.74Z" transform="translate(669.61 369)"/></g><path class="cls-10" d="M-81.62-23.61V-209.19a11.59,11.59,0,0,1,5.79-10A11.64,11.64,0,0,1-70-220.77a11.67,11.67,0,0,1,5.8,1.55l356.79,206,356.8-206a11.67,11.67,0,0,1,5.8-1.55,11.64,11.64,0,0,1,5.79,1.55,11.32,11.32,0,0,1,1.64,1.26,11.54,11.54,0,0,0-5.7-9.38,11.61,11.61,0,0,0-5.79-1.55,11.61,11.61,0,0,0-5.79,1.55l-356.8,206-356.8-206a11.61,11.61,0,0,0-5.79-1.55,11.61,11.61,0,0,0-5.79,1.55,11.58,11.58,0,0,0-5.79,10V-31.72A11.5,11.5,0,0,0-81.53-23C-81.54-23.18-81.62-23.38-81.62-23.61Z" transform="translate(669.61 369)"/><path class="cls-10" d="M-81.62,978.69v-892a11.6,11.6,0,0,1,5.79-10A11.64,11.64,0,0,1-70,75.11a11.67,11.67,0,0,1,5.8,1.55l356.79,206,356.8-206a11.61,11.61,0,0,1,11.59,0,10.71,10.71,0,0,1,1.64,1.27,11.52,11.52,0,0,0-17.28-9.38l-356.8,206-356.8-206A11.51,11.51,0,0,0-74.09,67a11.51,11.51,0,0,0-5.79,1.55,11.57,11.57,0,0,0-5.79,10v892a11.52,11.52,0,0,0,4.14,8.77C-81.54,979.12-81.62,978.91-81.62,978.69Z" transform="translate(669.61 369)"/><path class="cls-10" d="M217.59-144.18l11.11-64.76L224-213.49l-10.5,61.19a11.59,11.59,0,0,0,3.94,10.77A11.8,11.8,0,0,1,217.59-144.18Z" transform="translate(669.61 369)"/><path class="cls-10" d="M332-273.71l63.4-1a11.58,11.58,0,0,1,7.48,2.77,11.53,11.53,0,0,0-.85-3.75,11.58,11.58,0,0,0-10.69-7.13l-62.75,1Z" transform="translate(669.61 369)"/><path class="cls-10" d="M179-267.54a11.58,11.58,0,0,1,10.69-7.14l63.4,1,28.74-68.57a11.59,11.59,0,0,1,10.68-7.1,11.56,11.56,0,0,1,8.72,4l-2.09-5a11.59,11.59,0,0,0-10.68-7.11,11.57,11.57,0,0,0-10.68,7.11l-28.75,68.57-63.4-1A11.58,11.58,0,0,0,175-275.66a11.58,11.58,0,0,0,2.61,12.74l.59.58A11.6,11.6,0,0,1,179-267.54Z" transform="translate(669.61 369)"/><g class="cls-11"><path class="cls-12" d="M-92.74,281.24h-4.44V731.7a104.06,104.06,0,0,0,9.73-8.35c21.87-21.37,33-51.07,33-88.29V318.33C-54.48,296.49-70.22,281.24-92.74,281.24Z" transform="translate(669.61 369)"/><path class="cls-12" d="M245.13,281.24H196.86c-22.18,0-37.67,15.49-37.67,37.67V437.72L87.61,303.42c-3.35-6.67-13.84-22.18-39-22.18H5c-22.18,0-37.67,15.49-37.67,37.67V717.64c0,22.18,15.49,37.67,37.67,37.67H53.22c22.18,0,37.68-15.49,37.68-37.67v-119l70.39,130.91c8.15,16.35,23.24,25.73,41.39,25.73h42.45c22.18,0,37.67-15.49,37.67-37.67V318.91C282.8,296.73,267.31,281.24,245.13,281.24Z" transform="translate(669.61 369)"/><path class="cls-12" d="M585.32,281.24H537.05c-22.17,0-37.67,15.49-37.67,37.67V437.72L427.81,303.43c-3.35-6.67-13.85-22.19-39.05-22.19H345.15c-22.18,0-37.67,15.49-37.67,37.67V717.64c0,22.18,15.49,37.67,37.67,37.67h48.27c22.18,0,37.67-15.49,37.67-37.67v-119l70.39,130.92c8.16,16.34,23.24,25.72,41.38,25.72h42.46c22.18,0,37.67-15.49,37.67-37.67V318.91C623,296.73,607.5,281.24,585.32,281.24Z" transform="translate(669.61 369)"/><path class="cls-12" d="M674.17,282.69c-16,4.31-26.5,18-26.5,36.22V717.64c0,18.22,10.47,31.91,26.5,36.22Z" transform="translate(669.61 369)"/></g><path class="cls-13" d="M-559.71,727.67c-34.26,0-61.41-9.55-80.7-28.4s-29.2-46-29.2-80.35V434.58c0-34.38,9.82-61.41,29.2-80.35s46.44-28.39,80.7-28.39h61.64c33.9,0,60.87,9.67,80.18,28.74s29.15,46.05,29.15,80V452c0,16.25-10.27,26.74-26.16,26.74h-49.44c-15.89,0-26.16-10.49-26.16-26.74v-14c0-12-2.8-15.89-3.66-16.78s-4.36-3.58-16.12-3.58h-37.8c-11,0-14.87,2.64-16,3.77-.89.88-3.77,4.69-3.77,16.59V615.43c0,11.59,2.63,15.47,3.76,16.6s5,3.76,16,3.76h37.8c11.76,0,15.31-2.73,16.12-3.57s3.66-4.74,3.66-16.79V586.35h-27.33c-15.9,0-26.17-10.26-26.17-26.16V520.65c0-15.9,10.27-26.17,26.17-26.17h101.76c16.6,0,27.33,10.73,27.33,27.33v97.11c0,34-9.81,60.89-29.15,80s-46.27,28.75-80.18,28.75Z" transform="translate(669.61 369)"/><path class="cls-13" d="M-239.87,727.67c-34.26,0-61.41-9.55-80.7-28.4s-29.2-46-29.2-80.35V352c0-15.89,10.27-26.16,26.16-26.16h49.44c15.89,0,26.16,10.27,26.16,26.16V615.43c0,11.59,2.63,15.47,3.76,16.6s5,3.76,16,3.76h40.13c11.58,0,15.46-2.63,16.59-3.76s3.76-5,3.76-16.6V352c0-15.89,10.28-26.16,26.17-26.16h48.85c16.25,0,26.75,10,26.75,25.58v267.5c0,34-9.93,60.94-29.5,80.06S-142,727.67-175.9,727.67Z" transform="translate(669.61 369)"/><path class="cls-13" d="M202.68,727.67c-13.83,0-24.87-6.87-31.1-19.36L79.39,536.86V701.5c0,15.9-10.27,26.17-26.17,26.17H5c-15.9,0-26.17-10.27-26.17-26.17V352c0-15.89,10.27-26.16,26.17-26.16H48.57c18.1,0,25.79,9.92,28.76,15.83l93.36,175.18V352c0-15.89,10.28-26.16,26.17-26.16h48.27c15.89,0,26.17,10.27,26.17,26.16V701.5c0,15.9-10.28,26.17-26.17,26.17Z" transform="translate(669.61 369)"/><path class="cls-13" d="M542.87,727.67c-13.82,0-24.87-6.87-31.1-19.35L419.58,536.85V701.5c0,15.9-10.27,26.17-26.16,26.17H345.15c-15.9,0-26.17-10.27-26.17-26.17V352c0-15.89,10.27-26.16,26.17-26.16h43.61c18.12,0,25.79,9.92,28.76,15.84l93.36,175.17V352c0-15.89,10.28-26.16,26.17-26.16h48.27c15.89,0,26.17,10.27,26.17,26.16V701.5c0,15.9-10.28,26.17-26.17,26.17Z" transform="translate(669.61 369)"/><path class="cls-13" d="M685.34,727.67c-15.9,0-26.17-10.27-26.17-26.17V352c0-15.89,10.27-26.16,26.17-26.16H875.5c15.54,0,25.58,10.27,25.58,26.16v39.55c0,15.9-10,26.16-25.58,26.16H760.94V478.2H853.4c15.89,0,26.17,10.27,26.17,26.17v39.54c0,15.89-10.28,26.16-26.17,26.16H760.94v65.72H875.5c15.54,0,25.58,10.27,25.58,26.17V701.5c0,15.9-10,26.17-25.58,26.17Z" transform="translate(669.61 369)"/><path class="cls-13" d="M1224.54,706.68c0-.4,0-.8,0-1.21V658.14l-23.45-7.72-36.36-75.78c31.9-18.12,48-49.71,48-94.12V435.16c0-34-10-61-29.79-80.35s-46.84-29-80.7-29H963.89c-15.9,0-26.17,10.27-26.17,26.16V701.5c0,15.9,10.27,26.17,26.17,26.17h49.43c15.89,0,26.17-10.27,26.17-26.17V589.84h23.06L1116.78,707c3.22,8.14,8,13.83,14.15,16.88,5.18,2.6,12,3.81,21.37,3.81h47.11c12.33,0,18.51-5.19,21.53-9.54a20.71,20.71,0,0,0,3.55-10.77l0,0ZM1111,483.43c0,5.12-.71,11.87-4.11,14.93-3.06,2.75-9.45,4.26-18,4.26h-49.42V417.71h49.42c8.46,0,14.78,1.56,17.82,4.4,3.54,3.31,4.29,10.51,4.29,16Z" transform="translate(669.61 369)"/><path class="cls-14" d="M-559.71,678.44c-34.26,0-61.41-9.55-80.7-28.4s-29.2-46-29.2-80.34V385.36c0-34.38,9.82-61.42,29.2-80.35s46.44-28.4,80.7-28.4h61.64c33.9,0,60.87,9.67,80.18,28.75s29.15,46,29.15,80V402.8c0,16.25-10.27,26.75-26.16,26.75h-49.44c-15.89,0-26.16-10.5-26.16-26.75V388.85c0-12.05-2.8-15.9-3.66-16.79s-4.36-3.57-16.12-3.57h-37.8c-11,0-14.87,2.63-16,3.76-.89.89-3.77,4.69-3.77,16.6V566.21c0,11.58,2.63,15.46,3.76,16.59s5,3.77,16,3.77h37.8c11.76,0,15.31-2.74,16.12-3.58s3.66-4.74,3.66-16.78V537.13h-27.33c-15.9,0-26.17-10.27-26.17-26.17V471.42c0-15.89,10.27-26.16,26.17-26.16h101.76c16.6,0,27.33,10.72,27.33,27.32V569.7c0,34-9.81,60.88-29.15,80s-46.27,28.74-80.18,28.74Z" transform="translate(669.61 369)"/><path class="cls-14" d="M-239.87,678.44c-34.26,0-61.41-9.55-80.7-28.4s-29.2-45.95-29.2-80.34V302.77c0-15.89,10.27-26.16,26.16-26.16h49.44c15.89,0,26.16,10.27,26.16,26.16V566.21c0,11.58,2.63,15.46,3.76,16.59s5,3.77,16,3.77h40.13c11.58,0,15.46-2.64,16.59-3.77s3.76-5,3.76-16.59V302.77c0-15.89,10.28-26.16,26.17-26.16h48.85c16.25,0,26.75,10,26.75,25.58V569.7c0,34-9.93,60.94-29.5,80S-142,678.44-175.9,678.44Z" transform="translate(669.61 369)"/><path class="cls-14" d="M202.68,678.44c-13.83,0-24.87-6.87-31.1-19.35L79.39,487.63V652.28c0,15.89-10.27,26.16-26.17,26.16H5c-15.9,0-26.17-10.27-26.17-26.16V302.77c0-15.89,10.27-26.16,26.17-26.16H48.57c18.1,0,25.79,9.92,28.76,15.83l93.36,175.18V302.77c0-15.89,10.28-26.16,26.17-26.16h48.27c15.89,0,26.17,10.27,26.17,26.16V652.28c0,15.89-10.28,26.16-26.17,26.16Z" transform="translate(669.61 369)"/><path class="cls-14" d="M542.87,678.44c-13.82,0-24.87-6.87-31.1-19.35L419.58,487.62V652.28c0,15.89-10.27,26.16-26.16,26.16H345.15c-15.9,0-26.17-10.27-26.17-26.16V302.77c0-15.89,10.27-26.16,26.17-26.16h43.61c18.12,0,25.79,9.92,28.76,15.84l93.36,175.17V302.77c0-15.89,10.28-26.16,26.17-26.16h48.27c15.89,0,26.17,10.27,26.17,26.16V652.28c0,15.89-10.28,26.16-26.17,26.16Z" transform="translate(669.61 369)"/><path class="cls-14" d="M685.34,678.44c-15.9,0-26.17-10.27-26.17-26.16V302.77c0-15.89,10.27-26.16,26.17-26.16H875.5c15.54,0,25.58,10.27,25.58,26.16v39.55c0,15.9-10,26.17-25.58,26.17H760.94V429H853.4c15.89,0,26.17,10.26,26.17,26.16v39.54c0,15.9-10.28,26.17-26.17,26.17H760.94v65.72H875.5c15.54,0,25.58,10.26,25.58,26.16v39.55c0,15.89-10,26.16-25.58,26.16Z" transform="translate(669.61 369)"/><path class="cls-14" d="M1152.3,678.44c-9.39,0-16.19-1.21-21.37-3.81-6.15-3-10.93-8.73-14.15-16.88l-54.23-117.13h-23.06V652.28c0,15.89-10.28,26.16-26.17,26.16H963.89c-15.9,0-26.17-10.27-26.17-26.16V302.77c0-15.89,10.27-26.16,26.17-26.16h138.4c33.86,0,61,9.75,80.7,29s29.79,46.36,29.79,80.35V431.3c0,44.4-16.15,76-48,94.11l57.14,119.08c.18.37.34.75.49,1.14,4.26,11.38,1.58,18.94-1.42,23.27s-9.2,9.54-21.53,9.54Zm-63.39-225c8.55,0,14.94-1.52,18-4.27,3.4-3.06,4.11-9.81,4.11-14.93V388.85c0-5.46-.75-12.66-4.29-16-3-2.83-9.36-4.39-17.82-4.39h-49.42V453.4Z" transform="translate(669.61 369)"/><path class="cls-15" d="M-498.06,664.49h-61.65q-45.94,0-70.94-24.43t-25-70.36V385.36q0-45.94,25-70.37t70.94-24.43h61.65q45.36,0,70.36,24.72t25,70.08V402.8q0,12.79-12.22,12.79h-49.43q-12.21,0-12.21-12.79V388.85q0-18.62-7.56-26.47t-26.17-7.85h-37.8q-18,0-25.87,7.85t-7.85,26.47V566.21q0,18.62,7.85,26.46t25.87,7.85h37.8q18.61,0,26.17-7.85t7.56-26.46V529.57q0-6.39-6.39-6.39h-34.9Q-530,523.18-530,511V471.42q0-12.21,12.21-12.21h101.77q13.38,0,13.38,13.37V569.7q0,45.36-25,70.07T-498.06,664.49Z" transform="translate(669.61 369)"/><path class="cls-16" d="M-141.59,290.56h48.85q12.78,0,12.79,11.63V569.7q0,45.36-25.29,70.07t-70.66,24.72h-64q-45.94,0-70.94-24.43t-25-70.36V302.78q0-12.22,12.21-12.22h49.43q12.21,0,12.21,12.22V566.21q0,18.62,7.86,26.46t25.87,7.85h40.13q18.6,0,26.46-7.85t7.85-26.46V302.78Q-153.8,290.56-141.59,290.56Z" transform="translate(669.61 369)"/><path class="cls-17" d="M53.22,664.49H5q-12.21,0-12.21-12.21V302.78q0-12.22,12.21-12.22H48.57q12.21,0,16.28,8.14L182.32,519.1h2.33V302.78q0-12.22,12.21-12.22h48.27q12.21,0,12.21,12.22v349.5q0,12.21-12.21,12.21H202.68q-12.81,0-18.61-11.63L67.76,436.53H65.44V652.28Q65.44,664.49,53.22,664.49Z" transform="translate(669.61 369)"/><path class="cls-18" d="M393.41,664.49H345.15q-12.21,0-12.21-12.21V302.78q0-12.22,12.21-12.22h43.61q12.21,0,16.29,8.14L522.51,519.1h2.33V302.78q0-12.22,12.21-12.22h48.27q12.21,0,12.21,12.22v349.5q0,12.21-12.21,12.21H542.87q-12.81,0-18.61-11.63L408,436.53h-2.32V652.28Q405.63,664.49,393.41,664.49Z" transform="translate(669.61 369)"/><path class="cls-19" d="M875.5,664.49H685.34q-12.21,0-12.22-12.21V302.78q0-12.22,12.22-12.22H875.5q11.63,0,11.63,12.22v39.54q0,12.21-11.63,12.21H754q-7,0-7,6.4v75.6q0,6.41,7,6.4H853.4q12.21,0,12.21,12.21v39.54q0,12.21-12.21,12.21H754q-7,0-7,6.4v80.84q0,6.39,7,6.39H875.5q11.63,0,11.63,12.21v39.55Q887.13,664.49,875.5,664.49Z" transform="translate(669.61 369)"/><path class="cls-20" d="M1013.32,664.49H963.89q-12.21,0-12.21-12.21V302.78q0-12.22,12.21-12.22h138.4q45.36,0,71,25t25.59,70.37V431.3q0,65.71-51.76,87.22v2.33l62.22,129.68q5.24,14-9.88,14H1152.3q-10.47,0-15.12-2.33t-7.56-9.88l-58.15-125.62h-39q-7,0-7,6.4V652.28Q1025.53,664.49,1013.32,664.49Zm18.6-197.14h57q18.61,0,27.34-7.85t8.72-25.3V388.85q0-18-8.72-26.17t-27.34-8.15h-57c-4.27,0-6.39,2.14-6.39,6.4V461C1025.53,465.23,1027.65,467.35,1031.92,467.35Z" transform="translate(669.61 369)"/><path class="cls-10" d="M-246,601.78q7.86,7.86,25.88,7.85H-180q18.62,0,26.46-7.85t7.86-26.46V311.89q0-12.21,12.21-12.21h48.85a20.53,20.53,0,0,1,4.51.5c-.78-6.25-5-9.4-12.63-9.4h-48.85q-12.21,0-12.21,12.21V566.42q0,18.63-7.85,26.46t-26.46,7.85h-40.13c-9.28,0-16.51-1.57-21.75-4.69A21.42,21.42,0,0,0-246,601.78Z" transform="translate(669.61 369)"/><path class="cls-10" d="M-327.7,578.81V311.89q0-12.21,12.21-12.21h49.43a18,18,0,0,1,3.9.43q-1.35-9.33-12-9.33h-49.43q-12.21,0-12.21,12.21V569.91q0,46,25,70.37c.41.4.89.75,1.31,1.14Q-327.65,617.9-327.7,578.81Z" transform="translate(669.61 369)"/><path class="cls-10" d="M.86,661.39V311.89q0-12.21,12.21-12.21H56.69a23.37,23.37,0,0,1,9.51,1.76l-1.35-2.52q-4.06-8.13-16.28-8.14H5q-12.21,0-12.21,12.21v349.5c0,6.7,2.8,10.6,8.31,11.78A19.93,19.93,0,0,1,.86,661.39Z" transform="translate(669.61 369)"/><path class="cls-10" d="M190.44,528.22h2.33V311.89q0-12.21,12.21-12.21h48.26a18,18,0,0,1,3.91.43q-1.35-9.33-12-9.33H196.86q-12.21,0-12.21,12.21V517.36Z" transform="translate(669.61 369)"/><path class="cls-10" d="M192.18,662,71.11,436.52H67.76L184.07,653.07a20.57,20.57,0,0,0,8.21,9.07Z" transform="translate(669.61 369)"/><path class="cls-10" d="M530.63,528.22H533V311.89q0-12.21,12.21-12.21h48.27a18,18,0,0,1,3.9.43q-1.35-9.33-12-9.33H537.05q-12.21,0-12.21,12.21V517.36Z" transform="translate(669.61 369)"/><path class="cls-10" d="M341.05,661.39V311.89q0-12.21,12.21-12.21h43.62a23.37,23.37,0,0,1,9.51,1.76l-1.34-2.52q-4.08-8.13-16.29-8.14H345.15q-12.21,0-12.21,12.21v349.5c0,6.7,2.8,10.6,8.31,11.78A19.93,19.93,0,0,1,341.05,661.39Z" transform="translate(669.61 369)"/><path class="cls-10" d="M532.37,662,411.29,436.59h-3.41L524.26,653.07a20.57,20.57,0,0,0,8.21,9.07Z" transform="translate(669.61 369)"/><path class="cls-10" d="M762.07,452h99.44a18.47,18.47,0,0,1,3.9.43q-1.33-9.33-12-9.33H755.09v2.5Q755.09,452,762.07,452Z" transform="translate(669.61 369)"/><path class="cls-10" d="M875.5,600.73H755.09v2.51c0,4.27,2.33,6.39,7,6.39H883.61a16.92,16.92,0,0,1,3.31.34Q885.6,600.75,875.5,600.73Z" transform="translate(669.61 369)"/><path class="cls-10" d="M681.24,661.39V311.89q0-12.21,12.21-12.21H883.61a17,17,0,0,1,3.31.33q-1.32-9.22-11.42-9.23H685.34q-12.21,0-12.22,12.21v349.5c0,6.7,2.81,10.6,8.32,11.78A19.93,19.93,0,0,1,681.24,661.39Z" transform="translate(669.61 369)"/><path class="cls-10" d="M959.79,661.39V311.89q0-12.21,12.21-12.21h138.41q44.35,0,69.76,24a79.34,79.34,0,0,0-6.93-7.86q-25.6-25-71-25H963.89q-12.21,0-12.21,12.21v349.5c0,6.7,2.8,10.6,8.31,11.78A19.93,19.93,0,0,1,959.79,661.39Z" transform="translate(669.61 369)"/><path class="cls-10" d="M1137.74,661.39l-62.15-134.64h-4l58,125.74q2.91,7.57,7.56,9.89c.35.17.81.3,1.21.45C1138.18,662.35,1137.94,661.92,1137.74,661.39Z" transform="translate(669.61 369)"/><path class="cls-10" d="M1124.36,468.62q8.73-7.86,8.73-25.3V398q0-18-8.73-26.17a24.91,24.91,0,0,0-3.43-2.6c2.67,5.13,4,11.72,4,19.87v45.36q0,17.44-8.72,25.3t-27.34,7.85h-55.26v2.5c0,4.27,2.12,6.4,6.39,6.4h57Q1115.63,476.47,1124.36,468.62Z" transform="translate(669.61 369)"/><path class="cls-10" d="M-468.14,415.38a20.71,20.71,0,0,1-.29-3.47V398q0-18.6-7.56-26.46a19.93,19.93,0,0,0-4.38-3.38c2.53,5.19,3.82,12.15,3.82,20.94V403C-476.55,410.08-473.71,414.16-468.14,415.38Z" transform="translate(669.61 369)"/><path class="cls-10" d="M-474.83,523.2H-482c5.74.44,5.45,6.06,5.45,6.13s0-.23,0-.56v37.65q0,18.63-7.56,26.46t-26.17,7.85h-37.8c-9.28,0-16.51-1.57-21.75-4.69a21.42,21.42,0,0,0,4,5.74q7.85,7.86,25.88,7.85h37.8q18.6,0,26.17-7.85t7.56-26.46V529.6Q-468.43,523.2-474.83,523.2Z" transform="translate(669.61 369)"/><path class="cls-10" d="M-416.07,459.42H-517.84q-12.21,0-12.21,12.22v39.54c0,6.7,2.8,10.59,8.31,11.78a20.19,20.19,0,0,1-.19-2.88V480.54q0-12.21,12.21-12.22h101.77a19.08,19.08,0,0,1,4.88.62C-404.26,462.63-408.57,459.42-416.07,459.42Z" transform="translate(669.61 369)"/><path class="cls-10" d="M-622.54,324.1q25-24.42,70.95-24.42h61.64q44.08,0,68.89,23.41a76,76,0,0,0-6.64-7.59q-25-24.72-70.36-24.72h-61.65q-45.94,0-70.94,24.42t-25,70.37V569.91q0,46,25,70.37c.41.41.89.75,1.32,1.15q-18.17-23.52-18.21-62.62V394.47Q-647.54,348.54-622.54,324.1Z" transform="translate(669.61 369)"/><path class="cls-21" d="M45.32,963.05a11.37,11.37,0,0,1-7.11-2.46,11.47,11.47,0,0,1-7.11,2.46H-15.68a11.51,11.51,0,0,1-11.5-11.5v-2.06A11.52,11.52,0,0,1-16.77,938c1.11-1.71,2.89-7.45,2.89-17.9V821.76c0-10.42-1.94-16.51-3.11-18.38A11.52,11.52,0,0,1-27.18,792v-1.83a11.51,11.51,0,0,1,11.5-11.5H31.1a11.47,11.47,0,0,1,7.11,2.46,11.47,11.47,0,0,1,7.11-2.46c27,0,67.91,0,67.91,50.48,0,17-7.18,28.36-15.37,35.78,17,8.66,26.15,24.53,26.15,45.63,0,52.06-47.31,52.35-78.62,52.54h-.07Zm-2.71-26.57a11.36,11.36,0,0,1,2.56-.32c14.74-.2,22.13-.29,22.13-26.8,0-23.19-10.2-25.55-22.51-26.11a12.86,12.86,0,0,1-2.18-.31Zm0-80.26a10.07,10.07,0,0,1,1.12-.21c4-.57,14.62-2,14.62-27.37,0-22-8.28-22.57-13.76-22.92a10.75,10.75,0,0,1-2-.3Z" transform="translate(669.61 369)"/><path class="cls-21" d="M267.3,963.05c-40.44-.22-45.2-3.71-56.7-41.41-1.46-4.78-3.13-10.26-5.16-16.54-2.85-8.78-8.33-14-16.3-15.37l-.69-.15V923.8c0,.51.06,12.36,5.46,12.36a11.52,11.52,0,0,1,11.51,11.5v3.89a11.52,11.52,0,0,1-11.51,11.5H127.18a11.51,11.51,0,0,1-11.5-11.5v-3.89a11.51,11.51,0,0,1,11.5-11.5c4.77,0,5-10.29,5-12.36V814.42c0-8.91-2.54-8.91-5-8.91a11.51,11.51,0,0,1-11.5-11.5v-3.89a11.51,11.51,0,0,1,11.5-11.5h49.76a11.47,11.47,0,0,1,7.11,2.46,11.39,11.39,0,0,1,7.11-2.46c26.79.44,82.13,1.35,82.13,55.3,0,20.14-7.7,34.76-22.93,43.58,9.41,9.82,16.89,24.79,22.3,44.66,3.32,12.6,16.13,14,16.67,14a11.54,11.54,0,0,1,10.56,11.47v3.89a11.51,11.51,0,0,1-11.5,11.5ZM188.45,862.86a11.38,11.38,0,0,1,2.43-.31c13.74-.34,22-.54,22-28.63,0-27.87-7.83-28.06-22-28.41a11.38,11.38,0,0,1-2.43-.31Z" transform="translate(669.61 369)"/><path class="cls-21" d="M381.27,964.89a11.47,11.47,0,0,1-7.23-2.55,11.44,11.44,0,0,1-7.22,2.55c-.3,0-.6,0-.9,0-49.12-3.7-82.15-41-82.15-92.87,0-52.83,33-91,82.13-94.94l.92,0a11.46,11.46,0,0,1,7.22,2.55,11.49,11.49,0,0,1,7.23-2.55c.3,0,.6,0,.9,0C431.7,780.74,465,818.89,465,872c0,52.1-33.33,89.43-82.93,92.88Zm-7.08-163.43a11.44,11.44,0,0,1-5.83,2.58c-7.81,1.06-22.37,3-22.37,67.94,0,63.08,13.46,64.9,22.37,66.11a11.49,11.49,0,0,1,5.68,2.45,11.44,11.44,0,0,1,5.81-2.47c11.85-1.46,22.47-7.62,22.47-66.09,0-64.91-14.76-67-22.7-68.19A11.4,11.4,0,0,1,374.19,801.46Z" transform="translate(669.61 369)"/><path class="cls-21" d="M544.31,964.89a11.47,11.47,0,0,1-7.23-2.55,11.4,11.4,0,0,1-7.22,2.55l-.54,0c-41.61-1.45-60-14.86-62-16.38a11.55,11.55,0,0,1-4.46-9.09v-44a11.52,11.52,0,0,1,11.51-11.5h3.9a11.55,11.55,0,0,1,10.79,7.52l.69,1.91c5.23,14.41,15,41.24,41.53,44.54a11.52,11.52,0,0,1,5.94,2.58,11.71,11.71,0,0,1,3.69-1.93c3.47-1.06,5.78-4,6.52-8.38,1.1-6.51-1.65-16.36-12.6-24.55l-35-22c-23.11-14.49-36.38-30.3-39.42-47-2.33-12.81,1.25-25.57,10.63-38,2.19-3.11,15.36-19.55,48.58-21.81l.79,0a11.46,11.46,0,0,1,7.22,2.55,11.45,11.45,0,0,1,7.23-2.55c36.47,1.21,55.35,11.09,57.38,12.21a11.49,11.49,0,0,1,5.94,10.07v38.53a11.51,11.51,0,0,1-11.5,11.5h-3.9a11.55,11.55,0,0,1-10.8-7.54c-8.41-22.9-21.37-35.59-38.54-37.73a11.32,11.32,0,0,1-6-2.58,11.52,11.52,0,0,1-4,2,9.07,9.07,0,0,0-6.77,7.61c-1.09,7.07,3.92,15,13.41,21.22l35.36,23.42C586.92,869.59,600,886,603.29,903c2.55,13.05-.42,25.89-8.83,38.18-2.1,3.34-14.94,21.12-49.31,23.64A7.17,7.17,0,0,1,544.31,964.89Z" transform="translate(669.61 369)"/><path class="cls-22" d="M45.32,957.3a5.74,5.74,0,0,1-5.75-5.75v-3.89a5.75,5.75,0,0,1,5.68-5.75c14.91-.2,27.8-.36,27.8-32.55,0-26.87-13.46-31.19-28-31.86a5.74,5.74,0,0,1-5.48-5.75v-4.36a5.75,5.75,0,0,1,5-5.69C49.36,861,64.1,859,64.1,828.64c0-24.17-9.68-28-19.15-28.66a5.74,5.74,0,0,1-5.38-5.74v-4.12a5.74,5.74,0,0,1,5.75-5.75c27.69,0,62.16,0,62.16,44.73,0,19.23-10.27,30.68-21.32,37.27,20.89,6.33,32.1,21.46,32.1,44.14,0,46.34-40.42,46.59-72.91,46.79Zm-61,0a5.75,5.75,0,0,1-5.75-5.75v-2.06a5.75,5.75,0,0,1,5.75-5.75c4.52,0,7.55-9.49,7.55-23.6V821.76c0-13.71-3.24-24.06-7.55-24.06A5.75,5.75,0,0,1-21.43,792v-1.83a5.75,5.75,0,0,1,5.75-5.75H31.1a5.74,5.74,0,0,1,5.75,5.75V951.55a5.74,5.74,0,0,1-5.75,5.75Z" transform="translate(669.61 369)"/><path class="cls-22" d="M267.3,957.3c-38-.21-40.41-2-51.2-37.34-1.47-4.8-3.15-10.31-5.19-16.63-4.43-13.65-13.73-18-20.76-19.26a5.77,5.77,0,0,1-4.74-5.67v-4.35A5.75,5.75,0,0,1,191,868.3c16.7-.41,27.64-3,27.64-34.38S208.22,800.18,191,799.76a5.75,5.75,0,0,1-5.61-5.75v-3.89a5.74,5.74,0,0,1,5.75-5.75h.1c39.62.65,76.28,7.11,76.28,49.55,0,24.79-12.71,36.41-27.53,42.15,10,7.13,19.92,21.23,27.1,47.6,4.4,16.73,21.55,18.24,21.72,18.25a5.75,5.75,0,0,1,5.31,5.74v3.89a5.74,5.74,0,0,1-5.75,5.75Zm-140.12,0a5.75,5.75,0,0,1-5.75-5.75v-3.89a5.75,5.75,0,0,1,5.75-5.75c9.71,0,10.76-12.66,10.76-18.11V814.42c0-14.66-7.54-14.66-10.76-14.66a5.75,5.75,0,0,1-5.75-5.75v-3.89a5.75,5.75,0,0,1,5.75-5.75h49.76a5.75,5.75,0,0,1,5.76,5.75V923.8c0,8.75,2.94,18.11,11.21,18.11a5.75,5.75,0,0,1,5.76,5.75v3.89a5.75,5.75,0,0,1-5.76,5.75Z" transform="translate(669.61 369)"/><path class="cls-22" d="M381.27,959.14a5.76,5.76,0,0,1-5.76-5.75v-3.9a5.76,5.76,0,0,1,5.05-5.71c17.43-2.15,27.52-14.59,27.52-71.8,0-58-11.05-71.49-27.64-73.88a5.75,5.75,0,0,1-4.93-5.69v-3.9a5.76,5.76,0,0,1,5.76-5.75l.42,0c46.39,3.46,77.56,39.31,77.56,89.2,0,48.89-31.18,83.91-77.58,87.14Zm-14.88,0c-46-3.46-76.87-38.48-76.87-87.14,0-49.66,30.88-85.51,76.84-89.2l.46,0a5.74,5.74,0,0,1,5.75,5.75v4.13a5.76,5.76,0,0,1-5,5.7c-16.42,2.22-27.35,15.6-27.35,73.64,0,62.85,13.51,69.93,27.35,71.81a5.75,5.75,0,0,1,5,5.7v3.9a5.76,5.76,0,0,1-5.75,5.75Z" transform="translate(669.61 369)"/><path class="cls-22" d="M544.31,959.14a5.76,5.76,0,0,1-5.76-5.75v-3.9a5.76,5.76,0,0,1,4.06-5.5c5.57-1.71,9.39-6.43,10.49-12.92,1.39-8.24-1.84-20.5-15-30.25L503,878.68c-21.7-13.6-34.09-28.12-36.83-43.14-2-11.15,1.18-22.4,9.56-33.44,1.55-2.21,13.36-17.44,44.39-19.56h.39a5.76,5.76,0,0,1,5.75,5.75v3.9a5.76,5.76,0,0,1-4.2,5.54A14.82,14.82,0,0,0,511.1,810c-1.44,9.36,4.52,19.42,15.95,26.91l35.34,23.41c20,13.21,32.24,28.37,35.26,43.82,2.24,11.49-.43,22.86-7.94,33.83-1.51,2.4-13,18.81-45,21.16Zm-14.65,0c-40.6-1.42-58.09-14.62-58.82-15.18a5.78,5.78,0,0,1-2.23-4.55v-44a5.75,5.75,0,0,1,5.76-5.75h3.9a5.75,5.75,0,0,1,5.39,3.76l.69,1.88c5.25,14.46,16.17,44.56,46.22,48.29a5.76,5.76,0,0,1,5,5.71v4.13a5.75,5.75,0,0,1-5.75,5.75Zm53.17-115.79a5.76,5.76,0,0,1-5.4-3.77c-9.21-25.09-23.76-39-43.23-41.45a5.76,5.76,0,0,1-5.05-5.71v-4.13a5.77,5.77,0,0,1,5.76-5.75h.19c35.37,1.18,53.65,11.08,54.41,11.5a5.75,5.75,0,0,1,3,5v38.53a5.75,5.75,0,0,1-5.75,5.75Z" transform="translate(669.61 369)"/><path class="cls-10" d="M582.83,837.59h3.9V799.06s-17.43-9.63-51.82-10.78v4.13C566.32,796.31,578.7,826.35,582.83,837.59Z" transform="translate(669.61 369)"/><path class="cls-10" d="M496.23,867.11H562.1c-1-.67-1.89-1.35-2.89-2L523.9,841.71c-26.6-17.43-22.24-44.26-3.44-49.53v-3.9c-30.27,2.07-40.13,17.2-40.13,17.2C463.35,827.78,471.24,848.42,496.23,867.11Z" transform="translate(669.61 369)"/><path class="cls-10" d="M413.77,867.11h39.54c-1.9-41-27.71-75.29-72-78.6v3.9C402.85,795.52,413.18,813.86,413.77,867.11Z" transform="translate(669.61 369)"/><path class="cls-10" d="M334.55,867.11c.59-53,10.91-71.58,32.27-74.47v-4.13c-43.9,3.53-69.47,37.63-71.36,78.6Z" transform="translate(669.61 369)"/><path class="cls-10" d="M224.41,833.92c0,17.74-3.6,27.65-9.54,33.19h30.27c10.56-6.39,16.65-16.71,16.65-33.19,0-36.24-28.89-43.12-70.63-43.8V794C210,794.47,224.41,798.37,224.41,833.92Z" transform="translate(669.61 369)"/><path class="cls-10" d="M143.69,814.43v52.68h33.25v-77H127.18V794C137.27,794,143.69,800.21,143.69,814.43Z" transform="translate(669.61 369)"/><path class="cls-10" d="M69.86,828.64C69.86,856.6,58,865,47,867.11H70c12.27-3.38,31.76-13,31.76-38,0-38.07-26.6-39-56.41-39v4.12C56.1,794.93,69.86,799.75,69.86,828.64Z" transform="translate(669.61 369)"/><path class="cls-10" d="M-2.38,821.76v45.35H31.1v-77H-15.68V792C-5.59,792-2.38,807.55-2.38,821.76Z" transform="translate(669.61 369)"/><path class="cls-23" d="M-622.8,361c-.22-.31.3-1.09-.2-1.54s-2.13-.42-2.87-.9-2.5-1.08-2.25-1.43,1.18-.46,1.24-1.06a1.5,1.5,0,0,0-.42-1.24c-.23-.22-1.24-.35-1.62-.59a14.45,14.45,0,0,1-1.53-2.33c.22-.54.56-1.11.18-1.35a16.41,16.41,0,0,0-3-.35c-.65-.09-.58-.27-.7-.9a2.66,2.66,0,0,1,.27-2c.07,1.05-.06,2.31.52,2.24s1.77.19,1.88.15a11.77,11.77,0,0,1,1.52.54c.19.07,1,.46.7.8a2.39,2.39,0,0,0-.49,1c0,.23,0,.43.71.85s1.41,1.32,1.71,1.41,1.54.77,1.49,1.09a5.42,5.42,0,0,1-.57,1.2s-1,.62-.48.6a3.27,3.27,0,0,1,1.37.47l2.26.72s1.12.05,1.26.54a5.87,5.87,0,0,1,.44,1.69c-.09.3,1,1,1,1l-2.55.5Z" transform="translate(669.61 369)"/><path class="cls-24" d="M-633.21,349.48a17,17,0,0,1,1.88.15,11.77,11.77,0,0,1,1.52.54c.19.07,1,.46.7.8a2.39,2.39,0,0,0-.49,1c0,.23,0,.43.71.85s1.41,1.32,1.71,1.41,1.54.77,1.49,1.09a5.42,5.42,0,0,1-.57,1.2s-1,.62-.48.6a3.27,3.27,0,0,1,1.37.47l2.26.72s1.12.05,1.26.54a5.87,5.87,0,0,1,.44,1.69c0,.06,0,.14.09.21a2.57,2.57,0,0,0,.06-.75,7.33,7.33,0,0,0-.5-1.42c-.17-.3-.87-.38-1.2-.49a3.74,3.74,0,0,0-.93-.3c-.53-.08-1.8-.89-2.14-.91s0-.28.12-.43a6.56,6.56,0,0,0,.42-.66c.16-.27-.08-.55,0-.75s-.89-.77-1.15-.93-.43-.16-.58-.29a14.42,14.42,0,0,0-1.63-1.43c-.36-.17-.22-.19-.34-.41s.32-.89.46-1.09,0-.28-.12-.47a6,6,0,0,0-1.56-.85,5,5,0,0,0-.77-.2,14.08,14.08,0,0,0-1.45-.14,2.25,2.25,0,0,1-.69-.08,3.89,3.89,0,0,1-.38-1.1C-633.68,348.85-633.64,349.53-633.21,349.48Z" transform="translate(669.61 369)"/><path class="cls-23" d="M-610.85,391.64c-.29.08,1.79,3.06,1.35,3.73a2.59,2.59,0,0,0-.5,1.88c.12.5,1,1.06,1.15,1.67s.61.72.73,1.78,3,3.06,2.92,3.89-.31.84-.37,1.67,2.55,2.95,2.19,3.61a2.53,2.53,0,0,0-.88-3c-.64-.33-.7-.33-.58-1.11s.43-1.11.25-1.67a4.44,4.44,0,0,0-1-1.94c-.54-.45-.84-1.67-1.42-2.28a3.37,3.37,0,0,1-.82-2.06c0-.5-.37-.95-.19-1.61a2.93,2.93,0,0,0,.12-1.62c-.12-.44-.54-2.05-.54-2.05S-609.88,391.36-610.85,391.64Z" transform="translate(669.61 369)"/><g class="cls-25"><path class="cls-26" d="M-604.63,404.94h0a6.41,6.41,0,0,0-.21.82c-.12.78-.06.78.58,1.11a1.88,1.88,0,0,1,.76.9,4.19,4.19,0,0,0-.27-1,1.29,1.29,0,0,0-.58-.42.92.92,0,0,1,.11-.83C-604,405-604.49,405.15-604.63,404.94Z" transform="translate(669.61 369)"/><path class="cls-26" d="M-608,395.87c0,.12,0,.21-.07.33-.18.66.19,1.11.19,1.61a3.37,3.37,0,0,0,.82,2.06c.58.61.88,1.83,1.42,2.28a4.44,4.44,0,0,1,1,1.94,1.45,1.45,0,0,1,0,.28,2.32,2.32,0,0,1,.24-.47c.24-.38-.25-.61-.5-1s-.86-1.4-1.07-1.79-.25-.43-.65-1a3.47,3.47,0,0,1-.53-1,3.88,3.88,0,0,0-.43-.89c-.29-.5-.14-.57-.18-1.07s0-1.25,0-1.25Z" transform="translate(669.61 369)"/></g><path class="cls-23" d="M-599.84,371.29c-.69-1.11.41-1.83-.12-3.05s-2.63-2.89-3.71-3.61c-1.53-1-3.21-2.51-5.17-2.85s-4.21.45-6.25.45c-2.82,0-5.64-1-8,0-1.29.56-2.34,2.85-3.45,3.65a17.72,17.72,0,0,0-3.16,2.88c-.76.88-.32,2-.88,3-.41.72-1.85,1.32-2.15,2.09a16.08,16.08,0,0,0-1,5.72c0,1.52,1.08,2.45,1.48,3.86s-.76,3.54.09,4.87c.72,1.15,2.26,1.59,3.32,2.75,1.32,1.45,2.23,3.56,3.77,4.4s3.73.48,5.45.88c1.47.35,3.42,1.73,5,1.73,2.08,0,3.88-1.11,5.85-1.85,1-.38,2.55.47,3.52.1,1.35-.5,2.08-2.24,3.11-3,2.26-1.76,4.83-3.39,5.85-6s.29-6.09.79-8.67C-595,375.49-598.29,373.81-599.84,371.29Z" transform="translate(669.61 369)"/><path class="cls-24" d="M-599.2,368.62c-.68-1.1.42-1.83-.11-3.05s-2.63-2.89-3.71-3.6c-1.54-1-3.21-2.52-5.18-2.86s-4.2.46-6.24.46c-2.82,0-5.64-1-8,0-1.29.55-2.35,2.84-3.46,3.64a18.09,18.09,0,0,0-3.16,2.89c-.75.87-.32,2-.88,3-.4.71-1.85,1.31-2.14,2.09a16,16,0,0,0-1,5.71c0,1.52,1.09,2.46,1.49,3.86s-.76,3.54.09,4.88c.72,1.14,2.25,1.58,3.32,2.75,1.31,1.44,2.23,3.56,3.76,4.39s3.73.48,5.45.89c1.48.34,3.42,1.73,5,1.73,2.09,0,3.89-1.11,5.85-1.86,1-.38,2.55.47,3.53.11,1.34-.51,2.08-2.25,3.11-3.05,2.26-1.76,4.83-3.4,5.85-6s.28-6.09.79-8.67C-594.33,372.83-597.64,371.14-599.2,368.62Z" transform="translate(669.61 369)"/><path class="cls-27" d="M-596.24,376.62c-.47,2.48.26,5.74-.74,8.35s-3.35,4.08-5.45,5.77c-1,.77-1.65,2.45-2.91,2.93-.91.36-2.35-.46-3.29-.1-1.83.72-3.51,1.79-5.45,1.79-1.49,0-3.3-1.33-4.68-1.67-1.61-.38-3.69-.07-5.09-.85s-2.28-2.84-3.51-4.23c-1-1.11-2.42-1.54-3.1-2.64-.79-1.29.32-3.21-.08-4.69s-1.39-2.25-1.39-3.71a16,16,0,0,1,1-5.5c.27-.74,1.62-1.32,2-2,.52-1,.12-2,.82-2.85a16.93,16.93,0,0,1,3-2.78c1-.76,2-3,3.22-3.5,2.24-1,4.88,0,7.51,0,1.9,0,4-.77,5.82-.44s3.4,1.77,4.83,2.75c1,.69,3,2.32,3.47,3.46s-.54,1.88.1,2.94C-598.78,372.07-595.68,373.69-596.24,376.62Z" transform="translate(669.61 369)"/><path class="cls-28" d="M-602.63,377.34c0,6.78-5.77,11.27-12,11.27s-12-2.2-12-9,5.07-15.31,11.33-15.31S-602.63,370.55-602.63,377.34Z" transform="translate(669.61 369)"/><path class="cls-29" d="M-603.25,377.25c0,6.1-5.47,9.64-11.41,9.64s-10.69-1.77-10.69-7.87,4.1-13.48,10-13.48S-603.25,371.15-603.25,377.25Z" transform="translate(669.61 369)"/><path class="cls-23" d="M-599.37,388.88a18.29,18.29,0,0,0,2,1.62,6.78,6.78,0,0,1,1.21,0c.47.06,1.26.45,1.32.77a10.89,10.89,0,0,1,0,1.42h1.67s1,0,1.16.33.72,1.16,1,1.09,1-.9,1.62-1,2.2,1,2.2,1a9.56,9.56,0,0,0-1.43-1.81,3.6,3.6,0,0,0-1.74.38c-.39.2-.39.71-.84.13s-.58-1.35-1.29-1.22a5.91,5.91,0,0,1-1.55,0,1.55,1.55,0,0,0,0-1c-.2-.39-.45-1-1-.91s-1.76.1-2-.32-1-1.58-1-1.58Z" transform="translate(669.61 369)"/><path class="cls-24" d="M-597.12,389.4c.24.42,1.42.39,2,.32s.84.52,1,.91a1.55,1.55,0,0,1,0,1,5.91,5.91,0,0,0,1.55,0c.71-.13.84.64,1.29,1.22s.45.07.84-.13a3.6,3.6,0,0,1,1.74-.38,6.1,6.1,0,0,1,1.14,1.39,5.49,5.49,0,0,0-.27-1c-.2-.42-1.23-.68-1.23-.68a7.32,7.32,0,0,0-1.05.22,1.78,1.78,0,0,0-.79.38c-.32.28-.17-.3-.35-.62s-1.52-.71-1.52-.71a6.73,6.73,0,0,1-1,0c-.15,0-.26-.4-.19-.77s-.5-1-.62-1.14-.45-.17-1,0-.84-.11-1.2-.11-1.18-2.12-1.18-2.12l-.21.67C-598,388-597.35,389-597.12,389.4Z" transform="translate(669.61 369)"/><path class="cls-23" d="M-629.11,387.22a7.57,7.57,0,0,1-2.23,1.3c-.82.17-1.29,2.14-.73,2.39s1.39,2,.9,2.23-3.05,1.33-3.05,1.33.25-1.84,0-2.16-.25-.75-2,0-1.15,1.42-1.48,1.66.91,1,0,1.06a12.08,12.08,0,0,0-3,1.24s2.22-.75,3-.5,1.16-.9,1.16-.9-.66-.65-.17-.9,1.24-1.16,1.24-.5a15.23,15.23,0,0,0,.16,1.72.89.89,0,0,0,1.24.17,28.46,28.46,0,0,1,3.14-1.39c.73-.34,2.46-.42,1.72-1.24s-1.95-2.24-1.72-2.53.21-.79,1.06-1.15,1.32-.44,1.32-.77S-629.11,387.22-629.11,387.22Z" transform="translate(669.61 369)"/><path class="cls-24" d="M-637.68,395c.91-.08-.33-.82,0-1.06s-.25-.92,1.48-1.66,1.73-.33,2,0,0,2.16,0,2.16,2.55-1.09,3.05-1.33-.33-2-.9-2.23-.09-2.22.73-2.39a6.54,6.54,0,0,0,2.07-1.17c-.07-.12-.16-.21-.24-.13s-.33.24-.48.41a12.75,12.75,0,0,1-1.41.61c-.18.1-.48.14-.67.23s-.19.69-.27,1a2.26,2.26,0,0,0-.13.83,2.35,2.35,0,0,0,.17.8,1.17,1.17,0,0,0,.67.55c.44.21.11.54.17.84a.49.49,0,0,1-.08.46,1.59,1.59,0,0,1-.53.27c-.23.11-1.45.53-1.45.53s-.44.31-.48.27a9.31,9.31,0,0,1,.11-1.95.3.3,0,0,0-.38-.38c-.15.07-.72-.13-1.07,0s-.76.29-1.14.46a5.14,5.14,0,0,0-1.21,1,.67.67,0,0,0-.11.52c0,.09-.31.27-.33.28a1.17,1.17,0,0,0,.33.5c.15.06.11.33.11.33l-.4.15s-1,.32-1,.32-1.07.76-1.07.76h0A9.46,9.46,0,0,1-637.68,395Z" transform="translate(669.61 369)"/><path class="cls-23" d="M49,371.87c-.23.1-.69-.64-1-.31s-.49,1.85-.87,2.38-1,2-1.16,1.64-.19-1.26-.58-1.5a.67.67,0,0,0-.85,0c-.17.14-.35,1-.55,1.31a6.07,6.07,0,0,1-1.68.68c-.33-.39-.67-.88-.86-.61a18.87,18.87,0,0,0-.53,2.71c-.12.58-.23.45-.66.36a1.91,1.91,0,0,1-1.31-.91c.69.28,1.51.8,1.52.24s.3-1.59.28-1.7a10.73,10.73,0,0,1,.5-1.24c.07-.16.4-.78.6-.4a2.27,2.27,0,0,0,.62.78c.15.11.28.15.63-.38s1-.89,1.09-1.14.65-1.18.86-1a6,6,0,0,1,.74.92s.3,1.18.34.64a2.81,2.81,0,0,1,.44-1.12l.69-1.87s.15-1,.48-1,1,0,1.15.13.74-.66.74-.66l.08,2.54Z" transform="translate(669.61 369)"/><path class="cls-24" d="M40.47,377.85c0-.56.3-1.59.28-1.7a10.73,10.73,0,0,1,.5-1.24c.07-.16.4-.78.6-.4a2.27,2.27,0,0,0,.62.78c.15.11.28.15.63-.38s1-.89,1.09-1.14.65-1.18.86-1a5.81,5.81,0,0,1,.73.92s.31,1.18.35.64a2.81,2.81,0,0,1,.44-1.12l.69-1.87s.15-1,.48-1,1,0,1.15.13.1,0,.15,0a2,2,0,0,0-.49-.3,3.25,3.25,0,0,0-1,0c-.21.05-.33.68-.43.95a3.29,3.29,0,0,0-.29.77c-.11.47-.76,1.39-.81,1.71s-.19-.1-.27-.26-.24-.37-.39-.61-.37-.1-.5-.24-.59.58-.72.77-.15.35-.24.45a8.06,8.06,0,0,0-1.1,1.05c-.15.29-.15.15-.3.19s-.56-.59-.68-.79-.18-.09-.31,0a4.23,4.23,0,0,0-.71,1.17,4.71,4.71,0,0,0-.21.66c-.06.3-.23,1.07-.24,1.31a2.51,2.51,0,0,1-.12.61c0,.08-.45,0-.75,0C40,378.08,40.46,378.27,40.47,377.85Z" transform="translate(669.61 369)"/><path class="cls-23" d="M63.58,346.06c-.07-.3.71-.75.42-1.23s-1.79-.92-2.28-1.5-1.86-1.53-1.49-1.72,1.26,0,1.55-.47a1,1,0,0,0,.1-1.07c-.12-.23-1-.61-1.24-.9a8.93,8.93,0,0,1-.49-2.22c.41-.34.94-.69.69-1a17.31,17.31,0,0,0-2.64-1.12c-.56-.24-.42-.36-.28-.88a2.26,2.26,0,0,1,1-1.49c-.35.82-1,1.75-.41,1.86s1.55.65,1.66.65a10.35,10.35,0,0,1,1.18.83c.15.11.73.63.33.81a2.19,2.19,0,0,0-.84.65c-.12.17-.18.32.31.85s.77,1.41,1,1.56,1.11,1,.94,1.25a5.83,5.83,0,0,1-1,.76s-1.21.18-.69.32a3,3,0,0,1,1.08.75L64.33,344s1,.36.94.77-.06,1.22-.26,1.42.58,1,.58,1l-2.53-.33Z" transform="translate(669.61 369)"/><path class="cls-24" d="M58.56,334.34c.55.12,1.55.65,1.66.65a10.35,10.35,0,0,1,1.18.83c.15.11.73.63.33.81a2.19,2.19,0,0,0-.84.65c-.12.17-.18.32.31.85s.77,1.41,1,1.56,1.11,1,.94,1.25a5.83,5.83,0,0,1-1,.76s-1.21.18-.69.32a3,3,0,0,1,1.08.75L64.33,344s1,.36.94.77-.06,1.22-.26,1.42c0,0,0,.11,0,.19a2.31,2.31,0,0,0,.35-.57,5.31,5.31,0,0,0,.09-1.22c0-.28-.64-.54-.9-.71a3.34,3.34,0,0,0-.74-.49c-.45-.21-1.3-1.19-1.6-1.3s.11-.22.28-.29.4-.24.65-.4.14-.44.29-.57-.51-.84-.69-1-.32-.24-.42-.38a9.92,9.92,0,0,0-.92-1.55c-.27-.23-.14-.2-.16-.41s.65-.59.86-.7.11-.22.07-.4a5.08,5.08,0,0,0-1.09-1.08,4.38,4.38,0,0,0-.63-.37,13.29,13.29,0,0,0-1.28-.52,2.3,2.3,0,0,1-.6-.25,2.63,2.63,0,0,1,.09-.95C58.38,333.73,58.15,334.26,58.56,334.34Z" transform="translate(669.61 369)"/><path class="cls-23" d="M71,359.16s1.67,1.25,2.67.39A16.8,16.8,0,0,1,75.72,358s1.83.19,2,1.13,2.1,1.24,2.1,1.24,2.57-1.79,3.07-1.63,1.72,0,2,.76,1.61,3.36,2.18,2.94,2.21-4.21,2.51-4.69,2.75.2,2.75.2-3.27-1.63-3.72-1.17-.16,1.29-.16,1.29a14.27,14.27,0,0,1-.86,1.4c-.27.33-.45,1-.72.78a6.53,6.53,0,0,1-1.33-1.1c-.31-.43-.34-1.18-1.07-1.29a33.2,33.2,0,0,0-5,1,18.38,18.38,0,0,1-1.64-1.71,2.86,2.86,0,0,0-1.8-.5,7.19,7.19,0,0,0-2.42,1.12c-.51.37-.67,1.4-1.43.53A6.92,6.92,0,0,0,70.7,357Z" transform="translate(669.61 369)"/><path class="cls-24" d="M72.16,358.3c.76.87.92-.16,1.43-.53A7.19,7.19,0,0,1,76,356.65a2.86,2.86,0,0,1,1.8.5,18.38,18.38,0,0,0,1.64,1.71,33.2,33.2,0,0,1,5-1c.73.11.76.86,1.07,1.29a6.53,6.53,0,0,0,1.33,1.1c.27.2.45-.45.72-.78a14.27,14.27,0,0,0,.86-1.4s-.28-.84.16-1.29,1.83.31,2.83.76l-1.07-.83a5.35,5.35,0,0,0-1.56-.32c-.28.07-.77.73-.77.73a3.5,3.5,0,0,0,0,1c.08.2-.44.68-.44.68s-.25.47-.42.76-.42,0-.6,0-.52-.4-.66-.55a2.2,2.2,0,0,1-.24-.9c0-.15-.87-.66-1-.69a2.05,2.05,0,0,0-.89.16c-.24.12-1.84.24-2.06.34s-1.74.63-1.74.63-.92-.54-1.23-.79a5.17,5.17,0,0,1-.65-.89c-.13-.13-.47-.6-.77-.7a9.91,9.91,0,0,0-2.67.61c-.31.16-.94.5-1.15.65a.7.7,0,0,0-.31.42,3.07,3.07,0,0,1-.34.53L71.45,357l0,.64A8.94,8.94,0,0,1,72.16,358.3Z" transform="translate(669.61 369)"/><path class="cls-23" d="M52.69,354.67a20.77,20.77,0,0,1-4.18-1.57c-1.35-.83-3.28.19-2.56,1s.91,3.19,0,2.81-5.45-2.5-5.45-2.5,1.49-1.17,1.31-1.71.08-.89-3-2.31-2.63-.21-3.27-.41.78,1.84-.65.85a37.55,37.55,0,0,0-5.27-2.48,29.09,29.09,0,0,1,4.95,3.16,2.08,2.08,0,0,0,2.3.63s-.61-1.28.3-.91,2.59.52,2.19,1a8.27,8.27,0,0,0-.8,1.57,2.72,2.72,0,0,0,1.78,1.57c1.43.47,4.33,2,5.64,2.56s4,2.54,3.37,1-1.61-4.05-1.08-4a3.18,3.18,0,0,1,2.3.32c1.51.71,2.29,1.18,2.49.92S52.69,354.67,52.69,354.67Z" transform="translate(669.61 369)"/><path class="cls-24" d="M34.89,350.88c1.43,1,0-1,.65-.85s.18-1,3.27.41,2.83,1.76,3,2.31-1.31,1.71-1.31,1.71,4.55,2.12,5.45,2.5.7-1.95,0-2.81,1.21-1.88,2.56-1a18.06,18.06,0,0,0,3.86,1.48c0-.18-.11-.35-.28-.38-.37,0-.66-.2-1-.24s-2.16-1-2.52-1.15-.82-.45-1.16-.6-.71.32-1,.51-.66.32-.71.52-.3.46-.22.83.14.54.69,1.22-.17.55-.26.86-.25.26-.41.27a4.23,4.23,0,0,1-1-.4c-.41-.18-2.53-1.27-2.53-1.27a4.48,4.48,0,0,1-.9-.35A5,5,0,0,1,42.43,353c.34-.11-.09-.62-.35-.74s-1-.94-1.63-1.25-1.33-.65-2-1a11.47,11.47,0,0,0-2.44-.65.44.44,0,0,0-.48.29c-.05.07-.64-.15-.68-.17a1.4,1.4,0,0,0,.21.79.26.26,0,0,1,0,.39l-.7-.35s-1.7-.9-1.79-1-2.09-.64-2.09-.64h0A30.65,30.65,0,0,1,34.89,350.88Z" transform="translate(669.61 369)"/><path class="cls-23" d="M76.51,354.15c-.68-1.11.41-1.83-.12-3s-2.63-2.89-3.71-3.61c-1.53-1-3.21-2.51-5.17-2.85s-4.21.45-6.24.45c-2.82,0-5.65-1-8.05,0-1.28.56-2.34,2.85-3.45,3.65a17.72,17.72,0,0,0-3.16,2.88c-.76.88-.32,2-.88,3-.41.72-1.85,1.32-2.15,2.09a16.3,16.3,0,0,0-1,5.72c0,1.52,1.08,2.46,1.48,3.86s-.76,3.54.09,4.88c.73,1.14,2.26,1.58,3.32,2.75,1.32,1.44,2.23,3.55,3.77,4.39s3.73.48,5.45.88c1.48.35,3.42,1.73,5,1.73,2.08,0,3.88-1.11,5.85-1.85,1-.38,2.55.47,3.52.1,1.35-.5,2.08-2.24,3.12-3.05,2.25-1.76,4.82-3.39,5.84-6s.29-6.09.79-8.67C81.38,358.35,78.06,356.67,76.51,354.15Z" transform="translate(669.61 369)"/><path class="cls-24" d="M77.15,351.48c-.68-1.1.42-1.82-.11-3.05s-2.63-2.89-3.71-3.6c-1.54-1-3.21-2.52-5.18-2.86s-4.2.46-6.24.46c-2.82,0-5.64-1-8,0-1.29.55-2.35,2.84-3.46,3.64A18.09,18.09,0,0,0,47.25,349c-.75.87-.32,2-.88,3-.4.71-1.85,1.32-2.14,2.09a16,16,0,0,0-1,5.71c0,1.52,1.09,2.46,1.49,3.86s-.76,3.54.09,4.88c.72,1.14,2.26,1.59,3.32,2.75,1.32,1.44,2.23,3.56,3.76,4.39s3.73.48,5.45.89c1.48.34,3.42,1.73,5,1.73,2.08,0,3.88-1.11,5.84-1.86,1-.38,2.55.47,3.53.11,1.34-.5,2.08-2.25,3.11-3.05,2.26-1.76,4.83-3.4,5.85-6s.28-6.1.79-8.68C82,355.69,78.71,354,77.15,351.48Z" transform="translate(669.61 369)"/><path class="cls-30" d="M80.11,359.48c-.47,2.48.26,5.74-.73,8.35s-3.36,4.08-5.46,5.77c-1,.77-1.65,2.45-2.91,2.93-.91.36-2.35-.46-3.29-.1-1.83.72-3.51,1.79-5.45,1.79-1.49,0-3.3-1.33-4.68-1.67-1.61-.38-3.69-.07-5.09-.85s-2.28-2.84-3.51-4.22c-1-1.12-2.42-1.55-3.1-2.65-.79-1.29.32-3.21-.08-4.69s-1.39-2.25-1.39-3.71a16,16,0,0,1,1-5.5c.27-.74,1.62-1.32,2-2,.52-1,.12-2,.82-2.85a17.31,17.31,0,0,1,3-2.78c1-.76,2-3,3.22-3.5,2.24-1,4.88,0,7.51,0,1.9,0,4-.77,5.82-.44s3.4,1.77,4.83,2.75c1,.69,3,2.32,3.47,3.46s-.54,1.88.1,2.94C77.57,354.93,80.67,356.55,80.11,359.48Z" transform="translate(669.61 369)"/><path class="cls-31" d="M73.72,360.2c0,6.78-5.77,11.28-12,11.28s-12-2.21-12-9S54.74,347.17,61,347.17,73.72,353.41,73.72,360.2Z" transform="translate(669.61 369)"/><path class="cls-29" d="M73.1,360.11c0,6.1-5.47,9.64-11.41,9.64S51,368,51,361.88s4.1-13.48,10-13.48S73.1,354,73.1,360.11Z" transform="translate(669.61 369)"/><path class="cls-23" d="M772.89,493c-.23.11-.69-.63-1-.3s-.49,1.85-.87,2.38-1,2-1.16,1.63-.19-1.25-.58-1.5a.67.67,0,0,0-.85,0c-.17.14-.36,1-.55,1.31a6,6,0,0,1-1.68.67c-.33-.38-.67-.87-.87-.6a20.48,20.48,0,0,0-.52,2.71c-.12.58-.23.45-.66.36a1.91,1.91,0,0,1-1.31-.91c.69.27,1.5.8,1.52.24s.29-1.59.28-1.7a10.06,10.06,0,0,1,.5-1.24c.07-.16.4-.78.59-.4a2.39,2.39,0,0,0,.63.78c.15.11.28.15.63-.38s1-.89,1.09-1.14.65-1.18.86-1a5.83,5.83,0,0,1,.73.91s.31,1.19.35.65a2.81,2.81,0,0,1,.44-1.12l.69-1.88s.15-1,.48-1,1-.05,1.15.13.74-.66.74-.66l.08,2.53Z" transform="translate(669.61 369)"/><path class="cls-24" d="M764.33,499c0-.56.29-1.59.28-1.7a10.06,10.06,0,0,1,.5-1.24c.07-.16.4-.78.59-.4a2.39,2.39,0,0,0,.63.78c.15.11.28.15.63-.38s1-.89,1.09-1.14.65-1.18.86-1a5.83,5.83,0,0,1,.73.91s.31,1.19.35.65a2.81,2.81,0,0,1,.44-1.12l.69-1.88s.15-1,.48-1,1-.05,1.15.13.1,0,.15,0a1.7,1.7,0,0,0-.49-.3,3.23,3.23,0,0,0-1,0c-.21.06-.34.69-.43,1a3.29,3.29,0,0,0-.29.77c-.11.46-.76,1.39-.81,1.7s-.19-.09-.27-.25-.24-.37-.4-.61-.36-.1-.49-.24-.59.58-.72.77-.15.35-.24.45a8,8,0,0,0-1.11,1.05c-.14.29-.14.15-.29.19s-.56-.59-.68-.79-.18-.09-.31,0a4,4,0,0,0-.71,1.17,5,5,0,0,0-.21.65c-.06.31-.23,1.08-.24,1.32a2.51,2.51,0,0,1-.12.61c0,.08-.45,0-.76,0C763.87,499.24,764.32,499.43,764.33,499Z" transform="translate(669.61 369)"/><path class="cls-23" d="M787.44,467.22c-.08-.3.71-.75.42-1.23s-1.79-.93-2.28-1.5-1.86-1.53-1.49-1.72,1.26,0,1.55-.47a1,1,0,0,0,.1-1.07c-.12-.23-1-.61-1.24-.9a8.93,8.93,0,0,1-.49-2.22c.41-.35.94-.69.69-1a17.31,17.31,0,0,0-2.64-1.12c-.56-.25-.42-.36-.28-.88a2.19,2.19,0,0,1,1.05-1.49c-.36.82-1,1.75-.41,1.86a17.62,17.62,0,0,1,1.66.65,10.35,10.35,0,0,1,1.18.83c.15.11.73.63.33.81a2.33,2.33,0,0,0-.85.65c-.12.17-.17.32.32.85s.77,1.41,1,1.55,1.1,1,.94,1.26a5.81,5.81,0,0,1-1,.76s-1.2.18-.68.32a3,3,0,0,1,1.08.74l1.78,1.19s1,.36.94.77-.06,1.21-.26,1.42.58,1,.58,1l-2.53-.33Z" transform="translate(669.61 369)"/><path class="cls-24" d="M782.42,455.5a17.62,17.62,0,0,1,1.66.65,10.35,10.35,0,0,1,1.18.83c.15.11.73.63.33.81a2.33,2.33,0,0,0-.85.65c-.12.17-.17.32.32.85s.77,1.41,1,1.55,1.1,1,.94,1.26a5.81,5.81,0,0,1-1,.76s-1.2.18-.68.32a3,3,0,0,1,1.08.74l1.78,1.19s1,.36.94.77-.06,1.21-.26,1.42c0,0,0,.11,0,.19a2.31,2.31,0,0,0,.35-.57,5.31,5.31,0,0,0,.09-1.22c0-.28-.65-.54-.9-.71a3.23,3.23,0,0,0-.74-.49c-.45-.21-1.3-1.19-1.6-1.3s.11-.22.27-.29.4-.24.66-.4.14-.44.29-.57-.51-.84-.69-1-.33-.24-.42-.38a10.77,10.77,0,0,0-.92-1.55c-.27-.23-.14-.2-.16-.41s.65-.59.86-.71.11-.21.07-.39a4.92,4.92,0,0,0-1.1-1.08,3.75,3.75,0,0,0-.62-.37,13.29,13.29,0,0,0-1.28-.52,2.28,2.28,0,0,1-.6-.26,2.36,2.36,0,0,1,.09-.94C782.24,454.89,782,455.42,782.42,455.5Z" transform="translate(669.61 369)"/><path class="cls-23" d="M794.83,480.32s1.67,1.25,2.67.39a16.8,16.8,0,0,1,2.08-1.52s1.83.19,2,1.12,2.1,1.24,2.1,1.24,2.57-1.78,3.07-1.62,1.71,0,2,.75,1.61,3.36,2.18,2.95,2.21-4.21,2.51-4.69,2.74.2,2.74.2-3.26-1.63-3.71-1.18-.16,1.3-.16,1.3a13.29,13.29,0,0,1-.86,1.39c-.28.34-.45,1-.72.79a6.53,6.53,0,0,1-1.33-1.1c-.31-.43-.34-1.18-1.07-1.3a34.53,34.53,0,0,0-5,1,20.76,20.76,0,0,1-1.63-1.71,2.86,2.86,0,0,0-1.8-.5,7.19,7.19,0,0,0-2.42,1.12c-.51.37-.67,1.39-1.44.53a6.75,6.75,0,0,0-1.45-1.28Z" transform="translate(669.61 369)"/><path class="cls-24" d="M796,479.46c.77.86.93-.16,1.44-.53a7.19,7.19,0,0,1,2.42-1.12,2.86,2.86,0,0,1,1.8.5A20.76,20.76,0,0,0,803.3,480a34.53,34.53,0,0,1,5-1c.73.12.76.87,1.07,1.3a6.53,6.53,0,0,0,1.33,1.1c.27.19.44-.45.72-.79a13.29,13.29,0,0,0,.86-1.39s-.29-.84.16-1.3c.3-.3,1.83.32,2.83.77l-1.07-.83a5.35,5.35,0,0,0-1.56-.32c-.28.07-.77.73-.77.73a3.5,3.5,0,0,0,0,1c.08.2-.45.68-.45.68s-.24.47-.41.76-.42,0-.6,0-.52-.4-.67-.55a2.35,2.35,0,0,1-.23-.9c0-.16-.87-.67-1-.69a2.05,2.05,0,0,0-.89.16c-.24.12-1.84.24-2.06.34s-1.74.63-1.74.63-.92-.54-1.23-.79a5.17,5.17,0,0,1-.65-.89c-.13-.14-.47-.6-.78-.7a9.56,9.56,0,0,0-2.66.61,11.8,11.8,0,0,0-1.15.65.7.7,0,0,0-.31.42,3,3,0,0,1-.35.53l-1.32-1.39,0,.64A6.38,6.38,0,0,1,796,479.46Z" transform="translate(669.61 369)"/><path class="cls-23" d="M776.55,475.82a20.51,20.51,0,0,1-4.18-1.56c-1.36-.83-3.28.19-2.56,1.05s.91,3.19,0,2.81-5.46-2.5-5.46-2.5,1.5-1.17,1.32-1.71.08-.89-3-2.31-2.62-.22-3.26-.41.78,1.84-.65.84a37.15,37.15,0,0,0-5.27-2.47,28.72,28.72,0,0,1,4.94,3.16,2.09,2.09,0,0,0,2.31.62s-.61-1.28.3-.9,2.59.52,2.19,1a8,8,0,0,0-.8,1.57,2.72,2.72,0,0,0,1.78,1.57c1.43.47,4.33,2,5.64,2.56s4,2.54,3.36,1-1.6-4.05-1.08-4a3.21,3.21,0,0,1,2.31.32c1.51.71,2.28,1.18,2.48.92S776.55,475.82,776.55,475.82Z" transform="translate(669.61 369)"/><path class="cls-24" d="M758.75,472c1.43,1,0-1,.65-.84s.17-1,3.26.41,2.84,1.76,3,2.31-1.31,1.71-1.31,1.71,4.55,2.12,5.45,2.5.7-2,0-2.81,1.2-1.88,2.56-1.05a18.41,18.41,0,0,0,3.86,1.48c0-.18-.11-.35-.28-.38-.37-.05-.66-.2-1-.24s-2.17-1-2.52-1.16-.82-.44-1.16-.59-.71.32-1,.51-.66.32-.71.52-.3.46-.23.83.15.53.7,1.21-.18.56-.26.87-.25.26-.41.27a3.89,3.89,0,0,1-1-.4c-.41-.18-2.53-1.27-2.53-1.27a5.17,5.17,0,0,1-.9-.35,5.16,5.16,0,0,1,1.35-1.43c.34-.11-.09-.61-.35-.73s-1-.94-1.63-1.25-1.33-.65-2-1a10.9,10.9,0,0,0-2.44-.65.44.44,0,0,0-.48.29c0,.07-.65-.15-.68-.17a1.4,1.4,0,0,0,.21.79.26.26,0,0,1,0,.39l-.69-.35s-1.7-.9-1.79-1-2.09-.64-2.09-.64h0A30.61,30.61,0,0,1,758.75,472Z" transform="translate(669.61 369)"/><path class="cls-23" d="M800.37,475.31c-.69-1.11.41-1.83-.12-3.06s-2.63-2.88-3.71-3.6c-1.53-1-3.21-2.51-5.17-2.86s-4.21.46-6.25.46c-2.82,0-5.64-1-8,0-1.29.56-2.35,2.85-3.45,3.64a18.59,18.59,0,0,0-3.17,2.89c-.75.88-.31,2-.87,3-.41.72-1.86,1.32-2.15,2.09a16,16,0,0,0-1,5.72c0,1.52,1.08,2.45,1.48,3.86s-.76,3.54.09,4.87c.72,1.15,2.26,1.59,3.32,2.75,1.32,1.45,2.23,3.56,3.77,4.39s3.72.49,5.45.89c1.47.35,3.41,1.73,5,1.73,2.08,0,3.88-1.11,5.85-1.85,1-.38,2.54.47,3.52.1,1.35-.5,2.08-2.24,3.11-3.05,2.26-1.76,4.83-3.39,5.85-6s.29-6.1.79-8.67C805.24,479.51,801.92,477.83,800.37,475.31Z" transform="translate(669.61 369)"/><path class="cls-24" d="M801,472.64c-.68-1.1.42-1.83-.11-3.05s-2.63-2.89-3.71-3.6c-1.54-1-3.22-2.52-5.18-2.86s-4.2.46-6.24.46c-2.82,0-5.64-1-8,0-1.29.55-2.35,2.84-3.46,3.64a18.09,18.09,0,0,0-3.16,2.89c-.75.87-.32,2-.88,3-.4.71-1.85,1.31-2.14,2.08a16.08,16.08,0,0,0-1.05,5.72c0,1.52,1.09,2.46,1.49,3.86s-.76,3.54.09,4.88c.72,1.14,2.25,1.58,3.32,2.75,1.31,1.44,2.23,3.56,3.76,4.39s3.73.48,5.45.89c1.48.34,3.42,1.73,5,1.73,2.09,0,3.89-1.12,5.85-1.86,1-.38,2.55.47,3.53.11,1.34-.51,2.08-2.25,3.11-3.06,2.26-1.76,4.83-3.39,5.85-6s.28-6.09.79-8.67C805.88,476.85,802.56,475.16,801,472.64Z" transform="translate(669.61 369)"/><path class="cls-32" d="M804,480.64c-.47,2.48.26,5.73-.74,8.34s-3.35,4.08-5.45,5.78c-1,.77-1.65,2.45-2.91,2.93-.91.35-2.35-.46-3.29-.1-1.83.72-3.51,1.79-5.45,1.79-1.49,0-3.3-1.34-4.68-1.67-1.61-.39-3.69-.07-5.09-.85s-2.28-2.84-3.51-4.23c-1-1.12-2.42-1.54-3.1-2.64-.79-1.29.32-3.21-.08-4.69s-1.39-2.25-1.39-3.72a15.94,15.94,0,0,1,1-5.49c.27-.75,1.62-1.32,2-2,.52-1,.12-2,.82-2.85a16.93,16.93,0,0,1,2.95-2.78c1-.77,2-3,3.22-3.5,2.24-1,4.88,0,7.51,0,1.9,0,4-.77,5.82-.44s3.4,1.77,4.83,2.75c1,.69,3,2.32,3.47,3.46s-.54,1.88.1,2.94C801.43,476.08,804.52,477.7,804,480.64Z" transform="translate(669.61 369)"/><path class="cls-33" d="M797.58,481.35c0,6.79-5.77,11.28-12,11.28s-12-2.2-12-9,5.07-15.31,11.32-15.31S797.58,474.57,797.58,481.35Z" transform="translate(669.61 369)"/><path class="cls-29" d="M797,481.27c0,6.1-5.47,9.64-11.41,9.64s-10.69-1.77-10.69-7.87,4.1-13.48,10-13.48S797,475.17,797,481.27Z" transform="translate(669.61 369)"/><path class="cls-23" d="M-128.43,519.91a8,8,0,0,1-2.51.12c-.81-.22-2,1.19-1.56,1.63s.53,2.18,0,2.18-3.27-.21-3.27-.21.91-1.38.81-1.75,0-.71-1.8-.83-1.58.67-2,.72.45,1.18-.4.86a13.25,13.25,0,0,0-3.17-.24,9,9,0,0,1,3,.88c.66.55,1.39-.25,1.39-.25s-.35-.8.19-.8,1.56-.42,1.31.12a12.29,12.29,0,0,0-.49,1.47,1,1,0,0,0,1.06.65,28.73,28.73,0,0,1,3.39.2c.78,0,2.39.69,2-.29s-.93-2.64-.61-2.77.48-.56,1.39-.49,1.37.2,1.49-.07S-128.43,519.91-128.43,519.91Z" transform="translate(669.61 369)"/><path class="cls-24" d="M-139.15,522.63c.85.32,0-.8.4-.86s.11-.84,2-.72,1.7.46,1.8.83-.81,1.75-.81,1.75,2.73.2,3.27.21.44-1.75,0-2.18.75-1.85,1.56-1.63a7.21,7.21,0,0,0,2.32-.09c0-.12-.06-.24-.17-.2s-.39,0-.59.12a11,11,0,0,1-1.5-.09c-.22,0-.5-.09-.7-.1s-.44.48-.65.74a1.7,1.7,0,0,0-.42.63,1.82,1.82,0,0,0-.15.71c0,.27.08.37.41.73s-.11.48-.16.75a.42.42,0,0,1-.25.34,1.56,1.56,0,0,1-.58,0c-.25,0-1.52-.18-1.52-.18s-.52.06-.54,0a7.71,7.71,0,0,1,.83-1.54c.2-.19,0-.45-.21-.46s-.6-.4-1-.45-.8-.08-1.21-.1a4.7,4.7,0,0,0-1.47.27.54.54,0,0,0-.29.38c0,.07-.39.09-.41.08a1,1,0,0,0,.12.55c.11.11,0,.32,0,.32l-.42-.05s-1-.16-1.07-.19-1.26.17-1.26.17h0A10.57,10.57,0,0,1-139.15,522.63Z" transform="translate(669.61 369)"/><path class="cls-23" d="M-96.59,517.14A21.14,21.14,0,0,1-97.85,514c-.49-1.17,0-3.66-1-4.37-1.46-1-4-4.64-5.9-5s-2.95.55-4.9.55c-2.7,0-6.8-2.67-9.09-1.65-1.23.54-3.08,3.66-4.14,4.44s-3.3,1.16-4.18,2.22c-.72.86.1,2.08-.43,3.07-.39.7-2.18,1.14-2.46,1.9-.65,1.77.21,2.53.21,4.5a20.71,20.71,0,0,0,.21,4.94c.41,1.51.37,2.55,1.19,3.87a21.35,21.35,0,0,0,2.06,3.64c1.26,1.43,0,2.83,1.46,3.65s3.63-.75,5.28-.35c1.41.34,1.15,2.42,3.94,1.94,2-.33,4.62,1.65,6.5.91,1-.37,3.25-2.14,4.18-2.5,1.29-.5,2.36.79,3.35,0,2.15-1.74,2.72-3.73,3.7-6.3s2.31-1.53,2.79-4.08A11.44,11.44,0,0,0-96.59,517.14Z" transform="translate(669.61 369)"/><path class="cls-24" d="M-96.28,514.79a21.14,21.14,0,0,1-1.26-3.17c-.49-1.17,0-3.66-1-4.37-1.46-1-4-4.64-5.9-5s-3,.55-4.9.55c-2.7,0-6.8-2.67-9.09-1.65-1.23.54-3.08,3.66-4.14,4.45s-3.3,1.15-4.18,2.21c-.72.86.1,2.08-.44,3.07-.38.7-2.17,1.14-2.45,1.9-.65,1.77.21,2.53.21,4.5a21.26,21.26,0,0,0,.2,4.94c.42,1.51.38,2.55,1.19,3.87.7,1.13,1.06,2.5,2.07,3.64,1.26,1.43,0,2.83,1.46,3.65s3.63-.75,5.28-.35c1.41.34,1.15,2.42,3.94,1.94,2-.33,4.62,1.65,6.5.91,1-.37,3.25-2.14,4.18-2.5,1.29-.5,2.36.79,3.35,0,2.15-1.74,2.72-3.73,3.7-6.3s2.31-1.53,2.79-4.08A11.44,11.44,0,0,0-96.28,514.79Z" transform="translate(669.61 369)"/><path class="cls-23" d="M-104.31,505c0-.31.8-.66.58-1.17s-1.65-1.15-2.06-1.78-1.64-1.77-1.26-1.91,1.26.15,1.61-.26a1.05,1.05,0,0,0,.24-1.05c-.09-.24-.91-.74-1.12-1.06a9.32,9.32,0,0,1-.19-2.26c.46-.29,1-.56.82-.88a17.34,17.34,0,0,0-2.47-1.46c-.52-.32-.37-.41-.16-.91a2.23,2.23,0,0,1,1.23-1.33c-.45.76-1.18,1.6-.65,1.79a15.55,15.55,0,0,1,1.57.86,12.93,12.93,0,0,1,1.06,1c.13.13.63.72.21.84a2.24,2.24,0,0,0-.92.54c-.14.15-.21.29.2.88s.58,1.5.79,1.67,1,1.16.77,1.38a6.11,6.11,0,0,1-1.09.62s-1.22,0-.72.23a2.84,2.84,0,0,1,1,.87l1.61,1.41s1,.49.83.89-.22,1.2-.44,1.37.44,1.11.44,1.11l-2.47-.67Z" transform="translate(669.61 369)"/><path class="cls-24" d="M-107.74,492.71a15.55,15.55,0,0,1,1.57.86,12.93,12.93,0,0,1,1.06,1c.13.13.63.72.21.84a2.24,2.24,0,0,0-.92.54c-.14.15-.21.29.2.88s.58,1.5.79,1.67,1,1.16.77,1.38a6.11,6.11,0,0,1-1.09.62s-1.22,0-.72.23a2.84,2.84,0,0,1,1,.87l1.61,1.41s1,.49.83.89-.22,1.2-.44,1.37c0,0,0,.11,0,.19a2.49,2.49,0,0,0,.42-.51,4.89,4.89,0,0,0,.25-1.21c0-.28-.57-.62-.8-.82a3.14,3.14,0,0,0-.66-.58c-.42-.27-1.13-1.35-1.42-1.5s.14-.2.31-.25.43-.19.7-.31.2-.42.37-.53-.4-.9-.55-1.12-.29-.28-.36-.43a11.45,11.45,0,0,0-.71-1.66c-.24-.26-.11-.22-.1-.43s.72-.5.94-.58.14-.2.12-.38a4.76,4.76,0,0,0-.94-1.22,4.2,4.2,0,0,0-.57-.45c-.28-.17-1-.6-1.2-.69a2.17,2.17,0,0,1-.56-.33,2.6,2.6,0,0,1,.21-.92C-107.84,492.07-108.13,492.57-107.74,492.71Z" transform="translate(669.61 369)"/><path class="cls-23" d="M-102.24,526.42c-.12.27,3.5.57,3.73,1.33a2.6,2.6,0,0,0,1.14,1.59c.46.22,1.43-.08,2,.17s.94,0,1.83.57,4.29-.39,4.86.23.45.77,1,1.35,3.9-.09,4.18.61A2.53,2.53,0,0,0-86.3,531c-.67.28-.7.33-1.23-.26s-.58-1-1.13-1.25a4.31,4.31,0,0,0-2.16-.45c-.69.14-1.82-.41-2.66-.35a3.34,3.34,0,0,1-2.11-.68c-.39-.32-1-.32-1.36-.88A3.09,3.09,0,0,0-98.12,526c-.42-.18-1.93-.88-1.93-.88S-101.84,525.49-102.24,526.42Z" transform="translate(669.61 369)"/><g class="cls-25"><path class="cls-26" d="M-88,530.1h0a6,6,0,0,0,.5.68c.52.59.56.54,1.23.26a1.91,1.91,0,0,1,1.17,0,3.92,3.92,0,0,0-1-.43,1.32,1.32,0,0,0-.7.17.89.89,0,0,1-.57-.6C-87.53,529.64-87.78,530.12-88,530.1Z" transform="translate(669.61 369)"/><path class="cls-26" d="M-97.16,526.91a3,3,0,0,1,.21.26c.4.56,1,.56,1.36.88a3.34,3.34,0,0,0,2.11.68c.84-.06,2,.49,2.66.35a4.31,4.31,0,0,1,2.16.45.8.8,0,0,1,.24.14,3.61,3.61,0,0,1-.21-.49c-.13-.42-.63-.19-1.09-.25s-1.62-.23-2.06-.31-.49-.08-1.21-.17a3.48,3.48,0,0,1-1.11-.22,4.48,4.48,0,0,0-1-.24c-.57-.1-.53-.25-.94-.54a11.94,11.94,0,0,1-1-.8Z" transform="translate(669.61 369)"/></g><path class="cls-34" d="M-95.23,524.09c-.47,2.48-1.73,1.37-2.72,4s-1.51,4.45-3.61,6.14c-1,.78-2-.48-3.27,0-.91.36-3.15,2.09-4.09,2.45-1.83.71-4.42-1.22-6.34-.89-2.72.47-2.47-1.56-3.85-1.9-1.6-.38-3.76,1.12-5.15.34s-.19-2.17-1.42-3.55a21.53,21.53,0,0,1-2-3.56c-.79-1.29-.75-2.3-1.16-3.78a20.79,20.79,0,0,1-.2-4.82c0-1.92-.84-2.67-.21-4.39.27-.74,2-1.17,2.4-1.86.52-1-.28-2.16.42-3,.87-1,3-1.35,4.08-2.16s2.84-3.81,4-4.34c2.24-1,6.25,1.62,8.88,1.62,1.9,0,3-.87,4.79-.54s4.32,3.88,5.76,4.86c1,.69.53,3.13,1,4.27a20.51,20.51,0,0,0,1.23,3.09A11.12,11.12,0,0,1-95.23,524.09Z" transform="translate(669.61 369)"/><path class="cls-35" d="M-100.38,520.72c0,6.79-6.34,9.94-12.59,9.94s-9.81-2.58-12-9c-2.12-6.13,1.26-14.85,11.33-15.3C-107.42,506.07-100.38,513.93-100.38,520.72Z" transform="translate(669.61 369)"/><path class="cls-29" d="M-101.56,519.29c0,6.1-5.07,9.3-11,9.3s-9.1-1.53-10.57-7.46c-1.36-5.51.12-12.91,9.5-13.55C-107.72,507.18-101.56,513.19-101.56,519.29Z" transform="translate(669.61 369)"/><path class="cls-23" d="M710.1,331.08a8.09,8.09,0,0,1-2.52.12c-.81-.22-2,1.19-1.56,1.63s.53,2.18,0,2.18-3.28-.21-3.28-.21.92-1.38.81-1.75.06-.71-1.8-.83-1.58.67-2,.72.46,1.18-.4.87a12.8,12.8,0,0,0-3.16-.25,9.1,9.1,0,0,1,3,.88c.65.55,1.39-.25,1.39-.25s-.36-.8.18-.8,1.56-.42,1.32.12a11.23,11.23,0,0,0-.5,1.47,1,1,0,0,0,1.06.65,28.73,28.73,0,0,1,3.39.2c.79,0,2.39.69,2-.29s-.94-2.63-.62-2.77.49-.55,1.39-.49,1.37.2,1.49-.07S710.1,331.08,710.1,331.08Z" transform="translate(669.61 369)"/><path class="cls-24" d="M699.37,333.81c.86.31,0-.81.4-.87s.11-.84,2-.72,1.7.47,1.8.83-.81,1.75-.81,1.75,2.73.2,3.28.21.44-1.75,0-2.18.75-1.85,1.56-1.63a7.25,7.25,0,0,0,2.33-.09c0-.12-.07-.24-.17-.2s-.4,0-.59.13a12.9,12.9,0,0,1-1.51-.1c-.21,0-.5-.09-.7-.1s-.43.48-.64.74a1.84,1.84,0,0,0-.43.63,2,2,0,0,0-.15.71c0,.27.09.37.41.73s-.11.49-.16.75a.39.39,0,0,1-.25.34,1.56,1.56,0,0,1-.58,0c-.25,0-1.52-.18-1.52-.18s-.52.07-.54,0a7.41,7.41,0,0,1,.83-1.53c.2-.2,0-.46-.21-.47s-.6-.4-1-.45-.8-.08-1.21-.1a4.76,4.76,0,0,0-1.47.27.54.54,0,0,0-.29.38c0,.07-.39.09-.41.08a1,1,0,0,0,.12.55c.11.11,0,.32,0,.32l-.42-.05s-1-.16-1.07-.19-1.26.17-1.26.17h0A10.09,10.09,0,0,1,699.37,333.81Z" transform="translate(669.61 369)"/><path class="cls-23" d="M741.93,328.31a21.14,21.14,0,0,1-1.26-3.17c-.49-1.17,0-3.66-1-4.37-1.47-1-4-4.64-5.9-5s-3,.55-4.91.55c-2.69,0-6.8-2.67-9.09-1.65-1.23.54-3.08,3.66-4.14,4.45s-3.3,1.15-4.18,2.21c-.72.86.1,2.08-.43,3.07-.39.7-2.18,1.14-2.46,1.9-.65,1.77.21,2.53.21,4.5a21.25,21.25,0,0,0,.21,4.94c.41,1.51.38,2.55,1.19,3.87.69,1.13,1.05,2.5,2.07,3.64,1.26,1.43,0,2.83,1.45,3.65s3.63-.75,5.28-.35c1.41.34,1.15,2.42,3.94,1.94,2-.33,4.62,1.65,6.5.91,1-.37,3.25-2.14,4.19-2.5,1.28-.5,2.35.79,3.34,0,2.16-1.74,2.72-3.73,3.7-6.3s2.31-1.53,2.79-4.07A11.45,11.45,0,0,0,741.93,328.31Z" transform="translate(669.61 369)"/><path class="cls-24" d="M742.24,326A21.45,21.45,0,0,1,741,322.8c-.49-1.17,0-3.67-1-4.38-1.47-1-4-4.64-5.9-5s-3,.55-4.91.55c-2.69,0-6.8-2.67-9.09-1.65-1.23.54-3.08,3.66-4.14,4.45s-3.3,1.15-4.18,2.21c-.72.86.1,2.08-.43,3.07-.39.7-2.18,1.15-2.46,1.9-.65,1.77.21,2.53.21,4.5a21.25,21.25,0,0,0,.21,4.94c.41,1.51.38,2.55,1.19,3.87a21.2,21.2,0,0,0,2.07,3.65c1.26,1.42,0,2.82,1.45,3.64s3.63-.75,5.28-.35c1.41.34,1.15,2.42,3.94,1.94,2-.33,4.62,1.65,6.5.91.95-.37,3.25-2.14,4.19-2.5,1.28-.49,2.35.79,3.34,0,2.16-1.73,2.72-3.73,3.7-6.3s2.31-1.53,2.79-4.07A11.45,11.45,0,0,0,742.24,326Z" transform="translate(669.61 369)"/><path class="cls-23" d="M734.21,316.16c0-.31.8-.66.58-1.17s-1.65-1.15-2.06-1.78-1.64-1.77-1.25-1.91,1.25.15,1.6-.26a1,1,0,0,0,.24-1c-.09-.25-.9-.75-1.12-1.07a9.32,9.32,0,0,1-.19-2.26c.46-.29,1-.56.82-.88a17.34,17.34,0,0,0-2.47-1.46c-.52-.32-.37-.41-.16-.91a2.22,2.22,0,0,1,1.24-1.33c-.46.76-1.19,1.6-.66,1.79a15.55,15.55,0,0,1,1.57.86,11.48,11.48,0,0,1,1.06,1c.13.13.63.72.22.84a2.29,2.29,0,0,0-.93.54c-.14.15-.21.29.2.88s.58,1.5.8,1.68,1,1.15.76,1.37a6.11,6.11,0,0,1-1.09.62s-1.22,0-.71.23a2.87,2.87,0,0,1,1,.87l1.61,1.42s.95.48.83.88-.22,1.2-.44,1.37.44,1.11.44,1.11l-2.47-.67Z" transform="translate(669.61 369)"/><path class="cls-24" d="M730.78,303.88a15.55,15.55,0,0,1,1.57.86,11.48,11.48,0,0,1,1.06,1c.13.13.63.72.22.85a2.18,2.18,0,0,0-.93.53c-.14.15-.21.29.2.88s.58,1.5.8,1.68,1,1.15.76,1.37a6.11,6.11,0,0,1-1.09.62s-1.22,0-.71.23a2.87,2.87,0,0,1,1,.87l1.61,1.42s.95.48.83.88-.22,1.2-.44,1.37c0,0,0,.11,0,.19a2.49,2.49,0,0,0,.42-.51,5.38,5.38,0,0,0,.26-1.21c0-.27-.57-.61-.81-.82a3.46,3.46,0,0,0-.66-.58c-.42-.27-1.13-1.35-1.42-1.5s.14-.2.32-.25.42-.18.69-.31.2-.42.37-.53-.4-.9-.55-1.11-.29-.29-.36-.44a10.84,10.84,0,0,0-.71-1.66c-.24-.26-.11-.22-.1-.43s.72-.5.94-.58.14-.2.12-.38a4.71,4.71,0,0,0-.94-1.22,4.2,4.2,0,0,0-.57-.45,13,13,0,0,0-1.2-.68,2.49,2.49,0,0,1-.56-.34,2.6,2.6,0,0,1,.21-.92C730.69,303.24,730.39,303.74,730.78,303.88Z" transform="translate(669.61 369)"/><path class="cls-23" d="M736.28,337.59c-.12.27,3.5.57,3.73,1.33a2.64,2.64,0,0,0,1.14,1.59c.46.22,1.43-.08,2,.17s.94,0,1.84.57,4.29-.39,4.85.23.45.77,1.06,1.35,3.89-.09,4.17.61a2.53,2.53,0,0,0-2.87-1.23c-.66.28-.7.33-1.23-.26s-.58-1-1.13-1.25a4.38,4.38,0,0,0-2.15-.45c-.7.14-1.82-.41-2.67-.35a3.34,3.34,0,0,1-2.11-.68c-.38-.31-1-.32-1.36-.88a3.09,3.09,0,0,0-1.17-1.13l-1.93-.88S736.68,336.66,736.28,337.59Z" transform="translate(669.61 369)"/><g class="cls-25"><path class="cls-26" d="M750.5,341.27h0a7.58,7.58,0,0,0,.5.68c.53.59.57.54,1.23.26a1.94,1.94,0,0,1,1.18,0,4.11,4.11,0,0,0-1-.43,1.32,1.32,0,0,0-.7.17.87.87,0,0,1-.56-.6C751,340.81,750.74,341.29,750.5,341.27Z" transform="translate(669.61 369)"/><path class="cls-26" d="M741.36,338.08c.07.09.14.16.21.26.4.56,1,.57,1.36.88a3.34,3.34,0,0,0,2.11.68c.85-.06,2,.49,2.67.35a4.38,4.38,0,0,1,2.15.45,1.08,1.08,0,0,1,.24.14,3.61,3.61,0,0,1-.21-.49c-.13-.42-.62-.19-1.09-.25s-1.62-.22-2.06-.31a10.43,10.43,0,0,0-1.2-.16,3.48,3.48,0,0,1-1.12-.23,4.48,4.48,0,0,0-1-.24c-.57-.1-.53-.25-.94-.54a11.94,11.94,0,0,1-1-.8Z" transform="translate(669.61 369)"/></g><path class="cls-36" d="M743.29,335.26c-.47,2.48-1.73,1.37-2.72,4s-1.51,4.45-3.61,6.15c-1,.77-2-.49-3.26,0-.92.35-3.16,2.08-4.09,2.44-1.84.72-4.43-1.22-6.35-.89-2.72.47-2.47-1.56-3.85-1.89-1.6-.39-3.76,1.11-5.15.34s-.19-2.18-1.42-3.56a21.53,21.53,0,0,1-2-3.56c-.79-1.29-.75-2.3-1.16-3.78a20.77,20.77,0,0,1-.2-4.82c0-1.92-.84-2.67-.21-4.39.28-.74,2-1.17,2.4-1.86.53-1-.28-2.16.42-3,.87-1,3-1.35,4.09-2.16s2.84-3.81,4-4.34c2.24-1,6.24,1.62,8.87,1.62,1.9,0,3-.87,4.79-.54s4.33,3.88,5.76,4.86c1,.69.53,3.13,1,4.27a20.51,20.51,0,0,0,1.23,3.09A11.12,11.12,0,0,1,743.29,335.26Z" transform="translate(669.61 369)"/><path class="cls-37" d="M738.14,331.89c0,6.79-6.34,9.94-12.59,9.94s-9.8-2.58-12-9c-2.13-6.14,1.25-14.86,11.32-15.31C731.1,317.24,738.14,325.1,738.14,331.89Z" transform="translate(669.61 369)"/><path class="cls-29" d="M737,330.46c0,6.1-5.07,9.3-11,9.3s-9.1-1.53-10.56-7.45c-1.37-5.51.11-12.92,9.5-13.56C730.81,318.35,737,324.36,737,330.46Z" transform="translate(669.61 369)"/><path class="cls-23" d="M561.94,556.18a12.54,12.54,0,0,1-.41-3c.1-1.07-1.32-2-1.67-1.33s-1.93,1.42-2,.75-.21-4.07-.21-4.07,1.38.63,1.7.37.65-.18.54-2.49-.8-1.7-.9-2.15-1,1-.83-.18a21.92,21.92,0,0,0-.16-3.95,16.46,16.46,0,0,1-.45,3.92,1.37,1.37,0,0,0,.4,1.61s.68-.72.75,0,.57,1.75,0,1.64a7.88,7.88,0,0,0-1.4-.09,1.58,1.58,0,0,0-.46,1.53c.18,1,.16,3.23.23,4.21s-.35,3.16.5,2.37,2.29-2.07,2.44-1.73a2.09,2.09,0,0,1,.62,1.52c0,1.13,0,1.74.25,1.79S561.94,556.18,561.94,556.18Z" transform="translate(669.61 369)"/><path class="cls-24" d="M558.17,544.06c-.19,1.15.73-.28.83.18s.78-.16.9,2.15-.22,2.23-.54,2.49-1.7-.37-1.7-.37.15,3.41.21,4.07,1.64-.08,2-.75,1.77.26,1.67,1.33a10.66,10.66,0,0,0,.36,2.8c.11-.07.21-.16.16-.28s-.09-.46-.18-.67-.07-1.62-.1-1.88,0-.63,0-.88-.49-.36-.75-.53-.46-.32-.62-.3-.44-.07-.67.08-.33.23-.62.75-.45,0-.7.07-.27-.09-.34-.18a2.69,2.69,0,0,1-.07-.71c0-.31,0-1.92,0-1.92a3.19,3.19,0,0,1-.09-.65,4.65,4.65,0,0,1,1.5.46c.21.18.41-.21.4-.41a11,11,0,0,0,.29-1.35c0-.47,0-1-.05-1.51a6.48,6.48,0,0,0-.42-1.7.4.4,0,0,0-.38-.22c-.07,0-.13-.44-.13-.47a1.14,1.14,0,0,0-.48.34c-.09.18-.29.08-.29.08v-.53s0-1.3,0-1.38-.31-1.47-.31-1.47h0A17.28,17.28,0,0,1,558.17,544.06Z" transform="translate(669.61 369)"/><path class="cls-23" d="M577.13,564.67a21,21,0,0,1-1.26-3.16c-.49-1.17,0-3.66-1-4.37-1.47-1-4-4.64-5.9-5s-3,.55-4.91.55c-2.69,0-6.8-2.67-9.09-1.66-1.23.55-3.08,3.67-4.14,4.45s-3.29,1.16-4.18,2.21c-.72.87.11,2.09-.43,3.07-.39.71-2.18,1.15-2.46,1.91-.65,1.76.21,2.53.21,4.5a21.27,21.27,0,0,0,.21,4.94c.42,1.51.38,2.55,1.19,3.87.69,1.12,1,2.49,2.07,3.64,1.26,1.42,0,2.83,1.45,3.65s3.63-.75,5.28-.35c1.41.34,1.15,2.42,3.94,1.94,2-.34,4.62,1.64,6.5.91,1-.37,3.25-2.14,4.19-2.5,1.28-.5,2.35.79,3.34,0,2.16-1.74,2.72-3.73,3.7-6.3s2.31-1.54,2.79-4.08A11.41,11.41,0,0,0,577.13,564.67Z" transform="translate(669.61 369)"/><path class="cls-24" d="M577.44,562.32a21,21,0,0,1-1.26-3.16c-.49-1.17,0-3.66-1-4.37-1.47-1-4-4.64-5.9-5s-3,.55-4.91.55c-2.69,0-6.8-2.67-9.09-1.66-1.23.55-3.08,3.67-4.14,4.45s-3.3,1.16-4.18,2.22c-.72.86.1,2.08-.43,3.06-.39.71-2.18,1.15-2.46,1.91-.65,1.76.21,2.53.21,4.5a21.27,21.27,0,0,0,.21,4.94c.42,1.51.38,2.55,1.19,3.87.69,1.12,1.05,2.5,2.07,3.64,1.26,1.42,0,2.83,1.45,3.65s3.63-.75,5.28-.35c1.41.34,1.15,2.42,3.94,1.94,2-.34,4.62,1.64,6.5.91,1-.37,3.25-2.14,4.19-2.5,1.28-.5,2.35.79,3.34,0,2.16-1.74,2.72-3.73,3.7-6.3s2.31-1.54,2.79-4.08A11.41,11.41,0,0,0,577.44,562.32Z" transform="translate(669.61 369)"/><path class="cls-23" d="M552.81,581.07c-.24.2-1-.32-1.3.15s-.07,2-.37,2.7-.59,2.33-.92,2.09-.56-1.14-1.09-1.21a1,1,0,0,0-1,.37c-.16.21-.13,1.16-.28,1.51a9.53,9.53,0,0,1-1.8,1.39c-.49-.23-1-.56-1.18-.21a17.21,17.21,0,0,0,.12,2.87c0,.61-.15.53-.68.63a2.25,2.25,0,0,1-1.8-.31c.9,0,2,.12,1.86-.43s-.08-1.68-.13-1.78a12.57,12.57,0,0,1,.25-1.42c0-.18.26-.93.59-.64a2.33,2.33,0,0,0,.95.48c.21,0,.37,0,.64-.64s.94-1.31,1-1.58.45-1.44.74-1.39a6.07,6.07,0,0,1,1.11.57s.67,1,.58.48a2.82,2.82,0,0,1,.21-1.28l.31-2.13s-.11-1.06.29-1.17,1.13-.47,1.39-.37.69-1,.69-1l.79,2.43Z" transform="translate(669.61 369)"/><path class="cls-24" d="M544.36,590.62c-.13-.55-.08-1.68-.13-1.78a12.57,12.57,0,0,1,.25-1.42c0-.18.26-.93.59-.64a2.33,2.33,0,0,0,.95.48c.21,0,.37,0,.64-.64s.94-1.31,1-1.58.45-1.44.74-1.39a6.07,6.07,0,0,1,1.11.57s.67,1,.58.48a2.82,2.82,0,0,1,.21-1.28l.31-2.13s-.11-1.06.29-1.17,1.13-.47,1.39-.37c.06,0,.11,0,.17-.09a2.07,2.07,0,0,0-.66-.08,5.3,5.3,0,0,0-1.15.44c-.23.15-.21.82-.25,1.12a3.84,3.84,0,0,0-.13.88c0,.49-.52,1.68-.49,2s-.24,0-.38-.12a6.81,6.81,0,0,0-.63-.42c-.25-.17-.46.06-.65,0s-.54.83-.64,1.07-.08.4-.16.55a9.27,9.27,0,0,0-1,1.5c-.09.34-.13.2-.3.31s-.82-.33-1-.47-.24,0-.38.1a5.06,5.06,0,0,0-.52,1.45,6.47,6.47,0,0,0-.07.73c0,.32,0,1.14.08,1.38a2.51,2.51,0,0,1,0,.65,2.48,2.48,0,0,1-.89.32C543.88,591.05,544.46,591,544.36,590.62Z" transform="translate(669.61 369)"/><path class="cls-38" d="M578.5,571.62c-.47,2.49-1.74,1.37-2.73,4s-1.51,4.46-3.61,6.15c-1,.78-2-.48-3.26,0-.92.35-3.16,2.08-4.09,2.45-1.83.71-4.43-1.22-6.35-.89-2.72.46-2.47-1.57-3.84-1.9-1.61-.39-3.76,1.12-5.16.34s-.18-2.17-1.41-3.56a20.91,20.91,0,0,1-2-3.56c-.79-1.28-.75-2.3-1.16-3.77a20.79,20.79,0,0,1-.2-4.82c0-1.93-.84-2.67-.2-4.39.27-.75,2-1.18,2.39-1.87.53-1-.28-2.15.43-3,.86-1,3-1.35,4.08-2.16s2.84-3.81,4-4.34c2.24-1,6.24,1.61,8.88,1.61,1.9,0,3-.87,4.78-.53s4.33,3.88,5.76,4.86c1,.69.53,3.12,1,4.26a20.1,20.1,0,0,0,1.23,3.09A11.2,11.2,0,0,1,578.5,571.62Z" transform="translate(669.61 369)"/><path class="cls-39" d="M573.34,568.26c0,6.78-6.34,9.93-12.59,9.93s-9.8-2.58-12-9c-2.13-6.13,1.09-13.63,11.13-14.49C567.2,554.09,573.34,561.47,573.34,568.26Z" transform="translate(669.61 369)"/><path class="cls-29" d="M572.16,566.83c0,6.1-5.07,9.3-11,9.3s-9.11-1.54-10.57-7.46c-1.37-5.51-.11-12.07,9.27-12.71C565.78,555.56,572.16,560.72,572.16,566.83Z" transform="translate(669.61 369)"/><path class="cls-23" d="M42.73,424s.76,1.94,2.07,1.73a18.28,18.28,0,0,1,2.57-.19s1.45,1.12,1.1,2,1.13,2.16,1.13,2.16,3.12-.17,3.47.22,1.44.94,1.28,1.69-.39,3.71.32,3.65,4.09-2.42,4.6-2.67,2.22,1.61,2.22,1.61-1.92-3.1-2.54-2.95-.82,1-.82,1a12.75,12.75,0,0,1-1.46.73c-.41.14-.9.6-1,.29a6.33,6.33,0,0,1-.55-1.63c0-.53.33-1.19-.23-1.67a33.88,33.88,0,0,0-4.76-1.79,20.82,20.82,0,0,1-.5-2.32,2.85,2.85,0,0,0-1.26-1.37,7.34,7.34,0,0,0-2.65-.31c-.63,0-1.31.83-1.5-.31a6.55,6.55,0,0,0-.57-1.85Z" transform="translate(669.61 369)"/><path class="cls-24" d="M44.19,423.89c.19,1.14.87.35,1.5.31a7.34,7.34,0,0,1,2.65.31,2.85,2.85,0,0,1,1.26,1.37,20.82,20.82,0,0,0,.5,2.32A33.88,33.88,0,0,1,54.86,430c.56.48.19,1.14.23,1.67a6.33,6.33,0,0,0,.55,1.63c.13.31.62-.15,1-.29a12.75,12.75,0,0,0,1.46-.73s.2-.87.82-1c.41-.1,1.39,1.23,2,2.14-.22-.6-.46-1.23-.48-1.27A5.14,5.14,0,0,0,59.32,431a2.6,2.6,0,0,0-1,.21,3.61,3.61,0,0,0-.54.8c0,.22-.73.35-.73.35l-.76.43c-.3.15-.36-.21-.5-.33a2,2,0,0,1-.27-.82,2.16,2.16,0,0,1,.27-.89c.07-.14-.4-1-.51-1.12a2.26,2.26,0,0,0-.84-.34c-.26,0-1.69-.75-1.93-.78s-1.82-.38-1.82-.38-.49-.94-.62-1.32a4.83,4.83,0,0,1-.09-1.1,2.65,2.65,0,0,0-.29-1,9.54,9.54,0,0,0-2.59-.88,12.55,12.55,0,0,0-1.32-.06.69.69,0,0,0-.48.2,3.47,3.47,0,0,1-.58.27l-.39-1.88L44,423A5.88,5.88,0,0,1,44.19,423.89Z" transform="translate(669.61 369)"/><path class="cls-23" d="M16.4,418.37a21.54,21.54,0,0,1-3.22.11c-.74-.19-1.62,0-1.75.78s.74,1.05,1.13,1.49.61,1.72-.48,1.81a4.77,4.77,0,0,0-1.46.16,2.05,2.05,0,0,0-1.26.81c-.3.37-.2,1.17-.83.81s-.37-.82-.72-1.18-2.5-.44-2.13-.3c.59.21,1.53.46,1.53.46s.46,1.95,1.17,2,1.41-1.07,1.41-1.07.47-.55.75-.83.87-.25,1.52-.31,1.37-.21,1.37-.21.68-.67.53-.92-.44-1.75-.65-1.8c-.93-.22-1.16-1-.79-1.07a22.31,22.31,0,0,1,2.66.27,8.59,8.59,0,0,0,1.3-.1Z" transform="translate(669.61 369)"/><path class="cls-24" d="M7.81,423.16c.35.36.09.82.72,1.18s.53-.44.83-.81a2.05,2.05,0,0,1,1.26-.81,4.77,4.77,0,0,1,1.46-.16c1.09-.09.88-1.36.49-1.81s-1.26-.66-1.14-1.49,1-1,1.75-.78a12.9,12.9,0,0,0,2.74-.08c0-.16,0-.31,0-.31s-.42,0-.42.07-2.23-.22-2.34-.18-1,.1-1.13.14a1.9,1.9,0,0,0-.55.37,4,4,0,0,0-.31.9,10,10,0,0,0,.53,1,5.15,5.15,0,0,0,.5.86c.12.09,0,.47.06.56s-.57.34-.57.34a7.29,7.29,0,0,0-1,.19,7.55,7.55,0,0,1-1,.26l-.45.46s-.31.62-.32.67-.3.18-.3.18-.26-.31-.22-.38-.31-.56-.31-.56l-.7-.32-.9.18A3,3,0,0,1,7.81,423.16Z" transform="translate(669.61 369)"/><path class="cls-23" d="M47.09,414.81c-.65-1.09,1.11-2.11.61-3.32s-.12-4-1.15-4.71c-1.47-1-3.78-5.12-5.66-5.46s-2.8.8-4.75.8c-2.7,0-6.58-3.78-9-3.12-4,1.08-4.37,4.44-5.43,5.22s-3.25-.06-4.56,2.27c-.55,1-.2,1.62-.74,2.61-.38.7-1.87,1.61-2.15,2.37-.65,1.77.79,1.42.79,3.39,0,1.5-1,3.53.41,5.38.94,1.26-.41,3.23.41,4.55a21.2,21.2,0,0,0,2.07,3.65c1.26,1.42.26,1.49,1.73,2.31s2.29-.12,3.94.28c1.41.34.63,3,3.42,2.54,2-.33,6,.49,7.91-.25,1-.37,1.51.68,2.44.32,1.29-.49,1.94-2.7,2.92-3.49,2.16-1.74,3.87,1.53,4.85-1s4.17-4.42,4.65-7C50.37,419.13,48.57,417.3,47.09,414.81Z" transform="translate(669.61 369)"/><path class="cls-24" d="M46.2,412.23c-.65-1.09,1.12-2.11.62-3.32s-.13-4-1.16-4.71c-1.47-1-3.77-5.12-5.65-5.46s-2.81.8-4.75.8c-2.7,0-6.59-3.78-9-3.12-4,1.09-4.37,4.44-5.43,5.23s-3.24-.07-4.56,2.27c-.55,1-.19,1.61-.73,2.6-.39.71-1.88,1.62-2.16,2.38-.65,1.76.8,1.41.8,3.39,0,1.5-1,3.53.41,5.37.94,1.26-.41,3.24.4,4.55a21.5,21.5,0,0,0,2.07,3.65c1.26,1.43.27,1.49,1.74,2.31s2.28-.12,3.93.28c1.42.34.64,3,3.43,2.55,2-.34,6,.48,7.91-.25.95-.38,1.5.67,2.44.31,1.28-.49,1.93-2.69,2.92-3.49,2.16-1.73,3.87,1.53,4.84-1s4.18-4.42,4.66-7C49.49,416.55,47.69,414.72,46.2,412.23Z" transform="translate(669.61 369)"/><path class="cls-40" d="M48.92,421c-.47,2.49-3.55,4.19-4.54,6.8s-2.62-.68-4.72,1c-1,.77-1.6,2.92-2.85,3.4-.91.35-1.45-.67-2.38-.31-1.84.72-5.8-.08-7.72.24-2.72.47-2-2.15-3.34-2.48-1.61-.39-2.44.51-3.84-.27s-.46-.86-1.69-2.25a21.53,21.53,0,0,1-2-3.56c-.79-1.29.52-3.21-.39-4.44-1.34-1.8-.4-3.78-.4-5.24,0-1.93-1.41-1.59-.78-3.31.27-.74,1.73-1.63,2.11-2.32.52-1,.18-1.58.71-2.54,1.28-2.28,3.35-1.4,4.45-2.21s1.39-4,5.29-5.1c2.37-.64,6.15,3.05,8.79,3.05,1.9,0,2.8-1.12,4.63-.79S44.31,405,45.75,406c1,.69.65,3.45,1.12,4.59s-1.23,2.18-.6,3.25C47.72,416.25,49.48,418,48.92,421Z" transform="translate(669.61 369)"/><path class="cls-41" d="M43.14,418.39c0,6.78-6.19,8.59-12.39,9.38-7.51,1-9.33-2.5-11.55-8.91-2.12-6.14-.89-12.72,11.06-14.84C36.87,402.85,43.14,411.6,43.14,418.39Z" transform="translate(669.61 369)"/><path class="cls-29" d="M41.27,417.07c0,6.1-4.81,9.07-10.74,9.19-7.25.15-7.26-2-9.34-7.73-2.19-6-.25-11.88,9.13-12.52C36.24,405.61,41.27,411,41.27,417.07Z" transform="translate(669.61 369)"/><path class="cls-29" d="M41.2,417.07c0,6.1-4.82,9.07-10.75,9.19-7.25.15-7.26-2-9.34-7.73-2.19-6-.25-11.88,9.13-12.52C36.16,405.61,41.2,411,41.2,417.07Z" transform="translate(669.61 369)"/><path class="cls-23" d="M1151.28,397.48a8,8,0,0,1-2.51.12c-.81-.21-2,1.19-1.56,1.63s.52,2.19,0,2.18-3.27-.21-3.27-.21.91-1.38.8-1.75.06-.71-1.8-.83-1.58.67-2,.72.46,1.18-.4.87a12.78,12.78,0,0,0-3.16-.25,9.36,9.36,0,0,1,3,.88c.66.55,1.39-.25,1.39-.25s-.36-.8.19-.79,1.56-.43,1.31.11a11.23,11.23,0,0,0-.5,1.47,1,1,0,0,0,1.07.65,30.71,30.71,0,0,1,3.38.2c.79,0,2.39.7,2-.29s-.93-2.63-.62-2.76.49-.56,1.39-.49,1.37.19,1.5-.08S1151.28,397.48,1151.28,397.48Z" transform="translate(669.61 369)"/><path class="cls-24" d="M1140.55,400.21c.86.31,0-.81.4-.87s.12-.84,2-.72,1.7.47,1.8.83-.8,1.75-.8,1.75,2.73.2,3.27.21.44-1.74,0-2.18.75-1.84,1.56-1.63a6.93,6.93,0,0,0,2.32-.09c0-.12-.07-.23-.17-.2s-.39.05-.59.13a12.9,12.9,0,0,1-1.51-.1c-.21,0-.49-.09-.7-.1s-.43.49-.64.74a1.84,1.84,0,0,0-.43.63,2,2,0,0,0-.14.71c0,.27.08.37.4.73s-.11.49-.16.75a.37.37,0,0,1-.25.34,1.56,1.56,0,0,1-.58,0c-.24,0-1.51-.18-1.51-.18s-.52.07-.55,0a7.21,7.21,0,0,1,.83-1.54c.21-.2,0-.46-.2-.46s-.61-.41-1-.45-.8-.09-1.2-.11a4.94,4.94,0,0,0-1.47.27.6.6,0,0,0-.3.38c0,.07-.38.09-.4.08a1,1,0,0,0,.11.55c.11.11,0,.32,0,.32l-.41,0s-1-.16-1.08-.19-1.26.17-1.26.17h0A9.66,9.66,0,0,1,1140.55,400.21Z" transform="translate(669.61 369)"/><path class="cls-23" d="M1183.11,394.71a21.45,21.45,0,0,1-1.26-3.16c-.49-1.17,0-3.67-1-4.37-1.47-1-4-4.64-5.9-5s-3,.54-4.9.54c-2.7,0-6.8-2.67-9.1-1.65-1.23.54-3.08,3.66-4.14,4.45s-3.29,1.15-4.18,2.21c-.72.86.11,2.08-.43,3.07-.38.7-2.18,1.15-2.46,1.91-.65,1.76.22,2.52.22,4.5a21.19,21.19,0,0,0,.2,4.93c.42,1.52.38,2.55,1.19,3.87a21.2,21.2,0,0,0,2.07,3.65c1.26,1.42,0,2.82,1.45,3.64s3.64-.74,5.28-.35c1.41.34,1.15,2.42,3.94,1.94,2-.33,4.62,1.65,6.5.92,1-.38,3.25-2.15,4.19-2.51,1.28-.49,2.36.79,3.34,0,2.16-1.73,2.72-3.73,3.7-6.3s2.31-1.53,2.79-4.07A11.41,11.41,0,0,0,1183.11,394.71Z" transform="translate(669.61 369)"/><path class="cls-24" d="M1183.42,392.36a21,21,0,0,1-1.26-3.16c-.49-1.17,0-3.67-1-4.37-1.47-1-4-4.64-5.9-5s-3,.55-4.91.55c-2.69,0-6.79-2.68-9.09-1.66-1.23.54-3.08,3.66-4.14,4.45s-3.29,1.15-4.18,2.21c-.72.86.11,2.08-.43,3.07-.38.7-2.18,1.15-2.46,1.91-.65,1.76.21,2.52.21,4.5a21.19,21.19,0,0,0,.21,4.93c.42,1.52.38,2.55,1.19,3.87a21.2,21.2,0,0,0,2.07,3.65c1.26,1.42,0,2.82,1.45,3.64s3.63-.74,5.28-.35c1.41.34,1.15,2.42,3.94,1.95,2-.34,4.62,1.64,6.5.91,1-.38,3.25-2.15,4.19-2.51,1.28-.49,2.36.79,3.34,0,2.16-1.73,2.72-3.73,3.7-6.3s2.31-1.53,2.79-4.07A11.41,11.41,0,0,0,1183.42,392.36Z" transform="translate(669.61 369)"/><path class="cls-23" d="M1175.39,382.56c0-.31.8-.65.58-1.17s-1.65-1.15-2.06-1.78-1.64-1.77-1.25-1.91,1.25.15,1.6-.26a1,1,0,0,0,.24-1c-.09-.25-.9-.74-1.11-1.06a9.32,9.32,0,0,1-.19-2.26c.46-.29,1-.57.81-.89a16.32,16.32,0,0,0-2.46-1.45c-.53-.32-.37-.42-.17-.91a2.21,2.21,0,0,1,1.24-1.34c-.46.77-1.19,1.6-.65,1.79a16.3,16.3,0,0,1,1.56.86,10.33,10.33,0,0,1,1.06,1c.13.13.64.72.22.85a2.37,2.37,0,0,0-.93.53c-.14.15-.21.3.2.88s.58,1.5.8,1.68,1,1.15.76,1.37a6.1,6.1,0,0,1-1.08.62s-1.22,0-.72.23a2.87,2.87,0,0,1,1,.87l1.62,1.42s.95.48.83.88-.23,1.2-.45,1.37.44,1.11.44,1.11l-2.47-.66Z" transform="translate(669.61 369)"/><path class="cls-24" d="M1172,370.28a16.3,16.3,0,0,1,1.56.86,10.33,10.33,0,0,1,1.06,1c.13.13.64.72.22.85a2.37,2.37,0,0,0-.93.53c-.14.15-.21.3.2.88s.58,1.5.8,1.68,1,1.15.76,1.37a6.1,6.1,0,0,1-1.08.62s-1.22,0-.72.23a2.87,2.87,0,0,1,1,.87l1.62,1.42s.95.48.83.88-.23,1.2-.45,1.37c0,0,0,.11,0,.19a2,2,0,0,0,.42-.51,4.8,4.8,0,0,0,.26-1.2c0-.28-.57-.62-.8-.82a3.78,3.78,0,0,0-.66-.59c-.42-.27-1.14-1.35-1.43-1.5s.14-.2.32-.25a5.9,5.9,0,0,0,.7-.31c.27-.12.2-.41.37-.52s-.4-.9-.55-1.12-.29-.29-.37-.44a10.84,10.84,0,0,0-.71-1.66c-.24-.26-.1-.22-.1-.42s.72-.5.94-.59.14-.2.13-.38a4.94,4.94,0,0,0-.94-1.22,4.2,4.2,0,0,0-.57-.45,13,13,0,0,0-1.2-.68,2.66,2.66,0,0,1-.56-.33c-.07-.06.09-.57.21-.93C1171.87,369.65,1171.57,370.14,1172,370.28Z" transform="translate(669.61 369)"/><path class="cls-23" d="M1177.46,404c-.12.27,3.5.57,3.74,1.33a2.63,2.63,0,0,0,1.13,1.59c.47.22,1.44-.08,2,.17s1,0,1.84.57,4.29-.39,4.86.24.44.76,1,1.34,3.9-.09,4.18.62a2.55,2.55,0,0,0-2.88-1.24c-.66.28-.7.33-1.22-.26s-.59-1-1.13-1.25a4.43,4.43,0,0,0-2.16-.44c-.69.13-1.82-.42-2.66-.36a3.41,3.41,0,0,1-2.12-.67c-.38-.32-1-.33-1.35-.89a3,3,0,0,0-1.17-1.12l-1.93-.89S1177.87,403.06,1177.46,404Z" transform="translate(669.61 369)"/><g class="cls-25"><path class="cls-26" d="M1191.68,407.67h0a6,6,0,0,0,.5.68c.52.59.56.54,1.22.26a1.94,1.94,0,0,1,1.18,0,3.93,3.93,0,0,0-1-.43,1.3,1.3,0,0,0-.69.17.89.89,0,0,1-.57-.6C1192.18,407.22,1191.93,407.69,1191.68,407.67Z" transform="translate(669.61 369)"/><path class="cls-26" d="M1182.55,404.49l.21.25c.39.56,1,.57,1.35.89a3.41,3.41,0,0,0,2.12.67c.84-.06,2,.49,2.66.36a4.43,4.43,0,0,1,2.16.44,1.28,1.28,0,0,1,.23.14,3.13,3.13,0,0,1-.2-.49c-.14-.42-.63-.19-1.09-.25s-1.62-.22-2.06-.31-.49-.08-1.21-.16a3.36,3.36,0,0,1-1.11-.23,4.56,4.56,0,0,0-1-.24c-.56-.09-.53-.25-.94-.54s-1-.8-1-.8Z" transform="translate(669.61 369)"/></g><path class="cls-42" d="M1184.48,401.66c-.47,2.48-1.74,1.37-2.73,4s-1.5,4.45-3.61,6.15c-1,.77-2-.49-3.26,0-.91.35-3.16,2.08-4.09,2.44-1.83.72-4.43-1.21-6.35-.89-2.72.47-2.46-1.56-3.84-1.89-1.61-.39-3.76,1.12-5.16.34s-.18-2.17-1.41-3.56a20.83,20.83,0,0,1-2-3.56c-.79-1.29-.76-2.3-1.17-3.78a20.77,20.77,0,0,1-.2-4.82c0-1.92-.84-2.67-.2-4.39.27-.74,2-1.17,2.4-1.86.52-1-.29-2.15.42-3,.86-1,3-1.35,4.08-2.17s2.84-3.81,4-4.34c2.24-1,6.24,1.62,8.88,1.62,1.9,0,3-.87,4.78-.54s4.33,3.88,5.76,4.86c1,.69.54,3.13,1,4.27a21.62,21.62,0,0,0,1.23,3.09A11.18,11.18,0,0,1,1184.48,401.66Z" transform="translate(669.61 369)"/><path class="cls-43" d="M1179.32,398.29c0,6.79-6.33,9.94-12.59,9.94s-9.8-2.58-12-9c-2.13-6.13,1.25-14.86,11.32-15.31C1172.28,383.64,1179.32,391.51,1179.32,398.29Z" transform="translate(669.61 369)"/><path class="cls-29" d="M1178.14,396.86c0,6.1-5.07,9.3-11,9.3s-9.11-1.53-10.57-7.45c-1.36-5.51.12-12.92,9.5-13.56C1172,384.75,1178.14,390.76,1178.14,396.86Z" transform="translate(669.61 369)"/></g></g></svg>