<svg xmlns="http://www.w3.org/2000/svg" xmlns:xlink="http://www.w3.org/1999/xlink" width="1080" zoomAndPan="magnify" viewBox="0 0 810 809.999993" height="1080" preserveAspectRatio="xMidYMid meet" version="1.0"><defs><filter x="0%" y="0%" width="100%" height="100%" id="feccf5a310"><feColorMatrix values="0 0 0 0 1 0 0 0 0 1 0 0 0 0 1 0 0 0 1 0" color-interpolation-filters="sRGB"/></filter><g/><mask id="a98d1bab8f"><g filter="url(#feccf5a310)"><rect x="-81" width="972" fill="#000000" y="-80.999999" height="971.999992" fill-opacity="0.0588"/></g></mask><clipPath id="c66605201f"><rect x="0" width="788" y="0" height="458"/></clipPath></defs><g mask="url(#a98d1bab8f)"><g transform="matrix(1, 0, 0, 1, 13, 191)"><g clip-path="url(#c66605201f)"><g fill="#273468" fill-opacity="1"><g transform="translate(0.515507, 236.501551)"><g><path d="M 88.238281 59.707031 C 88.828125 60.003906 89.414062 60.003906 89.710938 60.003906 C 90.589844 60.003906 91.472656 59.414062 92.0625 58.238281 C 92.355469 57.355469 92.0625 55.882812 91.179688 55.003906 C 88.828125 52.355469 83.238281 45.882812 79.707031 41.472656 C 70.589844 30.882812 58.238281 15.589844 58.53125 15 C 58.53125 15 59.121094 13.824219 60.003906 12.941406 C 77.945312 -9.707031 87.355469 -50.882812 87.355469 -79.121094 C 87.355469 -97.945312 84.710938 -114.710938 80.003906 -124.121094 C 75.589844 -133.828125 63.824219 -145.59375 58.824219 -145.59375 C 55.296875 -145.300781 52.941406 -143.242188 53.824219 -140.300781 C 54.414062 -139.121094 55.296875 -138.535156 57.355469 -138.242188 C 59.121094 -137.945312 60.589844 -137.0625 63.824219 -133.535156 C 71.765625 -125.300781 75.296875 -117.652344 77.0625 -104.710938 C 78.238281 -96.769531 78.53125 -91.769531 78.828125 -80.886719 C 78.828125 -53.238281 71.765625 -23.824219 57.648438 0 C 55.589844 3.53125 52.648438 7.351562 52.355469 7.351562 C 52.0625 7.351562 36.765625 -12.351562 36.765625 -12.941406 C 36.765625 -12.941406 37.355469 -12.941406 37.941406 -12.941406 C 39.707031 -13.234375 42.058594 -13.53125 42.941406 -14.117188 C 43.824219 -14.707031 43.824219 -15.589844 43.53125 -16.472656 C 43.238281 -16.765625 43.238281 -17.058594 42.648438 -17.058594 C 42.058594 -17.058594 41.472656 -16.765625 40.589844 -16.765625 C 38.53125 -16.765625 37.355469 -16.765625 36.179688 -17.058594 C 35.296875 -17.355469 34.414062 -17.648438 33.53125 -17.648438 C 32.941406 -17.648438 32.355469 -17.355469 31.765625 -17.058594 C 28.53125 -15 30.589844 -10.589844 42.355469 5 C 45.296875 8.824219 47.648438 12.058594 47.648438 12.351562 C 44.121094 15.882812 38.824219 18.234375 33.824219 18.234375 C 31.472656 17.648438 28.824219 16.472656 27.058594 14.707031 C 22.058594 9.707031 19.414062 1.46875 17.648438 -13.53125 C 17.058594 -17.941406 17.058594 -38.824219 17.648438 -44.414062 C 20 -74.121094 25.589844 -100.59375 34.707031 -123.828125 C 39.707031 -136.179688 59.414062 -180.890625 76.179688 -182.066406 C 80.003906 -182.066406 82.945312 -178.535156 84.710938 -175.300781 C 87.0625 -171.183594 87.648438 -170.300781 88.828125 -170.300781 C 88.828125 -170.300781 89.121094 -170.300781 89.414062 -170.300781 C 90.296875 -170.59375 90.003906 -171.769531 87.945312 -176.476562 C 85.296875 -181.773438 82.648438 -186.476562 76.179688 -186.476562 C 69.414062 -186.476562 61.179688 -180.59375 52.941406 -169.710938 C 25.589844 -133.242188 13.234375 -85.003906 9.117188 -40 C 8.824219 -33.824219 8.824219 -14.707031 9.414062 -9.707031 C 11.175781 5 16.175781 27.355469 35.296875 27.355469 C 40.296875 27.355469 45.882812 25.589844 51.179688 21.472656 C 52.355469 20.292969 53.53125 19.707031 53.824219 19.707031 C 53.824219 19.707031 56.765625 23.234375 60.003906 27.355469 C 73.53125 44.121094 86.179688 58.238281 88.238281 59.707031 Z M 88.238281 59.707031 "/></g></g></g><g fill="#273468" fill-opacity="1"><g transform="translate(95.80494, 236.501551)"><g><path d="M 6.472656 -31.472656 C 6.472656 -27.058594 5.882812 -13.53125 12.351562 -13.53125 C 12.941406 -13.53125 13.53125 -13.53125 14.117188 -13.824219 C 16.175781 -14.707031 17.648438 -17.058594 19.117188 -18.53125 L 29.707031 -37.058594 C 30.589844 -38.824219 35.589844 -48.824219 36.765625 -49.707031 C 37.058594 -44.707031 40.882812 -35 48.238281 -35 C 55.882812 -35 59.707031 -37.648438 67.0625 -42.355469 C 69.414062 -43.824219 79.414062 -50.589844 79.414062 -53.53125 C 79.414062 -54.707031 78.828125 -55.003906 78.238281 -55.003906 C 76.472656 -55.003906 73.53125 -52.355469 72.648438 -51.765625 C 68.238281 -47.941406 54.707031 -39.414062 49.707031 -39.414062 C 39.707031 -39.414062 43.238281 -57.355469 37.941406 -57.355469 C 33.824219 -57.355469 30.882812 -48.53125 27.941406 -43.824219 C 25.589844 -40 16.175781 -20.292969 12.351562 -19.117188 C 12.058594 -22.058594 10.882812 -25 10.882812 -30 C 10.882812 -36.472656 12.058594 -43.824219 12.941406 -48.824219 C 13.824219 -51.765625 14.707031 -54.121094 15.882812 -57.0625 C 17.058594 -61.179688 18.53125 -63.238281 19.117188 -64.414062 C 20.292969 -64.414062 20.292969 -64.121094 21.765625 -64.121094 C 22.355469 -66.472656 21.472656 -67.945312 19.707031 -67.945312 C 12.648438 -67.945312 6.472656 -37.058594 6.472656 -31.472656 Z M 6.472656 -31.472656 "/></g></g></g><g fill="#273468" fill-opacity="1"><g transform="translate(160.50763, 236.501551)"><g><path d="M 19.117188 -6.175781 C 20 -6.175781 20.882812 -5.882812 21.765625 -5.882812 C 30 -5.882812 41.179688 -10.882812 50.882812 -19.117188 C 57.355469 -24.117188 70.003906 -35.589844 70.886719 -36.765625 C 71.765625 -38.238281 70.886719 -40.296875 69.121094 -40.296875 C 68.824219 -40.296875 68.53125 -40 68.238281 -40 C 67.355469 -39.707031 64.707031 -37.355469 54.707031 -29.707031 C 51.179688 -27.058594 47.355469 -24.117188 46.179688 -23.234375 C 37.648438 -17.058594 28.53125 -13.53125 22.058594 -13.53125 C 17.355469 -13.53125 11.765625 -15.292969 9.707031 -19.707031 C 9.117188 -21.175781 7.941406 -24.117188 8.234375 -24.414062 C 8.53125 -24.414062 9.414062 -24.707031 10.292969 -24.707031 C 19.117188 -26.765625 33.238281 -38.53125 33.238281 -48.824219 C 33.53125 -51.472656 33.238281 -52.941406 32.058594 -55.003906 C 30.882812 -57.648438 28.824219 -58.824219 25.882812 -59.121094 C 13.53125 -59.121094 4.410156 -43.53125 2.058594 -32.941406 C 1.765625 -30.882812 1.765625 -30 1.765625 -26.472656 C 1.765625 -17.355469 3.824219 -15.292969 9.707031 -9.414062 C 12.351562 -7.648438 15.882812 -6.472656 19.117188 -6.175781 Z M 10.882812 -28.824219 C 9.117188 -28.238281 8.234375 -27.941406 7.941406 -28.238281 C 7.941406 -28.238281 7.941406 -29.414062 8.234375 -30.296875 C 9.117188 -37.355469 12.058594 -43.824219 16.175781 -48.238281 C 19.414062 -51.179688 23.53125 -53.824219 25.296875 -53.824219 C 28.238281 -53.824219 29.414062 -49.707031 27.648438 -45 C 25 -38.53125 17.355469 -30.882812 10.882812 -28.824219 Z M 10.882812 -28.824219 "/></g></g></g><g fill="#273468" fill-opacity="1"><g transform="translate(221.681086, 236.501551)"><g><path d="M 9.707031 -9.414062 C 9.707031 -12.648438 9.414062 -14.117188 9.414062 -16.175781 C 8.824219 -19.117188 9.707031 -19.414062 9.707031 -22.648438 C 10 -29.117188 10.589844 -53.238281 14.707031 -57.648438 C 15 -57.648438 16.765625 -58.238281 16.765625 -59.707031 C 16.765625 -62.355469 15.589844 -64.707031 13.824219 -64.707031 C 12.058594 -64.707031 10 -62.0625 8.234375 -53.824219 C 6.472656 -45 -3.53125 5 9.117188 5 C 14.414062 5 17.355469 -8.234375 19.117188 -12.941406 C 21.175781 -20 23.53125 -26.765625 26.175781 -33.824219 L 42.355469 -72.648438 C 42.355469 -72.648438 42.648438 -72.945312 42.648438 -73.238281 C 42.648438 -59.121094 40 -0.589844 48.824219 5 C 50 5.589844 51.179688 6.175781 52.0625 6.175781 C 55.882812 6.175781 58.53125 1.46875 60.296875 -1.765625 L 71.179688 -22.941406 C 72.648438 -25.296875 73.53125 -26.765625 75.003906 -29.707031 C 76.769531 -32.941406 80.886719 -41.472656 83.238281 -42.941406 C 83.828125 -35 92.0625 -15 104.121094 -15 C 115.296875 -15 134.710938 -29.414062 134.710938 -33.238281 C 134.710938 -35.296875 133.828125 -35.882812 132.652344 -35.882812 C 127.359375 -35.882812 112.945312 -22.058594 104.710938 -22.058594 C 91.769531 -22.058594 92.355469 -49.707031 84.710938 -51.765625 C 84.414062 -51.765625 84.121094 -52.0625 83.53125 -52.0625 C 78.828125 -52.0625 75.296875 -43.238281 73.238281 -39.707031 C 72.0625 -37.648438 71.472656 -36.472656 70.296875 -34.117188 L 64.414062 -23.234375 C 62.355469 -19.117188 60.882812 -15.882812 58.824219 -12.351562 C 57.0625 -9.414062 54.707031 -3.53125 52.355469 -1.765625 C 52.0625 -5.292969 51.179688 -7.941406 50.882812 -11.765625 C 50.589844 -23.234375 49.707031 -33.238281 50.296875 -46.472656 L 50.882812 -69.707031 C 50.882812 -77.648438 52.0625 -88.53125 45.296875 -88.53125 C 39.707031 -88.53125 36.472656 -78.53125 33.53125 -71.765625 C 28.53125 -60.003906 21.175781 -42.941406 17.355469 -30.882812 Z M 9.707031 -9.414062 "/></g></g></g><g fill="#273468" fill-opacity="1"><g transform="translate(347.557262, 236.501551)"><g/></g></g><g fill="#273468" fill-opacity="1"><g transform="translate(412.848157, 236.501551)"><g><path d="M -3.234375 56.765625 C -3.234375 42.648438 8.53125 24.707031 16.765625 14.414062 C 18.53125 12.351562 25.296875 4.410156 27.058594 3.234375 C 27.058594 12.058594 26.765625 17.941406 25 25.296875 C 22.355469 35.589844 13.234375 60.003906 2.351562 62.648438 C -1.765625 62.648438 -3.234375 62.0625 -3.234375 56.765625 Z M -3.234375 -51.179688 C -3.234375 -38.824219 11.765625 -31.472656 20.589844 -18.234375 C 22.355469 -15.292969 25.589844 -8.234375 25.589844 -3.824219 C 23.53125 -3.234375 16.175781 5.882812 14.117188 8.234375 C 3.824219 20.292969 -9.707031 39.707031 -9.707031 57.355469 C -9.707031 64.414062 -5.292969 69.414062 1.175781 69.414062 C 7.058594 69.414062 14.414062 65.296875 21.175781 54.121094 C 29.117188 40.882812 37.355469 18.53125 34.707031 0.882812 C 33.53125 -6.765625 33.824219 -2.648438 42.058594 -10.882812 L 56.765625 -23.234375 C 59.414062 -25.296875 61.765625 -27.058594 64.414062 -28.824219 C 67.0625 -30.882812 69.414062 -32.941406 72.355469 -35 C 75.296875 -36.765625 77.355469 -38.824219 80.003906 -40.296875 C 81.769531 -41.472656 87.648438 -44.707031 87.648438 -46.765625 C 87.648438 -48.238281 86.769531 -49.121094 85.589844 -49.121094 C 79.414062 -49.121094 60.882812 -33.53125 57.648438 -31.175781 C 54.707031 -29.117188 34.707031 -12.058594 32.058594 -11.175781 C 31.472656 -16.472656 25.882812 -24.414062 22.648438 -27.941406 C 9.117188 -44.121094 -6.175781 -45.296875 8.234375 -64.414062 C 10.292969 -67.0625 14.117188 -71.179688 18.824219 -71.472656 C 18.53125 -70.589844 15.589844 -66.472656 19.414062 -66.472656 C 23.234375 -66.472656 24.707031 -75.589844 17.355469 -75.589844 C 10 -75.589844 -3.234375 -60.882812 -3.234375 -51.179688 Z M -3.234375 -51.179688 "/></g></g></g><g fill="#273468" fill-opacity="1"><g transform="translate(488.726751, 236.501551)"><g><path d="M 15.882812 -11.472656 C 10.292969 -11.472656 9.414062 -28.53125 9.414062 -34.414062 C 9.414062 -39.117188 10.589844 -59.707031 16.472656 -59.707031 C 29.414062 -59.707031 32.355469 -48.53125 30 -36.179688 C 28.824219 -29.707031 20.882812 -11.472656 15.882812 -11.472656 Z M 15 -3.824219 C 26.765625 -3.824219 35.882812 -25.589844 37.648438 -35 C 40.589844 -50.589844 35.589844 -66.179688 17.058594 -66.765625 C 17.648438 -68.53125 19.117188 -71.472656 20.292969 -72.648438 C 21.175781 -73.828125 21.472656 -74.121094 21.765625 -74.121094 C 22.058594 -74.121094 22.058594 -73.53125 22.941406 -73.828125 C 25.296875 -74.121094 25.589844 -73.53125 25.589844 -76.472656 C 25.589844 -77.945312 24.414062 -79.414062 22.355469 -79.414062 C 20.292969 -79.414062 17.648438 -77.648438 14.707031 -72.648438 C 12.941406 -69.707031 12.058594 -66.765625 10 -64.121094 C 9.414062 -63.53125 9.414062 -63.53125 9.414062 -63.53125 C 9.117188 -63.53125 9.414062 -64.121094 8.53125 -62.648438 L 3.824219 -42.941406 C 2.648438 -35 2.058594 -27.355469 3.53125 -19.707031 C 4.707031 -12.941406 7.941406 -3.824219 15 -3.824219 Z M 15 -3.824219 "/></g></g></g><g fill="#273468" fill-opacity="1"><g transform="translate(531.077604, 236.501551)"><g><path d="M 9.707031 -9.414062 C 9.707031 -12.648438 9.414062 -14.117188 9.414062 -16.175781 C 8.824219 -19.117188 9.707031 -19.414062 9.707031 -22.648438 C 10 -29.117188 10.589844 -53.238281 14.707031 -57.648438 C 15 -57.648438 16.765625 -58.238281 16.765625 -59.707031 C 16.765625 -62.355469 15.589844 -64.707031 13.824219 -64.707031 C 12.058594 -64.707031 10 -62.0625 8.234375 -53.824219 C 6.472656 -45 -3.53125 5 9.117188 5 C 14.414062 5 17.355469 -8.234375 19.117188 -12.941406 C 21.175781 -20 23.53125 -26.765625 26.175781 -33.824219 L 42.355469 -72.648438 C 42.355469 -72.648438 42.648438 -72.945312 42.648438 -73.238281 C 42.648438 -59.121094 40 -0.589844 48.824219 5 C 50 5.589844 51.179688 6.175781 52.0625 6.175781 C 55.882812 6.175781 58.53125 1.46875 60.296875 -1.765625 L 71.179688 -22.941406 C 72.648438 -25.296875 73.53125 -26.765625 75.003906 -29.707031 C 76.769531 -32.941406 80.886719 -41.472656 83.238281 -42.941406 C 83.828125 -35 92.0625 -15 104.121094 -15 C 115.296875 -15 134.710938 -29.414062 134.710938 -33.238281 C 134.710938 -35.296875 133.828125 -35.882812 132.652344 -35.882812 C 127.359375 -35.882812 112.945312 -22.058594 104.710938 -22.058594 C 91.769531 -22.058594 92.355469 -49.707031 84.710938 -51.765625 C 84.414062 -51.765625 84.121094 -52.0625 83.53125 -52.0625 C 78.828125 -52.0625 75.296875 -43.238281 73.238281 -39.707031 C 72.0625 -37.648438 71.472656 -36.472656 70.296875 -34.117188 L 64.414062 -23.234375 C 62.355469 -19.117188 60.882812 -15.882812 58.824219 -12.351562 C 57.0625 -9.414062 54.707031 -3.53125 52.355469 -1.765625 C 52.0625 -5.292969 51.179688 -7.941406 50.882812 -11.765625 C 50.589844 -23.234375 49.707031 -33.238281 50.296875 -46.472656 L 50.882812 -69.707031 C 50.882812 -77.648438 52.0625 -88.53125 45.296875 -88.53125 C 39.707031 -88.53125 36.472656 -78.53125 33.53125 -71.765625 C 28.53125 -60.003906 21.175781 -42.941406 17.355469 -30.882812 Z M 9.707031 -9.414062 "/></g></g></g><g fill="#273468" fill-opacity="1"><g transform="translate(656.95375, 236.501551)"><g><path d="M 15.882812 -11.472656 C 10.292969 -11.472656 9.414062 -28.53125 9.414062 -34.414062 C 9.414062 -39.117188 10.589844 -59.707031 16.472656 -59.707031 C 29.414062 -59.707031 32.355469 -48.53125 30 -36.179688 C 28.824219 -29.707031 20.882812 -11.472656 15.882812 -11.472656 Z M 15 -3.824219 C 26.765625 -3.824219 35.882812 -25.589844 37.648438 -35 C 40.589844 -50.589844 35.589844 -66.179688 17.058594 -66.765625 C 17.648438 -68.53125 19.117188 -71.472656 20.292969 -72.648438 C 21.175781 -73.828125 21.472656 -74.121094 21.765625 -74.121094 C 22.058594 -74.121094 22.058594 -73.53125 22.941406 -73.828125 C 25.296875 -74.121094 25.589844 -73.53125 25.589844 -76.472656 C 25.589844 -77.945312 24.414062 -79.414062 22.355469 -79.414062 C 20.292969 -79.414062 17.648438 -77.648438 14.707031 -72.648438 C 12.941406 -69.707031 12.058594 -66.765625 10 -64.121094 C 9.414062 -63.53125 9.414062 -63.53125 9.414062 -63.53125 C 9.117188 -63.53125 9.414062 -64.121094 8.53125 -62.648438 L 3.824219 -42.941406 C 2.648438 -35 2.058594 -27.355469 3.53125 -19.707031 C 4.707031 -12.941406 7.941406 -3.824219 15 -3.824219 Z M 15 -3.824219 "/></g></g></g><g fill="#273468" fill-opacity="1"><g transform="translate(699.304602, 236.501551)"><g><path d="M -3.234375 56.765625 C -3.234375 42.648438 8.53125 24.707031 16.765625 14.414062 C 18.53125 12.351562 25.296875 4.410156 27.058594 3.234375 C 27.058594 12.058594 26.765625 17.941406 25 25.296875 C 22.355469 35.589844 13.234375 60.003906 2.351562 62.648438 C -1.765625 62.648438 -3.234375 62.0625 -3.234375 56.765625 Z M -3.234375 -51.179688 C -3.234375 -38.824219 11.765625 -31.472656 20.589844 -18.234375 C 22.355469 -15.292969 25.589844 -8.234375 25.589844 -3.824219 C 23.53125 -3.234375 16.175781 5.882812 14.117188 8.234375 C 3.824219 20.292969 -9.707031 39.707031 -9.707031 57.355469 C -9.707031 64.414062 -5.292969 69.414062 1.175781 69.414062 C 7.058594 69.414062 14.414062 65.296875 21.175781 54.121094 C 29.117188 40.882812 37.355469 18.53125 34.707031 0.882812 C 33.53125 -6.765625 33.824219 -2.648438 42.058594 -10.882812 L 56.765625 -23.234375 C 59.414062 -25.296875 61.765625 -27.058594 64.414062 -28.824219 C 67.0625 -30.882812 69.414062 -32.941406 72.355469 -35 C 75.296875 -36.765625 77.355469 -38.824219 80.003906 -40.296875 C 81.769531 -41.472656 87.648438 -44.707031 87.648438 -46.765625 C 87.648438 -48.238281 86.769531 -49.121094 85.589844 -49.121094 C 79.414062 -49.121094 60.882812 -33.53125 57.648438 -31.175781 C 54.707031 -29.117188 34.707031 -12.058594 32.058594 -11.175781 C 31.472656 -16.472656 25.882812 -24.414062 22.648438 -27.941406 C 9.117188 -44.121094 -6.175781 -45.296875 8.234375 -64.414062 C 10.292969 -67.0625 14.117188 -71.179688 18.824219 -71.472656 C 18.53125 -70.589844 15.589844 -66.472656 19.414062 -66.472656 C 23.234375 -66.472656 24.707031 -75.589844 17.355469 -75.589844 C 10 -75.589844 -3.234375 -60.882812 -3.234375 -51.179688 Z M -3.234375 -51.179688 "/></g></g></g></g></g></g></svg>