<svg xmlns="http://www.w3.org/2000/svg" xmlns:xlink="http://www.w3.org/1999/xlink" width="1080" zoomAndPan="magnify" viewBox="0 0 810 809.999993" height="1080" preserveAspectRatio="xMidYMid meet" version="1.0"><defs><filter x="0%" y="0%" width="100%" height="100%" id="93f4e11594"><feColorMatrix values="0 0 0 0 1 0 0 0 0 1 0 0 0 0 1 0 0 0 1 0" color-interpolation-filters="sRGB"/></filter><g/><mask id="19d1dba5aa"><g filter="url(#93f4e11594)"><rect x="-81" width="972" fill="#000000" y="-80.999999" height="971.999992" fill-opacity="0.0588"/></g></mask><clipPath id="86e37fbfec"><rect x="0" width="787" y="0" height="720"/></clipPath></defs><g mask="url(#19d1dba5aa)"><g transform="matrix(1, 0, 0, 1, 5, 90)"><g clip-path="url(#86e37fbfec)"><g fill="#273468" fill-opacity="1"><g transform="translate(32.702377, 407.09613)"><g><path d="M -30.351562 -166.929688 C -30.351562 -158.835938 -28.832031 -150.742188 -15.175781 -150.742188 C -9.609375 -150.742188 -6.070312 -151.246094 -1.011719 -152.765625 C 4.550781 -153.269531 7.082031 -153.777344 5.5625 -159.339844 C 1.515625 -159.339844 -6.574219 -157.316406 -13.152344 -157.316406 C -20.234375 -157.316406 -25.796875 -159.847656 -23.269531 -169.457031 C -17.703125 -191.210938 11.128906 -219.03125 28.328125 -231.675781 C 32.878906 -236.230469 50.585938 -249.886719 55.136719 -250.898438 C 50.585938 -240.277344 50.078125 -75.371094 50.078125 -60.195312 C 50.078125 -57.160156 50.585938 -57.160156 50.585938 -55.136719 C 46.539062 -54.632812 36.421875 -50.585938 28.328125 -50.078125 C 27.820312 -50.078125 24.28125 -51.089844 20.234375 -51.089844 C 15.679688 -51.089844 10.621094 -49.574219 11.632812 -43.503906 C 13.152344 -35.410156 23.269531 -38.445312 29.84375 -35.914062 L 50.585938 -29.339844 C 50.585938 -20.738281 50.078125 -6.574219 51.089844 1.011719 C 52.101562 9.609375 50.585938 21.246094 52.609375 31.363281 C 54.632812 46.03125 50.585938 83.96875 62.21875 83.96875 C 66.773438 83.96875 65.761719 77.394531 65.761719 75.371094 L 62.21875 -25.292969 C 71.324219 -21.75 163.386719 4.046875 176.539062 8.597656 C 183.621094 10.117188 190.199219 12.140625 196.773438 13.65625 C 201.328125 14.667969 204.363281 15.679688 206.890625 15.679688 C 209.925781 15.679688 212.453125 14.164062 214.476562 9.609375 C 210.429688 5.058594 204.867188 5.058594 196.269531 3.035156 C 176.539062 -1.515625 157.316406 -8.09375 138.09375 -13.65625 L 72.335938 -35.410156 C 68.289062 -36.421875 66.265625 -37.433594 62.21875 -37.9375 L 62.21875 -46.03125 C 82.957031 -51.089844 136.074219 -84.476562 154.28125 -99.652344 C 167.433594 -110.273438 180.585938 -121.402344 192.726562 -133.542969 C 196.773438 -138.09375 199.808594 -141.636719 204.363281 -146.1875 C 224.59375 -166.929688 253.933594 -211.949219 253.933594 -242.804688 C 253.933594 -287.320312 212.960938 -301.988281 175.023438 -301.988281 C 141.636719 -301.988281 106.734375 -291.367188 80.429688 -278.71875 C 77.394531 -276.191406 72.839844 -273.660156 69.804688 -273.15625 C 69.804688 -281.25 71.828125 -274.671875 72.335938 -284.789062 L 76.886719 -310.589844 C 77.394531 -315.648438 75.371094 -319.695312 72.839844 -319.695312 C 63.738281 -319.695312 58.679688 -277.203125 58.171875 -270.628906 C 56.65625 -262.535156 52.609375 -263.546875 40.972656 -255.453125 C 22.257812 -241.792969 6.574219 -227.628906 -9.105469 -210.429688 C -15.175781 -202.84375 -30.351562 -180.082031 -30.351562 -166.929688 Z M 63.738281 -136.074219 L 63.738281 -161.363281 C 63.738281 -166.421875 64.242188 -167.433594 64.242188 -173 C 64.242188 -177.550781 63.738281 -182.609375 64.242188 -186.152344 L 68.289062 -259.5 C 98.132812 -277.707031 138.601562 -289.34375 173 -289.34375 C 197.785156 -289.34375 240.277344 -280.742188 240.277344 -248.371094 L 240.277344 -240.277344 C 240.277344 -219.03125 221.558594 -190.199219 212.960938 -178.058594 L 193.234375 -153.269531 C 188.679688 -149.222656 183.117188 -141.636719 176.539062 -136.074219 C 150.742188 -114.828125 140.625 -102.6875 106.734375 -82.957031 C 102.6875 -79.921875 97.628906 -76.886719 93.074219 -74.863281 L 77.898438 -66.773438 C 72.839844 -64.242188 67.785156 -62.21875 62.21875 -60.195312 L 62.21875 -111.285156 C 62.21875 -120.390625 63.738281 -126.460938 63.738281 -136.074219 Z M 63.738281 -136.074219 "/></g></g></g><g fill="#273468" fill-opacity="1"><g transform="translate(215.802328, 407.09613)"><g><path d="M 32.878906 -10.621094 C 34.398438 -10.621094 35.914062 -10.117188 37.433594 -10.117188 C 51.597656 -10.117188 70.816406 -18.714844 87.511719 -32.878906 C 98.640625 -41.480469 120.390625 -61.207031 121.910156 -63.230469 C 123.425781 -65.761719 121.910156 -69.300781 118.875 -69.300781 C 118.367188 -69.300781 117.863281 -68.792969 117.355469 -68.792969 C 115.839844 -68.289062 111.285156 -64.242188 94.085938 -51.089844 C 88.015625 -46.539062 81.441406 -41.480469 79.417969 -39.960938 C 64.75 -29.339844 49.066406 -23.269531 37.9375 -23.269531 C 29.84375 -23.269531 20.234375 -26.304688 16.691406 -33.890625 C 15.679688 -36.421875 13.65625 -41.480469 14.164062 -41.984375 C 14.667969 -41.984375 16.1875 -42.492188 17.703125 -42.492188 C 32.878906 -46.03125 57.160156 -66.265625 57.160156 -83.96875 C 57.667969 -88.523438 57.160156 -91.050781 55.136719 -94.59375 C 53.113281 -99.144531 49.574219 -101.167969 44.515625 -101.675781 C 23.269531 -101.675781 7.585938 -74.863281 3.539062 -56.65625 C 3.035156 -53.113281 3.035156 -51.597656 3.035156 -45.527344 C 3.035156 -29.84375 6.574219 -26.304688 16.691406 -16.1875 C 21.246094 -13.152344 27.316406 -11.128906 32.878906 -10.621094 Z M 18.714844 -49.574219 C 15.679688 -48.5625 14.164062 -48.054688 13.65625 -48.5625 C 13.65625 -48.5625 13.65625 -50.585938 14.164062 -52.101562 C 15.679688 -64.242188 20.738281 -75.371094 27.820312 -82.957031 C 33.386719 -88.015625 40.46875 -92.570312 43.503906 -92.570312 C 48.5625 -92.570312 50.585938 -85.488281 47.550781 -77.394531 C 42.996094 -66.265625 29.84375 -53.113281 18.714844 -49.574219 Z M 18.714844 -49.574219 "/></g></g></g><g fill="#273468" fill-opacity="1"><g transform="translate(321.008906, 407.09613)"><g><path d="M 33.890625 30.855469 C 59.183594 30.855469 79.417969 -58.171875 82.957031 -75.875 C 84.476562 -83.464844 85.488281 -90.546875 87.003906 -97.628906 C 88.523438 -108.25 91.558594 -110.78125 84.476562 -116.851562 C 76.886719 -114.828125 77.394531 -110.78125 75.371094 -103.191406 C 70.3125 -80.429688 69.804688 -70.3125 63.230469 -46.03125 C 58.679688 -29.339844 44.515625 11.632812 33.890625 18.714844 C 32.375 16.1875 31.363281 14.667969 30.351562 11.632812 C 23.269531 -5.5625 19.726562 -37.433594 18.210938 -55.644531 C 16.691406 -75.371094 17.199219 -99.652344 14.164062 -118.875 C 13.152344 -126.96875 12.140625 -131.015625 8.597656 -136.074219 L 2.527344 -136.074219 C 0.503906 -126.96875 4.550781 -135.566406 6.574219 -117.863281 C 9.105469 -93.582031 5.5625 -60.703125 8.09375 -44.007812 C 10.117188 -30.351562 12.140625 30.855469 33.890625 30.855469 Z M 33.890625 30.855469 "/></g></g></g><g fill="#273468" fill-opacity="1"><g transform="translate(413.064681, 407.09613)"><g><path d="M 5.058594 -47.550781 C 5.058594 -31.867188 3.035156 6.070312 23.773438 6.070312 C 30.855469 6.070312 42.492188 -3.035156 46.03125 -7.082031 C 55.644531 -16.1875 89.027344 -60.703125 89.027344 -71.324219 C 89.027344 -71.828125 86.5 -73.851562 84.980469 -74.359375 C 84.476562 -74.359375 83.96875 -74.359375 83.96875 -74.359375 C 81.441406 -74.359375 81.441406 -72.839844 79.921875 -71.324219 L 59.183594 -38.949219 C 50.585938 -27.316406 41.984375 -14.667969 29.84375 -7.082031 C 27.820312 -6.070312 26.304688 -5.5625 24.785156 -5.5625 C 21.75 -5.5625 20.234375 -8.597656 18.714844 -13.65625 C 18.210938 -16.691406 17.703125 -20.234375 16.691406 -24.28125 C 13.65625 -40.972656 14.667969 -79.921875 18.210938 -94.59375 C 18.714844 -94.59375 19.222656 -94.085938 20.738281 -94.085938 C 21.246094 -94.085938 22.257812 -94.085938 23.773438 -94.59375 C 23.773438 -100.664062 24.785156 -111.285156 18.714844 -111.285156 C 9.609375 -111.285156 5.058594 -56.65625 5.058594 -47.550781 Z M 15.175781 -146.695312 C 15.175781 -143.152344 18.714844 -141.128906 22.761719 -141.128906 C 25.796875 -141.128906 28.328125 -142.140625 29.84375 -145.683594 L 31.867188 -152.765625 C 28.832031 -154.789062 26.304688 -155.292969 24.28125 -155.292969 C 17.703125 -155.292969 15.175781 -147.199219 15.175781 -146.695312 Z M 15.175781 -146.695312 "/></g></g></g><g fill="#273468" fill-opacity="1"><g transform="translate(481.8536, 407.09613)"><g><path d="M 32.878906 -10.621094 C 34.398438 -10.621094 35.914062 -10.117188 37.433594 -10.117188 C 51.597656 -10.117188 70.816406 -18.714844 87.511719 -32.878906 C 98.640625 -41.480469 120.390625 -61.207031 121.910156 -63.230469 C 123.425781 -65.761719 121.910156 -69.300781 118.875 -69.300781 C 118.367188 -69.300781 117.863281 -68.792969 117.355469 -68.792969 C 115.839844 -68.289062 111.285156 -64.242188 94.085938 -51.089844 C 88.015625 -46.539062 81.441406 -41.480469 79.417969 -39.960938 C 64.75 -29.339844 49.066406 -23.269531 37.9375 -23.269531 C 29.84375 -23.269531 20.234375 -26.304688 16.691406 -33.890625 C 15.679688 -36.421875 13.65625 -41.480469 14.164062 -41.984375 C 14.667969 -41.984375 16.1875 -42.492188 17.703125 -42.492188 C 32.878906 -46.03125 57.160156 -66.265625 57.160156 -83.96875 C 57.667969 -88.523438 57.160156 -91.050781 55.136719 -94.59375 C 53.113281 -99.144531 49.574219 -101.167969 44.515625 -101.675781 C 23.269531 -101.675781 7.585938 -74.863281 3.539062 -56.65625 C 3.035156 -53.113281 3.035156 -51.597656 3.035156 -45.527344 C 3.035156 -29.84375 6.574219 -26.304688 16.691406 -16.1875 C 21.246094 -13.152344 27.316406 -11.128906 32.878906 -10.621094 Z M 18.714844 -49.574219 C 15.679688 -48.5625 14.164062 -48.054688 13.65625 -48.5625 C 13.65625 -48.5625 13.65625 -50.585938 14.164062 -52.101562 C 15.679688 -64.242188 20.738281 -75.371094 27.820312 -82.957031 C 33.386719 -88.015625 40.46875 -92.570312 43.503906 -92.570312 C 48.5625 -92.570312 50.585938 -85.488281 47.550781 -77.394531 C 42.996094 -66.265625 29.84375 -53.113281 18.714844 -49.574219 Z M 18.714844 -49.574219 "/></g></g></g><g fill="#273468" fill-opacity="1"><g transform="translate(587.060178, 407.09613)"><g><path d="M 123.933594 38.445312 C 116.851562 38.445312 110.273438 20.234375 107.746094 13.65625 C 96.617188 -19.726562 98.640625 -63.738281 98.640625 -101.167969 C 94.59375 -103.699219 96.617188 -104.710938 90.039062 -104.710938 C 84.980469 -104.710938 76.382812 -81.441406 72.839844 -74.359375 L 40.972656 -7.585938 C 36.925781 0.503906 28.328125 18.210938 21.75 22.761719 C 21.246094 18.210938 20.234375 14.667969 19.222656 9.609375 C 18.210938 5.058594 18.714844 0 18.210938 -6.070312 C 16.691406 -16.1875 18.210938 -52.609375 18.210938 -68.792969 C 18.210938 -75.875 19.222656 -78.910156 19.222656 -84.476562 C 19.222656 -87.511719 18.714844 -90.039062 18.714844 -91.558594 C 18.714844 -98.640625 23.773438 -126.96875 12.644531 -125.449219 C 9.609375 -124.945312 10.621094 -124.945312 9.609375 -124.4375 C 4.046875 -119.886719 4.550781 -109.261719 5.058594 -103.699219 C 8.09375 -102.179688 6.070312 -102.179688 11.128906 -102.179688 L 7.082031 -56.65625 C 5.5625 -33.890625 3.035156 -5.5625 8.09375 17.199219 C 9.609375 24.28125 12.644531 35.410156 21.75 35.410156 C 38.949219 35.410156 56.148438 -12.644531 63.738281 -27.820312 L 83.96875 -68.792969 C 85.488281 -71.324219 84.476562 -69.804688 85.488281 -70.816406 C 85.488281 -42.996094 87.003906 -21.246094 91.558594 2.023438 C 95.097656 17.199219 105.722656 50.078125 122.921875 50.078125 C 137.082031 50.078125 145.175781 39.457031 152.257812 26.808594 C 168.953125 -1.515625 186.152344 -53.113281 186.152344 -89.027344 C 186.152344 -95.605469 188.175781 -144.164062 179.070312 -144.164062 C 168.445312 -144.164062 174.011719 -128.992188 174.515625 -120.390625 C 175.527344 -77.898438 169.457031 -33.890625 150.742188 4.046875 C 146.1875 12.644531 134.554688 38.445312 123.933594 38.445312 Z M 123.933594 38.445312 "/></g></g></g></g></g></g></svg>