<svg xmlns="http://www.w3.org/2000/svg" xmlns:xlink="http://www.w3.org/1999/xlink" width="1080" zoomAndPan="magnify" viewBox="0 0 810 809.999993" height="1080" preserveAspectRatio="xMidYMid meet" version="1.0"><defs><filter x="0%" y="0%" width="100%" height="100%" id="e66af4f7db"><feColorMatrix values="0 0 0 0 1 0 0 0 0 1 0 0 0 0 1 0 0 0 1 0" color-interpolation-filters="sRGB"/></filter><g/><mask id="b3541e44cd"><g filter="url(#e66af4f7db)"><rect x="-81" width="972" fill="#000000" y="-80.999999" height="971.999992" fill-opacity="0.0588"/></g></mask><clipPath id="1fa47c7399"><rect x="0" width="807" y="0" height="731"/></clipPath></defs><g mask="url(#b3541e44cd)"><g transform="matrix(1, 0, 0, 1, 0, 79)"><g clip-path="url(#1fa47c7399)"><g fill="#273468" fill-opacity="1"><g transform="translate(39.699377, 378.861056)"><g><path d="M -5.183594 90.960938 C -5.183594 68.335938 13.667969 39.589844 26.863281 23.09375 C 29.691406 19.792969 40.53125 7.070312 43.359375 5.183594 C 43.359375 19.324219 42.886719 28.75 40.058594 40.53125 C 35.820312 57.027344 21.207031 96.144531 3.769531 100.386719 C -2.828125 100.386719 -5.183594 99.441406 -5.183594 90.960938 Z M -5.183594 -82.003906 C -5.183594 -62.210938 18.851562 -50.429688 32.992188 -29.21875 C 35.820312 -24.507812 41.003906 -13.195312 41.003906 -6.125 C 37.703125 -5.183594 25.921875 9.425781 22.621094 13.195312 C 6.125 32.519531 -15.554688 63.625 -15.554688 91.902344 C -15.554688 103.214844 -8.484375 111.226562 1.886719 111.226562 C 11.3125 111.226562 23.09375 104.628906 33.933594 86.71875 C 46.660156 65.511719 59.855469 29.691406 55.613281 1.414062 C 53.726562 -10.839844 54.199219 -4.242188 67.394531 -17.4375 L 90.960938 -37.230469 C 95.203125 -40.53125 98.972656 -43.359375 103.214844 -46.1875 C 107.457031 -49.484375 111.226562 -52.785156 115.9375 -56.085938 C 120.652344 -58.910156 123.949219 -62.210938 128.191406 -64.566406 C 131.019531 -66.453125 140.445312 -71.636719 140.445312 -74.9375 C 140.445312 -77.292969 139.03125 -78.707031 137.148438 -78.707031 C 127.25 -78.707031 97.558594 -53.726562 92.375 -49.957031 C 87.660156 -46.660156 55.613281 -19.324219 51.371094 -17.910156 C 50.429688 -26.390625 41.472656 -39.117188 36.289062 -44.773438 C 14.609375 -70.695312 -9.898438 -72.578125 13.195312 -103.214844 C 16.496094 -107.457031 22.621094 -114.054688 30.164062 -114.523438 C 29.691406 -113.109375 24.980469 -106.511719 31.105469 -106.511719 C 37.230469 -106.511719 39.589844 -121.121094 27.804688 -121.121094 C 16.023438 -121.121094 -5.183594 -97.558594 -5.183594 -82.003906 Z M -5.183594 -82.003906 "/></g></g></g><g fill="#273468" fill-opacity="1"><g transform="translate(161.283028, 378.861056)"><g><path d="M 30.632812 -9.898438 C 32.046875 -9.898438 33.460938 -9.425781 34.875 -9.425781 C 48.070312 -9.425781 65.980469 -17.4375 81.535156 -30.632812 C 91.902344 -38.644531 112.167969 -57.027344 113.582031 -58.910156 C 114.996094 -61.269531 113.582031 -64.566406 110.753906 -64.566406 C 110.28125 -64.566406 109.8125 -64.097656 109.339844 -64.097656 C 107.925781 -63.625 103.683594 -59.855469 87.660156 -47.601562 C 82.003906 -43.359375 75.878906 -38.644531 73.992188 -37.230469 C 60.324219 -27.335938 45.714844 -21.679688 35.347656 -21.679688 C 27.804688 -21.679688 18.851562 -24.507812 15.554688 -31.578125 C 14.609375 -33.933594 12.726562 -38.644531 13.195312 -39.117188 C 13.667969 -39.117188 15.082031 -39.589844 16.496094 -39.589844 C 30.632812 -42.886719 53.257812 -61.738281 53.257812 -78.234375 C 53.726562 -82.476562 53.257812 -84.832031 51.371094 -88.132812 C 49.484375 -92.375 46.1875 -94.257812 41.472656 -94.730469 C 21.679688 -94.730469 7.070312 -69.75 3.300781 -52.785156 C 2.828125 -49.484375 2.828125 -48.070312 2.828125 -42.417969 C 2.828125 -27.804688 6.125 -24.507812 15.554688 -15.082031 C 19.792969 -12.253906 25.449219 -10.367188 30.632812 -9.898438 Z M 17.4375 -46.1875 C 14.609375 -45.246094 13.195312 -44.773438 12.726562 -45.246094 C 12.726562 -45.246094 12.726562 -47.128906 13.195312 -48.542969 C 14.609375 -59.855469 19.324219 -70.222656 25.921875 -77.292969 C 31.105469 -82.003906 37.703125 -86.246094 40.53125 -86.246094 C 45.246094 -86.246094 47.128906 -79.648438 44.300781 -72.109375 C 40.058594 -61.738281 27.804688 -49.484375 17.4375 -46.1875 Z M 17.4375 -46.1875 "/></g></g></g><g fill="#273468" fill-opacity="1"><g transform="translate(259.303944, 378.861056)"><g><path d="M -1.414062 25.449219 C -1.414062 32.992188 2.828125 37.703125 7.070312 37.703125 C 8.953125 37.703125 10.839844 36.761719 12.726562 34.875 C 21.207031 24.507812 5.65625 -1.886719 38.644531 -36.289062 C 44.300781 -41.945312 47.601562 -46.660156 53.726562 -51.84375 C 59.855469 -57.96875 65.039062 -62.210938 70.222656 -68.335938 C 76.351562 -73.523438 80.589844 -77.765625 87.660156 -82.476562 C 92.375 -86.71875 92.375 -85.777344 97.558594 -88.132812 C 108.871094 -91.429688 109.8125 -102.742188 99.441406 -102.742188 C 93.789062 -102.742188 85.304688 -99.441406 73.050781 -90.015625 C 69.28125 -86.71875 66.453125 -84.832031 63.152344 -82.003906 L 34.40625 -56.554688 C 31.105469 -53.257812 28.75 -50.898438 25.921875 -47.601562 C 23.09375 -43.832031 20.265625 -40.53125 17.4375 -36.761719 C 16.496094 -43.359375 19.324219 -97.558594 24.980469 -106.984375 C 24.980469 -106.984375 36.289062 -120.652344 21.207031 -120.652344 C 13.195312 -120.652344 11.3125 -100.386719 10.367188 -90.960938 Z M -1.414062 25.449219 "/></g></g></g><g fill="#273468" fill-opacity="1"><g transform="translate(361.094891, 378.861056)"><g><path d="M 31.578125 28.75 C 55.140625 28.75 73.992188 -54.199219 77.292969 -70.695312 C 78.707031 -77.765625 79.648438 -84.363281 81.0625 -90.960938 C 82.476562 -100.855469 85.304688 -103.214844 78.707031 -108.871094 C 71.636719 -106.984375 72.109375 -103.214844 70.222656 -96.144531 C 65.511719 -74.9375 65.039062 -65.511719 58.910156 -42.886719 C 54.671875 -27.335938 41.472656 10.839844 31.578125 17.4375 C 30.164062 15.082031 29.21875 13.667969 28.277344 10.839844 C 21.679688 -5.183594 18.378906 -34.875 16.964844 -51.84375 C 15.554688 -70.222656 16.023438 -92.84375 13.195312 -110.753906 C 12.253906 -118.296875 11.3125 -122.066406 8.011719 -126.777344 L 2.355469 -126.777344 C 0.472656 -118.296875 4.242188 -126.308594 6.125 -109.8125 C 8.484375 -87.191406 5.183594 -56.554688 7.539062 -41.003906 C 9.425781 -28.277344 11.3125 28.75 31.578125 28.75 Z M 31.578125 28.75 "/></g></g></g><g fill="#273468" fill-opacity="1"><g transform="translate(446.863211, 378.861056)"><g><path d="M 4.714844 -44.300781 C 4.714844 -29.691406 2.828125 5.65625 22.152344 5.65625 C 28.75 5.65625 39.589844 -2.828125 42.886719 -6.597656 C 51.84375 -15.082031 82.949219 -56.554688 82.949219 -66.453125 C 82.949219 -66.925781 80.589844 -68.808594 79.175781 -69.28125 C 78.707031 -69.28125 78.234375 -69.28125 78.234375 -69.28125 C 75.878906 -69.28125 75.878906 -67.867188 74.464844 -66.453125 L 55.140625 -36.289062 C 47.128906 -25.449219 39.117188 -13.667969 27.804688 -6.597656 C 25.921875 -5.65625 24.507812 -5.183594 23.09375 -5.183594 C 20.265625 -5.183594 18.851562 -8.011719 17.4375 -12.726562 C 16.964844 -15.554688 16.496094 -18.851562 15.554688 -22.621094 C 12.726562 -38.175781 13.667969 -74.464844 16.964844 -88.132812 C 17.4375 -88.132812 17.910156 -87.660156 19.324219 -87.660156 C 19.792969 -87.660156 20.738281 -87.660156 22.152344 -88.132812 C 22.152344 -93.789062 23.09375 -103.683594 17.4375 -103.683594 C 8.953125 -103.683594 4.714844 -52.785156 4.714844 -44.300781 Z M 14.140625 -136.675781 C 14.140625 -133.375 17.4375 -131.492188 21.207031 -131.492188 C 24.035156 -131.492188 26.390625 -132.433594 27.804688 -135.734375 L 29.691406 -142.332031 C 26.863281 -144.214844 24.507812 -144.6875 22.621094 -144.6875 C 16.496094 -144.6875 14.140625 -137.148438 14.140625 -136.675781 Z M 14.140625 -136.675781 "/></g></g></g><g fill="#273468" fill-opacity="1"><g transform="translate(510.953813, 378.861056)"><g><path d="M 96.617188 -59.382812 C 96.617188 -61.269531 95.671875 -62.210938 95.203125 -62.683594 C 94.257812 -62.683594 92.375 -62.210938 91.429688 -61.738281 L 84.832031 -54.199219 C 75.878906 -42.886719 32.992188 3.769531 18.378906 3.769531 C 15.082031 3.769531 12.726562 1.886719 10.839844 -1.414062 C 5.183594 -11.78125 6.125 -33.933594 14.140625 -58.910156 C 17.910156 -72.109375 37.230469 -120.652344 52.785156 -120.652344 C 56.554688 -120.652344 59.382812 -116.882812 60.796875 -113.582031 C 62.683594 -108.398438 62.210938 -100.386719 59.382812 -91.902344 C 57.496094 -85.304688 44.773438 -55.613281 35.820312 -55.613281 C 35.347656 -55.613281 34.875 -56.085938 34.875 -56.554688 C 34.875 -57.496094 33.933594 -57.96875 33.460938 -57.96875 C 32.519531 -57.96875 31.578125 -57.496094 30.632812 -56.085938 C 29.21875 -54.671875 29.21875 -52.785156 30.632812 -51.371094 C 31.578125 -49.957031 32.992188 -49.484375 34.40625 -49.484375 C 48.542969 -49.484375 62.683594 -80.589844 65.980469 -90.960938 C 69.28125 -101.800781 69.75 -110.753906 66.925781 -117.824219 C 64.566406 -124.894531 59.382812 -128.664062 53.726562 -128.664062 C 24.507812 -128.664062 0.472656 -53.257812 -2.355469 -29.691406 C -2.828125 -23.09375 -2.828125 -10.367188 -1.886719 -6.125 C 0 2.828125 3.300781 8.484375 7.070312 11.78125 C 6.125 16.964844 5.183594 25.449219 7.539062 31.105469 C 9.898438 36.289062 15.554688 39.117188 20.265625 42.417969 C 25.449219 44.773438 30.632812 48.070312 30.632812 51.371094 C 30.632812 58.441406 10.367188 70.222656 2.828125 70.222656 C 0.941406 70.222656 -0.472656 69.75 -0.941406 68.808594 C -2.355469 66.925781 -4.242188 66.453125 -6.125 66.453125 C -7.539062 66.453125 -8.953125 66.925781 -9.898438 67.394531 C -12.726562 69.28125 -13.195312 73.523438 -11.3125 76.351562 C -9.425781 78.707031 -5.65625 82.949219 2.355469 82.949219 C 4.714844 82.949219 8.011719 82.476562 11.78125 81.0625 C 24.980469 77.292969 42.886719 64.097656 42.886719 51.84375 C 43.359375 41.003906 33.460938 35.347656 26.863281 31.105469 C 24.035156 30.164062 19.324219 27.335938 18.851562 25.921875 C 17.910156 23.566406 18.851562 16.964844 19.792969 13.195312 C 22.621094 12.726562 25.449219 11.78125 27.335938 10.839844 C 30.632812 8.953125 35.820312 5.183594 40.058594 2.355469 C 59.382812 -14.140625 80.589844 -34.875 95.203125 -55.613281 C 96.617188 -57.96875 97.085938 -58.441406 96.617188 -59.382812 Z M 96.617188 -59.382812 "/></g></g></g><g fill="#273468" fill-opacity="1"><g transform="translate(595.779626, 378.861056)"><g><path d="M 25.449219 -18.378906 C 16.496094 -18.378906 15.082031 -45.714844 15.082031 -55.140625 C 15.082031 -62.683594 16.964844 -95.671875 26.390625 -95.671875 C 47.128906 -95.671875 51.84375 -77.765625 48.070312 -57.96875 C 46.1875 -47.601562 33.460938 -18.378906 25.449219 -18.378906 Z M 24.035156 -6.125 C 42.886719 -6.125 57.496094 -41.003906 60.324219 -56.085938 C 65.039062 -81.0625 57.027344 -106.042969 27.335938 -106.984375 C 28.277344 -109.8125 30.632812 -114.523438 32.519531 -116.410156 C 33.933594 -118.296875 34.40625 -118.765625 34.875 -118.765625 C 35.347656 -118.765625 35.347656 -117.824219 36.761719 -118.296875 C 40.53125 -118.765625 41.003906 -117.824219 41.003906 -122.535156 C 41.003906 -124.894531 39.117188 -127.25 35.820312 -127.25 C 32.519531 -127.25 28.277344 -124.421875 23.566406 -116.410156 C 20.738281 -111.695312 19.324219 -106.984375 16.023438 -102.742188 C 15.082031 -101.800781 15.082031 -101.800781 15.082031 -101.800781 C 14.609375 -101.800781 15.082031 -102.742188 13.667969 -100.386719 L 6.125 -68.808594 C 4.242188 -56.085938 3.300781 -43.832031 5.65625 -31.578125 C 7.539062 -20.738281 12.726562 -6.125 24.035156 -6.125 Z M 24.035156 -6.125 "/></g></g></g><g fill="#273468" fill-opacity="1"><g transform="translate(663.640258, 378.861056)"><g><path d="M -5.183594 90.960938 C -5.183594 68.335938 13.667969 39.589844 26.863281 23.09375 C 29.691406 19.792969 40.53125 7.070312 43.359375 5.183594 C 43.359375 19.324219 42.886719 28.75 40.058594 40.53125 C 35.820312 57.027344 21.207031 96.144531 3.769531 100.386719 C -2.828125 100.386719 -5.183594 99.441406 -5.183594 90.960938 Z M -5.183594 -82.003906 C -5.183594 -62.210938 18.851562 -50.429688 32.992188 -29.21875 C 35.820312 -24.507812 41.003906 -13.195312 41.003906 -6.125 C 37.703125 -5.183594 25.921875 9.425781 22.621094 13.195312 C 6.125 32.519531 -15.554688 63.625 -15.554688 91.902344 C -15.554688 103.214844 -8.484375 111.226562 1.886719 111.226562 C 11.3125 111.226562 23.09375 104.628906 33.933594 86.71875 C 46.660156 65.511719 59.855469 29.691406 55.613281 1.414062 C 53.726562 -10.839844 54.199219 -4.242188 67.394531 -17.4375 L 90.960938 -37.230469 C 95.203125 -40.53125 98.972656 -43.359375 103.214844 -46.1875 C 107.457031 -49.484375 111.226562 -52.785156 115.9375 -56.085938 C 120.652344 -58.910156 123.949219 -62.210938 128.191406 -64.566406 C 131.019531 -66.453125 140.445312 -71.636719 140.445312 -74.9375 C 140.445312 -77.292969 139.03125 -78.707031 137.148438 -78.707031 C 127.25 -78.707031 97.558594 -53.726562 92.375 -49.957031 C 87.660156 -46.660156 55.613281 -19.324219 51.371094 -17.910156 C 50.429688 -26.390625 41.472656 -39.117188 36.289062 -44.773438 C 14.609375 -70.695312 -9.898438 -72.578125 13.195312 -103.214844 C 16.496094 -107.457031 22.621094 -114.054688 30.164062 -114.523438 C 29.691406 -113.109375 24.980469 -106.511719 31.105469 -106.511719 C 37.230469 -106.511719 39.589844 -121.121094 27.804688 -121.121094 C 16.023438 -121.121094 -5.183594 -97.558594 -5.183594 -82.003906 Z M -5.183594 -82.003906 "/></g></g></g></g></g></g></svg>