<svg xmlns="http://www.w3.org/2000/svg" xmlns:xlink="http://www.w3.org/1999/xlink" width="1080" zoomAndPan="magnify" viewBox="0 0 810 809.999993" height="1080" preserveAspectRatio="xMidYMid meet" version="1.0"><defs><clipPath id="137fdb298f"><path d="M 34.015625 21.679688 L 775.765625 21.679688 L 775.765625 788 L 34.015625 788 Z M 34.015625 21.679688 " clip-rule="nonzero"/></clipPath></defs><g clip-path="url(#137fdb298f)"><path fill="#ffffff" d="M 411.550781 784.851562 C 408.21875 788.179688 403.222656 788.179688 399.894531 784.851562 L 38.535156 430.3125 C 36.871094 428.648438 36.035156 426.984375 36.035156 424.488281 L 34.371094 371.222656 C 34.371094 368.726562 35.203125 367.0625 36.871094 365.398438 C 38.535156 363.734375 40.199219 362.902344 42.699219 362.902344 L 184.242188 362.902344 C 186.742188 362.902344 188.40625 363.734375 190.070312 365.398438 L 406.554688 580.117188 L 621.371094 363.734375 C 623.035156 362.070312 624.703125 361.238281 627.199219 361.238281 L 732.941406 361.238281 C 735.441406 361.238281 738.769531 362.902344 739.605469 365.398438 L 773.742188 418.664062 C 775.40625 421.160156 775.40625 423.65625 774.574219 426.152344 C 774.574219 426.984375 773.742188 428.648438 772.910156 429.480469 Z M 34.371094 30.003906 L 36.035156 84.097656 C 36.035156 86.59375 36.871094 88.261719 38.535156 89.925781 L 399.894531 444.460938 C 403.222656 447.789062 408.21875 447.789062 411.550781 444.460938 L 772.910156 89.925781 C 773.742188 89.09375 774.574219 88.261719 774.574219 86.59375 C 775.40625 84.097656 775.40625 80.769531 773.742188 79.105469 L 739.605469 25.839844 C 738.769531 23.34375 735.441406 21.679688 732.941406 21.679688 L 627.199219 21.679688 C 624.703125 21.679688 623.035156 22.511719 621.371094 24.175781 L 406.554688 238.898438 L 190.070312 24.175781 C 188.40625 22.511719 186.742188 21.679688 184.242188 21.679688 L 42.699219 21.679688 C 40.199219 21.679688 38.535156 22.511719 36.871094 24.175781 C 35.203125 25.839844 34.371094 27.507812 34.371094 30.003906 Z M 34.371094 30.003906 " fill-opacity="1" fill-rule="nonzero"/></g></svg>