<svg xmlns="http://www.w3.org/2000/svg" xmlns:xlink="http://www.w3.org/1999/xlink" width="1080" zoomAndPan="magnify" viewBox="0 0 810 809.999993" height="1080" preserveAspectRatio="xMidYMid meet" version="1.0"><defs><clipPath id="2113986c44"><path d="M 48.140625 34.140625 L 789.890625 34.140625 L 789.890625 775.890625 L 48.140625 775.890625 Z M 48.140625 34.140625 " clip-rule="nonzero"/></clipPath></defs><g clip-path="url(#2113986c44)"><path fill="#ffffff" d="M 419.449219 34.140625 C 215.246094 34.140625 49.011719 200.230469 48.9375 404.433594 C 48.902344 469.707031 65.996094 533.429688 98.414062 589.582031 L 48.140625 775.890625 L 242.199219 730.035156 C 296.308594 759.558594 357.222656 775.054688 419.234375 775.09375 L 419.378906 775.09375 C 623.546875 775.09375 789.707031 608.964844 789.820312 404.796875 C 789.894531 305.808594 751.402344 212.742188 681.453125 142.722656 C 611.507812 72.738281 518.546875 34.175781 419.449219 34.140625 Z M 419.378906 108.3125 C 498.597656 108.351562 573.042969 139.238281 629.011719 195.164062 C 684.976562 251.167969 715.71875 325.578125 715.644531 404.722656 C 715.570312 568.058594 582.714844 700.917969 419.304688 700.917969 C 369.867188 700.878906 320.898438 688.464844 277.765625 664.914062 L 252.773438 651.296875 L 225.175781 657.816406 L 152.160156 675.058594 L 169.980469 608.851562 L 178.019531 579.152344 L 162.664062 552.496094 C 136.777344 507.691406 123.074219 456.46875 123.113281 404.433594 C 123.1875 241.175781 256.082031 108.3125 419.378906 108.3125 Z M 288.339844 233.484375 C 282.148438 233.484375 272.132812 235.800781 263.640625 245.074219 C 255.148438 254.308594 231.1875 276.675781 231.1875 322.21875 C 231.1875 367.761719 264.363281 411.785156 269 417.980469 C 273.597656 424.136719 333.039062 520.550781 427.128906 557.636719 C 505.308594 588.457031 521.1875 582.375 538.175781 580.816406 C 555.160156 579.296875 592.972656 558.46875 600.6875 536.847656 C 608.402344 515.226562 608.417969 496.625 606.121094 492.808594 C 603.820312 488.949219 597.644531 486.648438 588.371094 482.015625 C 579.136719 477.378906 533.628906 455.03125 525.136719 451.953125 C 516.644531 448.875 510.429688 447.316406 504.273438 456.589844 C 498.117188 465.859375 480.425781 486.648438 475.011719 492.808594 C 469.59375 499 464.214844 499.832031 454.945312 495.195312 C 445.671875 490.523438 415.863281 480.722656 380.480469 449.199219 C 352.960938 424.683594 334.390625 394.4375 328.976562 385.167969 C 323.601562 375.929688 328.472656 370.859375 333.105469 366.261719 C 337.261719 362.105469 342.304688 355.449219 346.941406 350.035156 C 351.539062 344.621094 353.136719 340.761719 356.214844 334.605469 C 359.292969 328.449219 357.714844 323.015625 355.417969 318.378906 C 353.117188 313.742188 335.109375 268.03125 326.878906 249.710938 C 319.941406 234.320312 312.617188 233.960938 306.015625 233.703125 C 300.636719 233.480469 294.496094 233.484375 288.339844 233.484375 Z M 288.339844 233.484375 " fill-opacity="1" fill-rule="nonzero"/></g></svg>