<svg xmlns="http://www.w3.org/2000/svg" xmlns:xlink="http://www.w3.org/1999/xlink" width="1080" zoomAndPan="magnify" viewBox="0 0 810 809.999993" height="1080" preserveAspectRatio="xMidYMid meet" version="1.0"><defs><clipPath id="id1"><path d="M 59 57.9375 L 751 57.9375 L 751 751.6875 L 59 751.6875 Z M 59 57.9375 " clip-rule="nonzero"/></clipPath></defs><g clip-path="url(#id1)"><path fill="#fff" d="M 649.582031 158.777344 C 584.640625 93.777344 498.28125 57.96875 406.253906 57.9375 C 216.667969 57.9375 62.34375 212.203125 62.257812 401.789062 C 62.226562 462.386719 78.058594 521.570312 108.171875 573.703125 L 59.378906 751.917969 L 241.738281 704.105469 C 291.972656 731.507812 348.566406 745.929688 406.136719 745.960938 L 406.28125 745.960938 C 595.867188 745.960938 750.191406 591.695312 750.277344 402.078125 C 750.277344 310.191406 714.527344 223.777344 649.582031 158.777344 Z M 406.253906 687.871094 L 406.136719 687.871094 C 354.839844 687.839844 304.523438 674.082031 260.621094 648.027344 L 250.171875 641.839844 L 141.964844 670.222656 L 170.839844 564.75 L 164.046875 553.925781 C 135.429688 508.414062 120.320312 455.824219 120.320312 401.820312 C 120.375 244.214844 248.648438 116.03125 406.339844 116.03125 C 482.710938 116.058594 554.503906 145.824219 608.476562 199.855469 C 662.449219 253.886719 692.160156 325.679688 692.128906 402.050781 C 692.101562 559.65625 563.859375 687.871094 406.253906 687.871094 Z M 563.082031 473.8125 C 554.472656 469.523438 512.214844 448.710938 504.355469 445.863281 C 496.46875 442.984375 490.742188 441.574219 485.011719 450.152344 C 479.285156 458.757812 462.816406 478.105469 457.808594 483.832031 C 452.800781 489.558594 447.792969 490.28125 439.183594 485.992188 C 430.578125 481.703125 402.886719 472.605469 370.070312 443.328125 C 344.507812 420.558594 327.261719 392.40625 322.253906 383.800781 C 317.246094 375.191406 321.707031 370.558594 326.027344 366.269531 C 329.882812 362.410156 334.632812 356.222656 338.921875 351.214844 C 343.210938 346.203125 344.648438 342.605469 347.527344 336.878906 C 350.40625 331.148438 348.96875 326.113281 346.808594 321.824219 C 344.648438 317.535156 327.464844 275.21875 320.296875 258.03125 C 313.332031 241.277344 306.21875 243.550781 300.953125 243.292969 C 295.945312 243.035156 290.214844 243.003906 284.488281 243.003906 C 278.757812 243.003906 269.429688 245.164062 261.574219 253.773438 C 253.714844 262.378906 231.492188 283.164062 231.492188 325.449219 C 231.492188 367.738281 262.292969 408.613281 266.582031 414.34375 C 270.871094 420.070312 327.175781 506.859375 413.421875 544.082031 C 433.917969 552.917969 449.949219 558.214844 462.414062 562.1875 C 482.996094 568.722656 501.738281 567.800781 516.5625 565.585938 C 533.085938 563.109375 567.425781 544.800781 574.566406 524.738281 C 581.734375 504.671875 581.734375 487.460938 579.574219 483.890625 C 577.417969 480.261719 571.6875 478.105469 563.082031 473.8125 Z M 563.082031 473.8125 " fill-opacity="1" fill-rule="nonzero"/></g></svg>